M48
INCH,TZ
T1C0.0157
T2C0.0315
T3C0.0393
T4C0.0394
T5C0.0472
T6C0.0906
T7C0.0984
T8C0.0669
T9C0.0984
%
G90
G05
T1
X35039Y-31890
X35039Y-33071
X35039Y-37008
X35039Y-38189
X35039Y-43701
X35039Y-44488
X35039Y-47244
X35039Y-48425
X35039Y-49606
X35039Y-50787
X35433Y-31496
X36614Y-31496
X37598Y-50566
X37795Y-31496
X37980Y-50753
X38200Y-52100
X38386Y-43629
X38976Y-31496
X40156Y-40822
X40214Y-37598
X40232Y-43696
X40354Y-40228
X41545Y-49458
X41826Y-46621
X42321Y-38092
X42569Y-38414
X43291Y-41548
X43432Y-52032
X43663Y-39039
X43769Y-36909
X43827Y-37921
X43838Y-39620
X44215Y-49846
X44417Y-36970
X44420Y-35807
X44882Y-31496
X45497Y-34521
X46063Y-31496
X46342Y-51638
X46924Y-47091
X47244Y-31496
X47481Y-48867
X47602Y-38386
X48719Y-49232
X51969Y-31496
X53150Y-31496
X53543Y-31890
X53543Y-33071
X53543Y-34252
X53543Y-38583
X53543Y-39764
X53543Y-43307
X53543Y-44488
X53543Y-46850
X53543Y-48031
X53543Y-49213
X53543Y-50394
X53543Y-51575
T2
X42094Y-40945
X43094Y-40945
X44094Y-40945
T3
X36732Y-53240
X37732Y-53240
X38732Y-53240
X39732Y-53240
X40732Y-45240
X40732Y-53240
X41732Y-45240
X41732Y-53240
X42732Y-45240
X42732Y-53240
X43732Y-45240
X43732Y-53240
X44732Y-45240
X44732Y-53240
X45732Y-45240
X45732Y-53240
X46732Y-45240
X46732Y-53240
X47732Y-45240
X47732Y-53240
X48732Y-45240
X48732Y-53240
X49732Y-45240
X49732Y-53240
X50732Y-45240
X50732Y-53240
X51732Y-45240
X51732Y-53240
T4
X35236Y-33858
X35236Y-34843
X35236Y-35827
X35236Y-40157
X35236Y-41142
X35236Y-42126
X49016Y-31693
X50000Y-31693
X50984Y-31693
X41043Y-31693
X42028Y-31693
X43012Y-31693
T5
X49213Y-41339
X49213Y-42323
X50197Y-41339
X50197Y-42323
T6
X36535Y-32874
X36535Y-36811
X36535Y-39173
X36535Y-43110
X48031Y-32992
X51969Y-32992
X40059Y-32992
X43996Y-32992
T7
X35232Y-45740
X35232Y-52740
T8
X53024Y-41339
X53024Y-42323
X50197Y-37008
X52953Y-37008
T9
X53232Y-45740
X53232Y-52740
T0
M30
