G04 #@! TF.GenerationSoftware,KiCad,Pcbnew,(5.1.5)-3*
G04 #@! TF.CreationDate,2020-02-01T22:19:46+11:00*
G04 #@! TF.ProjectId,Tph_Synth_Featherwing,5470685f-5379-46e7-9468-5f4665617468,rev?*
G04 #@! TF.SameCoordinates,Original*
G04 #@! TF.FileFunction,Copper,L2,Bot*
G04 #@! TF.FilePolarity,Positive*
%FSLAX46Y46*%
G04 Gerber Fmt 4.6, Leading zero omitted, Abs format (unit mm)*
G04 Created by KiCad (PCBNEW (5.1.5)-3) date 2020-02-01 22:19:46*
%MOMM*%
%LPD*%
G04 APERTURE LIST*
%ADD10C,0.100000*%
%ADD11C,1.700000*%
%ADD12C,1.440000*%
%ADD13C,4.600000*%
%ADD14C,1.800000*%
%ADD15C,1.000000*%
%ADD16C,1.778000*%
%ADD17C,3.810000*%
%ADD18C,0.800000*%
%ADD19C,0.400000*%
%ADD20C,0.250000*%
%ADD21C,0.254000*%
G04 APERTURE END LIST*
G04 #@! TA.AperFunction,SMDPad,CuDef*
D10*
G36*
X115275000Y-90750000D02*
G01*
X116425000Y-90750000D01*
X115925000Y-91500000D01*
X116425000Y-92250000D01*
X115275000Y-92250000D01*
X115275000Y-90750000D01*
G37*
G04 #@! TD.AperFunction*
G04 #@! TA.AperFunction,SMDPad,CuDef*
G36*
X116225000Y-91500000D02*
G01*
X116725000Y-90750000D01*
X117725000Y-90750000D01*
X117725000Y-92250000D01*
X116725000Y-92250000D01*
X116225000Y-91500000D01*
G37*
G04 #@! TD.AperFunction*
G04 #@! TA.AperFunction,ComponentPad*
G36*
X125624504Y-104151204D02*
G01*
X125648773Y-104154804D01*
X125672571Y-104160765D01*
X125695671Y-104169030D01*
X125717849Y-104179520D01*
X125738893Y-104192133D01*
X125758598Y-104206747D01*
X125776777Y-104223223D01*
X125793253Y-104241402D01*
X125807867Y-104261107D01*
X125820480Y-104282151D01*
X125830970Y-104304329D01*
X125839235Y-104327429D01*
X125845196Y-104351227D01*
X125848796Y-104375496D01*
X125850000Y-104400000D01*
X125850000Y-105600000D01*
X125848796Y-105624504D01*
X125845196Y-105648773D01*
X125839235Y-105672571D01*
X125830970Y-105695671D01*
X125820480Y-105717849D01*
X125807867Y-105738893D01*
X125793253Y-105758598D01*
X125776777Y-105776777D01*
X125758598Y-105793253D01*
X125738893Y-105807867D01*
X125717849Y-105820480D01*
X125695671Y-105830970D01*
X125672571Y-105839235D01*
X125648773Y-105845196D01*
X125624504Y-105848796D01*
X125600000Y-105850000D01*
X124400000Y-105850000D01*
X124375496Y-105848796D01*
X124351227Y-105845196D01*
X124327429Y-105839235D01*
X124304329Y-105830970D01*
X124282151Y-105820480D01*
X124261107Y-105807867D01*
X124241402Y-105793253D01*
X124223223Y-105776777D01*
X124206747Y-105758598D01*
X124192133Y-105738893D01*
X124179520Y-105717849D01*
X124169030Y-105695671D01*
X124160765Y-105672571D01*
X124154804Y-105648773D01*
X124151204Y-105624504D01*
X124150000Y-105600000D01*
X124150000Y-104400000D01*
X124151204Y-104375496D01*
X124154804Y-104351227D01*
X124160765Y-104327429D01*
X124169030Y-104304329D01*
X124179520Y-104282151D01*
X124192133Y-104261107D01*
X124206747Y-104241402D01*
X124223223Y-104223223D01*
X124241402Y-104206747D01*
X124261107Y-104192133D01*
X124282151Y-104179520D01*
X124304329Y-104169030D01*
X124327429Y-104160765D01*
X124351227Y-104154804D01*
X124375496Y-104151204D01*
X124400000Y-104150000D01*
X125600000Y-104150000D01*
X125624504Y-104151204D01*
G37*
G04 #@! TD.AperFunction*
D11*
X125000000Y-107500000D03*
X127500000Y-105000000D03*
X127500000Y-107500000D03*
G04 #@! TA.AperFunction,SMDPad,CuDef*
D10*
G36*
X129275000Y-131250000D02*
G01*
X130425000Y-131250000D01*
X129925000Y-132000000D01*
X130425000Y-132750000D01*
X129275000Y-132750000D01*
X129275000Y-131250000D01*
G37*
G04 #@! TD.AperFunction*
G04 #@! TA.AperFunction,SMDPad,CuDef*
G36*
X130225000Y-132000000D02*
G01*
X130725000Y-131250000D01*
X131725000Y-131250000D01*
X131725000Y-132750000D01*
X130725000Y-132750000D01*
X130225000Y-132000000D01*
G37*
G04 #@! TD.AperFunction*
D12*
X112000000Y-104000000D03*
X109460000Y-104000000D03*
X106920000Y-104000000D03*
D13*
X132000000Y-83800000D03*
X122000000Y-83800000D03*
D14*
X129500000Y-80500000D03*
X127000000Y-80500000D03*
X124500000Y-80500000D03*
X89500000Y-91000000D03*
X89500000Y-88500000D03*
X89500000Y-86000000D03*
D13*
X92800000Y-93500000D03*
X92800000Y-83500000D03*
X111750000Y-83800000D03*
X101750000Y-83800000D03*
D14*
X109250000Y-80500000D03*
X106750000Y-80500000D03*
X104250000Y-80500000D03*
X89500000Y-107000000D03*
X89500000Y-104500000D03*
X89500000Y-102000000D03*
D13*
X92800000Y-109500000D03*
X92800000Y-99500000D03*
D15*
X105500000Y-124500000D03*
X111000000Y-124500000D03*
X91500000Y-125500000D03*
X99000000Y-125500000D03*
D16*
X93300000Y-135230000D03*
X95840000Y-135230000D03*
X98380000Y-135230000D03*
X100920000Y-135230000D03*
X103460000Y-135230000D03*
X106000000Y-135230000D03*
X108540000Y-135230000D03*
X111080000Y-135230000D03*
X113620000Y-135230000D03*
X116160000Y-135230000D03*
X118700000Y-135230000D03*
X121240000Y-135230000D03*
X123780000Y-135230000D03*
X126320000Y-135230000D03*
X128860000Y-135230000D03*
X131400000Y-135230000D03*
X131400000Y-114910000D03*
X128860000Y-114910000D03*
X126320000Y-114910000D03*
X123780000Y-114910000D03*
X121240000Y-114910000D03*
X118700000Y-114910000D03*
X116160000Y-114910000D03*
X113620000Y-114910000D03*
X111080000Y-114910000D03*
X108540000Y-114910000D03*
X106000000Y-114910000D03*
X103460000Y-114910000D03*
D17*
X89490000Y-116180000D03*
X89490000Y-133960000D03*
D18*
X132000000Y-80000000D03*
X135000000Y-80000000D03*
X136000000Y-81000000D03*
X136000000Y-84000000D03*
X136000000Y-87000000D03*
X89000000Y-81000000D03*
X89000000Y-84000000D03*
X89000000Y-111000000D03*
X89000000Y-113000000D03*
X136000000Y-131000000D03*
X136000000Y-128000000D03*
X136000000Y-125000000D03*
X136000000Y-122000000D03*
X136000000Y-119000000D03*
X136000000Y-113000000D03*
X136000000Y-110000000D03*
X136000000Y-101000000D03*
X136000000Y-98000000D03*
X89000000Y-97000000D03*
X89000000Y-94000000D03*
X90000000Y-80000000D03*
X93000000Y-80000000D03*
X96000000Y-80000000D03*
X99000000Y-80000000D03*
X120000000Y-80000000D03*
X117000000Y-80000000D03*
X114000000Y-80000000D03*
X89000000Y-129000000D03*
X89000000Y-126000000D03*
X89000000Y-123000000D03*
X89000000Y-120000000D03*
X117708000Y-131159700D03*
X119187200Y-119612400D03*
X120601000Y-124122500D03*
X96469300Y-128913000D03*
X95500000Y-128436600D03*
X110904800Y-99158200D03*
X111173700Y-93747800D03*
X111321100Y-96318500D03*
X112305300Y-126608600D03*
X105525000Y-125624500D03*
X123746200Y-125048400D03*
X107494500Y-96754700D03*
X97027998Y-132334000D03*
X101997000Y-103687100D03*
X102499700Y-102178900D03*
X109958500Y-105533000D03*
X112827100Y-90949800D03*
X120909500Y-97500500D03*
X108124100Y-97570500D03*
X111347900Y-100634100D03*
X115562500Y-87683500D03*
X102143400Y-95500100D03*
X106237000Y-118417200D03*
X110317158Y-132161198D03*
X112819300Y-93903100D03*
X102188100Y-110987700D03*
X97500000Y-110818700D03*
D19*
X116746800Y-132961200D02*
X103188800Y-132961200D01*
X103188800Y-132961200D02*
X101808999Y-134341001D01*
X101808999Y-134341001D02*
X100920000Y-135230000D01*
X117708000Y-132000000D02*
X116746800Y-132961200D01*
X129775000Y-132000000D02*
X117708000Y-132000000D01*
X117708000Y-131159700D02*
X117708000Y-132000000D01*
X103861600Y-114910000D02*
X103460000Y-114910000D01*
X108564000Y-119612400D02*
X103861600Y-114910000D01*
X119187200Y-119612400D02*
X108564000Y-119612400D01*
X119187200Y-122708700D02*
X120601000Y-124122500D01*
X119187200Y-119612400D02*
X119187200Y-122708700D01*
D20*
X96469300Y-128030700D02*
X96469300Y-128913000D01*
X99000000Y-125500000D02*
X96469300Y-128030700D01*
X94436600Y-128436600D02*
X95500000Y-128436600D01*
X91500000Y-125500000D02*
X94436600Y-128436600D01*
X111173700Y-93747800D02*
X111173700Y-96318500D01*
X111173700Y-98889300D02*
X110904800Y-99158200D01*
X111173700Y-96318500D02*
X111173700Y-98889300D01*
X111173700Y-96318500D02*
X111321100Y-96318500D01*
X112305300Y-125805300D02*
X112305300Y-126608600D01*
X111000000Y-124500000D02*
X112305300Y-125805300D01*
X105500000Y-125599500D02*
X105525000Y-125624500D01*
X105500000Y-124500000D02*
X105500000Y-125599500D01*
X127000000Y-82522500D02*
X127000000Y-80500000D01*
X122662800Y-86859700D02*
X127000000Y-82522500D01*
X115350300Y-86859700D02*
X122662800Y-86859700D01*
X112073200Y-90136800D02*
X115350300Y-86859700D01*
X112073200Y-103926800D02*
X112073200Y-90136800D01*
X112000000Y-104000000D02*
X112073200Y-103926800D01*
X124811200Y-125048400D02*
X123746200Y-125048400D01*
X131225000Y-131462200D02*
X124811200Y-125048400D01*
X131225000Y-132000000D02*
X131225000Y-131462200D01*
X99239800Y-88500000D02*
X107494500Y-96754700D01*
X89500000Y-88500000D02*
X99239800Y-88500000D01*
D19*
X95840000Y-133521998D02*
X96627999Y-132733999D01*
X95840000Y-135230000D02*
X95840000Y-133521998D01*
X96627999Y-132733999D02*
X97027998Y-132334000D01*
D20*
X90312900Y-103687100D02*
X101997000Y-103687100D01*
X89500000Y-104500000D02*
X90312900Y-103687100D01*
X89678900Y-102178900D02*
X102499700Y-102178900D01*
X89500000Y-102000000D02*
X89678900Y-102178900D01*
X105853800Y-105533000D02*
X109958500Y-105533000D01*
X102499700Y-102178900D02*
X105853800Y-105533000D01*
X119377800Y-97500500D02*
X112827100Y-90949800D01*
X120909500Y-97500500D02*
X119377800Y-97500500D01*
X108284300Y-96466000D02*
X108284300Y-97570500D01*
X99409300Y-87591000D02*
X108284300Y-96466000D01*
X91091000Y-87591000D02*
X99409300Y-87591000D01*
X89500000Y-86000000D02*
X91091000Y-87591000D01*
X108124100Y-97570500D02*
X108284300Y-97570500D01*
X108284300Y-97570500D02*
X111347900Y-100634100D01*
X115775000Y-87896000D02*
X115562500Y-87683500D01*
X115775000Y-91500000D02*
X115775000Y-87896000D01*
D19*
X105126200Y-118417200D02*
X106237000Y-118417200D01*
X102157100Y-115448100D02*
X105126200Y-118417200D01*
X102157100Y-114288200D02*
X102157100Y-115448100D01*
X103622900Y-112822400D02*
X102157100Y-114288200D01*
X103830400Y-112822400D02*
X103622900Y-112822400D01*
X110758900Y-105893900D02*
X103830400Y-112822400D01*
X110758900Y-103634900D02*
X110758900Y-105893900D01*
X102624100Y-95500100D02*
X110758900Y-103634900D01*
X102143400Y-95500100D02*
X102624100Y-95500100D01*
X112819300Y-93903100D02*
X112819300Y-97091900D01*
X112819300Y-97091900D02*
X128549700Y-112822300D01*
X128549700Y-112822300D02*
X131139300Y-112822300D01*
X124786000Y-123366700D02*
X123722100Y-123366700D01*
X131139300Y-112822300D02*
X132689500Y-114372500D01*
X132689500Y-114372500D02*
X132689500Y-115463200D01*
X110882843Y-132161198D02*
X110317158Y-132161198D01*
X114927602Y-132161198D02*
X110882843Y-132161198D01*
X123722100Y-123366700D02*
X114927602Y-132161198D01*
X132689500Y-115463200D02*
X124786000Y-123366700D01*
D20*
X102019100Y-110818700D02*
X102188100Y-110987700D01*
X97500000Y-110818700D02*
X102019100Y-110818700D01*
X129500000Y-80738800D02*
X129500000Y-80500000D01*
X118738800Y-91500000D02*
X129500000Y-80738800D01*
X117225000Y-91500000D02*
X118738800Y-91500000D01*
D21*
G36*
X135847018Y-78747430D02*
G01*
X136180819Y-78848211D01*
X136488687Y-79011907D01*
X136758896Y-79232284D01*
X136981157Y-79500952D01*
X137146995Y-79807663D01*
X137250104Y-80140753D01*
X137290000Y-80520341D01*
X137290001Y-133965270D01*
X137252571Y-134347016D01*
X137151789Y-134680818D01*
X136988093Y-134988687D01*
X136767716Y-135258897D01*
X136499052Y-135481154D01*
X136192337Y-135646995D01*
X135859246Y-135750104D01*
X135797562Y-135756587D01*
X136102731Y-135630182D01*
X136411413Y-135423926D01*
X136673926Y-135161413D01*
X136880182Y-134852731D01*
X137022253Y-134509741D01*
X137094680Y-134145625D01*
X137094680Y-133774375D01*
X137022253Y-133410259D01*
X136880182Y-133067269D01*
X136673926Y-132758587D01*
X136411413Y-132496074D01*
X136102731Y-132289818D01*
X135759741Y-132147747D01*
X135395625Y-132075320D01*
X135024375Y-132075320D01*
X134660259Y-132147747D01*
X134317269Y-132289818D01*
X134008587Y-132496074D01*
X133746074Y-132758587D01*
X133539818Y-133067269D01*
X133397747Y-133410259D01*
X133325320Y-133774375D01*
X133325320Y-134145625D01*
X133397747Y-134509741D01*
X133539818Y-134852731D01*
X133746074Y-135161413D01*
X134008587Y-135423926D01*
X134317269Y-135630182D01*
X134660259Y-135772253D01*
X134749479Y-135790000D01*
X132817606Y-135790000D01*
X132865434Y-135674534D01*
X132924000Y-135380101D01*
X132924000Y-135079899D01*
X132865434Y-134785466D01*
X132750551Y-134508115D01*
X132583768Y-134258507D01*
X132371493Y-134046232D01*
X132121885Y-133879449D01*
X131844534Y-133764566D01*
X131550101Y-133706000D01*
X131249899Y-133706000D01*
X130955466Y-133764566D01*
X130678115Y-133879449D01*
X130428507Y-134046232D01*
X130216232Y-134258507D01*
X130130000Y-134387562D01*
X130043768Y-134258507D01*
X129831493Y-134046232D01*
X129581885Y-133879449D01*
X129304534Y-133764566D01*
X129010101Y-133706000D01*
X128709899Y-133706000D01*
X128415466Y-133764566D01*
X128138115Y-133879449D01*
X127888507Y-134046232D01*
X127676232Y-134258507D01*
X127590000Y-134387562D01*
X127503768Y-134258507D01*
X127291493Y-134046232D01*
X127041885Y-133879449D01*
X126764534Y-133764566D01*
X126470101Y-133706000D01*
X126169899Y-133706000D01*
X125875466Y-133764566D01*
X125598115Y-133879449D01*
X125348507Y-134046232D01*
X125136232Y-134258507D01*
X125050000Y-134387562D01*
X124963768Y-134258507D01*
X124751493Y-134046232D01*
X124501885Y-133879449D01*
X124224534Y-133764566D01*
X123930101Y-133706000D01*
X123629899Y-133706000D01*
X123335466Y-133764566D01*
X123058115Y-133879449D01*
X122808507Y-134046232D01*
X122596232Y-134258507D01*
X122510000Y-134387562D01*
X122423768Y-134258507D01*
X122211493Y-134046232D01*
X121961885Y-133879449D01*
X121684534Y-133764566D01*
X121390101Y-133706000D01*
X121089899Y-133706000D01*
X120795466Y-133764566D01*
X120518115Y-133879449D01*
X120268507Y-134046232D01*
X120056232Y-134258507D01*
X119970000Y-134387562D01*
X119883768Y-134258507D01*
X119671493Y-134046232D01*
X119421885Y-133879449D01*
X119144534Y-133764566D01*
X118850101Y-133706000D01*
X118549899Y-133706000D01*
X118255466Y-133764566D01*
X117978115Y-133879449D01*
X117728507Y-134046232D01*
X117516232Y-134258507D01*
X117430000Y-134387562D01*
X117343768Y-134258507D01*
X117131493Y-134046232D01*
X116881885Y-133879449D01*
X116604534Y-133764566D01*
X116310101Y-133706000D01*
X116009899Y-133706000D01*
X115715466Y-133764566D01*
X115438115Y-133879449D01*
X115188507Y-134046232D01*
X114976232Y-134258507D01*
X114890000Y-134387562D01*
X114803768Y-134258507D01*
X114591493Y-134046232D01*
X114341885Y-133879449D01*
X114064534Y-133764566D01*
X113770101Y-133706000D01*
X113469899Y-133706000D01*
X113175466Y-133764566D01*
X112898115Y-133879449D01*
X112648507Y-134046232D01*
X112436232Y-134258507D01*
X112350000Y-134387562D01*
X112263768Y-134258507D01*
X112051493Y-134046232D01*
X111801885Y-133879449D01*
X111524534Y-133764566D01*
X111230101Y-133706000D01*
X110929899Y-133706000D01*
X110635466Y-133764566D01*
X110358115Y-133879449D01*
X110108507Y-134046232D01*
X109896232Y-134258507D01*
X109810000Y-134387562D01*
X109723768Y-134258507D01*
X109511493Y-134046232D01*
X109261885Y-133879449D01*
X108984534Y-133764566D01*
X108690101Y-133706000D01*
X108389899Y-133706000D01*
X108095466Y-133764566D01*
X107818115Y-133879449D01*
X107568507Y-134046232D01*
X107356232Y-134258507D01*
X107270000Y-134387562D01*
X107183768Y-134258507D01*
X106971493Y-134046232D01*
X106721885Y-133879449D01*
X106444534Y-133764566D01*
X106150101Y-133706000D01*
X105849899Y-133706000D01*
X105555466Y-133764566D01*
X105278115Y-133879449D01*
X105028507Y-134046232D01*
X104816232Y-134258507D01*
X104730000Y-134387562D01*
X104643768Y-134258507D01*
X104431493Y-134046232D01*
X104181885Y-133879449D01*
X103904534Y-133764566D01*
X103610101Y-133706000D01*
X103309899Y-133706000D01*
X103015466Y-133764566D01*
X102738115Y-133879449D01*
X102488507Y-134046232D01*
X102276232Y-134258507D01*
X102170583Y-134416622D01*
X101976231Y-134353374D01*
X101099605Y-135230000D01*
X101113748Y-135244143D01*
X100934143Y-135423748D01*
X100920000Y-135409605D01*
X100905858Y-135423748D01*
X100726253Y-135244143D01*
X100740395Y-135230000D01*
X99863769Y-134353374D01*
X99669417Y-134416622D01*
X99563768Y-134258507D01*
X99479030Y-134173769D01*
X100043374Y-134173769D01*
X100920000Y-135050395D01*
X101796626Y-134173769D01*
X101714273Y-133920711D01*
X101443582Y-133790914D01*
X101152770Y-133716420D01*
X100853012Y-133700092D01*
X100555829Y-133742557D01*
X100272641Y-133842184D01*
X100125727Y-133920711D01*
X100043374Y-134173769D01*
X99479030Y-134173769D01*
X99351493Y-134046232D01*
X99101885Y-133879449D01*
X98824534Y-133764566D01*
X98530101Y-133706000D01*
X98229899Y-133706000D01*
X97935466Y-133764566D01*
X97658115Y-133879449D01*
X97408507Y-134046232D01*
X97196232Y-134258507D01*
X97110000Y-134387562D01*
X97023768Y-134258507D01*
X96811493Y-134046232D01*
X96675000Y-133955030D01*
X96675000Y-133867866D01*
X97184775Y-133358092D01*
X97329896Y-133329226D01*
X97518254Y-133251205D01*
X97687772Y-133137937D01*
X97831935Y-132993774D01*
X97945203Y-132824256D01*
X98023224Y-132635898D01*
X98062998Y-132435939D01*
X98062998Y-132232061D01*
X98023224Y-132032102D01*
X97945203Y-131843744D01*
X97831935Y-131674226D01*
X97687772Y-131530063D01*
X97518254Y-131416795D01*
X97329896Y-131338774D01*
X97129937Y-131299000D01*
X96926059Y-131299000D01*
X96726100Y-131338774D01*
X96537742Y-131416795D01*
X96368224Y-131530063D01*
X96224061Y-131674226D01*
X96110793Y-131843744D01*
X96032772Y-132032102D01*
X96003906Y-132177223D01*
X95278574Y-132902557D01*
X95246710Y-132928707D01*
X95201237Y-132984116D01*
X95142364Y-133055853D01*
X95064828Y-133200912D01*
X95017082Y-133358310D01*
X95000960Y-133521998D01*
X95005001Y-133563026D01*
X95005001Y-133955030D01*
X94868507Y-134046232D01*
X94656232Y-134258507D01*
X94570000Y-134387562D01*
X94483768Y-134258507D01*
X94271493Y-134046232D01*
X94021885Y-133879449D01*
X93744534Y-133764566D01*
X93450101Y-133706000D01*
X93149899Y-133706000D01*
X92855466Y-133764566D01*
X92578115Y-133879449D01*
X92328507Y-134046232D01*
X92116232Y-134258507D01*
X91979757Y-134462756D01*
X92030000Y-134210168D01*
X92030000Y-133709832D01*
X91932389Y-133219109D01*
X91740919Y-132756859D01*
X91462947Y-132340844D01*
X91109156Y-131987053D01*
X90693141Y-131709081D01*
X90230891Y-131517611D01*
X89740168Y-131420000D01*
X89239832Y-131420000D01*
X88749109Y-131517611D01*
X88286859Y-131709081D01*
X87870844Y-131987053D01*
X87710000Y-132147897D01*
X87710000Y-128811061D01*
X95434300Y-128811061D01*
X95434300Y-129014939D01*
X95474074Y-129214898D01*
X95552095Y-129403256D01*
X95665363Y-129572774D01*
X95809526Y-129716937D01*
X95979044Y-129830205D01*
X96167402Y-129908226D01*
X96367361Y-129948000D01*
X96571239Y-129948000D01*
X96771198Y-129908226D01*
X96959556Y-129830205D01*
X97129074Y-129716937D01*
X97273237Y-129572774D01*
X97386505Y-129403256D01*
X97464526Y-129214898D01*
X97504300Y-129014939D01*
X97504300Y-128811061D01*
X97464526Y-128611102D01*
X97386505Y-128422744D01*
X97292599Y-128282203D01*
X98939802Y-126635000D01*
X99111788Y-126635000D01*
X99331067Y-126591383D01*
X99537624Y-126505824D01*
X99723520Y-126381612D01*
X99881612Y-126223520D01*
X100005824Y-126037624D01*
X100091383Y-125831067D01*
X100135000Y-125611788D01*
X100135000Y-125388212D01*
X100091383Y-125168933D01*
X100005824Y-124962376D01*
X99881612Y-124776480D01*
X99723520Y-124618388D01*
X99537624Y-124494176D01*
X99331067Y-124408617D01*
X99228484Y-124388212D01*
X104365000Y-124388212D01*
X104365000Y-124611788D01*
X104408617Y-124831067D01*
X104494176Y-125037624D01*
X104589021Y-125179569D01*
X104529774Y-125322602D01*
X104490000Y-125522561D01*
X104490000Y-125726439D01*
X104529774Y-125926398D01*
X104607795Y-126114756D01*
X104721063Y-126284274D01*
X104865226Y-126428437D01*
X105034744Y-126541705D01*
X105223102Y-126619726D01*
X105423061Y-126659500D01*
X105626939Y-126659500D01*
X105826898Y-126619726D01*
X106015256Y-126541705D01*
X106184774Y-126428437D01*
X106328937Y-126284274D01*
X106442205Y-126114756D01*
X106520226Y-125926398D01*
X106560000Y-125726439D01*
X106560000Y-125522561D01*
X106520226Y-125322602D01*
X106442205Y-125134244D01*
X106441735Y-125133540D01*
X106505824Y-125037624D01*
X106591383Y-124831067D01*
X106635000Y-124611788D01*
X106635000Y-124388212D01*
X109865000Y-124388212D01*
X109865000Y-124611788D01*
X109908617Y-124831067D01*
X109994176Y-125037624D01*
X110118388Y-125223520D01*
X110276480Y-125381612D01*
X110462376Y-125505824D01*
X110668933Y-125591383D01*
X110888212Y-125635000D01*
X111060199Y-125635000D01*
X111450358Y-126025160D01*
X111388095Y-126118344D01*
X111310074Y-126306702D01*
X111270300Y-126506661D01*
X111270300Y-126710539D01*
X111310074Y-126910498D01*
X111388095Y-127098856D01*
X111501363Y-127268374D01*
X111645526Y-127412537D01*
X111815044Y-127525805D01*
X112003402Y-127603826D01*
X112203361Y-127643600D01*
X112407239Y-127643600D01*
X112607198Y-127603826D01*
X112795556Y-127525805D01*
X112965074Y-127412537D01*
X113109237Y-127268374D01*
X113222505Y-127098856D01*
X113300526Y-126910498D01*
X113340300Y-126710539D01*
X113340300Y-126506661D01*
X113300526Y-126306702D01*
X113222505Y-126118344D01*
X113109237Y-125948826D01*
X113065300Y-125904889D01*
X113065300Y-125842623D01*
X113068976Y-125805300D01*
X113065300Y-125767977D01*
X113065300Y-125767967D01*
X113054303Y-125656314D01*
X113010846Y-125513053D01*
X113006982Y-125505824D01*
X112940274Y-125381023D01*
X112869099Y-125294297D01*
X112845301Y-125265299D01*
X112816304Y-125241502D01*
X112135000Y-124560199D01*
X112135000Y-124388212D01*
X112091383Y-124168933D01*
X112005824Y-123962376D01*
X111881612Y-123776480D01*
X111723520Y-123618388D01*
X111537624Y-123494176D01*
X111331067Y-123408617D01*
X111111788Y-123365000D01*
X110888212Y-123365000D01*
X110668933Y-123408617D01*
X110462376Y-123494176D01*
X110276480Y-123618388D01*
X110118388Y-123776480D01*
X109994176Y-123962376D01*
X109908617Y-124168933D01*
X109865000Y-124388212D01*
X106635000Y-124388212D01*
X106591383Y-124168933D01*
X106505824Y-123962376D01*
X106381612Y-123776480D01*
X106223520Y-123618388D01*
X106037624Y-123494176D01*
X105831067Y-123408617D01*
X105611788Y-123365000D01*
X105388212Y-123365000D01*
X105168933Y-123408617D01*
X104962376Y-123494176D01*
X104776480Y-123618388D01*
X104618388Y-123776480D01*
X104494176Y-123962376D01*
X104408617Y-124168933D01*
X104365000Y-124388212D01*
X99228484Y-124388212D01*
X99111788Y-124365000D01*
X98888212Y-124365000D01*
X98668933Y-124408617D01*
X98462376Y-124494176D01*
X98276480Y-124618388D01*
X98118388Y-124776480D01*
X97994176Y-124962376D01*
X97908617Y-125168933D01*
X97865000Y-125388212D01*
X97865000Y-125560198D01*
X95958303Y-127466896D01*
X95929299Y-127490699D01*
X95900489Y-127525805D01*
X95834326Y-127606424D01*
X95814455Y-127643600D01*
X95763754Y-127738454D01*
X95720297Y-127881715D01*
X95709300Y-127993368D01*
X95709300Y-127993378D01*
X95705624Y-128030700D01*
X95709300Y-128068022D01*
X95709300Y-128209289D01*
X95665363Y-128253226D01*
X95552095Y-128422744D01*
X95474074Y-128611102D01*
X95434300Y-128811061D01*
X87710000Y-128811061D01*
X87710000Y-126278166D01*
X90901439Y-126278166D01*
X90936550Y-126491588D01*
X91140826Y-126582458D01*
X91358905Y-126631731D01*
X91582406Y-126637511D01*
X91802740Y-126599577D01*
X92011440Y-126519387D01*
X92063450Y-126491588D01*
X92098561Y-126278166D01*
X91500000Y-125679605D01*
X90901439Y-126278166D01*
X87710000Y-126278166D01*
X87710000Y-125582406D01*
X90362489Y-125582406D01*
X90400423Y-125802740D01*
X90480613Y-126011440D01*
X90508412Y-126063450D01*
X90721834Y-126098561D01*
X91320395Y-125500000D01*
X91679605Y-125500000D01*
X92278166Y-126098561D01*
X92491588Y-126063450D01*
X92582458Y-125859174D01*
X92631731Y-125641095D01*
X92637511Y-125417594D01*
X92599577Y-125197260D01*
X92519387Y-124988560D01*
X92491588Y-124936550D01*
X92278166Y-124901439D01*
X91679605Y-125500000D01*
X91320395Y-125500000D01*
X90721834Y-124901439D01*
X90508412Y-124936550D01*
X90417542Y-125140826D01*
X90368269Y-125358905D01*
X90362489Y-125582406D01*
X87710000Y-125582406D01*
X87710000Y-124721834D01*
X90901439Y-124721834D01*
X91500000Y-125320395D01*
X92098561Y-124721834D01*
X92063450Y-124508412D01*
X91859174Y-124417542D01*
X91641095Y-124368269D01*
X91417594Y-124362489D01*
X91197260Y-124400423D01*
X90988560Y-124480613D01*
X90936550Y-124508412D01*
X90901439Y-124721834D01*
X87710000Y-124721834D01*
X87710000Y-117992103D01*
X87870844Y-118152947D01*
X88286859Y-118430919D01*
X88749109Y-118622389D01*
X89239832Y-118720000D01*
X89740168Y-118720000D01*
X90230891Y-118622389D01*
X90693141Y-118430919D01*
X91109156Y-118152947D01*
X91462947Y-117799156D01*
X91740919Y-117383141D01*
X91932389Y-116920891D01*
X92030000Y-116430168D01*
X92030000Y-115929832D01*
X91932389Y-115439109D01*
X91740919Y-114976859D01*
X91462947Y-114560844D01*
X91109156Y-114207053D01*
X90693141Y-113929081D01*
X90230891Y-113737611D01*
X89740168Y-113640000D01*
X89239832Y-113640000D01*
X88749109Y-113737611D01*
X88286859Y-113929081D01*
X87870844Y-114207053D01*
X87710000Y-114367897D01*
X87710000Y-85848816D01*
X87965000Y-85848816D01*
X87965000Y-86151184D01*
X88023989Y-86447743D01*
X88139701Y-86727095D01*
X88307688Y-86978505D01*
X88521495Y-87192312D01*
X88607831Y-87250000D01*
X88521495Y-87307688D01*
X88307688Y-87521495D01*
X88139701Y-87772905D01*
X88023989Y-88052257D01*
X87965000Y-88348816D01*
X87965000Y-88651184D01*
X88023989Y-88947743D01*
X88139701Y-89227095D01*
X88307688Y-89478505D01*
X88521495Y-89692312D01*
X88607831Y-89750000D01*
X88521495Y-89807688D01*
X88307688Y-90021495D01*
X88139701Y-90272905D01*
X88023989Y-90552257D01*
X87965000Y-90848816D01*
X87965000Y-91151184D01*
X88023989Y-91447743D01*
X88139701Y-91727095D01*
X88307688Y-91978505D01*
X88521495Y-92192312D01*
X88772905Y-92360299D01*
X89052257Y-92476011D01*
X89348816Y-92535000D01*
X89651184Y-92535000D01*
X89947743Y-92476011D01*
X90067955Y-92426217D01*
X89977791Y-92643892D01*
X89865000Y-93210928D01*
X89865000Y-93789072D01*
X89977791Y-94356108D01*
X90199037Y-94890244D01*
X90520237Y-95370953D01*
X90929047Y-95779763D01*
X91409756Y-96100963D01*
X91943892Y-96322209D01*
X92510928Y-96435000D01*
X93089072Y-96435000D01*
X93656108Y-96322209D01*
X94190244Y-96100963D01*
X94670953Y-95779763D01*
X95079763Y-95370953D01*
X95400963Y-94890244D01*
X95622209Y-94356108D01*
X95735000Y-93789072D01*
X95735000Y-93210928D01*
X95622209Y-92643892D01*
X95400963Y-92109756D01*
X95079763Y-91629047D01*
X94670953Y-91220237D01*
X94190244Y-90899037D01*
X93656108Y-90677791D01*
X93089072Y-90565000D01*
X92510928Y-90565000D01*
X91943892Y-90677791D01*
X91409756Y-90899037D01*
X91035000Y-91149441D01*
X91035000Y-90848816D01*
X90976011Y-90552257D01*
X90860299Y-90272905D01*
X90692312Y-90021495D01*
X90478505Y-89807688D01*
X90392169Y-89750000D01*
X90478505Y-89692312D01*
X90692312Y-89478505D01*
X90838313Y-89260000D01*
X98924999Y-89260000D01*
X106459500Y-96794502D01*
X106459500Y-96856639D01*
X106499274Y-97056598D01*
X106577295Y-97244956D01*
X106690563Y-97414474D01*
X106834726Y-97558637D01*
X107004244Y-97671905D01*
X107096603Y-97710162D01*
X107128874Y-97872398D01*
X107206895Y-98060756D01*
X107320163Y-98230274D01*
X107464326Y-98374437D01*
X107633844Y-98487705D01*
X107822202Y-98565726D01*
X108022161Y-98605500D01*
X108226039Y-98605500D01*
X108241436Y-98602437D01*
X110312900Y-100673902D01*
X110312900Y-100736039D01*
X110352674Y-100935998D01*
X110430695Y-101124356D01*
X110543963Y-101293874D01*
X110688126Y-101438037D01*
X110857644Y-101551305D01*
X111046002Y-101629326D01*
X111245961Y-101669100D01*
X111313200Y-101669100D01*
X111313200Y-102829261D01*
X111205855Y-102900987D01*
X103243546Y-94938679D01*
X103217391Y-94906809D01*
X103090246Y-94802464D01*
X102945187Y-94724928D01*
X102787789Y-94677182D01*
X102772515Y-94675678D01*
X102633656Y-94582895D01*
X102445298Y-94504874D01*
X102245339Y-94465100D01*
X102041461Y-94465100D01*
X101841502Y-94504874D01*
X101653144Y-94582895D01*
X101483626Y-94696163D01*
X101339463Y-94840326D01*
X101226195Y-95009844D01*
X101148174Y-95198202D01*
X101108400Y-95398161D01*
X101108400Y-95602039D01*
X101148174Y-95801998D01*
X101226195Y-95990356D01*
X101339463Y-96159874D01*
X101483626Y-96304037D01*
X101653144Y-96417305D01*
X101841502Y-96495326D01*
X102041461Y-96535100D01*
X102245339Y-96535100D01*
X102439594Y-96496461D01*
X108772716Y-102829584D01*
X108596238Y-102947503D01*
X108407503Y-103136238D01*
X108259215Y-103358167D01*
X108190000Y-103525266D01*
X108120785Y-103358167D01*
X107972497Y-103136238D01*
X107783762Y-102947503D01*
X107561833Y-102799215D01*
X107315239Y-102697072D01*
X107053456Y-102645000D01*
X106786544Y-102645000D01*
X106524761Y-102697072D01*
X106278167Y-102799215D01*
X106056238Y-102947503D01*
X105867503Y-103136238D01*
X105719215Y-103358167D01*
X105617072Y-103604761D01*
X105565000Y-103866544D01*
X105565000Y-104133456D01*
X105573925Y-104178323D01*
X103534700Y-102139099D01*
X103534700Y-102076961D01*
X103494926Y-101877002D01*
X103416905Y-101688644D01*
X103303637Y-101519126D01*
X103159474Y-101374963D01*
X102989956Y-101261695D01*
X102801598Y-101183674D01*
X102601639Y-101143900D01*
X102397761Y-101143900D01*
X102197802Y-101183674D01*
X102009444Y-101261695D01*
X101839926Y-101374963D01*
X101795989Y-101418900D01*
X95031816Y-101418900D01*
X95079763Y-101370953D01*
X95400963Y-100890244D01*
X95622209Y-100356108D01*
X95735000Y-99789072D01*
X95735000Y-99210928D01*
X95622209Y-98643892D01*
X95400963Y-98109756D01*
X95079763Y-97629047D01*
X94670953Y-97220237D01*
X94190244Y-96899037D01*
X93656108Y-96677791D01*
X93089072Y-96565000D01*
X92510928Y-96565000D01*
X91943892Y-96677791D01*
X91409756Y-96899037D01*
X90929047Y-97220237D01*
X90520237Y-97629047D01*
X90199037Y-98109756D01*
X89977791Y-98643892D01*
X89865000Y-99210928D01*
X89865000Y-99789072D01*
X89977791Y-100356108D01*
X90067955Y-100573783D01*
X89947743Y-100523989D01*
X89651184Y-100465000D01*
X89348816Y-100465000D01*
X89052257Y-100523989D01*
X88772905Y-100639701D01*
X88521495Y-100807688D01*
X88307688Y-101021495D01*
X88139701Y-101272905D01*
X88023989Y-101552257D01*
X87965000Y-101848816D01*
X87965000Y-102151184D01*
X88023989Y-102447743D01*
X88139701Y-102727095D01*
X88307688Y-102978505D01*
X88521495Y-103192312D01*
X88607831Y-103250000D01*
X88521495Y-103307688D01*
X88307688Y-103521495D01*
X88139701Y-103772905D01*
X88023989Y-104052257D01*
X87965000Y-104348816D01*
X87965000Y-104651184D01*
X88023989Y-104947743D01*
X88139701Y-105227095D01*
X88307688Y-105478505D01*
X88521495Y-105692312D01*
X88607831Y-105750000D01*
X88521495Y-105807688D01*
X88307688Y-106021495D01*
X88139701Y-106272905D01*
X88023989Y-106552257D01*
X87965000Y-106848816D01*
X87965000Y-107151184D01*
X88023989Y-107447743D01*
X88139701Y-107727095D01*
X88307688Y-107978505D01*
X88521495Y-108192312D01*
X88772905Y-108360299D01*
X89052257Y-108476011D01*
X89348816Y-108535000D01*
X89651184Y-108535000D01*
X89947743Y-108476011D01*
X90067955Y-108426217D01*
X89977791Y-108643892D01*
X89865000Y-109210928D01*
X89865000Y-109789072D01*
X89977791Y-110356108D01*
X90199037Y-110890244D01*
X90520237Y-111370953D01*
X90929047Y-111779763D01*
X91409756Y-112100963D01*
X91943892Y-112322209D01*
X92510928Y-112435000D01*
X93089072Y-112435000D01*
X93656108Y-112322209D01*
X94190244Y-112100963D01*
X94670953Y-111779763D01*
X95079763Y-111370953D01*
X95400963Y-110890244D01*
X95472821Y-110716761D01*
X96465000Y-110716761D01*
X96465000Y-110920639D01*
X96504774Y-111120598D01*
X96582795Y-111308956D01*
X96696063Y-111478474D01*
X96840226Y-111622637D01*
X97009744Y-111735905D01*
X97198102Y-111813926D01*
X97398061Y-111853700D01*
X97601939Y-111853700D01*
X97801898Y-111813926D01*
X97990256Y-111735905D01*
X98159774Y-111622637D01*
X98203711Y-111578700D01*
X101338210Y-111578700D01*
X101384163Y-111647474D01*
X101528326Y-111791637D01*
X101697844Y-111904905D01*
X101886202Y-111982926D01*
X102086161Y-112022700D01*
X102290039Y-112022700D01*
X102489998Y-111982926D01*
X102678356Y-111904905D01*
X102847874Y-111791637D01*
X102992037Y-111647474D01*
X103105305Y-111477956D01*
X103183326Y-111289598D01*
X103223100Y-111089639D01*
X103223100Y-110885761D01*
X103183326Y-110685802D01*
X103105305Y-110497444D01*
X102992037Y-110327926D01*
X102847874Y-110183763D01*
X102678356Y-110070495D01*
X102489998Y-109992474D01*
X102290039Y-109952700D01*
X102086161Y-109952700D01*
X101886202Y-109992474D01*
X101726319Y-110058700D01*
X98203711Y-110058700D01*
X98159774Y-110014763D01*
X97990256Y-109901495D01*
X97801898Y-109823474D01*
X97601939Y-109783700D01*
X97398061Y-109783700D01*
X97198102Y-109823474D01*
X97009744Y-109901495D01*
X96840226Y-110014763D01*
X96696063Y-110158926D01*
X96582795Y-110328444D01*
X96504774Y-110516802D01*
X96465000Y-110716761D01*
X95472821Y-110716761D01*
X95622209Y-110356108D01*
X95735000Y-109789072D01*
X95735000Y-109210928D01*
X95622209Y-108643892D01*
X95400963Y-108109756D01*
X95079763Y-107629047D01*
X94670953Y-107220237D01*
X94190244Y-106899037D01*
X93656108Y-106677791D01*
X93089072Y-106565000D01*
X92510928Y-106565000D01*
X91943892Y-106677791D01*
X91409756Y-106899037D01*
X91035000Y-107149441D01*
X91035000Y-106848816D01*
X90976011Y-106552257D01*
X90860299Y-106272905D01*
X90692312Y-106021495D01*
X90478505Y-105807688D01*
X90392169Y-105750000D01*
X90478505Y-105692312D01*
X90692312Y-105478505D01*
X90860299Y-105227095D01*
X90976011Y-104947743D01*
X91035000Y-104651184D01*
X91035000Y-104447100D01*
X101293289Y-104447100D01*
X101337226Y-104491037D01*
X101506744Y-104604305D01*
X101695102Y-104682326D01*
X101895061Y-104722100D01*
X102098939Y-104722100D01*
X102298898Y-104682326D01*
X102487256Y-104604305D01*
X102656774Y-104491037D01*
X102800937Y-104346874D01*
X102914205Y-104177356D01*
X102992226Y-103988998D01*
X103032000Y-103789039D01*
X103032000Y-103786001D01*
X105290001Y-106044003D01*
X105313799Y-106073001D01*
X105429524Y-106167974D01*
X105561553Y-106238546D01*
X105704814Y-106282003D01*
X105816467Y-106293000D01*
X105816475Y-106293000D01*
X105853800Y-106296676D01*
X105891125Y-106293000D01*
X109178931Y-106293000D01*
X103473897Y-111998036D01*
X103459211Y-111999482D01*
X103301813Y-112047228D01*
X103156754Y-112124764D01*
X103029609Y-112229109D01*
X103003461Y-112260971D01*
X101595679Y-113668754D01*
X101563809Y-113694909D01*
X101468479Y-113811070D01*
X101459464Y-113822055D01*
X101381928Y-113967114D01*
X101334182Y-114124512D01*
X101318060Y-114288200D01*
X101322100Y-114329219D01*
X101322101Y-115407072D01*
X101318060Y-115448100D01*
X101334182Y-115611788D01*
X101381928Y-115769186D01*
X101381929Y-115769187D01*
X101459465Y-115914246D01*
X101563810Y-116041391D01*
X101595674Y-116067541D01*
X104506759Y-118978627D01*
X104532909Y-119010491D01*
X104660054Y-119114836D01*
X104805113Y-119192372D01*
X104962511Y-119240118D01*
X105085181Y-119252200D01*
X105085191Y-119252200D01*
X105126199Y-119256239D01*
X105167207Y-119252200D01*
X105623715Y-119252200D01*
X105746744Y-119334405D01*
X105935102Y-119412426D01*
X106135061Y-119452200D01*
X106338939Y-119452200D01*
X106538898Y-119412426D01*
X106727256Y-119334405D01*
X106896774Y-119221137D01*
X106944321Y-119173590D01*
X107944563Y-120173832D01*
X107970709Y-120205691D01*
X108002568Y-120231837D01*
X108002570Y-120231839D01*
X108097854Y-120310036D01*
X108242913Y-120387572D01*
X108400311Y-120435318D01*
X108564000Y-120451440D01*
X108605018Y-120447400D01*
X118352200Y-120447400D01*
X118352201Y-122667672D01*
X118348160Y-122708700D01*
X118364282Y-122872388D01*
X118412028Y-123029786D01*
X118442877Y-123087500D01*
X118489565Y-123174846D01*
X118593910Y-123301991D01*
X118625774Y-123328141D01*
X119576908Y-124279275D01*
X119605774Y-124424398D01*
X119683795Y-124612756D01*
X119797063Y-124782274D01*
X119941226Y-124926437D01*
X120110744Y-125039705D01*
X120299102Y-125117726D01*
X120499061Y-125157500D01*
X120702939Y-125157500D01*
X120762225Y-125145707D01*
X114581735Y-131326198D01*
X110930443Y-131326198D01*
X110807414Y-131243993D01*
X110619056Y-131165972D01*
X110419097Y-131126198D01*
X110215219Y-131126198D01*
X110015260Y-131165972D01*
X109826902Y-131243993D01*
X109657384Y-131357261D01*
X109513221Y-131501424D01*
X109399953Y-131670942D01*
X109321932Y-131859300D01*
X109282158Y-132059259D01*
X109282158Y-132263137D01*
X109321932Y-132463096D01*
X109399953Y-132651454D01*
X109513221Y-132820972D01*
X109657384Y-132965135D01*
X109826902Y-133078403D01*
X110015260Y-133156424D01*
X110215219Y-133196198D01*
X110419097Y-133196198D01*
X110619056Y-133156424D01*
X110807414Y-133078403D01*
X110930443Y-132996198D01*
X114886584Y-132996198D01*
X114927602Y-133000238D01*
X114968620Y-132996198D01*
X114968621Y-132996198D01*
X115091291Y-132984116D01*
X115248689Y-132936370D01*
X115393748Y-132858834D01*
X115520893Y-132754489D01*
X115547048Y-132722619D01*
X122800296Y-125469372D01*
X122828995Y-125538656D01*
X122942263Y-125708174D01*
X123086426Y-125852337D01*
X123255944Y-125965605D01*
X123444302Y-126043626D01*
X123644261Y-126083400D01*
X123848139Y-126083400D01*
X124048098Y-126043626D01*
X124236456Y-125965605D01*
X124405974Y-125852337D01*
X124449911Y-125808400D01*
X124496399Y-125808400D01*
X129950079Y-131262081D01*
X129694092Y-131646061D01*
X129635754Y-131755204D01*
X129599319Y-131874864D01*
X129586928Y-131999333D01*
X129599059Y-132123827D01*
X129635243Y-132243563D01*
X129694092Y-132353939D01*
X130194092Y-133103939D01*
X130273815Y-133201185D01*
X130370506Y-133280537D01*
X130480820Y-133339502D01*
X130600518Y-133375812D01*
X130725000Y-133388072D01*
X131725000Y-133388072D01*
X131849482Y-133375812D01*
X131969180Y-133339502D01*
X132079494Y-133280537D01*
X132176185Y-133201185D01*
X132255537Y-133104494D01*
X132314502Y-132994180D01*
X132350812Y-132874482D01*
X132363072Y-132750000D01*
X132363072Y-131250000D01*
X132350812Y-131125518D01*
X132314502Y-131005820D01*
X132255537Y-130895506D01*
X132176185Y-130798815D01*
X132079494Y-130719463D01*
X131969180Y-130660498D01*
X131849482Y-130624188D01*
X131725000Y-130611928D01*
X131449530Y-130611928D01*
X125375004Y-124537403D01*
X125351201Y-124508399D01*
X125235476Y-124413426D01*
X125103447Y-124342854D01*
X124960186Y-124299397D01*
X124848533Y-124288400D01*
X124848522Y-124288400D01*
X124811200Y-124284724D01*
X124773878Y-124288400D01*
X124449911Y-124288400D01*
X124405974Y-124244463D01*
X124341974Y-124201700D01*
X124744982Y-124201700D01*
X124786000Y-124205740D01*
X124827018Y-124201700D01*
X124827019Y-124201700D01*
X124949689Y-124189618D01*
X125107087Y-124141872D01*
X125252146Y-124064336D01*
X125379291Y-123959991D01*
X125405446Y-123928121D01*
X133250932Y-116082637D01*
X133282791Y-116056491D01*
X133325320Y-116004669D01*
X133325320Y-116365625D01*
X133397747Y-116729741D01*
X133539818Y-117072731D01*
X133746074Y-117381413D01*
X134008587Y-117643926D01*
X134317269Y-117850182D01*
X134660259Y-117992253D01*
X135024375Y-118064680D01*
X135395625Y-118064680D01*
X135759741Y-117992253D01*
X136102731Y-117850182D01*
X136411413Y-117643926D01*
X136673926Y-117381413D01*
X136880182Y-117072731D01*
X137022253Y-116729741D01*
X137094680Y-116365625D01*
X137094680Y-115994375D01*
X137022253Y-115630259D01*
X136880182Y-115287269D01*
X136673926Y-114978587D01*
X136411413Y-114716074D01*
X136102731Y-114509818D01*
X135759741Y-114367747D01*
X135395625Y-114295320D01*
X135024375Y-114295320D01*
X134660259Y-114367747D01*
X134317269Y-114509818D01*
X134008587Y-114716074D01*
X133746074Y-114978587D01*
X133539818Y-115287269D01*
X133524500Y-115324250D01*
X133524500Y-114413518D01*
X133528540Y-114372500D01*
X133512418Y-114208811D01*
X133464672Y-114051413D01*
X133387136Y-113906354D01*
X133308939Y-113811070D01*
X133308937Y-113811068D01*
X133282791Y-113779209D01*
X133250933Y-113753064D01*
X131758746Y-112260878D01*
X131732591Y-112229009D01*
X131605446Y-112124664D01*
X131460387Y-112047128D01*
X131302989Y-111999382D01*
X131180319Y-111987300D01*
X131180318Y-111987300D01*
X131139300Y-111983260D01*
X131098282Y-111987300D01*
X128895568Y-111987300D01*
X125715908Y-108807640D01*
X125946632Y-108653475D01*
X126071710Y-108528397D01*
X126651208Y-108528397D01*
X126728843Y-108777472D01*
X126992883Y-108903371D01*
X127276411Y-108975339D01*
X127568531Y-108990611D01*
X127858019Y-108948599D01*
X128133747Y-108850919D01*
X128271157Y-108777472D01*
X128348792Y-108528397D01*
X127500000Y-107679605D01*
X126651208Y-108528397D01*
X126071710Y-108528397D01*
X126153475Y-108446632D01*
X126262416Y-108283590D01*
X126471603Y-108348792D01*
X127320395Y-107500000D01*
X127679605Y-107500000D01*
X128528397Y-108348792D01*
X128777472Y-108271157D01*
X128903371Y-108007117D01*
X128975339Y-107723589D01*
X128990611Y-107431469D01*
X128948599Y-107141981D01*
X128850919Y-106866253D01*
X128777472Y-106728843D01*
X128528397Y-106651208D01*
X127679605Y-107500000D01*
X127320395Y-107500000D01*
X126471603Y-106651208D01*
X126262416Y-106716410D01*
X126153475Y-106553368D01*
X125992459Y-106392352D01*
X126093386Y-106338405D01*
X126227962Y-106227962D01*
X126338405Y-106093386D01*
X126392352Y-105992459D01*
X126553368Y-106153475D01*
X126716410Y-106262416D01*
X126651208Y-106471603D01*
X127500000Y-107320395D01*
X128348792Y-106471603D01*
X128283590Y-106262416D01*
X128446632Y-106153475D01*
X128653475Y-105946632D01*
X128815990Y-105703411D01*
X128927932Y-105433158D01*
X128985000Y-105146260D01*
X128985000Y-104853740D01*
X133195000Y-104853740D01*
X133195000Y-105146260D01*
X133252068Y-105433158D01*
X133364010Y-105703411D01*
X133526525Y-105946632D01*
X133733368Y-106153475D01*
X133877828Y-106250000D01*
X133733368Y-106346525D01*
X133526525Y-106553368D01*
X133364010Y-106796589D01*
X133252068Y-107066842D01*
X133195000Y-107353740D01*
X133195000Y-107646260D01*
X133252068Y-107933158D01*
X133364010Y-108203411D01*
X133526525Y-108446632D01*
X133733368Y-108653475D01*
X133976589Y-108815990D01*
X134246842Y-108927932D01*
X134533740Y-108985000D01*
X134826260Y-108985000D01*
X135113158Y-108927932D01*
X135383411Y-108815990D01*
X135626632Y-108653475D01*
X135833475Y-108446632D01*
X135995990Y-108203411D01*
X136107932Y-107933158D01*
X136165000Y-107646260D01*
X136165000Y-107353740D01*
X136107932Y-107066842D01*
X135995990Y-106796589D01*
X135833475Y-106553368D01*
X135626632Y-106346525D01*
X135482172Y-106250000D01*
X135626632Y-106153475D01*
X135833475Y-105946632D01*
X135995990Y-105703411D01*
X136107932Y-105433158D01*
X136165000Y-105146260D01*
X136165000Y-104853740D01*
X136107932Y-104566842D01*
X135995990Y-104296589D01*
X135833475Y-104053368D01*
X135626632Y-103846525D01*
X135383411Y-103684010D01*
X135113158Y-103572068D01*
X134826260Y-103515000D01*
X134533740Y-103515000D01*
X134246842Y-103572068D01*
X133976589Y-103684010D01*
X133733368Y-103846525D01*
X133526525Y-104053368D01*
X133364010Y-104296589D01*
X133252068Y-104566842D01*
X133195000Y-104853740D01*
X128985000Y-104853740D01*
X128927932Y-104566842D01*
X128815990Y-104296589D01*
X128653475Y-104053368D01*
X128446632Y-103846525D01*
X128203411Y-103684010D01*
X127933158Y-103572068D01*
X127646260Y-103515000D01*
X127353740Y-103515000D01*
X127066842Y-103572068D01*
X126796589Y-103684010D01*
X126553368Y-103846525D01*
X126392352Y-104007541D01*
X126338405Y-103906614D01*
X126227962Y-103772038D01*
X126093386Y-103661595D01*
X125939850Y-103579528D01*
X125773254Y-103528992D01*
X125600000Y-103511928D01*
X124400000Y-103511928D01*
X124226746Y-103528992D01*
X124060150Y-103579528D01*
X123906614Y-103661595D01*
X123772038Y-103772038D01*
X123661595Y-103906614D01*
X123579528Y-104060150D01*
X123528992Y-104226746D01*
X123511928Y-104400000D01*
X123511928Y-105600000D01*
X123528992Y-105773254D01*
X123579528Y-105939850D01*
X123661595Y-106093386D01*
X123772038Y-106227962D01*
X123906614Y-106338405D01*
X124007541Y-106392352D01*
X123846525Y-106553368D01*
X123692360Y-106784092D01*
X113654300Y-96746033D01*
X113654300Y-94516385D01*
X113736505Y-94393356D01*
X113814526Y-94204998D01*
X113854300Y-94005039D01*
X113854300Y-93801161D01*
X113814526Y-93601202D01*
X113736505Y-93412844D01*
X113623237Y-93243326D01*
X113479074Y-93099163D01*
X113309556Y-92985895D01*
X113121198Y-92907874D01*
X112921239Y-92868100D01*
X112833200Y-92868100D01*
X112833200Y-92030701D01*
X118814001Y-98011503D01*
X118837799Y-98040501D01*
X118953524Y-98135474D01*
X119085553Y-98206046D01*
X119228814Y-98249503D01*
X119340467Y-98260500D01*
X119340475Y-98260500D01*
X119377800Y-98264176D01*
X119415125Y-98260500D01*
X120205789Y-98260500D01*
X120249726Y-98304437D01*
X120419244Y-98417705D01*
X120607602Y-98495726D01*
X120807561Y-98535500D01*
X121011439Y-98535500D01*
X121211398Y-98495726D01*
X121399756Y-98417705D01*
X121569274Y-98304437D01*
X121713437Y-98160274D01*
X121826705Y-97990756D01*
X121904726Y-97802398D01*
X121944500Y-97602439D01*
X121944500Y-97398561D01*
X121904726Y-97198602D01*
X121826705Y-97010244D01*
X121713437Y-96840726D01*
X121569274Y-96696563D01*
X121399756Y-96583295D01*
X121211398Y-96505274D01*
X121011439Y-96465500D01*
X120807561Y-96465500D01*
X120607602Y-96505274D01*
X120419244Y-96583295D01*
X120249726Y-96696563D01*
X120205789Y-96740500D01*
X119692602Y-96740500D01*
X116805842Y-93853740D01*
X126015000Y-93853740D01*
X126015000Y-94146260D01*
X126072068Y-94433158D01*
X126184010Y-94703411D01*
X126346525Y-94946632D01*
X126553368Y-95153475D01*
X126796589Y-95315990D01*
X127066842Y-95427932D01*
X127353740Y-95485000D01*
X127646260Y-95485000D01*
X127933158Y-95427932D01*
X128203411Y-95315990D01*
X128446632Y-95153475D01*
X128653475Y-94946632D01*
X128815990Y-94703411D01*
X128927932Y-94433158D01*
X128985000Y-94146260D01*
X128985000Y-93853740D01*
X133015000Y-93853740D01*
X133015000Y-94146260D01*
X133072068Y-94433158D01*
X133184010Y-94703411D01*
X133346525Y-94946632D01*
X133553368Y-95153475D01*
X133796589Y-95315990D01*
X134066842Y-95427932D01*
X134353740Y-95485000D01*
X134646260Y-95485000D01*
X134933158Y-95427932D01*
X135203411Y-95315990D01*
X135446632Y-95153475D01*
X135653475Y-94946632D01*
X135815990Y-94703411D01*
X135927932Y-94433158D01*
X135985000Y-94146260D01*
X135985000Y-93853740D01*
X135927932Y-93566842D01*
X135815990Y-93296589D01*
X135653475Y-93053368D01*
X135446632Y-92846525D01*
X135203411Y-92684010D01*
X134933158Y-92572068D01*
X134646260Y-92515000D01*
X134353740Y-92515000D01*
X134066842Y-92572068D01*
X133796589Y-92684010D01*
X133553368Y-92846525D01*
X133346525Y-93053368D01*
X133184010Y-93296589D01*
X133072068Y-93566842D01*
X133015000Y-93853740D01*
X128985000Y-93853740D01*
X128927932Y-93566842D01*
X128815990Y-93296589D01*
X128653475Y-93053368D01*
X128446632Y-92846525D01*
X128203411Y-92684010D01*
X127933158Y-92572068D01*
X127646260Y-92515000D01*
X127353740Y-92515000D01*
X127066842Y-92572068D01*
X126796589Y-92684010D01*
X126553368Y-92846525D01*
X126346525Y-93053368D01*
X126184010Y-93296589D01*
X126072068Y-93566842D01*
X126015000Y-93853740D01*
X116805842Y-93853740D01*
X115840173Y-92888072D01*
X116425000Y-92888072D01*
X116548827Y-92875941D01*
X116574935Y-92868051D01*
X116600518Y-92875812D01*
X116725000Y-92888072D01*
X117725000Y-92888072D01*
X117849482Y-92875812D01*
X117969180Y-92839502D01*
X118079494Y-92780537D01*
X118176185Y-92701185D01*
X118255537Y-92604494D01*
X118314502Y-92494180D01*
X118350812Y-92374482D01*
X118362087Y-92260000D01*
X118701478Y-92260000D01*
X118738800Y-92263676D01*
X118776122Y-92260000D01*
X118776133Y-92260000D01*
X118887786Y-92249003D01*
X119031047Y-92205546D01*
X119163076Y-92134974D01*
X119278801Y-92040001D01*
X119302604Y-92010997D01*
X129290251Y-82023351D01*
X129348816Y-82035000D01*
X129649441Y-82035000D01*
X129399037Y-82409756D01*
X129177791Y-82943892D01*
X129065000Y-83510928D01*
X129065000Y-84089072D01*
X129177791Y-84656108D01*
X129399037Y-85190244D01*
X129720237Y-85670953D01*
X130129047Y-86079763D01*
X130609756Y-86400963D01*
X131143892Y-86622209D01*
X131710928Y-86735000D01*
X132289072Y-86735000D01*
X132856108Y-86622209D01*
X133390244Y-86400963D01*
X133870953Y-86079763D01*
X134279763Y-85670953D01*
X134600963Y-85190244D01*
X134822209Y-84656108D01*
X134935000Y-84089072D01*
X134935000Y-83510928D01*
X134822209Y-82943892D01*
X134600963Y-82409756D01*
X134279763Y-81929047D01*
X133870953Y-81520237D01*
X133390244Y-81199037D01*
X132856108Y-80977791D01*
X132289072Y-80865000D01*
X131710928Y-80865000D01*
X131143892Y-80977791D01*
X130926217Y-81067955D01*
X130976011Y-80947743D01*
X131035000Y-80651184D01*
X131035000Y-80348816D01*
X130976011Y-80052257D01*
X130860299Y-79772905D01*
X130692312Y-79521495D01*
X130478505Y-79307688D01*
X130227095Y-79139701D01*
X129947743Y-79023989D01*
X129651184Y-78965000D01*
X129348816Y-78965000D01*
X129052257Y-79023989D01*
X128772905Y-79139701D01*
X128521495Y-79307688D01*
X128307688Y-79521495D01*
X128250000Y-79607831D01*
X128192312Y-79521495D01*
X127978505Y-79307688D01*
X127727095Y-79139701D01*
X127447743Y-79023989D01*
X127151184Y-78965000D01*
X126848816Y-78965000D01*
X126552257Y-79023989D01*
X126272905Y-79139701D01*
X126021495Y-79307688D01*
X125807688Y-79521495D01*
X125712262Y-79664310D01*
X125564080Y-79615525D01*
X124679605Y-80500000D01*
X125564080Y-81384475D01*
X125712262Y-81335690D01*
X125807688Y-81478505D01*
X126021495Y-81692312D01*
X126240000Y-81838313D01*
X126240000Y-82207698D01*
X124935000Y-83512698D01*
X124935000Y-83510928D01*
X124822209Y-82943892D01*
X124600963Y-82409756D01*
X124346463Y-82028871D01*
X124566553Y-82040991D01*
X124865907Y-81998397D01*
X125151199Y-81898222D01*
X125300792Y-81818261D01*
X125384475Y-81564080D01*
X124500000Y-80679605D01*
X124485858Y-80693748D01*
X124306253Y-80514143D01*
X124320395Y-80500000D01*
X123435920Y-79615525D01*
X123181739Y-79699208D01*
X123050842Y-79971775D01*
X122975635Y-80264642D01*
X122959009Y-80566553D01*
X123001603Y-80865907D01*
X123072338Y-81067356D01*
X122856108Y-80977791D01*
X122289072Y-80865000D01*
X121710928Y-80865000D01*
X121143892Y-80977791D01*
X120609756Y-81199037D01*
X120129047Y-81520237D01*
X119720237Y-81929047D01*
X119399037Y-82409756D01*
X119177791Y-82943892D01*
X119065000Y-83510928D01*
X119065000Y-84089072D01*
X119177791Y-84656108D01*
X119399037Y-85190244D01*
X119720237Y-85670953D01*
X120129047Y-86079763D01*
X120158885Y-86099700D01*
X115387622Y-86099700D01*
X115350299Y-86096024D01*
X115312976Y-86099700D01*
X115312967Y-86099700D01*
X115201314Y-86110697D01*
X115058053Y-86154154D01*
X114926024Y-86224726D01*
X114810299Y-86319699D01*
X114786501Y-86348697D01*
X111562198Y-89573001D01*
X111533200Y-89596799D01*
X111509402Y-89625797D01*
X111509401Y-89625798D01*
X111438226Y-89712524D01*
X111367654Y-89844554D01*
X111346346Y-89914800D01*
X111327779Y-89976011D01*
X111324198Y-89987815D01*
X111309524Y-90136800D01*
X111313201Y-90174132D01*
X111313201Y-92720271D01*
X111275639Y-92712800D01*
X111071761Y-92712800D01*
X110871802Y-92752574D01*
X110683444Y-92830595D01*
X110513926Y-92943863D01*
X110369763Y-93088026D01*
X110256495Y-93257544D01*
X110178474Y-93445902D01*
X110138700Y-93645861D01*
X110138700Y-93849739D01*
X110178474Y-94049698D01*
X110256495Y-94238056D01*
X110369763Y-94407574D01*
X110413700Y-94451511D01*
X110413701Y-95813569D01*
X110403895Y-95828244D01*
X110325874Y-96016602D01*
X110286100Y-96216561D01*
X110286100Y-96420439D01*
X110325874Y-96620398D01*
X110403895Y-96808756D01*
X110413700Y-96823431D01*
X110413701Y-98241558D01*
X110245026Y-98354263D01*
X110193945Y-98405344D01*
X109134751Y-97346150D01*
X109119326Y-97268602D01*
X109044300Y-97087475D01*
X109044300Y-96503322D01*
X109047976Y-96465999D01*
X109044300Y-96428676D01*
X109044300Y-96428667D01*
X109033303Y-96317014D01*
X108989846Y-96173753D01*
X108919274Y-96041724D01*
X108824301Y-95925999D01*
X108795304Y-95902202D01*
X99973104Y-87080003D01*
X99949301Y-87050999D01*
X99833576Y-86956026D01*
X99701547Y-86885454D01*
X99558286Y-86841997D01*
X99446633Y-86831000D01*
X99446622Y-86831000D01*
X99409300Y-86827324D01*
X99371978Y-86831000D01*
X91405802Y-86831000D01*
X90983731Y-86408930D01*
X91035000Y-86151184D01*
X91035000Y-85850559D01*
X91409756Y-86100963D01*
X91943892Y-86322209D01*
X92510928Y-86435000D01*
X93089072Y-86435000D01*
X93656108Y-86322209D01*
X94190244Y-86100963D01*
X94670953Y-85779763D01*
X95079763Y-85370953D01*
X95400963Y-84890244D01*
X95622209Y-84356108D01*
X95735000Y-83789072D01*
X95735000Y-83510928D01*
X98815000Y-83510928D01*
X98815000Y-84089072D01*
X98927791Y-84656108D01*
X99149037Y-85190244D01*
X99470237Y-85670953D01*
X99879047Y-86079763D01*
X100359756Y-86400963D01*
X100893892Y-86622209D01*
X101460928Y-86735000D01*
X102039072Y-86735000D01*
X102606108Y-86622209D01*
X103140244Y-86400963D01*
X103620953Y-86079763D01*
X104029763Y-85670953D01*
X104350963Y-85190244D01*
X104572209Y-84656108D01*
X104685000Y-84089072D01*
X104685000Y-83510928D01*
X104572209Y-82943892D01*
X104350963Y-82409756D01*
X104100559Y-82035000D01*
X104401184Y-82035000D01*
X104697743Y-81976011D01*
X104977095Y-81860299D01*
X105228505Y-81692312D01*
X105442312Y-81478505D01*
X105500000Y-81392169D01*
X105557688Y-81478505D01*
X105771495Y-81692312D01*
X106022905Y-81860299D01*
X106302257Y-81976011D01*
X106598816Y-82035000D01*
X106901184Y-82035000D01*
X107197743Y-81976011D01*
X107477095Y-81860299D01*
X107728505Y-81692312D01*
X107942312Y-81478505D01*
X108000000Y-81392169D01*
X108057688Y-81478505D01*
X108271495Y-81692312D01*
X108522905Y-81860299D01*
X108802257Y-81976011D01*
X109098816Y-82035000D01*
X109399441Y-82035000D01*
X109149037Y-82409756D01*
X108927791Y-82943892D01*
X108815000Y-83510928D01*
X108815000Y-84089072D01*
X108927791Y-84656108D01*
X109149037Y-85190244D01*
X109470237Y-85670953D01*
X109879047Y-86079763D01*
X110359756Y-86400963D01*
X110893892Y-86622209D01*
X111460928Y-86735000D01*
X112039072Y-86735000D01*
X112606108Y-86622209D01*
X113140244Y-86400963D01*
X113620953Y-86079763D01*
X114029763Y-85670953D01*
X114350963Y-85190244D01*
X114572209Y-84656108D01*
X114685000Y-84089072D01*
X114685000Y-83510928D01*
X114572209Y-82943892D01*
X114350963Y-82409756D01*
X114029763Y-81929047D01*
X113620953Y-81520237D01*
X113140244Y-81199037D01*
X112606108Y-80977791D01*
X112039072Y-80865000D01*
X111460928Y-80865000D01*
X110893892Y-80977791D01*
X110676217Y-81067955D01*
X110726011Y-80947743D01*
X110785000Y-80651184D01*
X110785000Y-80348816D01*
X110726011Y-80052257D01*
X110610299Y-79772905D01*
X110442312Y-79521495D01*
X110356737Y-79435920D01*
X123615525Y-79435920D01*
X124500000Y-80320395D01*
X125384475Y-79435920D01*
X125300792Y-79181739D01*
X125028225Y-79050842D01*
X124735358Y-78975635D01*
X124433447Y-78959009D01*
X124134093Y-79001603D01*
X123848801Y-79101778D01*
X123699208Y-79181739D01*
X123615525Y-79435920D01*
X110356737Y-79435920D01*
X110228505Y-79307688D01*
X109977095Y-79139701D01*
X109697743Y-79023989D01*
X109401184Y-78965000D01*
X109098816Y-78965000D01*
X108802257Y-79023989D01*
X108522905Y-79139701D01*
X108271495Y-79307688D01*
X108057688Y-79521495D01*
X108000000Y-79607831D01*
X107942312Y-79521495D01*
X107728505Y-79307688D01*
X107477095Y-79139701D01*
X107197743Y-79023989D01*
X106901184Y-78965000D01*
X106598816Y-78965000D01*
X106302257Y-79023989D01*
X106022905Y-79139701D01*
X105771495Y-79307688D01*
X105557688Y-79521495D01*
X105500000Y-79607831D01*
X105442312Y-79521495D01*
X105228505Y-79307688D01*
X104977095Y-79139701D01*
X104697743Y-79023989D01*
X104401184Y-78965000D01*
X104098816Y-78965000D01*
X103802257Y-79023989D01*
X103522905Y-79139701D01*
X103271495Y-79307688D01*
X103057688Y-79521495D01*
X102889701Y-79772905D01*
X102773989Y-80052257D01*
X102715000Y-80348816D01*
X102715000Y-80651184D01*
X102773989Y-80947743D01*
X102823783Y-81067955D01*
X102606108Y-80977791D01*
X102039072Y-80865000D01*
X101460928Y-80865000D01*
X100893892Y-80977791D01*
X100359756Y-81199037D01*
X99879047Y-81520237D01*
X99470237Y-81929047D01*
X99149037Y-82409756D01*
X98927791Y-82943892D01*
X98815000Y-83510928D01*
X95735000Y-83510928D01*
X95735000Y-83210928D01*
X95622209Y-82643892D01*
X95400963Y-82109756D01*
X95079763Y-81629047D01*
X94670953Y-81220237D01*
X94190244Y-80899037D01*
X93656108Y-80677791D01*
X93089072Y-80565000D01*
X92510928Y-80565000D01*
X91943892Y-80677791D01*
X91409756Y-80899037D01*
X90929047Y-81220237D01*
X90520237Y-81629047D01*
X90199037Y-82109756D01*
X89977791Y-82643892D01*
X89865000Y-83210928D01*
X89865000Y-83789072D01*
X89977791Y-84356108D01*
X90067955Y-84573783D01*
X89947743Y-84523989D01*
X89651184Y-84465000D01*
X89348816Y-84465000D01*
X89052257Y-84523989D01*
X88772905Y-84639701D01*
X88521495Y-84807688D01*
X88307688Y-85021495D01*
X88139701Y-85272905D01*
X88023989Y-85552257D01*
X87965000Y-85848816D01*
X87710000Y-85848816D01*
X87710000Y-80534721D01*
X87747430Y-80152982D01*
X87848211Y-79819181D01*
X88011907Y-79511313D01*
X88232284Y-79241104D01*
X88500952Y-79018843D01*
X88807663Y-78853005D01*
X89140753Y-78749896D01*
X89520341Y-78710000D01*
X135465279Y-78710000D01*
X135847018Y-78747430D01*
G37*
X135847018Y-78747430D02*
X136180819Y-78848211D01*
X136488687Y-79011907D01*
X136758896Y-79232284D01*
X136981157Y-79500952D01*
X137146995Y-79807663D01*
X137250104Y-80140753D01*
X137290000Y-80520341D01*
X137290001Y-133965270D01*
X137252571Y-134347016D01*
X137151789Y-134680818D01*
X136988093Y-134988687D01*
X136767716Y-135258897D01*
X136499052Y-135481154D01*
X136192337Y-135646995D01*
X135859246Y-135750104D01*
X135797562Y-135756587D01*
X136102731Y-135630182D01*
X136411413Y-135423926D01*
X136673926Y-135161413D01*
X136880182Y-134852731D01*
X137022253Y-134509741D01*
X137094680Y-134145625D01*
X137094680Y-133774375D01*
X137022253Y-133410259D01*
X136880182Y-133067269D01*
X136673926Y-132758587D01*
X136411413Y-132496074D01*
X136102731Y-132289818D01*
X135759741Y-132147747D01*
X135395625Y-132075320D01*
X135024375Y-132075320D01*
X134660259Y-132147747D01*
X134317269Y-132289818D01*
X134008587Y-132496074D01*
X133746074Y-132758587D01*
X133539818Y-133067269D01*
X133397747Y-133410259D01*
X133325320Y-133774375D01*
X133325320Y-134145625D01*
X133397747Y-134509741D01*
X133539818Y-134852731D01*
X133746074Y-135161413D01*
X134008587Y-135423926D01*
X134317269Y-135630182D01*
X134660259Y-135772253D01*
X134749479Y-135790000D01*
X132817606Y-135790000D01*
X132865434Y-135674534D01*
X132924000Y-135380101D01*
X132924000Y-135079899D01*
X132865434Y-134785466D01*
X132750551Y-134508115D01*
X132583768Y-134258507D01*
X132371493Y-134046232D01*
X132121885Y-133879449D01*
X131844534Y-133764566D01*
X131550101Y-133706000D01*
X131249899Y-133706000D01*
X130955466Y-133764566D01*
X130678115Y-133879449D01*
X130428507Y-134046232D01*
X130216232Y-134258507D01*
X130130000Y-134387562D01*
X130043768Y-134258507D01*
X129831493Y-134046232D01*
X129581885Y-133879449D01*
X129304534Y-133764566D01*
X129010101Y-133706000D01*
X128709899Y-133706000D01*
X128415466Y-133764566D01*
X128138115Y-133879449D01*
X127888507Y-134046232D01*
X127676232Y-134258507D01*
X127590000Y-134387562D01*
X127503768Y-134258507D01*
X127291493Y-134046232D01*
X127041885Y-133879449D01*
X126764534Y-133764566D01*
X126470101Y-133706000D01*
X126169899Y-133706000D01*
X125875466Y-133764566D01*
X125598115Y-133879449D01*
X125348507Y-134046232D01*
X125136232Y-134258507D01*
X125050000Y-134387562D01*
X124963768Y-134258507D01*
X124751493Y-134046232D01*
X124501885Y-133879449D01*
X124224534Y-133764566D01*
X123930101Y-133706000D01*
X123629899Y-133706000D01*
X123335466Y-133764566D01*
X123058115Y-133879449D01*
X122808507Y-134046232D01*
X122596232Y-134258507D01*
X122510000Y-134387562D01*
X122423768Y-134258507D01*
X122211493Y-134046232D01*
X121961885Y-133879449D01*
X121684534Y-133764566D01*
X121390101Y-133706000D01*
X121089899Y-133706000D01*
X120795466Y-133764566D01*
X120518115Y-133879449D01*
X120268507Y-134046232D01*
X120056232Y-134258507D01*
X119970000Y-134387562D01*
X119883768Y-134258507D01*
X119671493Y-134046232D01*
X119421885Y-133879449D01*
X119144534Y-133764566D01*
X118850101Y-133706000D01*
X118549899Y-133706000D01*
X118255466Y-133764566D01*
X117978115Y-133879449D01*
X117728507Y-134046232D01*
X117516232Y-134258507D01*
X117430000Y-134387562D01*
X117343768Y-134258507D01*
X117131493Y-134046232D01*
X116881885Y-133879449D01*
X116604534Y-133764566D01*
X116310101Y-133706000D01*
X116009899Y-133706000D01*
X115715466Y-133764566D01*
X115438115Y-133879449D01*
X115188507Y-134046232D01*
X114976232Y-134258507D01*
X114890000Y-134387562D01*
X114803768Y-134258507D01*
X114591493Y-134046232D01*
X114341885Y-133879449D01*
X114064534Y-133764566D01*
X113770101Y-133706000D01*
X113469899Y-133706000D01*
X113175466Y-133764566D01*
X112898115Y-133879449D01*
X112648507Y-134046232D01*
X112436232Y-134258507D01*
X112350000Y-134387562D01*
X112263768Y-134258507D01*
X112051493Y-134046232D01*
X111801885Y-133879449D01*
X111524534Y-133764566D01*
X111230101Y-133706000D01*
X110929899Y-133706000D01*
X110635466Y-133764566D01*
X110358115Y-133879449D01*
X110108507Y-134046232D01*
X109896232Y-134258507D01*
X109810000Y-134387562D01*
X109723768Y-134258507D01*
X109511493Y-134046232D01*
X109261885Y-133879449D01*
X108984534Y-133764566D01*
X108690101Y-133706000D01*
X108389899Y-133706000D01*
X108095466Y-133764566D01*
X107818115Y-133879449D01*
X107568507Y-134046232D01*
X107356232Y-134258507D01*
X107270000Y-134387562D01*
X107183768Y-134258507D01*
X106971493Y-134046232D01*
X106721885Y-133879449D01*
X106444534Y-133764566D01*
X106150101Y-133706000D01*
X105849899Y-133706000D01*
X105555466Y-133764566D01*
X105278115Y-133879449D01*
X105028507Y-134046232D01*
X104816232Y-134258507D01*
X104730000Y-134387562D01*
X104643768Y-134258507D01*
X104431493Y-134046232D01*
X104181885Y-133879449D01*
X103904534Y-133764566D01*
X103610101Y-133706000D01*
X103309899Y-133706000D01*
X103015466Y-133764566D01*
X102738115Y-133879449D01*
X102488507Y-134046232D01*
X102276232Y-134258507D01*
X102170583Y-134416622D01*
X101976231Y-134353374D01*
X101099605Y-135230000D01*
X101113748Y-135244143D01*
X100934143Y-135423748D01*
X100920000Y-135409605D01*
X100905858Y-135423748D01*
X100726253Y-135244143D01*
X100740395Y-135230000D01*
X99863769Y-134353374D01*
X99669417Y-134416622D01*
X99563768Y-134258507D01*
X99479030Y-134173769D01*
X100043374Y-134173769D01*
X100920000Y-135050395D01*
X101796626Y-134173769D01*
X101714273Y-133920711D01*
X101443582Y-133790914D01*
X101152770Y-133716420D01*
X100853012Y-133700092D01*
X100555829Y-133742557D01*
X100272641Y-133842184D01*
X100125727Y-133920711D01*
X100043374Y-134173769D01*
X99479030Y-134173769D01*
X99351493Y-134046232D01*
X99101885Y-133879449D01*
X98824534Y-133764566D01*
X98530101Y-133706000D01*
X98229899Y-133706000D01*
X97935466Y-133764566D01*
X97658115Y-133879449D01*
X97408507Y-134046232D01*
X97196232Y-134258507D01*
X97110000Y-134387562D01*
X97023768Y-134258507D01*
X96811493Y-134046232D01*
X96675000Y-133955030D01*
X96675000Y-133867866D01*
X97184775Y-133358092D01*
X97329896Y-133329226D01*
X97518254Y-133251205D01*
X97687772Y-133137937D01*
X97831935Y-132993774D01*
X97945203Y-132824256D01*
X98023224Y-132635898D01*
X98062998Y-132435939D01*
X98062998Y-132232061D01*
X98023224Y-132032102D01*
X97945203Y-131843744D01*
X97831935Y-131674226D01*
X97687772Y-131530063D01*
X97518254Y-131416795D01*
X97329896Y-131338774D01*
X97129937Y-131299000D01*
X96926059Y-131299000D01*
X96726100Y-131338774D01*
X96537742Y-131416795D01*
X96368224Y-131530063D01*
X96224061Y-131674226D01*
X96110793Y-131843744D01*
X96032772Y-132032102D01*
X96003906Y-132177223D01*
X95278574Y-132902557D01*
X95246710Y-132928707D01*
X95201237Y-132984116D01*
X95142364Y-133055853D01*
X95064828Y-133200912D01*
X95017082Y-133358310D01*
X95000960Y-133521998D01*
X95005001Y-133563026D01*
X95005001Y-133955030D01*
X94868507Y-134046232D01*
X94656232Y-134258507D01*
X94570000Y-134387562D01*
X94483768Y-134258507D01*
X94271493Y-134046232D01*
X94021885Y-133879449D01*
X93744534Y-133764566D01*
X93450101Y-133706000D01*
X93149899Y-133706000D01*
X92855466Y-133764566D01*
X92578115Y-133879449D01*
X92328507Y-134046232D01*
X92116232Y-134258507D01*
X91979757Y-134462756D01*
X92030000Y-134210168D01*
X92030000Y-133709832D01*
X91932389Y-133219109D01*
X91740919Y-132756859D01*
X91462947Y-132340844D01*
X91109156Y-131987053D01*
X90693141Y-131709081D01*
X90230891Y-131517611D01*
X89740168Y-131420000D01*
X89239832Y-131420000D01*
X88749109Y-131517611D01*
X88286859Y-131709081D01*
X87870844Y-131987053D01*
X87710000Y-132147897D01*
X87710000Y-128811061D01*
X95434300Y-128811061D01*
X95434300Y-129014939D01*
X95474074Y-129214898D01*
X95552095Y-129403256D01*
X95665363Y-129572774D01*
X95809526Y-129716937D01*
X95979044Y-129830205D01*
X96167402Y-129908226D01*
X96367361Y-129948000D01*
X96571239Y-129948000D01*
X96771198Y-129908226D01*
X96959556Y-129830205D01*
X97129074Y-129716937D01*
X97273237Y-129572774D01*
X97386505Y-129403256D01*
X97464526Y-129214898D01*
X97504300Y-129014939D01*
X97504300Y-128811061D01*
X97464526Y-128611102D01*
X97386505Y-128422744D01*
X97292599Y-128282203D01*
X98939802Y-126635000D01*
X99111788Y-126635000D01*
X99331067Y-126591383D01*
X99537624Y-126505824D01*
X99723520Y-126381612D01*
X99881612Y-126223520D01*
X100005824Y-126037624D01*
X100091383Y-125831067D01*
X100135000Y-125611788D01*
X100135000Y-125388212D01*
X100091383Y-125168933D01*
X100005824Y-124962376D01*
X99881612Y-124776480D01*
X99723520Y-124618388D01*
X99537624Y-124494176D01*
X99331067Y-124408617D01*
X99228484Y-124388212D01*
X104365000Y-124388212D01*
X104365000Y-124611788D01*
X104408617Y-124831067D01*
X104494176Y-125037624D01*
X104589021Y-125179569D01*
X104529774Y-125322602D01*
X104490000Y-125522561D01*
X104490000Y-125726439D01*
X104529774Y-125926398D01*
X104607795Y-126114756D01*
X104721063Y-126284274D01*
X104865226Y-126428437D01*
X105034744Y-126541705D01*
X105223102Y-126619726D01*
X105423061Y-126659500D01*
X105626939Y-126659500D01*
X105826898Y-126619726D01*
X106015256Y-126541705D01*
X106184774Y-126428437D01*
X106328937Y-126284274D01*
X106442205Y-126114756D01*
X106520226Y-125926398D01*
X106560000Y-125726439D01*
X106560000Y-125522561D01*
X106520226Y-125322602D01*
X106442205Y-125134244D01*
X106441735Y-125133540D01*
X106505824Y-125037624D01*
X106591383Y-124831067D01*
X106635000Y-124611788D01*
X106635000Y-124388212D01*
X109865000Y-124388212D01*
X109865000Y-124611788D01*
X109908617Y-124831067D01*
X109994176Y-125037624D01*
X110118388Y-125223520D01*
X110276480Y-125381612D01*
X110462376Y-125505824D01*
X110668933Y-125591383D01*
X110888212Y-125635000D01*
X111060199Y-125635000D01*
X111450358Y-126025160D01*
X111388095Y-126118344D01*
X111310074Y-126306702D01*
X111270300Y-126506661D01*
X111270300Y-126710539D01*
X111310074Y-126910498D01*
X111388095Y-127098856D01*
X111501363Y-127268374D01*
X111645526Y-127412537D01*
X111815044Y-127525805D01*
X112003402Y-127603826D01*
X112203361Y-127643600D01*
X112407239Y-127643600D01*
X112607198Y-127603826D01*
X112795556Y-127525805D01*
X112965074Y-127412537D01*
X113109237Y-127268374D01*
X113222505Y-127098856D01*
X113300526Y-126910498D01*
X113340300Y-126710539D01*
X113340300Y-126506661D01*
X113300526Y-126306702D01*
X113222505Y-126118344D01*
X113109237Y-125948826D01*
X113065300Y-125904889D01*
X113065300Y-125842623D01*
X113068976Y-125805300D01*
X113065300Y-125767977D01*
X113065300Y-125767967D01*
X113054303Y-125656314D01*
X113010846Y-125513053D01*
X113006982Y-125505824D01*
X112940274Y-125381023D01*
X112869099Y-125294297D01*
X112845301Y-125265299D01*
X112816304Y-125241502D01*
X112135000Y-124560199D01*
X112135000Y-124388212D01*
X112091383Y-124168933D01*
X112005824Y-123962376D01*
X111881612Y-123776480D01*
X111723520Y-123618388D01*
X111537624Y-123494176D01*
X111331067Y-123408617D01*
X111111788Y-123365000D01*
X110888212Y-123365000D01*
X110668933Y-123408617D01*
X110462376Y-123494176D01*
X110276480Y-123618388D01*
X110118388Y-123776480D01*
X109994176Y-123962376D01*
X109908617Y-124168933D01*
X109865000Y-124388212D01*
X106635000Y-124388212D01*
X106591383Y-124168933D01*
X106505824Y-123962376D01*
X106381612Y-123776480D01*
X106223520Y-123618388D01*
X106037624Y-123494176D01*
X105831067Y-123408617D01*
X105611788Y-123365000D01*
X105388212Y-123365000D01*
X105168933Y-123408617D01*
X104962376Y-123494176D01*
X104776480Y-123618388D01*
X104618388Y-123776480D01*
X104494176Y-123962376D01*
X104408617Y-124168933D01*
X104365000Y-124388212D01*
X99228484Y-124388212D01*
X99111788Y-124365000D01*
X98888212Y-124365000D01*
X98668933Y-124408617D01*
X98462376Y-124494176D01*
X98276480Y-124618388D01*
X98118388Y-124776480D01*
X97994176Y-124962376D01*
X97908617Y-125168933D01*
X97865000Y-125388212D01*
X97865000Y-125560198D01*
X95958303Y-127466896D01*
X95929299Y-127490699D01*
X95900489Y-127525805D01*
X95834326Y-127606424D01*
X95814455Y-127643600D01*
X95763754Y-127738454D01*
X95720297Y-127881715D01*
X95709300Y-127993368D01*
X95709300Y-127993378D01*
X95705624Y-128030700D01*
X95709300Y-128068022D01*
X95709300Y-128209289D01*
X95665363Y-128253226D01*
X95552095Y-128422744D01*
X95474074Y-128611102D01*
X95434300Y-128811061D01*
X87710000Y-128811061D01*
X87710000Y-126278166D01*
X90901439Y-126278166D01*
X90936550Y-126491588D01*
X91140826Y-126582458D01*
X91358905Y-126631731D01*
X91582406Y-126637511D01*
X91802740Y-126599577D01*
X92011440Y-126519387D01*
X92063450Y-126491588D01*
X92098561Y-126278166D01*
X91500000Y-125679605D01*
X90901439Y-126278166D01*
X87710000Y-126278166D01*
X87710000Y-125582406D01*
X90362489Y-125582406D01*
X90400423Y-125802740D01*
X90480613Y-126011440D01*
X90508412Y-126063450D01*
X90721834Y-126098561D01*
X91320395Y-125500000D01*
X91679605Y-125500000D01*
X92278166Y-126098561D01*
X92491588Y-126063450D01*
X92582458Y-125859174D01*
X92631731Y-125641095D01*
X92637511Y-125417594D01*
X92599577Y-125197260D01*
X92519387Y-124988560D01*
X92491588Y-124936550D01*
X92278166Y-124901439D01*
X91679605Y-125500000D01*
X91320395Y-125500000D01*
X90721834Y-124901439D01*
X90508412Y-124936550D01*
X90417542Y-125140826D01*
X90368269Y-125358905D01*
X90362489Y-125582406D01*
X87710000Y-125582406D01*
X87710000Y-124721834D01*
X90901439Y-124721834D01*
X91500000Y-125320395D01*
X92098561Y-124721834D01*
X92063450Y-124508412D01*
X91859174Y-124417542D01*
X91641095Y-124368269D01*
X91417594Y-124362489D01*
X91197260Y-124400423D01*
X90988560Y-124480613D01*
X90936550Y-124508412D01*
X90901439Y-124721834D01*
X87710000Y-124721834D01*
X87710000Y-117992103D01*
X87870844Y-118152947D01*
X88286859Y-118430919D01*
X88749109Y-118622389D01*
X89239832Y-118720000D01*
X89740168Y-118720000D01*
X90230891Y-118622389D01*
X90693141Y-118430919D01*
X91109156Y-118152947D01*
X91462947Y-117799156D01*
X91740919Y-117383141D01*
X91932389Y-116920891D01*
X92030000Y-116430168D01*
X92030000Y-115929832D01*
X91932389Y-115439109D01*
X91740919Y-114976859D01*
X91462947Y-114560844D01*
X91109156Y-114207053D01*
X90693141Y-113929081D01*
X90230891Y-113737611D01*
X89740168Y-113640000D01*
X89239832Y-113640000D01*
X88749109Y-113737611D01*
X88286859Y-113929081D01*
X87870844Y-114207053D01*
X87710000Y-114367897D01*
X87710000Y-85848816D01*
X87965000Y-85848816D01*
X87965000Y-86151184D01*
X88023989Y-86447743D01*
X88139701Y-86727095D01*
X88307688Y-86978505D01*
X88521495Y-87192312D01*
X88607831Y-87250000D01*
X88521495Y-87307688D01*
X88307688Y-87521495D01*
X88139701Y-87772905D01*
X88023989Y-88052257D01*
X87965000Y-88348816D01*
X87965000Y-88651184D01*
X88023989Y-88947743D01*
X88139701Y-89227095D01*
X88307688Y-89478505D01*
X88521495Y-89692312D01*
X88607831Y-89750000D01*
X88521495Y-89807688D01*
X88307688Y-90021495D01*
X88139701Y-90272905D01*
X88023989Y-90552257D01*
X87965000Y-90848816D01*
X87965000Y-91151184D01*
X88023989Y-91447743D01*
X88139701Y-91727095D01*
X88307688Y-91978505D01*
X88521495Y-92192312D01*
X88772905Y-92360299D01*
X89052257Y-92476011D01*
X89348816Y-92535000D01*
X89651184Y-92535000D01*
X89947743Y-92476011D01*
X90067955Y-92426217D01*
X89977791Y-92643892D01*
X89865000Y-93210928D01*
X89865000Y-93789072D01*
X89977791Y-94356108D01*
X90199037Y-94890244D01*
X90520237Y-95370953D01*
X90929047Y-95779763D01*
X91409756Y-96100963D01*
X91943892Y-96322209D01*
X92510928Y-96435000D01*
X93089072Y-96435000D01*
X93656108Y-96322209D01*
X94190244Y-96100963D01*
X94670953Y-95779763D01*
X95079763Y-95370953D01*
X95400963Y-94890244D01*
X95622209Y-94356108D01*
X95735000Y-93789072D01*
X95735000Y-93210928D01*
X95622209Y-92643892D01*
X95400963Y-92109756D01*
X95079763Y-91629047D01*
X94670953Y-91220237D01*
X94190244Y-90899037D01*
X93656108Y-90677791D01*
X93089072Y-90565000D01*
X92510928Y-90565000D01*
X91943892Y-90677791D01*
X91409756Y-90899037D01*
X91035000Y-91149441D01*
X91035000Y-90848816D01*
X90976011Y-90552257D01*
X90860299Y-90272905D01*
X90692312Y-90021495D01*
X90478505Y-89807688D01*
X90392169Y-89750000D01*
X90478505Y-89692312D01*
X90692312Y-89478505D01*
X90838313Y-89260000D01*
X98924999Y-89260000D01*
X106459500Y-96794502D01*
X106459500Y-96856639D01*
X106499274Y-97056598D01*
X106577295Y-97244956D01*
X106690563Y-97414474D01*
X106834726Y-97558637D01*
X107004244Y-97671905D01*
X107096603Y-97710162D01*
X107128874Y-97872398D01*
X107206895Y-98060756D01*
X107320163Y-98230274D01*
X107464326Y-98374437D01*
X107633844Y-98487705D01*
X107822202Y-98565726D01*
X108022161Y-98605500D01*
X108226039Y-98605500D01*
X108241436Y-98602437D01*
X110312900Y-100673902D01*
X110312900Y-100736039D01*
X110352674Y-100935998D01*
X110430695Y-101124356D01*
X110543963Y-101293874D01*
X110688126Y-101438037D01*
X110857644Y-101551305D01*
X111046002Y-101629326D01*
X111245961Y-101669100D01*
X111313200Y-101669100D01*
X111313200Y-102829261D01*
X111205855Y-102900987D01*
X103243546Y-94938679D01*
X103217391Y-94906809D01*
X103090246Y-94802464D01*
X102945187Y-94724928D01*
X102787789Y-94677182D01*
X102772515Y-94675678D01*
X102633656Y-94582895D01*
X102445298Y-94504874D01*
X102245339Y-94465100D01*
X102041461Y-94465100D01*
X101841502Y-94504874D01*
X101653144Y-94582895D01*
X101483626Y-94696163D01*
X101339463Y-94840326D01*
X101226195Y-95009844D01*
X101148174Y-95198202D01*
X101108400Y-95398161D01*
X101108400Y-95602039D01*
X101148174Y-95801998D01*
X101226195Y-95990356D01*
X101339463Y-96159874D01*
X101483626Y-96304037D01*
X101653144Y-96417305D01*
X101841502Y-96495326D01*
X102041461Y-96535100D01*
X102245339Y-96535100D01*
X102439594Y-96496461D01*
X108772716Y-102829584D01*
X108596238Y-102947503D01*
X108407503Y-103136238D01*
X108259215Y-103358167D01*
X108190000Y-103525266D01*
X108120785Y-103358167D01*
X107972497Y-103136238D01*
X107783762Y-102947503D01*
X107561833Y-102799215D01*
X107315239Y-102697072D01*
X107053456Y-102645000D01*
X106786544Y-102645000D01*
X106524761Y-102697072D01*
X106278167Y-102799215D01*
X106056238Y-102947503D01*
X105867503Y-103136238D01*
X105719215Y-103358167D01*
X105617072Y-103604761D01*
X105565000Y-103866544D01*
X105565000Y-104133456D01*
X105573925Y-104178323D01*
X103534700Y-102139099D01*
X103534700Y-102076961D01*
X103494926Y-101877002D01*
X103416905Y-101688644D01*
X103303637Y-101519126D01*
X103159474Y-101374963D01*
X102989956Y-101261695D01*
X102801598Y-101183674D01*
X102601639Y-101143900D01*
X102397761Y-101143900D01*
X102197802Y-101183674D01*
X102009444Y-101261695D01*
X101839926Y-101374963D01*
X101795989Y-101418900D01*
X95031816Y-101418900D01*
X95079763Y-101370953D01*
X95400963Y-100890244D01*
X95622209Y-100356108D01*
X95735000Y-99789072D01*
X95735000Y-99210928D01*
X95622209Y-98643892D01*
X95400963Y-98109756D01*
X95079763Y-97629047D01*
X94670953Y-97220237D01*
X94190244Y-96899037D01*
X93656108Y-96677791D01*
X93089072Y-96565000D01*
X92510928Y-96565000D01*
X91943892Y-96677791D01*
X91409756Y-96899037D01*
X90929047Y-97220237D01*
X90520237Y-97629047D01*
X90199037Y-98109756D01*
X89977791Y-98643892D01*
X89865000Y-99210928D01*
X89865000Y-99789072D01*
X89977791Y-100356108D01*
X90067955Y-100573783D01*
X89947743Y-100523989D01*
X89651184Y-100465000D01*
X89348816Y-100465000D01*
X89052257Y-100523989D01*
X88772905Y-100639701D01*
X88521495Y-100807688D01*
X88307688Y-101021495D01*
X88139701Y-101272905D01*
X88023989Y-101552257D01*
X87965000Y-101848816D01*
X87965000Y-102151184D01*
X88023989Y-102447743D01*
X88139701Y-102727095D01*
X88307688Y-102978505D01*
X88521495Y-103192312D01*
X88607831Y-103250000D01*
X88521495Y-103307688D01*
X88307688Y-103521495D01*
X88139701Y-103772905D01*
X88023989Y-104052257D01*
X87965000Y-104348816D01*
X87965000Y-104651184D01*
X88023989Y-104947743D01*
X88139701Y-105227095D01*
X88307688Y-105478505D01*
X88521495Y-105692312D01*
X88607831Y-105750000D01*
X88521495Y-105807688D01*
X88307688Y-106021495D01*
X88139701Y-106272905D01*
X88023989Y-106552257D01*
X87965000Y-106848816D01*
X87965000Y-107151184D01*
X88023989Y-107447743D01*
X88139701Y-107727095D01*
X88307688Y-107978505D01*
X88521495Y-108192312D01*
X88772905Y-108360299D01*
X89052257Y-108476011D01*
X89348816Y-108535000D01*
X89651184Y-108535000D01*
X89947743Y-108476011D01*
X90067955Y-108426217D01*
X89977791Y-108643892D01*
X89865000Y-109210928D01*
X89865000Y-109789072D01*
X89977791Y-110356108D01*
X90199037Y-110890244D01*
X90520237Y-111370953D01*
X90929047Y-111779763D01*
X91409756Y-112100963D01*
X91943892Y-112322209D01*
X92510928Y-112435000D01*
X93089072Y-112435000D01*
X93656108Y-112322209D01*
X94190244Y-112100963D01*
X94670953Y-111779763D01*
X95079763Y-111370953D01*
X95400963Y-110890244D01*
X95472821Y-110716761D01*
X96465000Y-110716761D01*
X96465000Y-110920639D01*
X96504774Y-111120598D01*
X96582795Y-111308956D01*
X96696063Y-111478474D01*
X96840226Y-111622637D01*
X97009744Y-111735905D01*
X97198102Y-111813926D01*
X97398061Y-111853700D01*
X97601939Y-111853700D01*
X97801898Y-111813926D01*
X97990256Y-111735905D01*
X98159774Y-111622637D01*
X98203711Y-111578700D01*
X101338210Y-111578700D01*
X101384163Y-111647474D01*
X101528326Y-111791637D01*
X101697844Y-111904905D01*
X101886202Y-111982926D01*
X102086161Y-112022700D01*
X102290039Y-112022700D01*
X102489998Y-111982926D01*
X102678356Y-111904905D01*
X102847874Y-111791637D01*
X102992037Y-111647474D01*
X103105305Y-111477956D01*
X103183326Y-111289598D01*
X103223100Y-111089639D01*
X103223100Y-110885761D01*
X103183326Y-110685802D01*
X103105305Y-110497444D01*
X102992037Y-110327926D01*
X102847874Y-110183763D01*
X102678356Y-110070495D01*
X102489998Y-109992474D01*
X102290039Y-109952700D01*
X102086161Y-109952700D01*
X101886202Y-109992474D01*
X101726319Y-110058700D01*
X98203711Y-110058700D01*
X98159774Y-110014763D01*
X97990256Y-109901495D01*
X97801898Y-109823474D01*
X97601939Y-109783700D01*
X97398061Y-109783700D01*
X97198102Y-109823474D01*
X97009744Y-109901495D01*
X96840226Y-110014763D01*
X96696063Y-110158926D01*
X96582795Y-110328444D01*
X96504774Y-110516802D01*
X96465000Y-110716761D01*
X95472821Y-110716761D01*
X95622209Y-110356108D01*
X95735000Y-109789072D01*
X95735000Y-109210928D01*
X95622209Y-108643892D01*
X95400963Y-108109756D01*
X95079763Y-107629047D01*
X94670953Y-107220237D01*
X94190244Y-106899037D01*
X93656108Y-106677791D01*
X93089072Y-106565000D01*
X92510928Y-106565000D01*
X91943892Y-106677791D01*
X91409756Y-106899037D01*
X91035000Y-107149441D01*
X91035000Y-106848816D01*
X90976011Y-106552257D01*
X90860299Y-106272905D01*
X90692312Y-106021495D01*
X90478505Y-105807688D01*
X90392169Y-105750000D01*
X90478505Y-105692312D01*
X90692312Y-105478505D01*
X90860299Y-105227095D01*
X90976011Y-104947743D01*
X91035000Y-104651184D01*
X91035000Y-104447100D01*
X101293289Y-104447100D01*
X101337226Y-104491037D01*
X101506744Y-104604305D01*
X101695102Y-104682326D01*
X101895061Y-104722100D01*
X102098939Y-104722100D01*
X102298898Y-104682326D01*
X102487256Y-104604305D01*
X102656774Y-104491037D01*
X102800937Y-104346874D01*
X102914205Y-104177356D01*
X102992226Y-103988998D01*
X103032000Y-103789039D01*
X103032000Y-103786001D01*
X105290001Y-106044003D01*
X105313799Y-106073001D01*
X105429524Y-106167974D01*
X105561553Y-106238546D01*
X105704814Y-106282003D01*
X105816467Y-106293000D01*
X105816475Y-106293000D01*
X105853800Y-106296676D01*
X105891125Y-106293000D01*
X109178931Y-106293000D01*
X103473897Y-111998036D01*
X103459211Y-111999482D01*
X103301813Y-112047228D01*
X103156754Y-112124764D01*
X103029609Y-112229109D01*
X103003461Y-112260971D01*
X101595679Y-113668754D01*
X101563809Y-113694909D01*
X101468479Y-113811070D01*
X101459464Y-113822055D01*
X101381928Y-113967114D01*
X101334182Y-114124512D01*
X101318060Y-114288200D01*
X101322100Y-114329219D01*
X101322101Y-115407072D01*
X101318060Y-115448100D01*
X101334182Y-115611788D01*
X101381928Y-115769186D01*
X101381929Y-115769187D01*
X101459465Y-115914246D01*
X101563810Y-116041391D01*
X101595674Y-116067541D01*
X104506759Y-118978627D01*
X104532909Y-119010491D01*
X104660054Y-119114836D01*
X104805113Y-119192372D01*
X104962511Y-119240118D01*
X105085181Y-119252200D01*
X105085191Y-119252200D01*
X105126199Y-119256239D01*
X105167207Y-119252200D01*
X105623715Y-119252200D01*
X105746744Y-119334405D01*
X105935102Y-119412426D01*
X106135061Y-119452200D01*
X106338939Y-119452200D01*
X106538898Y-119412426D01*
X106727256Y-119334405D01*
X106896774Y-119221137D01*
X106944321Y-119173590D01*
X107944563Y-120173832D01*
X107970709Y-120205691D01*
X108002568Y-120231837D01*
X108002570Y-120231839D01*
X108097854Y-120310036D01*
X108242913Y-120387572D01*
X108400311Y-120435318D01*
X108564000Y-120451440D01*
X108605018Y-120447400D01*
X118352200Y-120447400D01*
X118352201Y-122667672D01*
X118348160Y-122708700D01*
X118364282Y-122872388D01*
X118412028Y-123029786D01*
X118442877Y-123087500D01*
X118489565Y-123174846D01*
X118593910Y-123301991D01*
X118625774Y-123328141D01*
X119576908Y-124279275D01*
X119605774Y-124424398D01*
X119683795Y-124612756D01*
X119797063Y-124782274D01*
X119941226Y-124926437D01*
X120110744Y-125039705D01*
X120299102Y-125117726D01*
X120499061Y-125157500D01*
X120702939Y-125157500D01*
X120762225Y-125145707D01*
X114581735Y-131326198D01*
X110930443Y-131326198D01*
X110807414Y-131243993D01*
X110619056Y-131165972D01*
X110419097Y-131126198D01*
X110215219Y-131126198D01*
X110015260Y-131165972D01*
X109826902Y-131243993D01*
X109657384Y-131357261D01*
X109513221Y-131501424D01*
X109399953Y-131670942D01*
X109321932Y-131859300D01*
X109282158Y-132059259D01*
X109282158Y-132263137D01*
X109321932Y-132463096D01*
X109399953Y-132651454D01*
X109513221Y-132820972D01*
X109657384Y-132965135D01*
X109826902Y-133078403D01*
X110015260Y-133156424D01*
X110215219Y-133196198D01*
X110419097Y-133196198D01*
X110619056Y-133156424D01*
X110807414Y-133078403D01*
X110930443Y-132996198D01*
X114886584Y-132996198D01*
X114927602Y-133000238D01*
X114968620Y-132996198D01*
X114968621Y-132996198D01*
X115091291Y-132984116D01*
X115248689Y-132936370D01*
X115393748Y-132858834D01*
X115520893Y-132754489D01*
X115547048Y-132722619D01*
X122800296Y-125469372D01*
X122828995Y-125538656D01*
X122942263Y-125708174D01*
X123086426Y-125852337D01*
X123255944Y-125965605D01*
X123444302Y-126043626D01*
X123644261Y-126083400D01*
X123848139Y-126083400D01*
X124048098Y-126043626D01*
X124236456Y-125965605D01*
X124405974Y-125852337D01*
X124449911Y-125808400D01*
X124496399Y-125808400D01*
X129950079Y-131262081D01*
X129694092Y-131646061D01*
X129635754Y-131755204D01*
X129599319Y-131874864D01*
X129586928Y-131999333D01*
X129599059Y-132123827D01*
X129635243Y-132243563D01*
X129694092Y-132353939D01*
X130194092Y-133103939D01*
X130273815Y-133201185D01*
X130370506Y-133280537D01*
X130480820Y-133339502D01*
X130600518Y-133375812D01*
X130725000Y-133388072D01*
X131725000Y-133388072D01*
X131849482Y-133375812D01*
X131969180Y-133339502D01*
X132079494Y-133280537D01*
X132176185Y-133201185D01*
X132255537Y-133104494D01*
X132314502Y-132994180D01*
X132350812Y-132874482D01*
X132363072Y-132750000D01*
X132363072Y-131250000D01*
X132350812Y-131125518D01*
X132314502Y-131005820D01*
X132255537Y-130895506D01*
X132176185Y-130798815D01*
X132079494Y-130719463D01*
X131969180Y-130660498D01*
X131849482Y-130624188D01*
X131725000Y-130611928D01*
X131449530Y-130611928D01*
X125375004Y-124537403D01*
X125351201Y-124508399D01*
X125235476Y-124413426D01*
X125103447Y-124342854D01*
X124960186Y-124299397D01*
X124848533Y-124288400D01*
X124848522Y-124288400D01*
X124811200Y-124284724D01*
X124773878Y-124288400D01*
X124449911Y-124288400D01*
X124405974Y-124244463D01*
X124341974Y-124201700D01*
X124744982Y-124201700D01*
X124786000Y-124205740D01*
X124827018Y-124201700D01*
X124827019Y-124201700D01*
X124949689Y-124189618D01*
X125107087Y-124141872D01*
X125252146Y-124064336D01*
X125379291Y-123959991D01*
X125405446Y-123928121D01*
X133250932Y-116082637D01*
X133282791Y-116056491D01*
X133325320Y-116004669D01*
X133325320Y-116365625D01*
X133397747Y-116729741D01*
X133539818Y-117072731D01*
X133746074Y-117381413D01*
X134008587Y-117643926D01*
X134317269Y-117850182D01*
X134660259Y-117992253D01*
X135024375Y-118064680D01*
X135395625Y-118064680D01*
X135759741Y-117992253D01*
X136102731Y-117850182D01*
X136411413Y-117643926D01*
X136673926Y-117381413D01*
X136880182Y-117072731D01*
X137022253Y-116729741D01*
X137094680Y-116365625D01*
X137094680Y-115994375D01*
X137022253Y-115630259D01*
X136880182Y-115287269D01*
X136673926Y-114978587D01*
X136411413Y-114716074D01*
X136102731Y-114509818D01*
X135759741Y-114367747D01*
X135395625Y-114295320D01*
X135024375Y-114295320D01*
X134660259Y-114367747D01*
X134317269Y-114509818D01*
X134008587Y-114716074D01*
X133746074Y-114978587D01*
X133539818Y-115287269D01*
X133524500Y-115324250D01*
X133524500Y-114413518D01*
X133528540Y-114372500D01*
X133512418Y-114208811D01*
X133464672Y-114051413D01*
X133387136Y-113906354D01*
X133308939Y-113811070D01*
X133308937Y-113811068D01*
X133282791Y-113779209D01*
X133250933Y-113753064D01*
X131758746Y-112260878D01*
X131732591Y-112229009D01*
X131605446Y-112124664D01*
X131460387Y-112047128D01*
X131302989Y-111999382D01*
X131180319Y-111987300D01*
X131180318Y-111987300D01*
X131139300Y-111983260D01*
X131098282Y-111987300D01*
X128895568Y-111987300D01*
X125715908Y-108807640D01*
X125946632Y-108653475D01*
X126071710Y-108528397D01*
X126651208Y-108528397D01*
X126728843Y-108777472D01*
X126992883Y-108903371D01*
X127276411Y-108975339D01*
X127568531Y-108990611D01*
X127858019Y-108948599D01*
X128133747Y-108850919D01*
X128271157Y-108777472D01*
X128348792Y-108528397D01*
X127500000Y-107679605D01*
X126651208Y-108528397D01*
X126071710Y-108528397D01*
X126153475Y-108446632D01*
X126262416Y-108283590D01*
X126471603Y-108348792D01*
X127320395Y-107500000D01*
X127679605Y-107500000D01*
X128528397Y-108348792D01*
X128777472Y-108271157D01*
X128903371Y-108007117D01*
X128975339Y-107723589D01*
X128990611Y-107431469D01*
X128948599Y-107141981D01*
X128850919Y-106866253D01*
X128777472Y-106728843D01*
X128528397Y-106651208D01*
X127679605Y-107500000D01*
X127320395Y-107500000D01*
X126471603Y-106651208D01*
X126262416Y-106716410D01*
X126153475Y-106553368D01*
X125992459Y-106392352D01*
X126093386Y-106338405D01*
X126227962Y-106227962D01*
X126338405Y-106093386D01*
X126392352Y-105992459D01*
X126553368Y-106153475D01*
X126716410Y-106262416D01*
X126651208Y-106471603D01*
X127500000Y-107320395D01*
X128348792Y-106471603D01*
X128283590Y-106262416D01*
X128446632Y-106153475D01*
X128653475Y-105946632D01*
X128815990Y-105703411D01*
X128927932Y-105433158D01*
X128985000Y-105146260D01*
X128985000Y-104853740D01*
X133195000Y-104853740D01*
X133195000Y-105146260D01*
X133252068Y-105433158D01*
X133364010Y-105703411D01*
X133526525Y-105946632D01*
X133733368Y-106153475D01*
X133877828Y-106250000D01*
X133733368Y-106346525D01*
X133526525Y-106553368D01*
X133364010Y-106796589D01*
X133252068Y-107066842D01*
X133195000Y-107353740D01*
X133195000Y-107646260D01*
X133252068Y-107933158D01*
X133364010Y-108203411D01*
X133526525Y-108446632D01*
X133733368Y-108653475D01*
X133976589Y-108815990D01*
X134246842Y-108927932D01*
X134533740Y-108985000D01*
X134826260Y-108985000D01*
X135113158Y-108927932D01*
X135383411Y-108815990D01*
X135626632Y-108653475D01*
X135833475Y-108446632D01*
X135995990Y-108203411D01*
X136107932Y-107933158D01*
X136165000Y-107646260D01*
X136165000Y-107353740D01*
X136107932Y-107066842D01*
X135995990Y-106796589D01*
X135833475Y-106553368D01*
X135626632Y-106346525D01*
X135482172Y-106250000D01*
X135626632Y-106153475D01*
X135833475Y-105946632D01*
X135995990Y-105703411D01*
X136107932Y-105433158D01*
X136165000Y-105146260D01*
X136165000Y-104853740D01*
X136107932Y-104566842D01*
X135995990Y-104296589D01*
X135833475Y-104053368D01*
X135626632Y-103846525D01*
X135383411Y-103684010D01*
X135113158Y-103572068D01*
X134826260Y-103515000D01*
X134533740Y-103515000D01*
X134246842Y-103572068D01*
X133976589Y-103684010D01*
X133733368Y-103846525D01*
X133526525Y-104053368D01*
X133364010Y-104296589D01*
X133252068Y-104566842D01*
X133195000Y-104853740D01*
X128985000Y-104853740D01*
X128927932Y-104566842D01*
X128815990Y-104296589D01*
X128653475Y-104053368D01*
X128446632Y-103846525D01*
X128203411Y-103684010D01*
X127933158Y-103572068D01*
X127646260Y-103515000D01*
X127353740Y-103515000D01*
X127066842Y-103572068D01*
X126796589Y-103684010D01*
X126553368Y-103846525D01*
X126392352Y-104007541D01*
X126338405Y-103906614D01*
X126227962Y-103772038D01*
X126093386Y-103661595D01*
X125939850Y-103579528D01*
X125773254Y-103528992D01*
X125600000Y-103511928D01*
X124400000Y-103511928D01*
X124226746Y-103528992D01*
X124060150Y-103579528D01*
X123906614Y-103661595D01*
X123772038Y-103772038D01*
X123661595Y-103906614D01*
X123579528Y-104060150D01*
X123528992Y-104226746D01*
X123511928Y-104400000D01*
X123511928Y-105600000D01*
X123528992Y-105773254D01*
X123579528Y-105939850D01*
X123661595Y-106093386D01*
X123772038Y-106227962D01*
X123906614Y-106338405D01*
X124007541Y-106392352D01*
X123846525Y-106553368D01*
X123692360Y-106784092D01*
X113654300Y-96746033D01*
X113654300Y-94516385D01*
X113736505Y-94393356D01*
X113814526Y-94204998D01*
X113854300Y-94005039D01*
X113854300Y-93801161D01*
X113814526Y-93601202D01*
X113736505Y-93412844D01*
X113623237Y-93243326D01*
X113479074Y-93099163D01*
X113309556Y-92985895D01*
X113121198Y-92907874D01*
X112921239Y-92868100D01*
X112833200Y-92868100D01*
X112833200Y-92030701D01*
X118814001Y-98011503D01*
X118837799Y-98040501D01*
X118953524Y-98135474D01*
X119085553Y-98206046D01*
X119228814Y-98249503D01*
X119340467Y-98260500D01*
X119340475Y-98260500D01*
X119377800Y-98264176D01*
X119415125Y-98260500D01*
X120205789Y-98260500D01*
X120249726Y-98304437D01*
X120419244Y-98417705D01*
X120607602Y-98495726D01*
X120807561Y-98535500D01*
X121011439Y-98535500D01*
X121211398Y-98495726D01*
X121399756Y-98417705D01*
X121569274Y-98304437D01*
X121713437Y-98160274D01*
X121826705Y-97990756D01*
X121904726Y-97802398D01*
X121944500Y-97602439D01*
X121944500Y-97398561D01*
X121904726Y-97198602D01*
X121826705Y-97010244D01*
X121713437Y-96840726D01*
X121569274Y-96696563D01*
X121399756Y-96583295D01*
X121211398Y-96505274D01*
X121011439Y-96465500D01*
X120807561Y-96465500D01*
X120607602Y-96505274D01*
X120419244Y-96583295D01*
X120249726Y-96696563D01*
X120205789Y-96740500D01*
X119692602Y-96740500D01*
X116805842Y-93853740D01*
X126015000Y-93853740D01*
X126015000Y-94146260D01*
X126072068Y-94433158D01*
X126184010Y-94703411D01*
X126346525Y-94946632D01*
X126553368Y-95153475D01*
X126796589Y-95315990D01*
X127066842Y-95427932D01*
X127353740Y-95485000D01*
X127646260Y-95485000D01*
X127933158Y-95427932D01*
X128203411Y-95315990D01*
X128446632Y-95153475D01*
X128653475Y-94946632D01*
X128815990Y-94703411D01*
X128927932Y-94433158D01*
X128985000Y-94146260D01*
X128985000Y-93853740D01*
X133015000Y-93853740D01*
X133015000Y-94146260D01*
X133072068Y-94433158D01*
X133184010Y-94703411D01*
X133346525Y-94946632D01*
X133553368Y-95153475D01*
X133796589Y-95315990D01*
X134066842Y-95427932D01*
X134353740Y-95485000D01*
X134646260Y-95485000D01*
X134933158Y-95427932D01*
X135203411Y-95315990D01*
X135446632Y-95153475D01*
X135653475Y-94946632D01*
X135815990Y-94703411D01*
X135927932Y-94433158D01*
X135985000Y-94146260D01*
X135985000Y-93853740D01*
X135927932Y-93566842D01*
X135815990Y-93296589D01*
X135653475Y-93053368D01*
X135446632Y-92846525D01*
X135203411Y-92684010D01*
X134933158Y-92572068D01*
X134646260Y-92515000D01*
X134353740Y-92515000D01*
X134066842Y-92572068D01*
X133796589Y-92684010D01*
X133553368Y-92846525D01*
X133346525Y-93053368D01*
X133184010Y-93296589D01*
X133072068Y-93566842D01*
X133015000Y-93853740D01*
X128985000Y-93853740D01*
X128927932Y-93566842D01*
X128815990Y-93296589D01*
X128653475Y-93053368D01*
X128446632Y-92846525D01*
X128203411Y-92684010D01*
X127933158Y-92572068D01*
X127646260Y-92515000D01*
X127353740Y-92515000D01*
X127066842Y-92572068D01*
X126796589Y-92684010D01*
X126553368Y-92846525D01*
X126346525Y-93053368D01*
X126184010Y-93296589D01*
X126072068Y-93566842D01*
X126015000Y-93853740D01*
X116805842Y-93853740D01*
X115840173Y-92888072D01*
X116425000Y-92888072D01*
X116548827Y-92875941D01*
X116574935Y-92868051D01*
X116600518Y-92875812D01*
X116725000Y-92888072D01*
X117725000Y-92888072D01*
X117849482Y-92875812D01*
X117969180Y-92839502D01*
X118079494Y-92780537D01*
X118176185Y-92701185D01*
X118255537Y-92604494D01*
X118314502Y-92494180D01*
X118350812Y-92374482D01*
X118362087Y-92260000D01*
X118701478Y-92260000D01*
X118738800Y-92263676D01*
X118776122Y-92260000D01*
X118776133Y-92260000D01*
X118887786Y-92249003D01*
X119031047Y-92205546D01*
X119163076Y-92134974D01*
X119278801Y-92040001D01*
X119302604Y-92010997D01*
X129290251Y-82023351D01*
X129348816Y-82035000D01*
X129649441Y-82035000D01*
X129399037Y-82409756D01*
X129177791Y-82943892D01*
X129065000Y-83510928D01*
X129065000Y-84089072D01*
X129177791Y-84656108D01*
X129399037Y-85190244D01*
X129720237Y-85670953D01*
X130129047Y-86079763D01*
X130609756Y-86400963D01*
X131143892Y-86622209D01*
X131710928Y-86735000D01*
X132289072Y-86735000D01*
X132856108Y-86622209D01*
X133390244Y-86400963D01*
X133870953Y-86079763D01*
X134279763Y-85670953D01*
X134600963Y-85190244D01*
X134822209Y-84656108D01*
X134935000Y-84089072D01*
X134935000Y-83510928D01*
X134822209Y-82943892D01*
X134600963Y-82409756D01*
X134279763Y-81929047D01*
X133870953Y-81520237D01*
X133390244Y-81199037D01*
X132856108Y-80977791D01*
X132289072Y-80865000D01*
X131710928Y-80865000D01*
X131143892Y-80977791D01*
X130926217Y-81067955D01*
X130976011Y-80947743D01*
X131035000Y-80651184D01*
X131035000Y-80348816D01*
X130976011Y-80052257D01*
X130860299Y-79772905D01*
X130692312Y-79521495D01*
X130478505Y-79307688D01*
X130227095Y-79139701D01*
X129947743Y-79023989D01*
X129651184Y-78965000D01*
X129348816Y-78965000D01*
X129052257Y-79023989D01*
X128772905Y-79139701D01*
X128521495Y-79307688D01*
X128307688Y-79521495D01*
X128250000Y-79607831D01*
X128192312Y-79521495D01*
X127978505Y-79307688D01*
X127727095Y-79139701D01*
X127447743Y-79023989D01*
X127151184Y-78965000D01*
X126848816Y-78965000D01*
X126552257Y-79023989D01*
X126272905Y-79139701D01*
X126021495Y-79307688D01*
X125807688Y-79521495D01*
X125712262Y-79664310D01*
X125564080Y-79615525D01*
X124679605Y-80500000D01*
X125564080Y-81384475D01*
X125712262Y-81335690D01*
X125807688Y-81478505D01*
X126021495Y-81692312D01*
X126240000Y-81838313D01*
X126240000Y-82207698D01*
X124935000Y-83512698D01*
X124935000Y-83510928D01*
X124822209Y-82943892D01*
X124600963Y-82409756D01*
X124346463Y-82028871D01*
X124566553Y-82040991D01*
X124865907Y-81998397D01*
X125151199Y-81898222D01*
X125300792Y-81818261D01*
X125384475Y-81564080D01*
X124500000Y-80679605D01*
X124485858Y-80693748D01*
X124306253Y-80514143D01*
X124320395Y-80500000D01*
X123435920Y-79615525D01*
X123181739Y-79699208D01*
X123050842Y-79971775D01*
X122975635Y-80264642D01*
X122959009Y-80566553D01*
X123001603Y-80865907D01*
X123072338Y-81067356D01*
X122856108Y-80977791D01*
X122289072Y-80865000D01*
X121710928Y-80865000D01*
X121143892Y-80977791D01*
X120609756Y-81199037D01*
X120129047Y-81520237D01*
X119720237Y-81929047D01*
X119399037Y-82409756D01*
X119177791Y-82943892D01*
X119065000Y-83510928D01*
X119065000Y-84089072D01*
X119177791Y-84656108D01*
X119399037Y-85190244D01*
X119720237Y-85670953D01*
X120129047Y-86079763D01*
X120158885Y-86099700D01*
X115387622Y-86099700D01*
X115350299Y-86096024D01*
X115312976Y-86099700D01*
X115312967Y-86099700D01*
X115201314Y-86110697D01*
X115058053Y-86154154D01*
X114926024Y-86224726D01*
X114810299Y-86319699D01*
X114786501Y-86348697D01*
X111562198Y-89573001D01*
X111533200Y-89596799D01*
X111509402Y-89625797D01*
X111509401Y-89625798D01*
X111438226Y-89712524D01*
X111367654Y-89844554D01*
X111346346Y-89914800D01*
X111327779Y-89976011D01*
X111324198Y-89987815D01*
X111309524Y-90136800D01*
X111313201Y-90174132D01*
X111313201Y-92720271D01*
X111275639Y-92712800D01*
X111071761Y-92712800D01*
X110871802Y-92752574D01*
X110683444Y-92830595D01*
X110513926Y-92943863D01*
X110369763Y-93088026D01*
X110256495Y-93257544D01*
X110178474Y-93445902D01*
X110138700Y-93645861D01*
X110138700Y-93849739D01*
X110178474Y-94049698D01*
X110256495Y-94238056D01*
X110369763Y-94407574D01*
X110413700Y-94451511D01*
X110413701Y-95813569D01*
X110403895Y-95828244D01*
X110325874Y-96016602D01*
X110286100Y-96216561D01*
X110286100Y-96420439D01*
X110325874Y-96620398D01*
X110403895Y-96808756D01*
X110413700Y-96823431D01*
X110413701Y-98241558D01*
X110245026Y-98354263D01*
X110193945Y-98405344D01*
X109134751Y-97346150D01*
X109119326Y-97268602D01*
X109044300Y-97087475D01*
X109044300Y-96503322D01*
X109047976Y-96465999D01*
X109044300Y-96428676D01*
X109044300Y-96428667D01*
X109033303Y-96317014D01*
X108989846Y-96173753D01*
X108919274Y-96041724D01*
X108824301Y-95925999D01*
X108795304Y-95902202D01*
X99973104Y-87080003D01*
X99949301Y-87050999D01*
X99833576Y-86956026D01*
X99701547Y-86885454D01*
X99558286Y-86841997D01*
X99446633Y-86831000D01*
X99446622Y-86831000D01*
X99409300Y-86827324D01*
X99371978Y-86831000D01*
X91405802Y-86831000D01*
X90983731Y-86408930D01*
X91035000Y-86151184D01*
X91035000Y-85850559D01*
X91409756Y-86100963D01*
X91943892Y-86322209D01*
X92510928Y-86435000D01*
X93089072Y-86435000D01*
X93656108Y-86322209D01*
X94190244Y-86100963D01*
X94670953Y-85779763D01*
X95079763Y-85370953D01*
X95400963Y-84890244D01*
X95622209Y-84356108D01*
X95735000Y-83789072D01*
X95735000Y-83510928D01*
X98815000Y-83510928D01*
X98815000Y-84089072D01*
X98927791Y-84656108D01*
X99149037Y-85190244D01*
X99470237Y-85670953D01*
X99879047Y-86079763D01*
X100359756Y-86400963D01*
X100893892Y-86622209D01*
X101460928Y-86735000D01*
X102039072Y-86735000D01*
X102606108Y-86622209D01*
X103140244Y-86400963D01*
X103620953Y-86079763D01*
X104029763Y-85670953D01*
X104350963Y-85190244D01*
X104572209Y-84656108D01*
X104685000Y-84089072D01*
X104685000Y-83510928D01*
X104572209Y-82943892D01*
X104350963Y-82409756D01*
X104100559Y-82035000D01*
X104401184Y-82035000D01*
X104697743Y-81976011D01*
X104977095Y-81860299D01*
X105228505Y-81692312D01*
X105442312Y-81478505D01*
X105500000Y-81392169D01*
X105557688Y-81478505D01*
X105771495Y-81692312D01*
X106022905Y-81860299D01*
X106302257Y-81976011D01*
X106598816Y-82035000D01*
X106901184Y-82035000D01*
X107197743Y-81976011D01*
X107477095Y-81860299D01*
X107728505Y-81692312D01*
X107942312Y-81478505D01*
X108000000Y-81392169D01*
X108057688Y-81478505D01*
X108271495Y-81692312D01*
X108522905Y-81860299D01*
X108802257Y-81976011D01*
X109098816Y-82035000D01*
X109399441Y-82035000D01*
X109149037Y-82409756D01*
X108927791Y-82943892D01*
X108815000Y-83510928D01*
X108815000Y-84089072D01*
X108927791Y-84656108D01*
X109149037Y-85190244D01*
X109470237Y-85670953D01*
X109879047Y-86079763D01*
X110359756Y-86400963D01*
X110893892Y-86622209D01*
X111460928Y-86735000D01*
X112039072Y-86735000D01*
X112606108Y-86622209D01*
X113140244Y-86400963D01*
X113620953Y-86079763D01*
X114029763Y-85670953D01*
X114350963Y-85190244D01*
X114572209Y-84656108D01*
X114685000Y-84089072D01*
X114685000Y-83510928D01*
X114572209Y-82943892D01*
X114350963Y-82409756D01*
X114029763Y-81929047D01*
X113620953Y-81520237D01*
X113140244Y-81199037D01*
X112606108Y-80977791D01*
X112039072Y-80865000D01*
X111460928Y-80865000D01*
X110893892Y-80977791D01*
X110676217Y-81067955D01*
X110726011Y-80947743D01*
X110785000Y-80651184D01*
X110785000Y-80348816D01*
X110726011Y-80052257D01*
X110610299Y-79772905D01*
X110442312Y-79521495D01*
X110356737Y-79435920D01*
X123615525Y-79435920D01*
X124500000Y-80320395D01*
X125384475Y-79435920D01*
X125300792Y-79181739D01*
X125028225Y-79050842D01*
X124735358Y-78975635D01*
X124433447Y-78959009D01*
X124134093Y-79001603D01*
X123848801Y-79101778D01*
X123699208Y-79181739D01*
X123615525Y-79435920D01*
X110356737Y-79435920D01*
X110228505Y-79307688D01*
X109977095Y-79139701D01*
X109697743Y-79023989D01*
X109401184Y-78965000D01*
X109098816Y-78965000D01*
X108802257Y-79023989D01*
X108522905Y-79139701D01*
X108271495Y-79307688D01*
X108057688Y-79521495D01*
X108000000Y-79607831D01*
X107942312Y-79521495D01*
X107728505Y-79307688D01*
X107477095Y-79139701D01*
X107197743Y-79023989D01*
X106901184Y-78965000D01*
X106598816Y-78965000D01*
X106302257Y-79023989D01*
X106022905Y-79139701D01*
X105771495Y-79307688D01*
X105557688Y-79521495D01*
X105500000Y-79607831D01*
X105442312Y-79521495D01*
X105228505Y-79307688D01*
X104977095Y-79139701D01*
X104697743Y-79023989D01*
X104401184Y-78965000D01*
X104098816Y-78965000D01*
X103802257Y-79023989D01*
X103522905Y-79139701D01*
X103271495Y-79307688D01*
X103057688Y-79521495D01*
X102889701Y-79772905D01*
X102773989Y-80052257D01*
X102715000Y-80348816D01*
X102715000Y-80651184D01*
X102773989Y-80947743D01*
X102823783Y-81067955D01*
X102606108Y-80977791D01*
X102039072Y-80865000D01*
X101460928Y-80865000D01*
X100893892Y-80977791D01*
X100359756Y-81199037D01*
X99879047Y-81520237D01*
X99470237Y-81929047D01*
X99149037Y-82409756D01*
X98927791Y-82943892D01*
X98815000Y-83510928D01*
X95735000Y-83510928D01*
X95735000Y-83210928D01*
X95622209Y-82643892D01*
X95400963Y-82109756D01*
X95079763Y-81629047D01*
X94670953Y-81220237D01*
X94190244Y-80899037D01*
X93656108Y-80677791D01*
X93089072Y-80565000D01*
X92510928Y-80565000D01*
X91943892Y-80677791D01*
X91409756Y-80899037D01*
X90929047Y-81220237D01*
X90520237Y-81629047D01*
X90199037Y-82109756D01*
X89977791Y-82643892D01*
X89865000Y-83210928D01*
X89865000Y-83789072D01*
X89977791Y-84356108D01*
X90067955Y-84573783D01*
X89947743Y-84523989D01*
X89651184Y-84465000D01*
X89348816Y-84465000D01*
X89052257Y-84523989D01*
X88772905Y-84639701D01*
X88521495Y-84807688D01*
X88307688Y-85021495D01*
X88139701Y-85272905D01*
X88023989Y-85552257D01*
X87965000Y-85848816D01*
X87710000Y-85848816D01*
X87710000Y-80534721D01*
X87747430Y-80152982D01*
X87848211Y-79819181D01*
X88011907Y-79511313D01*
X88232284Y-79241104D01*
X88500952Y-79018843D01*
X88807663Y-78853005D01*
X89140753Y-78749896D01*
X89520341Y-78710000D01*
X135465279Y-78710000D01*
X135847018Y-78747430D01*
M02*
