G04 #@! TF.GenerationSoftware,KiCad,Pcbnew,(5.99.0-6951-g72beaf1538)*
G04 #@! TF.CreationDate,2020-12-20T08:42:52+11:00*
G04 #@! TF.ProjectId,Tph_Synth_Featherwing,5470685f-5379-46e7-9468-5f4665617468,rev?*
G04 #@! TF.SameCoordinates,Original*
G04 #@! TF.FileFunction,Soldermask,Bot*
G04 #@! TF.FilePolarity,Negative*
%FSLAX46Y46*%
G04 Gerber Fmt 4.6, Leading zero omitted, Abs format (unit mm)*
G04 Created by KiCad (PCBNEW (5.99.0-6951-g72beaf1538)) date 2020-12-20 08:42:52*
%MOMM*%
%LPD*%
G01*
G04 APERTURE LIST*
G04 Aperture macros list*
%AMRoundRect*
0 Rectangle with rounded corners*
0 $1 Rounding radius*
0 $2 $3 $4 $5 $6 $7 $8 $9 X,Y pos of 4 corners*
0 Add a 4 corners polygon primitive as box body*
4,1,4,$2,$3,$4,$5,$6,$7,$8,$9,$2,$3,0*
0 Add four circle primitives for the rounded corners*
1,1,$1+$1,$2,$3,0*
1,1,$1+$1,$4,$5,0*
1,1,$1+$1,$6,$7,0*
1,1,$1+$1,$8,$9,0*
0 Add four rect primitives between the rounded corners*
20,1,$1+$1,$2,$3,$4,$5,0*
20,1,$1+$1,$4,$5,$6,$7,0*
20,1,$1+$1,$6,$7,$8,$9,0*
20,1,$1+$1,$8,$9,$2,$3,0*%
G04 Aperture macros list end*
%ADD10C,3.810000*%
%ADD11C,2.499360*%
%ADD12C,1.778000*%
%ADD13C,4.600000*%
%ADD14C,1.800000*%
%ADD15C,1.440000*%
%ADD16C,1.700000*%
%ADD17RoundRect,0.250000X-0.600000X-0.600000X0.600000X-0.600000X0.600000X0.600000X-0.600000X0.600000X0*%
%ADD18C,1.000000*%
G04 APERTURE END LIST*
D10*
X89490000Y-116180000D03*
X89490000Y-133960000D03*
D11*
X135210000Y-133960000D03*
X135210000Y-116180000D03*
D12*
X93300000Y-135230000D03*
X95840000Y-135230000D03*
X98380000Y-135230000D03*
X100920000Y-135230000D03*
X103460000Y-135230000D03*
X106000000Y-135230000D03*
X108540000Y-135230000D03*
X111080000Y-135230000D03*
X113620000Y-135230000D03*
X116160000Y-135230000D03*
X118700000Y-135230000D03*
X121240000Y-135230000D03*
X123780000Y-135230000D03*
X126320000Y-135230000D03*
X128860000Y-135230000D03*
X131400000Y-135230000D03*
X131400000Y-114910000D03*
X128860000Y-114910000D03*
X126320000Y-114910000D03*
X123780000Y-114910000D03*
X121240000Y-114910000D03*
X118700000Y-114910000D03*
X116160000Y-114910000D03*
X113620000Y-114910000D03*
X111080000Y-114910000D03*
X108540000Y-114910000D03*
X106000000Y-114910000D03*
X103460000Y-114910000D03*
D13*
X92800000Y-109500000D03*
X92800000Y-99500000D03*
D14*
X89500000Y-102000000D03*
X89500000Y-104500000D03*
X89500000Y-107000000D03*
D13*
X111750000Y-83800000D03*
X101750000Y-83800000D03*
D14*
X109250000Y-80500000D03*
X106750000Y-80500000D03*
X104250000Y-80500000D03*
D13*
X92800000Y-83500000D03*
X92800000Y-93500000D03*
D14*
X89500000Y-86000000D03*
X89500000Y-88500000D03*
X89500000Y-91000000D03*
D13*
X132000000Y-83800000D03*
X122000000Y-83800000D03*
D14*
X129500000Y-80500000D03*
X127000000Y-80500000D03*
X124500000Y-80500000D03*
D15*
X112000000Y-104000000D03*
X109460000Y-104000000D03*
X106920000Y-104000000D03*
D16*
X134680000Y-105000000D03*
X134680000Y-107500000D03*
D17*
X125000000Y-105000000D03*
D16*
X125000000Y-107500000D03*
X127500000Y-105000000D03*
X127500000Y-107500000D03*
X127500000Y-94000000D03*
X134500000Y-94000000D03*
G36*
X116225000Y-91500000D02*
G01*
X116725001Y-90750000D01*
X117725000Y-90750001D01*
X117724999Y-92250000D01*
X116725000Y-92249999D01*
X116225000Y-91500000D01*
G37*
G36*
X115275001Y-90750000D02*
G01*
X116425000Y-90750001D01*
X115925000Y-91500000D01*
X116424999Y-92250000D01*
X115275000Y-92249999D01*
X115275001Y-90750000D01*
G37*
D18*
X99000000Y-125500000D03*
X91500000Y-125500000D03*
X111000000Y-124500000D03*
X105500000Y-124500000D03*
G36*
X130225000Y-132000000D02*
G01*
X130725001Y-131250000D01*
X131725000Y-131250001D01*
X131724999Y-132750000D01*
X130725000Y-132749999D01*
X130225000Y-132000000D01*
G37*
G36*
X129275001Y-131250000D02*
G01*
X130425000Y-131250001D01*
X129925000Y-132000000D01*
X130424999Y-132750000D01*
X129275000Y-132749999D01*
X129275001Y-131250000D01*
G37*
M02*
