G04 #@! TF.GenerationSoftware,KiCad,Pcbnew,(5.1.5)-3*
G04 #@! TF.CreationDate,2020-02-01T22:19:46+11:00*
G04 #@! TF.ProjectId,Tph_Synth_Featherwing,5470685f-5379-46e7-9468-5f4665617468,rev?*
G04 #@! TF.SameCoordinates,Original*
G04 #@! TF.FileFunction,Paste,Top*
G04 #@! TF.FilePolarity,Positive*
%FSLAX46Y46*%
G04 Gerber Fmt 4.6, Leading zero omitted, Abs format (unit mm)*
G04 Created by KiCad (PCBNEW (5.1.5)-3) date 2020-02-01 22:19:46*
%MOMM*%
%LPD*%
G04 APERTURE LIST*
%ADD10C,0.100000*%
%ADD11R,2.800000X3.000000*%
%ADD12R,2.200000X2.800000*%
%ADD13R,2.800000X2.800000*%
%ADD14R,2.500000X2.300000*%
%ADD15R,0.300000X1.400000*%
%ADD16R,1.450000X0.450000*%
G04 APERTURE END LIST*
D10*
G36*
X115830142Y-88301174D02*
G01*
X115853803Y-88304684D01*
X115877007Y-88310496D01*
X115899529Y-88318554D01*
X115921153Y-88328782D01*
X115941670Y-88341079D01*
X115960883Y-88355329D01*
X115978607Y-88371393D01*
X115994671Y-88389117D01*
X116008921Y-88408330D01*
X116021218Y-88428847D01*
X116031446Y-88450471D01*
X116039504Y-88472993D01*
X116045316Y-88496197D01*
X116048826Y-88519858D01*
X116050000Y-88543750D01*
X116050000Y-89456250D01*
X116048826Y-89480142D01*
X116045316Y-89503803D01*
X116039504Y-89527007D01*
X116031446Y-89549529D01*
X116021218Y-89571153D01*
X116008921Y-89591670D01*
X115994671Y-89610883D01*
X115978607Y-89628607D01*
X115960883Y-89644671D01*
X115941670Y-89658921D01*
X115921153Y-89671218D01*
X115899529Y-89681446D01*
X115877007Y-89689504D01*
X115853803Y-89695316D01*
X115830142Y-89698826D01*
X115806250Y-89700000D01*
X115318750Y-89700000D01*
X115294858Y-89698826D01*
X115271197Y-89695316D01*
X115247993Y-89689504D01*
X115225471Y-89681446D01*
X115203847Y-89671218D01*
X115183330Y-89658921D01*
X115164117Y-89644671D01*
X115146393Y-89628607D01*
X115130329Y-89610883D01*
X115116079Y-89591670D01*
X115103782Y-89571153D01*
X115093554Y-89549529D01*
X115085496Y-89527007D01*
X115079684Y-89503803D01*
X115076174Y-89480142D01*
X115075000Y-89456250D01*
X115075000Y-88543750D01*
X115076174Y-88519858D01*
X115079684Y-88496197D01*
X115085496Y-88472993D01*
X115093554Y-88450471D01*
X115103782Y-88428847D01*
X115116079Y-88408330D01*
X115130329Y-88389117D01*
X115146393Y-88371393D01*
X115164117Y-88355329D01*
X115183330Y-88341079D01*
X115203847Y-88328782D01*
X115225471Y-88318554D01*
X115247993Y-88310496D01*
X115271197Y-88304684D01*
X115294858Y-88301174D01*
X115318750Y-88300000D01*
X115806250Y-88300000D01*
X115830142Y-88301174D01*
G37*
G36*
X117705142Y-88301174D02*
G01*
X117728803Y-88304684D01*
X117752007Y-88310496D01*
X117774529Y-88318554D01*
X117796153Y-88328782D01*
X117816670Y-88341079D01*
X117835883Y-88355329D01*
X117853607Y-88371393D01*
X117869671Y-88389117D01*
X117883921Y-88408330D01*
X117896218Y-88428847D01*
X117906446Y-88450471D01*
X117914504Y-88472993D01*
X117920316Y-88496197D01*
X117923826Y-88519858D01*
X117925000Y-88543750D01*
X117925000Y-89456250D01*
X117923826Y-89480142D01*
X117920316Y-89503803D01*
X117914504Y-89527007D01*
X117906446Y-89549529D01*
X117896218Y-89571153D01*
X117883921Y-89591670D01*
X117869671Y-89610883D01*
X117853607Y-89628607D01*
X117835883Y-89644671D01*
X117816670Y-89658921D01*
X117796153Y-89671218D01*
X117774529Y-89681446D01*
X117752007Y-89689504D01*
X117728803Y-89695316D01*
X117705142Y-89698826D01*
X117681250Y-89700000D01*
X117193750Y-89700000D01*
X117169858Y-89698826D01*
X117146197Y-89695316D01*
X117122993Y-89689504D01*
X117100471Y-89681446D01*
X117078847Y-89671218D01*
X117058330Y-89658921D01*
X117039117Y-89644671D01*
X117021393Y-89628607D01*
X117005329Y-89610883D01*
X116991079Y-89591670D01*
X116978782Y-89571153D01*
X116968554Y-89549529D01*
X116960496Y-89527007D01*
X116954684Y-89503803D01*
X116951174Y-89480142D01*
X116950000Y-89456250D01*
X116950000Y-88543750D01*
X116951174Y-88519858D01*
X116954684Y-88496197D01*
X116960496Y-88472993D01*
X116968554Y-88450471D01*
X116978782Y-88428847D01*
X116991079Y-88408330D01*
X117005329Y-88389117D01*
X117021393Y-88371393D01*
X117039117Y-88355329D01*
X117058330Y-88341079D01*
X117078847Y-88328782D01*
X117100471Y-88318554D01*
X117122993Y-88310496D01*
X117146197Y-88304684D01*
X117169858Y-88301174D01*
X117193750Y-88300000D01*
X117681250Y-88300000D01*
X117705142Y-88301174D01*
G37*
D11*
X130500000Y-130150000D03*
X130500000Y-119850000D03*
D10*
G36*
X97277691Y-122276053D02*
G01*
X97298926Y-122279203D01*
X97319750Y-122284419D01*
X97339962Y-122291651D01*
X97359368Y-122300830D01*
X97377781Y-122311866D01*
X97395024Y-122324654D01*
X97410930Y-122339070D01*
X97425346Y-122354976D01*
X97438134Y-122372219D01*
X97449170Y-122390632D01*
X97458349Y-122410038D01*
X97465581Y-122430250D01*
X97470797Y-122451074D01*
X97473947Y-122472309D01*
X97475000Y-122493750D01*
X97475000Y-123006250D01*
X97473947Y-123027691D01*
X97470797Y-123048926D01*
X97465581Y-123069750D01*
X97458349Y-123089962D01*
X97449170Y-123109368D01*
X97438134Y-123127781D01*
X97425346Y-123145024D01*
X97410930Y-123160930D01*
X97395024Y-123175346D01*
X97377781Y-123188134D01*
X97359368Y-123199170D01*
X97339962Y-123208349D01*
X97319750Y-123215581D01*
X97298926Y-123220797D01*
X97277691Y-123223947D01*
X97256250Y-123225000D01*
X96818750Y-123225000D01*
X96797309Y-123223947D01*
X96776074Y-123220797D01*
X96755250Y-123215581D01*
X96735038Y-123208349D01*
X96715632Y-123199170D01*
X96697219Y-123188134D01*
X96679976Y-123175346D01*
X96664070Y-123160930D01*
X96649654Y-123145024D01*
X96636866Y-123127781D01*
X96625830Y-123109368D01*
X96616651Y-123089962D01*
X96609419Y-123069750D01*
X96604203Y-123048926D01*
X96601053Y-123027691D01*
X96600000Y-123006250D01*
X96600000Y-122493750D01*
X96601053Y-122472309D01*
X96604203Y-122451074D01*
X96609419Y-122430250D01*
X96616651Y-122410038D01*
X96625830Y-122390632D01*
X96636866Y-122372219D01*
X96649654Y-122354976D01*
X96664070Y-122339070D01*
X96679976Y-122324654D01*
X96697219Y-122311866D01*
X96715632Y-122300830D01*
X96735038Y-122291651D01*
X96755250Y-122284419D01*
X96776074Y-122279203D01*
X96797309Y-122276053D01*
X96818750Y-122275000D01*
X97256250Y-122275000D01*
X97277691Y-122276053D01*
G37*
G36*
X95702691Y-122276053D02*
G01*
X95723926Y-122279203D01*
X95744750Y-122284419D01*
X95764962Y-122291651D01*
X95784368Y-122300830D01*
X95802781Y-122311866D01*
X95820024Y-122324654D01*
X95835930Y-122339070D01*
X95850346Y-122354976D01*
X95863134Y-122372219D01*
X95874170Y-122390632D01*
X95883349Y-122410038D01*
X95890581Y-122430250D01*
X95895797Y-122451074D01*
X95898947Y-122472309D01*
X95900000Y-122493750D01*
X95900000Y-123006250D01*
X95898947Y-123027691D01*
X95895797Y-123048926D01*
X95890581Y-123069750D01*
X95883349Y-123089962D01*
X95874170Y-123109368D01*
X95863134Y-123127781D01*
X95850346Y-123145024D01*
X95835930Y-123160930D01*
X95820024Y-123175346D01*
X95802781Y-123188134D01*
X95784368Y-123199170D01*
X95764962Y-123208349D01*
X95744750Y-123215581D01*
X95723926Y-123220797D01*
X95702691Y-123223947D01*
X95681250Y-123225000D01*
X95243750Y-123225000D01*
X95222309Y-123223947D01*
X95201074Y-123220797D01*
X95180250Y-123215581D01*
X95160038Y-123208349D01*
X95140632Y-123199170D01*
X95122219Y-123188134D01*
X95104976Y-123175346D01*
X95089070Y-123160930D01*
X95074654Y-123145024D01*
X95061866Y-123127781D01*
X95050830Y-123109368D01*
X95041651Y-123089962D01*
X95034419Y-123069750D01*
X95029203Y-123048926D01*
X95026053Y-123027691D01*
X95025000Y-123006250D01*
X95025000Y-122493750D01*
X95026053Y-122472309D01*
X95029203Y-122451074D01*
X95034419Y-122430250D01*
X95041651Y-122410038D01*
X95050830Y-122390632D01*
X95061866Y-122372219D01*
X95074654Y-122354976D01*
X95089070Y-122339070D01*
X95104976Y-122324654D01*
X95122219Y-122311866D01*
X95140632Y-122300830D01*
X95160038Y-122291651D01*
X95180250Y-122284419D01*
X95201074Y-122279203D01*
X95222309Y-122276053D01*
X95243750Y-122275000D01*
X95681250Y-122275000D01*
X95702691Y-122276053D01*
G37*
G36*
X95702691Y-119693053D02*
G01*
X95723926Y-119696203D01*
X95744750Y-119701419D01*
X95764962Y-119708651D01*
X95784368Y-119717830D01*
X95802781Y-119728866D01*
X95820024Y-119741654D01*
X95835930Y-119756070D01*
X95850346Y-119771976D01*
X95863134Y-119789219D01*
X95874170Y-119807632D01*
X95883349Y-119827038D01*
X95890581Y-119847250D01*
X95895797Y-119868074D01*
X95898947Y-119889309D01*
X95900000Y-119910750D01*
X95900000Y-120423250D01*
X95898947Y-120444691D01*
X95895797Y-120465926D01*
X95890581Y-120486750D01*
X95883349Y-120506962D01*
X95874170Y-120526368D01*
X95863134Y-120544781D01*
X95850346Y-120562024D01*
X95835930Y-120577930D01*
X95820024Y-120592346D01*
X95802781Y-120605134D01*
X95784368Y-120616170D01*
X95764962Y-120625349D01*
X95744750Y-120632581D01*
X95723926Y-120637797D01*
X95702691Y-120640947D01*
X95681250Y-120642000D01*
X95243750Y-120642000D01*
X95222309Y-120640947D01*
X95201074Y-120637797D01*
X95180250Y-120632581D01*
X95160038Y-120625349D01*
X95140632Y-120616170D01*
X95122219Y-120605134D01*
X95104976Y-120592346D01*
X95089070Y-120577930D01*
X95074654Y-120562024D01*
X95061866Y-120544781D01*
X95050830Y-120526368D01*
X95041651Y-120506962D01*
X95034419Y-120486750D01*
X95029203Y-120465926D01*
X95026053Y-120444691D01*
X95025000Y-120423250D01*
X95025000Y-119910750D01*
X95026053Y-119889309D01*
X95029203Y-119868074D01*
X95034419Y-119847250D01*
X95041651Y-119827038D01*
X95050830Y-119807632D01*
X95061866Y-119789219D01*
X95074654Y-119771976D01*
X95089070Y-119756070D01*
X95104976Y-119741654D01*
X95122219Y-119728866D01*
X95140632Y-119717830D01*
X95160038Y-119708651D01*
X95180250Y-119701419D01*
X95201074Y-119696203D01*
X95222309Y-119693053D01*
X95243750Y-119692000D01*
X95681250Y-119692000D01*
X95702691Y-119693053D01*
G37*
G36*
X97277691Y-119693053D02*
G01*
X97298926Y-119696203D01*
X97319750Y-119701419D01*
X97339962Y-119708651D01*
X97359368Y-119717830D01*
X97377781Y-119728866D01*
X97395024Y-119741654D01*
X97410930Y-119756070D01*
X97425346Y-119771976D01*
X97438134Y-119789219D01*
X97449170Y-119807632D01*
X97458349Y-119827038D01*
X97465581Y-119847250D01*
X97470797Y-119868074D01*
X97473947Y-119889309D01*
X97475000Y-119910750D01*
X97475000Y-120423250D01*
X97473947Y-120444691D01*
X97470797Y-120465926D01*
X97465581Y-120486750D01*
X97458349Y-120506962D01*
X97449170Y-120526368D01*
X97438134Y-120544781D01*
X97425346Y-120562024D01*
X97410930Y-120577930D01*
X97395024Y-120592346D01*
X97377781Y-120605134D01*
X97359368Y-120616170D01*
X97339962Y-120625349D01*
X97319750Y-120632581D01*
X97298926Y-120637797D01*
X97277691Y-120640947D01*
X97256250Y-120642000D01*
X96818750Y-120642000D01*
X96797309Y-120640947D01*
X96776074Y-120637797D01*
X96755250Y-120632581D01*
X96735038Y-120625349D01*
X96715632Y-120616170D01*
X96697219Y-120605134D01*
X96679976Y-120592346D01*
X96664070Y-120577930D01*
X96649654Y-120562024D01*
X96636866Y-120544781D01*
X96625830Y-120526368D01*
X96616651Y-120506962D01*
X96609419Y-120486750D01*
X96604203Y-120465926D01*
X96601053Y-120444691D01*
X96600000Y-120423250D01*
X96600000Y-119910750D01*
X96601053Y-119889309D01*
X96604203Y-119868074D01*
X96609419Y-119847250D01*
X96616651Y-119827038D01*
X96625830Y-119807632D01*
X96636866Y-119789219D01*
X96649654Y-119771976D01*
X96664070Y-119756070D01*
X96679976Y-119741654D01*
X96697219Y-119728866D01*
X96715632Y-119717830D01*
X96735038Y-119708651D01*
X96755250Y-119701419D01*
X96776074Y-119696203D01*
X96797309Y-119693053D01*
X96818750Y-119692000D01*
X97256250Y-119692000D01*
X97277691Y-119693053D01*
G37*
G36*
X97277691Y-117109053D02*
G01*
X97298926Y-117112203D01*
X97319750Y-117117419D01*
X97339962Y-117124651D01*
X97359368Y-117133830D01*
X97377781Y-117144866D01*
X97395024Y-117157654D01*
X97410930Y-117172070D01*
X97425346Y-117187976D01*
X97438134Y-117205219D01*
X97449170Y-117223632D01*
X97458349Y-117243038D01*
X97465581Y-117263250D01*
X97470797Y-117284074D01*
X97473947Y-117305309D01*
X97475000Y-117326750D01*
X97475000Y-117839250D01*
X97473947Y-117860691D01*
X97470797Y-117881926D01*
X97465581Y-117902750D01*
X97458349Y-117922962D01*
X97449170Y-117942368D01*
X97438134Y-117960781D01*
X97425346Y-117978024D01*
X97410930Y-117993930D01*
X97395024Y-118008346D01*
X97377781Y-118021134D01*
X97359368Y-118032170D01*
X97339962Y-118041349D01*
X97319750Y-118048581D01*
X97298926Y-118053797D01*
X97277691Y-118056947D01*
X97256250Y-118058000D01*
X96818750Y-118058000D01*
X96797309Y-118056947D01*
X96776074Y-118053797D01*
X96755250Y-118048581D01*
X96735038Y-118041349D01*
X96715632Y-118032170D01*
X96697219Y-118021134D01*
X96679976Y-118008346D01*
X96664070Y-117993930D01*
X96649654Y-117978024D01*
X96636866Y-117960781D01*
X96625830Y-117942368D01*
X96616651Y-117922962D01*
X96609419Y-117902750D01*
X96604203Y-117881926D01*
X96601053Y-117860691D01*
X96600000Y-117839250D01*
X96600000Y-117326750D01*
X96601053Y-117305309D01*
X96604203Y-117284074D01*
X96609419Y-117263250D01*
X96616651Y-117243038D01*
X96625830Y-117223632D01*
X96636866Y-117205219D01*
X96649654Y-117187976D01*
X96664070Y-117172070D01*
X96679976Y-117157654D01*
X96697219Y-117144866D01*
X96715632Y-117133830D01*
X96735038Y-117124651D01*
X96755250Y-117117419D01*
X96776074Y-117112203D01*
X96797309Y-117109053D01*
X96818750Y-117108000D01*
X97256250Y-117108000D01*
X97277691Y-117109053D01*
G37*
G36*
X95702691Y-117109053D02*
G01*
X95723926Y-117112203D01*
X95744750Y-117117419D01*
X95764962Y-117124651D01*
X95784368Y-117133830D01*
X95802781Y-117144866D01*
X95820024Y-117157654D01*
X95835930Y-117172070D01*
X95850346Y-117187976D01*
X95863134Y-117205219D01*
X95874170Y-117223632D01*
X95883349Y-117243038D01*
X95890581Y-117263250D01*
X95895797Y-117284074D01*
X95898947Y-117305309D01*
X95900000Y-117326750D01*
X95900000Y-117839250D01*
X95898947Y-117860691D01*
X95895797Y-117881926D01*
X95890581Y-117902750D01*
X95883349Y-117922962D01*
X95874170Y-117942368D01*
X95863134Y-117960781D01*
X95850346Y-117978024D01*
X95835930Y-117993930D01*
X95820024Y-118008346D01*
X95802781Y-118021134D01*
X95784368Y-118032170D01*
X95764962Y-118041349D01*
X95744750Y-118048581D01*
X95723926Y-118053797D01*
X95702691Y-118056947D01*
X95681250Y-118058000D01*
X95243750Y-118058000D01*
X95222309Y-118056947D01*
X95201074Y-118053797D01*
X95180250Y-118048581D01*
X95160038Y-118041349D01*
X95140632Y-118032170D01*
X95122219Y-118021134D01*
X95104976Y-118008346D01*
X95089070Y-117993930D01*
X95074654Y-117978024D01*
X95061866Y-117960781D01*
X95050830Y-117942368D01*
X95041651Y-117922962D01*
X95034419Y-117902750D01*
X95029203Y-117881926D01*
X95026053Y-117860691D01*
X95025000Y-117839250D01*
X95025000Y-117326750D01*
X95026053Y-117305309D01*
X95029203Y-117284074D01*
X95034419Y-117263250D01*
X95041651Y-117243038D01*
X95050830Y-117223632D01*
X95061866Y-117205219D01*
X95074654Y-117187976D01*
X95089070Y-117172070D01*
X95104976Y-117157654D01*
X95122219Y-117144866D01*
X95140632Y-117133830D01*
X95160038Y-117124651D01*
X95180250Y-117117419D01*
X95201074Y-117112203D01*
X95222309Y-117109053D01*
X95243750Y-117108000D01*
X95681250Y-117108000D01*
X95702691Y-117109053D01*
G37*
G36*
X95702691Y-114526053D02*
G01*
X95723926Y-114529203D01*
X95744750Y-114534419D01*
X95764962Y-114541651D01*
X95784368Y-114550830D01*
X95802781Y-114561866D01*
X95820024Y-114574654D01*
X95835930Y-114589070D01*
X95850346Y-114604976D01*
X95863134Y-114622219D01*
X95874170Y-114640632D01*
X95883349Y-114660038D01*
X95890581Y-114680250D01*
X95895797Y-114701074D01*
X95898947Y-114722309D01*
X95900000Y-114743750D01*
X95900000Y-115256250D01*
X95898947Y-115277691D01*
X95895797Y-115298926D01*
X95890581Y-115319750D01*
X95883349Y-115339962D01*
X95874170Y-115359368D01*
X95863134Y-115377781D01*
X95850346Y-115395024D01*
X95835930Y-115410930D01*
X95820024Y-115425346D01*
X95802781Y-115438134D01*
X95784368Y-115449170D01*
X95764962Y-115458349D01*
X95744750Y-115465581D01*
X95723926Y-115470797D01*
X95702691Y-115473947D01*
X95681250Y-115475000D01*
X95243750Y-115475000D01*
X95222309Y-115473947D01*
X95201074Y-115470797D01*
X95180250Y-115465581D01*
X95160038Y-115458349D01*
X95140632Y-115449170D01*
X95122219Y-115438134D01*
X95104976Y-115425346D01*
X95089070Y-115410930D01*
X95074654Y-115395024D01*
X95061866Y-115377781D01*
X95050830Y-115359368D01*
X95041651Y-115339962D01*
X95034419Y-115319750D01*
X95029203Y-115298926D01*
X95026053Y-115277691D01*
X95025000Y-115256250D01*
X95025000Y-114743750D01*
X95026053Y-114722309D01*
X95029203Y-114701074D01*
X95034419Y-114680250D01*
X95041651Y-114660038D01*
X95050830Y-114640632D01*
X95061866Y-114622219D01*
X95074654Y-114604976D01*
X95089070Y-114589070D01*
X95104976Y-114574654D01*
X95122219Y-114561866D01*
X95140632Y-114550830D01*
X95160038Y-114541651D01*
X95180250Y-114534419D01*
X95201074Y-114529203D01*
X95222309Y-114526053D01*
X95243750Y-114525000D01*
X95681250Y-114525000D01*
X95702691Y-114526053D01*
G37*
G36*
X97277691Y-114526053D02*
G01*
X97298926Y-114529203D01*
X97319750Y-114534419D01*
X97339962Y-114541651D01*
X97359368Y-114550830D01*
X97377781Y-114561866D01*
X97395024Y-114574654D01*
X97410930Y-114589070D01*
X97425346Y-114604976D01*
X97438134Y-114622219D01*
X97449170Y-114640632D01*
X97458349Y-114660038D01*
X97465581Y-114680250D01*
X97470797Y-114701074D01*
X97473947Y-114722309D01*
X97475000Y-114743750D01*
X97475000Y-115256250D01*
X97473947Y-115277691D01*
X97470797Y-115298926D01*
X97465581Y-115319750D01*
X97458349Y-115339962D01*
X97449170Y-115359368D01*
X97438134Y-115377781D01*
X97425346Y-115395024D01*
X97410930Y-115410930D01*
X97395024Y-115425346D01*
X97377781Y-115438134D01*
X97359368Y-115449170D01*
X97339962Y-115458349D01*
X97319750Y-115465581D01*
X97298926Y-115470797D01*
X97277691Y-115473947D01*
X97256250Y-115475000D01*
X96818750Y-115475000D01*
X96797309Y-115473947D01*
X96776074Y-115470797D01*
X96755250Y-115465581D01*
X96735038Y-115458349D01*
X96715632Y-115449170D01*
X96697219Y-115438134D01*
X96679976Y-115425346D01*
X96664070Y-115410930D01*
X96649654Y-115395024D01*
X96636866Y-115377781D01*
X96625830Y-115359368D01*
X96616651Y-115339962D01*
X96609419Y-115319750D01*
X96604203Y-115298926D01*
X96601053Y-115277691D01*
X96600000Y-115256250D01*
X96600000Y-114743750D01*
X96601053Y-114722309D01*
X96604203Y-114701074D01*
X96609419Y-114680250D01*
X96616651Y-114660038D01*
X96625830Y-114640632D01*
X96636866Y-114622219D01*
X96649654Y-114604976D01*
X96664070Y-114589070D01*
X96679976Y-114574654D01*
X96697219Y-114561866D01*
X96715632Y-114550830D01*
X96735038Y-114541651D01*
X96755250Y-114534419D01*
X96776074Y-114529203D01*
X96797309Y-114526053D01*
X96818750Y-114525000D01*
X97256250Y-114525000D01*
X97277691Y-114526053D01*
G37*
G36*
X91777691Y-128851053D02*
G01*
X91798926Y-128854203D01*
X91819750Y-128859419D01*
X91839962Y-128866651D01*
X91859368Y-128875830D01*
X91877781Y-128886866D01*
X91895024Y-128899654D01*
X91910930Y-128914070D01*
X91925346Y-128929976D01*
X91938134Y-128947219D01*
X91949170Y-128965632D01*
X91958349Y-128985038D01*
X91965581Y-129005250D01*
X91970797Y-129026074D01*
X91973947Y-129047309D01*
X91975000Y-129068750D01*
X91975000Y-129506250D01*
X91973947Y-129527691D01*
X91970797Y-129548926D01*
X91965581Y-129569750D01*
X91958349Y-129589962D01*
X91949170Y-129609368D01*
X91938134Y-129627781D01*
X91925346Y-129645024D01*
X91910930Y-129660930D01*
X91895024Y-129675346D01*
X91877781Y-129688134D01*
X91859368Y-129699170D01*
X91839962Y-129708349D01*
X91819750Y-129715581D01*
X91798926Y-129720797D01*
X91777691Y-129723947D01*
X91756250Y-129725000D01*
X91243750Y-129725000D01*
X91222309Y-129723947D01*
X91201074Y-129720797D01*
X91180250Y-129715581D01*
X91160038Y-129708349D01*
X91140632Y-129699170D01*
X91122219Y-129688134D01*
X91104976Y-129675346D01*
X91089070Y-129660930D01*
X91074654Y-129645024D01*
X91061866Y-129627781D01*
X91050830Y-129609368D01*
X91041651Y-129589962D01*
X91034419Y-129569750D01*
X91029203Y-129548926D01*
X91026053Y-129527691D01*
X91025000Y-129506250D01*
X91025000Y-129068750D01*
X91026053Y-129047309D01*
X91029203Y-129026074D01*
X91034419Y-129005250D01*
X91041651Y-128985038D01*
X91050830Y-128965632D01*
X91061866Y-128947219D01*
X91074654Y-128929976D01*
X91089070Y-128914070D01*
X91104976Y-128899654D01*
X91122219Y-128886866D01*
X91140632Y-128875830D01*
X91160038Y-128866651D01*
X91180250Y-128859419D01*
X91201074Y-128854203D01*
X91222309Y-128851053D01*
X91243750Y-128850000D01*
X91756250Y-128850000D01*
X91777691Y-128851053D01*
G37*
G36*
X91777691Y-127276053D02*
G01*
X91798926Y-127279203D01*
X91819750Y-127284419D01*
X91839962Y-127291651D01*
X91859368Y-127300830D01*
X91877781Y-127311866D01*
X91895024Y-127324654D01*
X91910930Y-127339070D01*
X91925346Y-127354976D01*
X91938134Y-127372219D01*
X91949170Y-127390632D01*
X91958349Y-127410038D01*
X91965581Y-127430250D01*
X91970797Y-127451074D01*
X91973947Y-127472309D01*
X91975000Y-127493750D01*
X91975000Y-127931250D01*
X91973947Y-127952691D01*
X91970797Y-127973926D01*
X91965581Y-127994750D01*
X91958349Y-128014962D01*
X91949170Y-128034368D01*
X91938134Y-128052781D01*
X91925346Y-128070024D01*
X91910930Y-128085930D01*
X91895024Y-128100346D01*
X91877781Y-128113134D01*
X91859368Y-128124170D01*
X91839962Y-128133349D01*
X91819750Y-128140581D01*
X91798926Y-128145797D01*
X91777691Y-128148947D01*
X91756250Y-128150000D01*
X91243750Y-128150000D01*
X91222309Y-128148947D01*
X91201074Y-128145797D01*
X91180250Y-128140581D01*
X91160038Y-128133349D01*
X91140632Y-128124170D01*
X91122219Y-128113134D01*
X91104976Y-128100346D01*
X91089070Y-128085930D01*
X91074654Y-128070024D01*
X91061866Y-128052781D01*
X91050830Y-128034368D01*
X91041651Y-128014962D01*
X91034419Y-127994750D01*
X91029203Y-127973926D01*
X91026053Y-127952691D01*
X91025000Y-127931250D01*
X91025000Y-127493750D01*
X91026053Y-127472309D01*
X91029203Y-127451074D01*
X91034419Y-127430250D01*
X91041651Y-127410038D01*
X91050830Y-127390632D01*
X91061866Y-127372219D01*
X91074654Y-127354976D01*
X91089070Y-127339070D01*
X91104976Y-127324654D01*
X91122219Y-127311866D01*
X91140632Y-127300830D01*
X91160038Y-127291651D01*
X91180250Y-127284419D01*
X91201074Y-127279203D01*
X91222309Y-127276053D01*
X91243750Y-127275000D01*
X91756250Y-127275000D01*
X91777691Y-127276053D01*
G37*
G36*
X118027691Y-98026053D02*
G01*
X118048926Y-98029203D01*
X118069750Y-98034419D01*
X118089962Y-98041651D01*
X118109368Y-98050830D01*
X118127781Y-98061866D01*
X118145024Y-98074654D01*
X118160930Y-98089070D01*
X118175346Y-98104976D01*
X118188134Y-98122219D01*
X118199170Y-98140632D01*
X118208349Y-98160038D01*
X118215581Y-98180250D01*
X118220797Y-98201074D01*
X118223947Y-98222309D01*
X118225000Y-98243750D01*
X118225000Y-98756250D01*
X118223947Y-98777691D01*
X118220797Y-98798926D01*
X118215581Y-98819750D01*
X118208349Y-98839962D01*
X118199170Y-98859368D01*
X118188134Y-98877781D01*
X118175346Y-98895024D01*
X118160930Y-98910930D01*
X118145024Y-98925346D01*
X118127781Y-98938134D01*
X118109368Y-98949170D01*
X118089962Y-98958349D01*
X118069750Y-98965581D01*
X118048926Y-98970797D01*
X118027691Y-98973947D01*
X118006250Y-98975000D01*
X117568750Y-98975000D01*
X117547309Y-98973947D01*
X117526074Y-98970797D01*
X117505250Y-98965581D01*
X117485038Y-98958349D01*
X117465632Y-98949170D01*
X117447219Y-98938134D01*
X117429976Y-98925346D01*
X117414070Y-98910930D01*
X117399654Y-98895024D01*
X117386866Y-98877781D01*
X117375830Y-98859368D01*
X117366651Y-98839962D01*
X117359419Y-98819750D01*
X117354203Y-98798926D01*
X117351053Y-98777691D01*
X117350000Y-98756250D01*
X117350000Y-98243750D01*
X117351053Y-98222309D01*
X117354203Y-98201074D01*
X117359419Y-98180250D01*
X117366651Y-98160038D01*
X117375830Y-98140632D01*
X117386866Y-98122219D01*
X117399654Y-98104976D01*
X117414070Y-98089070D01*
X117429976Y-98074654D01*
X117447219Y-98061866D01*
X117465632Y-98050830D01*
X117485038Y-98041651D01*
X117505250Y-98034419D01*
X117526074Y-98029203D01*
X117547309Y-98026053D01*
X117568750Y-98025000D01*
X118006250Y-98025000D01*
X118027691Y-98026053D01*
G37*
G36*
X116452691Y-98026053D02*
G01*
X116473926Y-98029203D01*
X116494750Y-98034419D01*
X116514962Y-98041651D01*
X116534368Y-98050830D01*
X116552781Y-98061866D01*
X116570024Y-98074654D01*
X116585930Y-98089070D01*
X116600346Y-98104976D01*
X116613134Y-98122219D01*
X116624170Y-98140632D01*
X116633349Y-98160038D01*
X116640581Y-98180250D01*
X116645797Y-98201074D01*
X116648947Y-98222309D01*
X116650000Y-98243750D01*
X116650000Y-98756250D01*
X116648947Y-98777691D01*
X116645797Y-98798926D01*
X116640581Y-98819750D01*
X116633349Y-98839962D01*
X116624170Y-98859368D01*
X116613134Y-98877781D01*
X116600346Y-98895024D01*
X116585930Y-98910930D01*
X116570024Y-98925346D01*
X116552781Y-98938134D01*
X116534368Y-98949170D01*
X116514962Y-98958349D01*
X116494750Y-98965581D01*
X116473926Y-98970797D01*
X116452691Y-98973947D01*
X116431250Y-98975000D01*
X115993750Y-98975000D01*
X115972309Y-98973947D01*
X115951074Y-98970797D01*
X115930250Y-98965581D01*
X115910038Y-98958349D01*
X115890632Y-98949170D01*
X115872219Y-98938134D01*
X115854976Y-98925346D01*
X115839070Y-98910930D01*
X115824654Y-98895024D01*
X115811866Y-98877781D01*
X115800830Y-98859368D01*
X115791651Y-98839962D01*
X115784419Y-98819750D01*
X115779203Y-98798926D01*
X115776053Y-98777691D01*
X115775000Y-98756250D01*
X115775000Y-98243750D01*
X115776053Y-98222309D01*
X115779203Y-98201074D01*
X115784419Y-98180250D01*
X115791651Y-98160038D01*
X115800830Y-98140632D01*
X115811866Y-98122219D01*
X115824654Y-98104976D01*
X115839070Y-98089070D01*
X115854976Y-98074654D01*
X115872219Y-98061866D01*
X115890632Y-98050830D01*
X115910038Y-98041651D01*
X115930250Y-98034419D01*
X115951074Y-98029203D01*
X115972309Y-98026053D01*
X115993750Y-98025000D01*
X116431250Y-98025000D01*
X116452691Y-98026053D01*
G37*
G36*
X113980142Y-129096174D02*
G01*
X114003803Y-129099684D01*
X114027007Y-129105496D01*
X114049529Y-129113554D01*
X114071153Y-129123782D01*
X114091670Y-129136079D01*
X114110883Y-129150329D01*
X114128607Y-129166393D01*
X114144671Y-129184117D01*
X114158921Y-129203330D01*
X114171218Y-129223847D01*
X114181446Y-129245471D01*
X114189504Y-129267993D01*
X114195316Y-129291197D01*
X114198826Y-129314858D01*
X114200000Y-129338750D01*
X114200000Y-129826250D01*
X114198826Y-129850142D01*
X114195316Y-129873803D01*
X114189504Y-129897007D01*
X114181446Y-129919529D01*
X114171218Y-129941153D01*
X114158921Y-129961670D01*
X114144671Y-129980883D01*
X114128607Y-129998607D01*
X114110883Y-130014671D01*
X114091670Y-130028921D01*
X114071153Y-130041218D01*
X114049529Y-130051446D01*
X114027007Y-130059504D01*
X114003803Y-130065316D01*
X113980142Y-130068826D01*
X113956250Y-130070000D01*
X113043750Y-130070000D01*
X113019858Y-130068826D01*
X112996197Y-130065316D01*
X112972993Y-130059504D01*
X112950471Y-130051446D01*
X112928847Y-130041218D01*
X112908330Y-130028921D01*
X112889117Y-130014671D01*
X112871393Y-129998607D01*
X112855329Y-129980883D01*
X112841079Y-129961670D01*
X112828782Y-129941153D01*
X112818554Y-129919529D01*
X112810496Y-129897007D01*
X112804684Y-129873803D01*
X112801174Y-129850142D01*
X112800000Y-129826250D01*
X112800000Y-129338750D01*
X112801174Y-129314858D01*
X112804684Y-129291197D01*
X112810496Y-129267993D01*
X112818554Y-129245471D01*
X112828782Y-129223847D01*
X112841079Y-129203330D01*
X112855329Y-129184117D01*
X112871393Y-129166393D01*
X112889117Y-129150329D01*
X112908330Y-129136079D01*
X112928847Y-129123782D01*
X112950471Y-129113554D01*
X112972993Y-129105496D01*
X112996197Y-129099684D01*
X113019858Y-129096174D01*
X113043750Y-129095000D01*
X113956250Y-129095000D01*
X113980142Y-129096174D01*
G37*
G36*
X113980142Y-130971174D02*
G01*
X114003803Y-130974684D01*
X114027007Y-130980496D01*
X114049529Y-130988554D01*
X114071153Y-130998782D01*
X114091670Y-131011079D01*
X114110883Y-131025329D01*
X114128607Y-131041393D01*
X114144671Y-131059117D01*
X114158921Y-131078330D01*
X114171218Y-131098847D01*
X114181446Y-131120471D01*
X114189504Y-131142993D01*
X114195316Y-131166197D01*
X114198826Y-131189858D01*
X114200000Y-131213750D01*
X114200000Y-131701250D01*
X114198826Y-131725142D01*
X114195316Y-131748803D01*
X114189504Y-131772007D01*
X114181446Y-131794529D01*
X114171218Y-131816153D01*
X114158921Y-131836670D01*
X114144671Y-131855883D01*
X114128607Y-131873607D01*
X114110883Y-131889671D01*
X114091670Y-131903921D01*
X114071153Y-131916218D01*
X114049529Y-131926446D01*
X114027007Y-131934504D01*
X114003803Y-131940316D01*
X113980142Y-131943826D01*
X113956250Y-131945000D01*
X113043750Y-131945000D01*
X113019858Y-131943826D01*
X112996197Y-131940316D01*
X112972993Y-131934504D01*
X112950471Y-131926446D01*
X112928847Y-131916218D01*
X112908330Y-131903921D01*
X112889117Y-131889671D01*
X112871393Y-131873607D01*
X112855329Y-131855883D01*
X112841079Y-131836670D01*
X112828782Y-131816153D01*
X112818554Y-131794529D01*
X112810496Y-131772007D01*
X112804684Y-131748803D01*
X112801174Y-131725142D01*
X112800000Y-131701250D01*
X112800000Y-131213750D01*
X112801174Y-131189858D01*
X112804684Y-131166197D01*
X112810496Y-131142993D01*
X112818554Y-131120471D01*
X112828782Y-131098847D01*
X112841079Y-131078330D01*
X112855329Y-131059117D01*
X112871393Y-131041393D01*
X112889117Y-131025329D01*
X112908330Y-131011079D01*
X112928847Y-130998782D01*
X112950471Y-130988554D01*
X112972993Y-130980496D01*
X112996197Y-130974684D01*
X113019858Y-130971174D01*
X113043750Y-130970000D01*
X113956250Y-130970000D01*
X113980142Y-130971174D01*
G37*
G36*
X120392142Y-110801174D02*
G01*
X120415803Y-110804684D01*
X120439007Y-110810496D01*
X120461529Y-110818554D01*
X120483153Y-110828782D01*
X120503670Y-110841079D01*
X120522883Y-110855329D01*
X120540607Y-110871393D01*
X120556671Y-110889117D01*
X120570921Y-110908330D01*
X120583218Y-110928847D01*
X120593446Y-110950471D01*
X120601504Y-110972993D01*
X120607316Y-110996197D01*
X120610826Y-111019858D01*
X120612000Y-111043750D01*
X120612000Y-111956250D01*
X120610826Y-111980142D01*
X120607316Y-112003803D01*
X120601504Y-112027007D01*
X120593446Y-112049529D01*
X120583218Y-112071153D01*
X120570921Y-112091670D01*
X120556671Y-112110883D01*
X120540607Y-112128607D01*
X120522883Y-112144671D01*
X120503670Y-112158921D01*
X120483153Y-112171218D01*
X120461529Y-112181446D01*
X120439007Y-112189504D01*
X120415803Y-112195316D01*
X120392142Y-112198826D01*
X120368250Y-112200000D01*
X119880750Y-112200000D01*
X119856858Y-112198826D01*
X119833197Y-112195316D01*
X119809993Y-112189504D01*
X119787471Y-112181446D01*
X119765847Y-112171218D01*
X119745330Y-112158921D01*
X119726117Y-112144671D01*
X119708393Y-112128607D01*
X119692329Y-112110883D01*
X119678079Y-112091670D01*
X119665782Y-112071153D01*
X119655554Y-112049529D01*
X119647496Y-112027007D01*
X119641684Y-112003803D01*
X119638174Y-111980142D01*
X119637000Y-111956250D01*
X119637000Y-111043750D01*
X119638174Y-111019858D01*
X119641684Y-110996197D01*
X119647496Y-110972993D01*
X119655554Y-110950471D01*
X119665782Y-110928847D01*
X119678079Y-110908330D01*
X119692329Y-110889117D01*
X119708393Y-110871393D01*
X119726117Y-110855329D01*
X119745330Y-110841079D01*
X119765847Y-110828782D01*
X119787471Y-110818554D01*
X119809993Y-110810496D01*
X119833197Y-110804684D01*
X119856858Y-110801174D01*
X119880750Y-110800000D01*
X120368250Y-110800000D01*
X120392142Y-110801174D01*
G37*
G36*
X122267142Y-110801174D02*
G01*
X122290803Y-110804684D01*
X122314007Y-110810496D01*
X122336529Y-110818554D01*
X122358153Y-110828782D01*
X122378670Y-110841079D01*
X122397883Y-110855329D01*
X122415607Y-110871393D01*
X122431671Y-110889117D01*
X122445921Y-110908330D01*
X122458218Y-110928847D01*
X122468446Y-110950471D01*
X122476504Y-110972993D01*
X122482316Y-110996197D01*
X122485826Y-111019858D01*
X122487000Y-111043750D01*
X122487000Y-111956250D01*
X122485826Y-111980142D01*
X122482316Y-112003803D01*
X122476504Y-112027007D01*
X122468446Y-112049529D01*
X122458218Y-112071153D01*
X122445921Y-112091670D01*
X122431671Y-112110883D01*
X122415607Y-112128607D01*
X122397883Y-112144671D01*
X122378670Y-112158921D01*
X122358153Y-112171218D01*
X122336529Y-112181446D01*
X122314007Y-112189504D01*
X122290803Y-112195316D01*
X122267142Y-112198826D01*
X122243250Y-112200000D01*
X121755750Y-112200000D01*
X121731858Y-112198826D01*
X121708197Y-112195316D01*
X121684993Y-112189504D01*
X121662471Y-112181446D01*
X121640847Y-112171218D01*
X121620330Y-112158921D01*
X121601117Y-112144671D01*
X121583393Y-112128607D01*
X121567329Y-112110883D01*
X121553079Y-112091670D01*
X121540782Y-112071153D01*
X121530554Y-112049529D01*
X121522496Y-112027007D01*
X121516684Y-112003803D01*
X121513174Y-111980142D01*
X121512000Y-111956250D01*
X121512000Y-111043750D01*
X121513174Y-111019858D01*
X121516684Y-110996197D01*
X121522496Y-110972993D01*
X121530554Y-110950471D01*
X121540782Y-110928847D01*
X121553079Y-110908330D01*
X121567329Y-110889117D01*
X121583393Y-110871393D01*
X121601117Y-110855329D01*
X121620330Y-110841079D01*
X121640847Y-110828782D01*
X121662471Y-110818554D01*
X121684993Y-110810496D01*
X121708197Y-110804684D01*
X121731858Y-110801174D01*
X121755750Y-110800000D01*
X122243250Y-110800000D01*
X122267142Y-110801174D01*
G37*
G36*
X122205142Y-103801174D02*
G01*
X122228803Y-103804684D01*
X122252007Y-103810496D01*
X122274529Y-103818554D01*
X122296153Y-103828782D01*
X122316670Y-103841079D01*
X122335883Y-103855329D01*
X122353607Y-103871393D01*
X122369671Y-103889117D01*
X122383921Y-103908330D01*
X122396218Y-103928847D01*
X122406446Y-103950471D01*
X122414504Y-103972993D01*
X122420316Y-103996197D01*
X122423826Y-104019858D01*
X122425000Y-104043750D01*
X122425000Y-104956250D01*
X122423826Y-104980142D01*
X122420316Y-105003803D01*
X122414504Y-105027007D01*
X122406446Y-105049529D01*
X122396218Y-105071153D01*
X122383921Y-105091670D01*
X122369671Y-105110883D01*
X122353607Y-105128607D01*
X122335883Y-105144671D01*
X122316670Y-105158921D01*
X122296153Y-105171218D01*
X122274529Y-105181446D01*
X122252007Y-105189504D01*
X122228803Y-105195316D01*
X122205142Y-105198826D01*
X122181250Y-105200000D01*
X121693750Y-105200000D01*
X121669858Y-105198826D01*
X121646197Y-105195316D01*
X121622993Y-105189504D01*
X121600471Y-105181446D01*
X121578847Y-105171218D01*
X121558330Y-105158921D01*
X121539117Y-105144671D01*
X121521393Y-105128607D01*
X121505329Y-105110883D01*
X121491079Y-105091670D01*
X121478782Y-105071153D01*
X121468554Y-105049529D01*
X121460496Y-105027007D01*
X121454684Y-105003803D01*
X121451174Y-104980142D01*
X121450000Y-104956250D01*
X121450000Y-104043750D01*
X121451174Y-104019858D01*
X121454684Y-103996197D01*
X121460496Y-103972993D01*
X121468554Y-103950471D01*
X121478782Y-103928847D01*
X121491079Y-103908330D01*
X121505329Y-103889117D01*
X121521393Y-103871393D01*
X121539117Y-103855329D01*
X121558330Y-103841079D01*
X121578847Y-103828782D01*
X121600471Y-103818554D01*
X121622993Y-103810496D01*
X121646197Y-103804684D01*
X121669858Y-103801174D01*
X121693750Y-103800000D01*
X122181250Y-103800000D01*
X122205142Y-103801174D01*
G37*
G36*
X120330142Y-103801174D02*
G01*
X120353803Y-103804684D01*
X120377007Y-103810496D01*
X120399529Y-103818554D01*
X120421153Y-103828782D01*
X120441670Y-103841079D01*
X120460883Y-103855329D01*
X120478607Y-103871393D01*
X120494671Y-103889117D01*
X120508921Y-103908330D01*
X120521218Y-103928847D01*
X120531446Y-103950471D01*
X120539504Y-103972993D01*
X120545316Y-103996197D01*
X120548826Y-104019858D01*
X120550000Y-104043750D01*
X120550000Y-104956250D01*
X120548826Y-104980142D01*
X120545316Y-105003803D01*
X120539504Y-105027007D01*
X120531446Y-105049529D01*
X120521218Y-105071153D01*
X120508921Y-105091670D01*
X120494671Y-105110883D01*
X120478607Y-105128607D01*
X120460883Y-105144671D01*
X120441670Y-105158921D01*
X120421153Y-105171218D01*
X120399529Y-105181446D01*
X120377007Y-105189504D01*
X120353803Y-105195316D01*
X120330142Y-105198826D01*
X120306250Y-105200000D01*
X119818750Y-105200000D01*
X119794858Y-105198826D01*
X119771197Y-105195316D01*
X119747993Y-105189504D01*
X119725471Y-105181446D01*
X119703847Y-105171218D01*
X119683330Y-105158921D01*
X119664117Y-105144671D01*
X119646393Y-105128607D01*
X119630329Y-105110883D01*
X119616079Y-105091670D01*
X119603782Y-105071153D01*
X119593554Y-105049529D01*
X119585496Y-105027007D01*
X119579684Y-105003803D01*
X119576174Y-104980142D01*
X119575000Y-104956250D01*
X119575000Y-104043750D01*
X119576174Y-104019858D01*
X119579684Y-103996197D01*
X119585496Y-103972993D01*
X119593554Y-103950471D01*
X119603782Y-103928847D01*
X119616079Y-103908330D01*
X119630329Y-103889117D01*
X119646393Y-103871393D01*
X119664117Y-103855329D01*
X119683330Y-103841079D01*
X119703847Y-103828782D01*
X119725471Y-103818554D01*
X119747993Y-103810496D01*
X119771197Y-103804684D01*
X119794858Y-103801174D01*
X119818750Y-103800000D01*
X120306250Y-103800000D01*
X120330142Y-103801174D01*
G37*
G36*
X120392142Y-107301174D02*
G01*
X120415803Y-107304684D01*
X120439007Y-107310496D01*
X120461529Y-107318554D01*
X120483153Y-107328782D01*
X120503670Y-107341079D01*
X120522883Y-107355329D01*
X120540607Y-107371393D01*
X120556671Y-107389117D01*
X120570921Y-107408330D01*
X120583218Y-107428847D01*
X120593446Y-107450471D01*
X120601504Y-107472993D01*
X120607316Y-107496197D01*
X120610826Y-107519858D01*
X120612000Y-107543750D01*
X120612000Y-108456250D01*
X120610826Y-108480142D01*
X120607316Y-108503803D01*
X120601504Y-108527007D01*
X120593446Y-108549529D01*
X120583218Y-108571153D01*
X120570921Y-108591670D01*
X120556671Y-108610883D01*
X120540607Y-108628607D01*
X120522883Y-108644671D01*
X120503670Y-108658921D01*
X120483153Y-108671218D01*
X120461529Y-108681446D01*
X120439007Y-108689504D01*
X120415803Y-108695316D01*
X120392142Y-108698826D01*
X120368250Y-108700000D01*
X119880750Y-108700000D01*
X119856858Y-108698826D01*
X119833197Y-108695316D01*
X119809993Y-108689504D01*
X119787471Y-108681446D01*
X119765847Y-108671218D01*
X119745330Y-108658921D01*
X119726117Y-108644671D01*
X119708393Y-108628607D01*
X119692329Y-108610883D01*
X119678079Y-108591670D01*
X119665782Y-108571153D01*
X119655554Y-108549529D01*
X119647496Y-108527007D01*
X119641684Y-108503803D01*
X119638174Y-108480142D01*
X119637000Y-108456250D01*
X119637000Y-107543750D01*
X119638174Y-107519858D01*
X119641684Y-107496197D01*
X119647496Y-107472993D01*
X119655554Y-107450471D01*
X119665782Y-107428847D01*
X119678079Y-107408330D01*
X119692329Y-107389117D01*
X119708393Y-107371393D01*
X119726117Y-107355329D01*
X119745330Y-107341079D01*
X119765847Y-107328782D01*
X119787471Y-107318554D01*
X119809993Y-107310496D01*
X119833197Y-107304684D01*
X119856858Y-107301174D01*
X119880750Y-107300000D01*
X120368250Y-107300000D01*
X120392142Y-107301174D01*
G37*
G36*
X122267142Y-107301174D02*
G01*
X122290803Y-107304684D01*
X122314007Y-107310496D01*
X122336529Y-107318554D01*
X122358153Y-107328782D01*
X122378670Y-107341079D01*
X122397883Y-107355329D01*
X122415607Y-107371393D01*
X122431671Y-107389117D01*
X122445921Y-107408330D01*
X122458218Y-107428847D01*
X122468446Y-107450471D01*
X122476504Y-107472993D01*
X122482316Y-107496197D01*
X122485826Y-107519858D01*
X122487000Y-107543750D01*
X122487000Y-108456250D01*
X122485826Y-108480142D01*
X122482316Y-108503803D01*
X122476504Y-108527007D01*
X122468446Y-108549529D01*
X122458218Y-108571153D01*
X122445921Y-108591670D01*
X122431671Y-108610883D01*
X122415607Y-108628607D01*
X122397883Y-108644671D01*
X122378670Y-108658921D01*
X122358153Y-108671218D01*
X122336529Y-108681446D01*
X122314007Y-108689504D01*
X122290803Y-108695316D01*
X122267142Y-108698826D01*
X122243250Y-108700000D01*
X121755750Y-108700000D01*
X121731858Y-108698826D01*
X121708197Y-108695316D01*
X121684993Y-108689504D01*
X121662471Y-108681446D01*
X121640847Y-108671218D01*
X121620330Y-108658921D01*
X121601117Y-108644671D01*
X121583393Y-108628607D01*
X121567329Y-108610883D01*
X121553079Y-108591670D01*
X121540782Y-108571153D01*
X121530554Y-108549529D01*
X121522496Y-108527007D01*
X121516684Y-108503803D01*
X121513174Y-108480142D01*
X121512000Y-108456250D01*
X121512000Y-107543750D01*
X121513174Y-107519858D01*
X121516684Y-107496197D01*
X121522496Y-107472993D01*
X121530554Y-107450471D01*
X121540782Y-107428847D01*
X121553079Y-107408330D01*
X121567329Y-107389117D01*
X121583393Y-107371393D01*
X121601117Y-107355329D01*
X121620330Y-107341079D01*
X121640847Y-107328782D01*
X121662471Y-107318554D01*
X121684993Y-107310496D01*
X121708197Y-107304684D01*
X121731858Y-107301174D01*
X121755750Y-107300000D01*
X122243250Y-107300000D01*
X122267142Y-107301174D01*
G37*
G36*
X97980142Y-107076174D02*
G01*
X98003803Y-107079684D01*
X98027007Y-107085496D01*
X98049529Y-107093554D01*
X98071153Y-107103782D01*
X98091670Y-107116079D01*
X98110883Y-107130329D01*
X98128607Y-107146393D01*
X98144671Y-107164117D01*
X98158921Y-107183330D01*
X98171218Y-107203847D01*
X98181446Y-107225471D01*
X98189504Y-107247993D01*
X98195316Y-107271197D01*
X98198826Y-107294858D01*
X98200000Y-107318750D01*
X98200000Y-107806250D01*
X98198826Y-107830142D01*
X98195316Y-107853803D01*
X98189504Y-107877007D01*
X98181446Y-107899529D01*
X98171218Y-107921153D01*
X98158921Y-107941670D01*
X98144671Y-107960883D01*
X98128607Y-107978607D01*
X98110883Y-107994671D01*
X98091670Y-108008921D01*
X98071153Y-108021218D01*
X98049529Y-108031446D01*
X98027007Y-108039504D01*
X98003803Y-108045316D01*
X97980142Y-108048826D01*
X97956250Y-108050000D01*
X97043750Y-108050000D01*
X97019858Y-108048826D01*
X96996197Y-108045316D01*
X96972993Y-108039504D01*
X96950471Y-108031446D01*
X96928847Y-108021218D01*
X96908330Y-108008921D01*
X96889117Y-107994671D01*
X96871393Y-107978607D01*
X96855329Y-107960883D01*
X96841079Y-107941670D01*
X96828782Y-107921153D01*
X96818554Y-107899529D01*
X96810496Y-107877007D01*
X96804684Y-107853803D01*
X96801174Y-107830142D01*
X96800000Y-107806250D01*
X96800000Y-107318750D01*
X96801174Y-107294858D01*
X96804684Y-107271197D01*
X96810496Y-107247993D01*
X96818554Y-107225471D01*
X96828782Y-107203847D01*
X96841079Y-107183330D01*
X96855329Y-107164117D01*
X96871393Y-107146393D01*
X96889117Y-107130329D01*
X96908330Y-107116079D01*
X96928847Y-107103782D01*
X96950471Y-107093554D01*
X96972993Y-107085496D01*
X96996197Y-107079684D01*
X97019858Y-107076174D01*
X97043750Y-107075000D01*
X97956250Y-107075000D01*
X97980142Y-107076174D01*
G37*
G36*
X97980142Y-108951174D02*
G01*
X98003803Y-108954684D01*
X98027007Y-108960496D01*
X98049529Y-108968554D01*
X98071153Y-108978782D01*
X98091670Y-108991079D01*
X98110883Y-109005329D01*
X98128607Y-109021393D01*
X98144671Y-109039117D01*
X98158921Y-109058330D01*
X98171218Y-109078847D01*
X98181446Y-109100471D01*
X98189504Y-109122993D01*
X98195316Y-109146197D01*
X98198826Y-109169858D01*
X98200000Y-109193750D01*
X98200000Y-109681250D01*
X98198826Y-109705142D01*
X98195316Y-109728803D01*
X98189504Y-109752007D01*
X98181446Y-109774529D01*
X98171218Y-109796153D01*
X98158921Y-109816670D01*
X98144671Y-109835883D01*
X98128607Y-109853607D01*
X98110883Y-109869671D01*
X98091670Y-109883921D01*
X98071153Y-109896218D01*
X98049529Y-109906446D01*
X98027007Y-109914504D01*
X98003803Y-109920316D01*
X97980142Y-109923826D01*
X97956250Y-109925000D01*
X97043750Y-109925000D01*
X97019858Y-109923826D01*
X96996197Y-109920316D01*
X96972993Y-109914504D01*
X96950471Y-109906446D01*
X96928847Y-109896218D01*
X96908330Y-109883921D01*
X96889117Y-109869671D01*
X96871393Y-109853607D01*
X96855329Y-109835883D01*
X96841079Y-109816670D01*
X96828782Y-109796153D01*
X96818554Y-109774529D01*
X96810496Y-109752007D01*
X96804684Y-109728803D01*
X96801174Y-109705142D01*
X96800000Y-109681250D01*
X96800000Y-109193750D01*
X96801174Y-109169858D01*
X96804684Y-109146197D01*
X96810496Y-109122993D01*
X96818554Y-109100471D01*
X96828782Y-109078847D01*
X96841079Y-109058330D01*
X96855329Y-109039117D01*
X96871393Y-109021393D01*
X96889117Y-109005329D01*
X96908330Y-108991079D01*
X96928847Y-108978782D01*
X96950471Y-108968554D01*
X96972993Y-108960496D01*
X96996197Y-108954684D01*
X97019858Y-108951174D01*
X97043750Y-108950000D01*
X97956250Y-108950000D01*
X97980142Y-108951174D01*
G37*
G36*
X102980142Y-108951174D02*
G01*
X103003803Y-108954684D01*
X103027007Y-108960496D01*
X103049529Y-108968554D01*
X103071153Y-108978782D01*
X103091670Y-108991079D01*
X103110883Y-109005329D01*
X103128607Y-109021393D01*
X103144671Y-109039117D01*
X103158921Y-109058330D01*
X103171218Y-109078847D01*
X103181446Y-109100471D01*
X103189504Y-109122993D01*
X103195316Y-109146197D01*
X103198826Y-109169858D01*
X103200000Y-109193750D01*
X103200000Y-109681250D01*
X103198826Y-109705142D01*
X103195316Y-109728803D01*
X103189504Y-109752007D01*
X103181446Y-109774529D01*
X103171218Y-109796153D01*
X103158921Y-109816670D01*
X103144671Y-109835883D01*
X103128607Y-109853607D01*
X103110883Y-109869671D01*
X103091670Y-109883921D01*
X103071153Y-109896218D01*
X103049529Y-109906446D01*
X103027007Y-109914504D01*
X103003803Y-109920316D01*
X102980142Y-109923826D01*
X102956250Y-109925000D01*
X102043750Y-109925000D01*
X102019858Y-109923826D01*
X101996197Y-109920316D01*
X101972993Y-109914504D01*
X101950471Y-109906446D01*
X101928847Y-109896218D01*
X101908330Y-109883921D01*
X101889117Y-109869671D01*
X101871393Y-109853607D01*
X101855329Y-109835883D01*
X101841079Y-109816670D01*
X101828782Y-109796153D01*
X101818554Y-109774529D01*
X101810496Y-109752007D01*
X101804684Y-109728803D01*
X101801174Y-109705142D01*
X101800000Y-109681250D01*
X101800000Y-109193750D01*
X101801174Y-109169858D01*
X101804684Y-109146197D01*
X101810496Y-109122993D01*
X101818554Y-109100471D01*
X101828782Y-109078847D01*
X101841079Y-109058330D01*
X101855329Y-109039117D01*
X101871393Y-109021393D01*
X101889117Y-109005329D01*
X101908330Y-108991079D01*
X101928847Y-108978782D01*
X101950471Y-108968554D01*
X101972993Y-108960496D01*
X101996197Y-108954684D01*
X102019858Y-108951174D01*
X102043750Y-108950000D01*
X102956250Y-108950000D01*
X102980142Y-108951174D01*
G37*
G36*
X102980142Y-107076174D02*
G01*
X103003803Y-107079684D01*
X103027007Y-107085496D01*
X103049529Y-107093554D01*
X103071153Y-107103782D01*
X103091670Y-107116079D01*
X103110883Y-107130329D01*
X103128607Y-107146393D01*
X103144671Y-107164117D01*
X103158921Y-107183330D01*
X103171218Y-107203847D01*
X103181446Y-107225471D01*
X103189504Y-107247993D01*
X103195316Y-107271197D01*
X103198826Y-107294858D01*
X103200000Y-107318750D01*
X103200000Y-107806250D01*
X103198826Y-107830142D01*
X103195316Y-107853803D01*
X103189504Y-107877007D01*
X103181446Y-107899529D01*
X103171218Y-107921153D01*
X103158921Y-107941670D01*
X103144671Y-107960883D01*
X103128607Y-107978607D01*
X103110883Y-107994671D01*
X103091670Y-108008921D01*
X103071153Y-108021218D01*
X103049529Y-108031446D01*
X103027007Y-108039504D01*
X103003803Y-108045316D01*
X102980142Y-108048826D01*
X102956250Y-108050000D01*
X102043750Y-108050000D01*
X102019858Y-108048826D01*
X101996197Y-108045316D01*
X101972993Y-108039504D01*
X101950471Y-108031446D01*
X101928847Y-108021218D01*
X101908330Y-108008921D01*
X101889117Y-107994671D01*
X101871393Y-107978607D01*
X101855329Y-107960883D01*
X101841079Y-107941670D01*
X101828782Y-107921153D01*
X101818554Y-107899529D01*
X101810496Y-107877007D01*
X101804684Y-107853803D01*
X101801174Y-107830142D01*
X101800000Y-107806250D01*
X101800000Y-107318750D01*
X101801174Y-107294858D01*
X101804684Y-107271197D01*
X101810496Y-107247993D01*
X101818554Y-107225471D01*
X101828782Y-107203847D01*
X101841079Y-107183330D01*
X101855329Y-107164117D01*
X101871393Y-107146393D01*
X101889117Y-107130329D01*
X101908330Y-107116079D01*
X101928847Y-107103782D01*
X101950471Y-107093554D01*
X101972993Y-107085496D01*
X101996197Y-107079684D01*
X102019858Y-107076174D01*
X102043750Y-107075000D01*
X102956250Y-107075000D01*
X102980142Y-107076174D01*
G37*
G36*
X102980142Y-129096174D02*
G01*
X103003803Y-129099684D01*
X103027007Y-129105496D01*
X103049529Y-129113554D01*
X103071153Y-129123782D01*
X103091670Y-129136079D01*
X103110883Y-129150329D01*
X103128607Y-129166393D01*
X103144671Y-129184117D01*
X103158921Y-129203330D01*
X103171218Y-129223847D01*
X103181446Y-129245471D01*
X103189504Y-129267993D01*
X103195316Y-129291197D01*
X103198826Y-129314858D01*
X103200000Y-129338750D01*
X103200000Y-129826250D01*
X103198826Y-129850142D01*
X103195316Y-129873803D01*
X103189504Y-129897007D01*
X103181446Y-129919529D01*
X103171218Y-129941153D01*
X103158921Y-129961670D01*
X103144671Y-129980883D01*
X103128607Y-129998607D01*
X103110883Y-130014671D01*
X103091670Y-130028921D01*
X103071153Y-130041218D01*
X103049529Y-130051446D01*
X103027007Y-130059504D01*
X103003803Y-130065316D01*
X102980142Y-130068826D01*
X102956250Y-130070000D01*
X102043750Y-130070000D01*
X102019858Y-130068826D01*
X101996197Y-130065316D01*
X101972993Y-130059504D01*
X101950471Y-130051446D01*
X101928847Y-130041218D01*
X101908330Y-130028921D01*
X101889117Y-130014671D01*
X101871393Y-129998607D01*
X101855329Y-129980883D01*
X101841079Y-129961670D01*
X101828782Y-129941153D01*
X101818554Y-129919529D01*
X101810496Y-129897007D01*
X101804684Y-129873803D01*
X101801174Y-129850142D01*
X101800000Y-129826250D01*
X101800000Y-129338750D01*
X101801174Y-129314858D01*
X101804684Y-129291197D01*
X101810496Y-129267993D01*
X101818554Y-129245471D01*
X101828782Y-129223847D01*
X101841079Y-129203330D01*
X101855329Y-129184117D01*
X101871393Y-129166393D01*
X101889117Y-129150329D01*
X101908330Y-129136079D01*
X101928847Y-129123782D01*
X101950471Y-129113554D01*
X101972993Y-129105496D01*
X101996197Y-129099684D01*
X102019858Y-129096174D01*
X102043750Y-129095000D01*
X102956250Y-129095000D01*
X102980142Y-129096174D01*
G37*
G36*
X102980142Y-130971174D02*
G01*
X103003803Y-130974684D01*
X103027007Y-130980496D01*
X103049529Y-130988554D01*
X103071153Y-130998782D01*
X103091670Y-131011079D01*
X103110883Y-131025329D01*
X103128607Y-131041393D01*
X103144671Y-131059117D01*
X103158921Y-131078330D01*
X103171218Y-131098847D01*
X103181446Y-131120471D01*
X103189504Y-131142993D01*
X103195316Y-131166197D01*
X103198826Y-131189858D01*
X103200000Y-131213750D01*
X103200000Y-131701250D01*
X103198826Y-131725142D01*
X103195316Y-131748803D01*
X103189504Y-131772007D01*
X103181446Y-131794529D01*
X103171218Y-131816153D01*
X103158921Y-131836670D01*
X103144671Y-131855883D01*
X103128607Y-131873607D01*
X103110883Y-131889671D01*
X103091670Y-131903921D01*
X103071153Y-131916218D01*
X103049529Y-131926446D01*
X103027007Y-131934504D01*
X103003803Y-131940316D01*
X102980142Y-131943826D01*
X102956250Y-131945000D01*
X102043750Y-131945000D01*
X102019858Y-131943826D01*
X101996197Y-131940316D01*
X101972993Y-131934504D01*
X101950471Y-131926446D01*
X101928847Y-131916218D01*
X101908330Y-131903921D01*
X101889117Y-131889671D01*
X101871393Y-131873607D01*
X101855329Y-131855883D01*
X101841079Y-131836670D01*
X101828782Y-131816153D01*
X101818554Y-131794529D01*
X101810496Y-131772007D01*
X101804684Y-131748803D01*
X101801174Y-131725142D01*
X101800000Y-131701250D01*
X101800000Y-131213750D01*
X101801174Y-131189858D01*
X101804684Y-131166197D01*
X101810496Y-131142993D01*
X101818554Y-131120471D01*
X101828782Y-131098847D01*
X101841079Y-131078330D01*
X101855329Y-131059117D01*
X101871393Y-131041393D01*
X101889117Y-131025329D01*
X101908330Y-131011079D01*
X101928847Y-130998782D01*
X101950471Y-130988554D01*
X101972993Y-130980496D01*
X101996197Y-130974684D01*
X102019858Y-130971174D01*
X102043750Y-130970000D01*
X102956250Y-130970000D01*
X102980142Y-130971174D01*
G37*
G36*
X123705142Y-127551174D02*
G01*
X123728803Y-127554684D01*
X123752007Y-127560496D01*
X123774529Y-127568554D01*
X123796153Y-127578782D01*
X123816670Y-127591079D01*
X123835883Y-127605329D01*
X123853607Y-127621393D01*
X123869671Y-127639117D01*
X123883921Y-127658330D01*
X123896218Y-127678847D01*
X123906446Y-127700471D01*
X123914504Y-127722993D01*
X123920316Y-127746197D01*
X123923826Y-127769858D01*
X123925000Y-127793750D01*
X123925000Y-128706250D01*
X123923826Y-128730142D01*
X123920316Y-128753803D01*
X123914504Y-128777007D01*
X123906446Y-128799529D01*
X123896218Y-128821153D01*
X123883921Y-128841670D01*
X123869671Y-128860883D01*
X123853607Y-128878607D01*
X123835883Y-128894671D01*
X123816670Y-128908921D01*
X123796153Y-128921218D01*
X123774529Y-128931446D01*
X123752007Y-128939504D01*
X123728803Y-128945316D01*
X123705142Y-128948826D01*
X123681250Y-128950000D01*
X123193750Y-128950000D01*
X123169858Y-128948826D01*
X123146197Y-128945316D01*
X123122993Y-128939504D01*
X123100471Y-128931446D01*
X123078847Y-128921218D01*
X123058330Y-128908921D01*
X123039117Y-128894671D01*
X123021393Y-128878607D01*
X123005329Y-128860883D01*
X122991079Y-128841670D01*
X122978782Y-128821153D01*
X122968554Y-128799529D01*
X122960496Y-128777007D01*
X122954684Y-128753803D01*
X122951174Y-128730142D01*
X122950000Y-128706250D01*
X122950000Y-127793750D01*
X122951174Y-127769858D01*
X122954684Y-127746197D01*
X122960496Y-127722993D01*
X122968554Y-127700471D01*
X122978782Y-127678847D01*
X122991079Y-127658330D01*
X123005329Y-127639117D01*
X123021393Y-127621393D01*
X123039117Y-127605329D01*
X123058330Y-127591079D01*
X123078847Y-127578782D01*
X123100471Y-127568554D01*
X123122993Y-127560496D01*
X123146197Y-127554684D01*
X123169858Y-127551174D01*
X123193750Y-127550000D01*
X123681250Y-127550000D01*
X123705142Y-127551174D01*
G37*
G36*
X121830142Y-127551174D02*
G01*
X121853803Y-127554684D01*
X121877007Y-127560496D01*
X121899529Y-127568554D01*
X121921153Y-127578782D01*
X121941670Y-127591079D01*
X121960883Y-127605329D01*
X121978607Y-127621393D01*
X121994671Y-127639117D01*
X122008921Y-127658330D01*
X122021218Y-127678847D01*
X122031446Y-127700471D01*
X122039504Y-127722993D01*
X122045316Y-127746197D01*
X122048826Y-127769858D01*
X122050000Y-127793750D01*
X122050000Y-128706250D01*
X122048826Y-128730142D01*
X122045316Y-128753803D01*
X122039504Y-128777007D01*
X122031446Y-128799529D01*
X122021218Y-128821153D01*
X122008921Y-128841670D01*
X121994671Y-128860883D01*
X121978607Y-128878607D01*
X121960883Y-128894671D01*
X121941670Y-128908921D01*
X121921153Y-128921218D01*
X121899529Y-128931446D01*
X121877007Y-128939504D01*
X121853803Y-128945316D01*
X121830142Y-128948826D01*
X121806250Y-128950000D01*
X121318750Y-128950000D01*
X121294858Y-128948826D01*
X121271197Y-128945316D01*
X121247993Y-128939504D01*
X121225471Y-128931446D01*
X121203847Y-128921218D01*
X121183330Y-128908921D01*
X121164117Y-128894671D01*
X121146393Y-128878607D01*
X121130329Y-128860883D01*
X121116079Y-128841670D01*
X121103782Y-128821153D01*
X121093554Y-128799529D01*
X121085496Y-128777007D01*
X121079684Y-128753803D01*
X121076174Y-128730142D01*
X121075000Y-128706250D01*
X121075000Y-127793750D01*
X121076174Y-127769858D01*
X121079684Y-127746197D01*
X121085496Y-127722993D01*
X121093554Y-127700471D01*
X121103782Y-127678847D01*
X121116079Y-127658330D01*
X121130329Y-127639117D01*
X121146393Y-127621393D01*
X121164117Y-127605329D01*
X121183330Y-127591079D01*
X121203847Y-127578782D01*
X121225471Y-127568554D01*
X121247993Y-127560496D01*
X121271197Y-127554684D01*
X121294858Y-127551174D01*
X121318750Y-127550000D01*
X121806250Y-127550000D01*
X121830142Y-127551174D01*
G37*
G36*
X121830142Y-131301174D02*
G01*
X121853803Y-131304684D01*
X121877007Y-131310496D01*
X121899529Y-131318554D01*
X121921153Y-131328782D01*
X121941670Y-131341079D01*
X121960883Y-131355329D01*
X121978607Y-131371393D01*
X121994671Y-131389117D01*
X122008921Y-131408330D01*
X122021218Y-131428847D01*
X122031446Y-131450471D01*
X122039504Y-131472993D01*
X122045316Y-131496197D01*
X122048826Y-131519858D01*
X122050000Y-131543750D01*
X122050000Y-132456250D01*
X122048826Y-132480142D01*
X122045316Y-132503803D01*
X122039504Y-132527007D01*
X122031446Y-132549529D01*
X122021218Y-132571153D01*
X122008921Y-132591670D01*
X121994671Y-132610883D01*
X121978607Y-132628607D01*
X121960883Y-132644671D01*
X121941670Y-132658921D01*
X121921153Y-132671218D01*
X121899529Y-132681446D01*
X121877007Y-132689504D01*
X121853803Y-132695316D01*
X121830142Y-132698826D01*
X121806250Y-132700000D01*
X121318750Y-132700000D01*
X121294858Y-132698826D01*
X121271197Y-132695316D01*
X121247993Y-132689504D01*
X121225471Y-132681446D01*
X121203847Y-132671218D01*
X121183330Y-132658921D01*
X121164117Y-132644671D01*
X121146393Y-132628607D01*
X121130329Y-132610883D01*
X121116079Y-132591670D01*
X121103782Y-132571153D01*
X121093554Y-132549529D01*
X121085496Y-132527007D01*
X121079684Y-132503803D01*
X121076174Y-132480142D01*
X121075000Y-132456250D01*
X121075000Y-131543750D01*
X121076174Y-131519858D01*
X121079684Y-131496197D01*
X121085496Y-131472993D01*
X121093554Y-131450471D01*
X121103782Y-131428847D01*
X121116079Y-131408330D01*
X121130329Y-131389117D01*
X121146393Y-131371393D01*
X121164117Y-131355329D01*
X121183330Y-131341079D01*
X121203847Y-131328782D01*
X121225471Y-131318554D01*
X121247993Y-131310496D01*
X121271197Y-131304684D01*
X121294858Y-131301174D01*
X121318750Y-131300000D01*
X121806250Y-131300000D01*
X121830142Y-131301174D01*
G37*
G36*
X123705142Y-131301174D02*
G01*
X123728803Y-131304684D01*
X123752007Y-131310496D01*
X123774529Y-131318554D01*
X123796153Y-131328782D01*
X123816670Y-131341079D01*
X123835883Y-131355329D01*
X123853607Y-131371393D01*
X123869671Y-131389117D01*
X123883921Y-131408330D01*
X123896218Y-131428847D01*
X123906446Y-131450471D01*
X123914504Y-131472993D01*
X123920316Y-131496197D01*
X123923826Y-131519858D01*
X123925000Y-131543750D01*
X123925000Y-132456250D01*
X123923826Y-132480142D01*
X123920316Y-132503803D01*
X123914504Y-132527007D01*
X123906446Y-132549529D01*
X123896218Y-132571153D01*
X123883921Y-132591670D01*
X123869671Y-132610883D01*
X123853607Y-132628607D01*
X123835883Y-132644671D01*
X123816670Y-132658921D01*
X123796153Y-132671218D01*
X123774529Y-132681446D01*
X123752007Y-132689504D01*
X123728803Y-132695316D01*
X123705142Y-132698826D01*
X123681250Y-132700000D01*
X123193750Y-132700000D01*
X123169858Y-132698826D01*
X123146197Y-132695316D01*
X123122993Y-132689504D01*
X123100471Y-132681446D01*
X123078847Y-132671218D01*
X123058330Y-132658921D01*
X123039117Y-132644671D01*
X123021393Y-132628607D01*
X123005329Y-132610883D01*
X122991079Y-132591670D01*
X122978782Y-132571153D01*
X122968554Y-132549529D01*
X122960496Y-132527007D01*
X122954684Y-132503803D01*
X122951174Y-132480142D01*
X122950000Y-132456250D01*
X122950000Y-131543750D01*
X122951174Y-131519858D01*
X122954684Y-131496197D01*
X122960496Y-131472993D01*
X122968554Y-131450471D01*
X122978782Y-131428847D01*
X122991079Y-131408330D01*
X123005329Y-131389117D01*
X123021393Y-131371393D01*
X123039117Y-131355329D01*
X123058330Y-131341079D01*
X123078847Y-131328782D01*
X123100471Y-131318554D01*
X123122993Y-131310496D01*
X123146197Y-131304684D01*
X123169858Y-131301174D01*
X123193750Y-131300000D01*
X123681250Y-131300000D01*
X123705142Y-131301174D01*
G37*
G36*
X116080142Y-119051174D02*
G01*
X116103803Y-119054684D01*
X116127007Y-119060496D01*
X116149529Y-119068554D01*
X116171153Y-119078782D01*
X116191670Y-119091079D01*
X116210883Y-119105329D01*
X116228607Y-119121393D01*
X116244671Y-119139117D01*
X116258921Y-119158330D01*
X116271218Y-119178847D01*
X116281446Y-119200471D01*
X116289504Y-119222993D01*
X116295316Y-119246197D01*
X116298826Y-119269858D01*
X116300000Y-119293750D01*
X116300000Y-120206250D01*
X116298826Y-120230142D01*
X116295316Y-120253803D01*
X116289504Y-120277007D01*
X116281446Y-120299529D01*
X116271218Y-120321153D01*
X116258921Y-120341670D01*
X116244671Y-120360883D01*
X116228607Y-120378607D01*
X116210883Y-120394671D01*
X116191670Y-120408921D01*
X116171153Y-120421218D01*
X116149529Y-120431446D01*
X116127007Y-120439504D01*
X116103803Y-120445316D01*
X116080142Y-120448826D01*
X116056250Y-120450000D01*
X115568750Y-120450000D01*
X115544858Y-120448826D01*
X115521197Y-120445316D01*
X115497993Y-120439504D01*
X115475471Y-120431446D01*
X115453847Y-120421218D01*
X115433330Y-120408921D01*
X115414117Y-120394671D01*
X115396393Y-120378607D01*
X115380329Y-120360883D01*
X115366079Y-120341670D01*
X115353782Y-120321153D01*
X115343554Y-120299529D01*
X115335496Y-120277007D01*
X115329684Y-120253803D01*
X115326174Y-120230142D01*
X115325000Y-120206250D01*
X115325000Y-119293750D01*
X115326174Y-119269858D01*
X115329684Y-119246197D01*
X115335496Y-119222993D01*
X115343554Y-119200471D01*
X115353782Y-119178847D01*
X115366079Y-119158330D01*
X115380329Y-119139117D01*
X115396393Y-119121393D01*
X115414117Y-119105329D01*
X115433330Y-119091079D01*
X115453847Y-119078782D01*
X115475471Y-119068554D01*
X115497993Y-119060496D01*
X115521197Y-119054684D01*
X115544858Y-119051174D01*
X115568750Y-119050000D01*
X116056250Y-119050000D01*
X116080142Y-119051174D01*
G37*
G36*
X117955142Y-119051174D02*
G01*
X117978803Y-119054684D01*
X118002007Y-119060496D01*
X118024529Y-119068554D01*
X118046153Y-119078782D01*
X118066670Y-119091079D01*
X118085883Y-119105329D01*
X118103607Y-119121393D01*
X118119671Y-119139117D01*
X118133921Y-119158330D01*
X118146218Y-119178847D01*
X118156446Y-119200471D01*
X118164504Y-119222993D01*
X118170316Y-119246197D01*
X118173826Y-119269858D01*
X118175000Y-119293750D01*
X118175000Y-120206250D01*
X118173826Y-120230142D01*
X118170316Y-120253803D01*
X118164504Y-120277007D01*
X118156446Y-120299529D01*
X118146218Y-120321153D01*
X118133921Y-120341670D01*
X118119671Y-120360883D01*
X118103607Y-120378607D01*
X118085883Y-120394671D01*
X118066670Y-120408921D01*
X118046153Y-120421218D01*
X118024529Y-120431446D01*
X118002007Y-120439504D01*
X117978803Y-120445316D01*
X117955142Y-120448826D01*
X117931250Y-120450000D01*
X117443750Y-120450000D01*
X117419858Y-120448826D01*
X117396197Y-120445316D01*
X117372993Y-120439504D01*
X117350471Y-120431446D01*
X117328847Y-120421218D01*
X117308330Y-120408921D01*
X117289117Y-120394671D01*
X117271393Y-120378607D01*
X117255329Y-120360883D01*
X117241079Y-120341670D01*
X117228782Y-120321153D01*
X117218554Y-120299529D01*
X117210496Y-120277007D01*
X117204684Y-120253803D01*
X117201174Y-120230142D01*
X117200000Y-120206250D01*
X117200000Y-119293750D01*
X117201174Y-119269858D01*
X117204684Y-119246197D01*
X117210496Y-119222993D01*
X117218554Y-119200471D01*
X117228782Y-119178847D01*
X117241079Y-119158330D01*
X117255329Y-119139117D01*
X117271393Y-119121393D01*
X117289117Y-119105329D01*
X117308330Y-119091079D01*
X117328847Y-119078782D01*
X117350471Y-119068554D01*
X117372993Y-119060496D01*
X117396197Y-119054684D01*
X117419858Y-119051174D01*
X117443750Y-119050000D01*
X117931250Y-119050000D01*
X117955142Y-119051174D01*
G37*
G36*
X100480142Y-107076174D02*
G01*
X100503803Y-107079684D01*
X100527007Y-107085496D01*
X100549529Y-107093554D01*
X100571153Y-107103782D01*
X100591670Y-107116079D01*
X100610883Y-107130329D01*
X100628607Y-107146393D01*
X100644671Y-107164117D01*
X100658921Y-107183330D01*
X100671218Y-107203847D01*
X100681446Y-107225471D01*
X100689504Y-107247993D01*
X100695316Y-107271197D01*
X100698826Y-107294858D01*
X100700000Y-107318750D01*
X100700000Y-107806250D01*
X100698826Y-107830142D01*
X100695316Y-107853803D01*
X100689504Y-107877007D01*
X100681446Y-107899529D01*
X100671218Y-107921153D01*
X100658921Y-107941670D01*
X100644671Y-107960883D01*
X100628607Y-107978607D01*
X100610883Y-107994671D01*
X100591670Y-108008921D01*
X100571153Y-108021218D01*
X100549529Y-108031446D01*
X100527007Y-108039504D01*
X100503803Y-108045316D01*
X100480142Y-108048826D01*
X100456250Y-108050000D01*
X99543750Y-108050000D01*
X99519858Y-108048826D01*
X99496197Y-108045316D01*
X99472993Y-108039504D01*
X99450471Y-108031446D01*
X99428847Y-108021218D01*
X99408330Y-108008921D01*
X99389117Y-107994671D01*
X99371393Y-107978607D01*
X99355329Y-107960883D01*
X99341079Y-107941670D01*
X99328782Y-107921153D01*
X99318554Y-107899529D01*
X99310496Y-107877007D01*
X99304684Y-107853803D01*
X99301174Y-107830142D01*
X99300000Y-107806250D01*
X99300000Y-107318750D01*
X99301174Y-107294858D01*
X99304684Y-107271197D01*
X99310496Y-107247993D01*
X99318554Y-107225471D01*
X99328782Y-107203847D01*
X99341079Y-107183330D01*
X99355329Y-107164117D01*
X99371393Y-107146393D01*
X99389117Y-107130329D01*
X99408330Y-107116079D01*
X99428847Y-107103782D01*
X99450471Y-107093554D01*
X99472993Y-107085496D01*
X99496197Y-107079684D01*
X99519858Y-107076174D01*
X99543750Y-107075000D01*
X100456250Y-107075000D01*
X100480142Y-107076174D01*
G37*
G36*
X100480142Y-108951174D02*
G01*
X100503803Y-108954684D01*
X100527007Y-108960496D01*
X100549529Y-108968554D01*
X100571153Y-108978782D01*
X100591670Y-108991079D01*
X100610883Y-109005329D01*
X100628607Y-109021393D01*
X100644671Y-109039117D01*
X100658921Y-109058330D01*
X100671218Y-109078847D01*
X100681446Y-109100471D01*
X100689504Y-109122993D01*
X100695316Y-109146197D01*
X100698826Y-109169858D01*
X100700000Y-109193750D01*
X100700000Y-109681250D01*
X100698826Y-109705142D01*
X100695316Y-109728803D01*
X100689504Y-109752007D01*
X100681446Y-109774529D01*
X100671218Y-109796153D01*
X100658921Y-109816670D01*
X100644671Y-109835883D01*
X100628607Y-109853607D01*
X100610883Y-109869671D01*
X100591670Y-109883921D01*
X100571153Y-109896218D01*
X100549529Y-109906446D01*
X100527007Y-109914504D01*
X100503803Y-109920316D01*
X100480142Y-109923826D01*
X100456250Y-109925000D01*
X99543750Y-109925000D01*
X99519858Y-109923826D01*
X99496197Y-109920316D01*
X99472993Y-109914504D01*
X99450471Y-109906446D01*
X99428847Y-109896218D01*
X99408330Y-109883921D01*
X99389117Y-109869671D01*
X99371393Y-109853607D01*
X99355329Y-109835883D01*
X99341079Y-109816670D01*
X99328782Y-109796153D01*
X99318554Y-109774529D01*
X99310496Y-109752007D01*
X99304684Y-109728803D01*
X99301174Y-109705142D01*
X99300000Y-109681250D01*
X99300000Y-109193750D01*
X99301174Y-109169858D01*
X99304684Y-109146197D01*
X99310496Y-109122993D01*
X99318554Y-109100471D01*
X99328782Y-109078847D01*
X99341079Y-109058330D01*
X99355329Y-109039117D01*
X99371393Y-109021393D01*
X99389117Y-109005329D01*
X99408330Y-108991079D01*
X99428847Y-108978782D01*
X99450471Y-108968554D01*
X99472993Y-108960496D01*
X99496197Y-108954684D01*
X99519858Y-108951174D01*
X99543750Y-108950000D01*
X100456250Y-108950000D01*
X100480142Y-108951174D01*
G37*
D12*
X133600000Y-97700000D03*
X135600000Y-90300000D03*
D13*
X126200000Y-90300000D03*
D14*
X112400000Y-124000000D03*
X108100000Y-124000000D03*
X108100000Y-119000000D03*
X112400000Y-119000000D03*
D15*
X94000000Y-125800000D03*
X94500000Y-125800000D03*
X95000000Y-125800000D03*
X95500000Y-125800000D03*
X96000000Y-125800000D03*
X96000000Y-130200000D03*
X95500000Y-130200000D03*
X95000000Y-130200000D03*
X94500000Y-130200000D03*
X94000000Y-130200000D03*
D16*
X121950000Y-125225000D03*
X121950000Y-124575000D03*
X121950000Y-123925000D03*
X121950000Y-123275000D03*
X117550000Y-123275000D03*
X117550000Y-123925000D03*
X117550000Y-124575000D03*
X117550000Y-125225000D03*
D10*
G36*
X106364703Y-128045722D02*
G01*
X106379264Y-128047882D01*
X106393543Y-128051459D01*
X106407403Y-128056418D01*
X106420710Y-128062712D01*
X106433336Y-128070280D01*
X106445159Y-128079048D01*
X106456066Y-128088934D01*
X106465952Y-128099841D01*
X106474720Y-128111664D01*
X106482288Y-128124290D01*
X106488582Y-128137597D01*
X106493541Y-128151457D01*
X106497118Y-128165736D01*
X106499278Y-128180297D01*
X106500000Y-128195000D01*
X106500000Y-128495000D01*
X106499278Y-128509703D01*
X106497118Y-128524264D01*
X106493541Y-128538543D01*
X106488582Y-128552403D01*
X106482288Y-128565710D01*
X106474720Y-128578336D01*
X106465952Y-128590159D01*
X106456066Y-128601066D01*
X106445159Y-128610952D01*
X106433336Y-128619720D01*
X106420710Y-128627288D01*
X106407403Y-128633582D01*
X106393543Y-128638541D01*
X106379264Y-128642118D01*
X106364703Y-128644278D01*
X106350000Y-128645000D01*
X104700000Y-128645000D01*
X104685297Y-128644278D01*
X104670736Y-128642118D01*
X104656457Y-128638541D01*
X104642597Y-128633582D01*
X104629290Y-128627288D01*
X104616664Y-128619720D01*
X104604841Y-128610952D01*
X104593934Y-128601066D01*
X104584048Y-128590159D01*
X104575280Y-128578336D01*
X104567712Y-128565710D01*
X104561418Y-128552403D01*
X104556459Y-128538543D01*
X104552882Y-128524264D01*
X104550722Y-128509703D01*
X104550000Y-128495000D01*
X104550000Y-128195000D01*
X104550722Y-128180297D01*
X104552882Y-128165736D01*
X104556459Y-128151457D01*
X104561418Y-128137597D01*
X104567712Y-128124290D01*
X104575280Y-128111664D01*
X104584048Y-128099841D01*
X104593934Y-128088934D01*
X104604841Y-128079048D01*
X104616664Y-128070280D01*
X104629290Y-128062712D01*
X104642597Y-128056418D01*
X104656457Y-128051459D01*
X104670736Y-128047882D01*
X104685297Y-128045722D01*
X104700000Y-128045000D01*
X106350000Y-128045000D01*
X106364703Y-128045722D01*
G37*
G36*
X106364703Y-129315722D02*
G01*
X106379264Y-129317882D01*
X106393543Y-129321459D01*
X106407403Y-129326418D01*
X106420710Y-129332712D01*
X106433336Y-129340280D01*
X106445159Y-129349048D01*
X106456066Y-129358934D01*
X106465952Y-129369841D01*
X106474720Y-129381664D01*
X106482288Y-129394290D01*
X106488582Y-129407597D01*
X106493541Y-129421457D01*
X106497118Y-129435736D01*
X106499278Y-129450297D01*
X106500000Y-129465000D01*
X106500000Y-129765000D01*
X106499278Y-129779703D01*
X106497118Y-129794264D01*
X106493541Y-129808543D01*
X106488582Y-129822403D01*
X106482288Y-129835710D01*
X106474720Y-129848336D01*
X106465952Y-129860159D01*
X106456066Y-129871066D01*
X106445159Y-129880952D01*
X106433336Y-129889720D01*
X106420710Y-129897288D01*
X106407403Y-129903582D01*
X106393543Y-129908541D01*
X106379264Y-129912118D01*
X106364703Y-129914278D01*
X106350000Y-129915000D01*
X104700000Y-129915000D01*
X104685297Y-129914278D01*
X104670736Y-129912118D01*
X104656457Y-129908541D01*
X104642597Y-129903582D01*
X104629290Y-129897288D01*
X104616664Y-129889720D01*
X104604841Y-129880952D01*
X104593934Y-129871066D01*
X104584048Y-129860159D01*
X104575280Y-129848336D01*
X104567712Y-129835710D01*
X104561418Y-129822403D01*
X104556459Y-129808543D01*
X104552882Y-129794264D01*
X104550722Y-129779703D01*
X104550000Y-129765000D01*
X104550000Y-129465000D01*
X104550722Y-129450297D01*
X104552882Y-129435736D01*
X104556459Y-129421457D01*
X104561418Y-129407597D01*
X104567712Y-129394290D01*
X104575280Y-129381664D01*
X104584048Y-129369841D01*
X104593934Y-129358934D01*
X104604841Y-129349048D01*
X104616664Y-129340280D01*
X104629290Y-129332712D01*
X104642597Y-129326418D01*
X104656457Y-129321459D01*
X104670736Y-129317882D01*
X104685297Y-129315722D01*
X104700000Y-129315000D01*
X106350000Y-129315000D01*
X106364703Y-129315722D01*
G37*
G36*
X106364703Y-130585722D02*
G01*
X106379264Y-130587882D01*
X106393543Y-130591459D01*
X106407403Y-130596418D01*
X106420710Y-130602712D01*
X106433336Y-130610280D01*
X106445159Y-130619048D01*
X106456066Y-130628934D01*
X106465952Y-130639841D01*
X106474720Y-130651664D01*
X106482288Y-130664290D01*
X106488582Y-130677597D01*
X106493541Y-130691457D01*
X106497118Y-130705736D01*
X106499278Y-130720297D01*
X106500000Y-130735000D01*
X106500000Y-131035000D01*
X106499278Y-131049703D01*
X106497118Y-131064264D01*
X106493541Y-131078543D01*
X106488582Y-131092403D01*
X106482288Y-131105710D01*
X106474720Y-131118336D01*
X106465952Y-131130159D01*
X106456066Y-131141066D01*
X106445159Y-131150952D01*
X106433336Y-131159720D01*
X106420710Y-131167288D01*
X106407403Y-131173582D01*
X106393543Y-131178541D01*
X106379264Y-131182118D01*
X106364703Y-131184278D01*
X106350000Y-131185000D01*
X104700000Y-131185000D01*
X104685297Y-131184278D01*
X104670736Y-131182118D01*
X104656457Y-131178541D01*
X104642597Y-131173582D01*
X104629290Y-131167288D01*
X104616664Y-131159720D01*
X104604841Y-131150952D01*
X104593934Y-131141066D01*
X104584048Y-131130159D01*
X104575280Y-131118336D01*
X104567712Y-131105710D01*
X104561418Y-131092403D01*
X104556459Y-131078543D01*
X104552882Y-131064264D01*
X104550722Y-131049703D01*
X104550000Y-131035000D01*
X104550000Y-130735000D01*
X104550722Y-130720297D01*
X104552882Y-130705736D01*
X104556459Y-130691457D01*
X104561418Y-130677597D01*
X104567712Y-130664290D01*
X104575280Y-130651664D01*
X104584048Y-130639841D01*
X104593934Y-130628934D01*
X104604841Y-130619048D01*
X104616664Y-130610280D01*
X104629290Y-130602712D01*
X104642597Y-130596418D01*
X104656457Y-130591459D01*
X104670736Y-130587882D01*
X104685297Y-130585722D01*
X104700000Y-130585000D01*
X106350000Y-130585000D01*
X106364703Y-130585722D01*
G37*
G36*
X106364703Y-131855722D02*
G01*
X106379264Y-131857882D01*
X106393543Y-131861459D01*
X106407403Y-131866418D01*
X106420710Y-131872712D01*
X106433336Y-131880280D01*
X106445159Y-131889048D01*
X106456066Y-131898934D01*
X106465952Y-131909841D01*
X106474720Y-131921664D01*
X106482288Y-131934290D01*
X106488582Y-131947597D01*
X106493541Y-131961457D01*
X106497118Y-131975736D01*
X106499278Y-131990297D01*
X106500000Y-132005000D01*
X106500000Y-132305000D01*
X106499278Y-132319703D01*
X106497118Y-132334264D01*
X106493541Y-132348543D01*
X106488582Y-132362403D01*
X106482288Y-132375710D01*
X106474720Y-132388336D01*
X106465952Y-132400159D01*
X106456066Y-132411066D01*
X106445159Y-132420952D01*
X106433336Y-132429720D01*
X106420710Y-132437288D01*
X106407403Y-132443582D01*
X106393543Y-132448541D01*
X106379264Y-132452118D01*
X106364703Y-132454278D01*
X106350000Y-132455000D01*
X104700000Y-132455000D01*
X104685297Y-132454278D01*
X104670736Y-132452118D01*
X104656457Y-132448541D01*
X104642597Y-132443582D01*
X104629290Y-132437288D01*
X104616664Y-132429720D01*
X104604841Y-132420952D01*
X104593934Y-132411066D01*
X104584048Y-132400159D01*
X104575280Y-132388336D01*
X104567712Y-132375710D01*
X104561418Y-132362403D01*
X104556459Y-132348543D01*
X104552882Y-132334264D01*
X104550722Y-132319703D01*
X104550000Y-132305000D01*
X104550000Y-132005000D01*
X104550722Y-131990297D01*
X104552882Y-131975736D01*
X104556459Y-131961457D01*
X104561418Y-131947597D01*
X104567712Y-131934290D01*
X104575280Y-131921664D01*
X104584048Y-131909841D01*
X104593934Y-131898934D01*
X104604841Y-131889048D01*
X104616664Y-131880280D01*
X104629290Y-131872712D01*
X104642597Y-131866418D01*
X104656457Y-131861459D01*
X104670736Y-131857882D01*
X104685297Y-131855722D01*
X104700000Y-131855000D01*
X106350000Y-131855000D01*
X106364703Y-131855722D01*
G37*
G36*
X111314703Y-131855722D02*
G01*
X111329264Y-131857882D01*
X111343543Y-131861459D01*
X111357403Y-131866418D01*
X111370710Y-131872712D01*
X111383336Y-131880280D01*
X111395159Y-131889048D01*
X111406066Y-131898934D01*
X111415952Y-131909841D01*
X111424720Y-131921664D01*
X111432288Y-131934290D01*
X111438582Y-131947597D01*
X111443541Y-131961457D01*
X111447118Y-131975736D01*
X111449278Y-131990297D01*
X111450000Y-132005000D01*
X111450000Y-132305000D01*
X111449278Y-132319703D01*
X111447118Y-132334264D01*
X111443541Y-132348543D01*
X111438582Y-132362403D01*
X111432288Y-132375710D01*
X111424720Y-132388336D01*
X111415952Y-132400159D01*
X111406066Y-132411066D01*
X111395159Y-132420952D01*
X111383336Y-132429720D01*
X111370710Y-132437288D01*
X111357403Y-132443582D01*
X111343543Y-132448541D01*
X111329264Y-132452118D01*
X111314703Y-132454278D01*
X111300000Y-132455000D01*
X109650000Y-132455000D01*
X109635297Y-132454278D01*
X109620736Y-132452118D01*
X109606457Y-132448541D01*
X109592597Y-132443582D01*
X109579290Y-132437288D01*
X109566664Y-132429720D01*
X109554841Y-132420952D01*
X109543934Y-132411066D01*
X109534048Y-132400159D01*
X109525280Y-132388336D01*
X109517712Y-132375710D01*
X109511418Y-132362403D01*
X109506459Y-132348543D01*
X109502882Y-132334264D01*
X109500722Y-132319703D01*
X109500000Y-132305000D01*
X109500000Y-132005000D01*
X109500722Y-131990297D01*
X109502882Y-131975736D01*
X109506459Y-131961457D01*
X109511418Y-131947597D01*
X109517712Y-131934290D01*
X109525280Y-131921664D01*
X109534048Y-131909841D01*
X109543934Y-131898934D01*
X109554841Y-131889048D01*
X109566664Y-131880280D01*
X109579290Y-131872712D01*
X109592597Y-131866418D01*
X109606457Y-131861459D01*
X109620736Y-131857882D01*
X109635297Y-131855722D01*
X109650000Y-131855000D01*
X111300000Y-131855000D01*
X111314703Y-131855722D01*
G37*
G36*
X111314703Y-130585722D02*
G01*
X111329264Y-130587882D01*
X111343543Y-130591459D01*
X111357403Y-130596418D01*
X111370710Y-130602712D01*
X111383336Y-130610280D01*
X111395159Y-130619048D01*
X111406066Y-130628934D01*
X111415952Y-130639841D01*
X111424720Y-130651664D01*
X111432288Y-130664290D01*
X111438582Y-130677597D01*
X111443541Y-130691457D01*
X111447118Y-130705736D01*
X111449278Y-130720297D01*
X111450000Y-130735000D01*
X111450000Y-131035000D01*
X111449278Y-131049703D01*
X111447118Y-131064264D01*
X111443541Y-131078543D01*
X111438582Y-131092403D01*
X111432288Y-131105710D01*
X111424720Y-131118336D01*
X111415952Y-131130159D01*
X111406066Y-131141066D01*
X111395159Y-131150952D01*
X111383336Y-131159720D01*
X111370710Y-131167288D01*
X111357403Y-131173582D01*
X111343543Y-131178541D01*
X111329264Y-131182118D01*
X111314703Y-131184278D01*
X111300000Y-131185000D01*
X109650000Y-131185000D01*
X109635297Y-131184278D01*
X109620736Y-131182118D01*
X109606457Y-131178541D01*
X109592597Y-131173582D01*
X109579290Y-131167288D01*
X109566664Y-131159720D01*
X109554841Y-131150952D01*
X109543934Y-131141066D01*
X109534048Y-131130159D01*
X109525280Y-131118336D01*
X109517712Y-131105710D01*
X109511418Y-131092403D01*
X109506459Y-131078543D01*
X109502882Y-131064264D01*
X109500722Y-131049703D01*
X109500000Y-131035000D01*
X109500000Y-130735000D01*
X109500722Y-130720297D01*
X109502882Y-130705736D01*
X109506459Y-130691457D01*
X109511418Y-130677597D01*
X109517712Y-130664290D01*
X109525280Y-130651664D01*
X109534048Y-130639841D01*
X109543934Y-130628934D01*
X109554841Y-130619048D01*
X109566664Y-130610280D01*
X109579290Y-130602712D01*
X109592597Y-130596418D01*
X109606457Y-130591459D01*
X109620736Y-130587882D01*
X109635297Y-130585722D01*
X109650000Y-130585000D01*
X111300000Y-130585000D01*
X111314703Y-130585722D01*
G37*
G36*
X111314703Y-129315722D02*
G01*
X111329264Y-129317882D01*
X111343543Y-129321459D01*
X111357403Y-129326418D01*
X111370710Y-129332712D01*
X111383336Y-129340280D01*
X111395159Y-129349048D01*
X111406066Y-129358934D01*
X111415952Y-129369841D01*
X111424720Y-129381664D01*
X111432288Y-129394290D01*
X111438582Y-129407597D01*
X111443541Y-129421457D01*
X111447118Y-129435736D01*
X111449278Y-129450297D01*
X111450000Y-129465000D01*
X111450000Y-129765000D01*
X111449278Y-129779703D01*
X111447118Y-129794264D01*
X111443541Y-129808543D01*
X111438582Y-129822403D01*
X111432288Y-129835710D01*
X111424720Y-129848336D01*
X111415952Y-129860159D01*
X111406066Y-129871066D01*
X111395159Y-129880952D01*
X111383336Y-129889720D01*
X111370710Y-129897288D01*
X111357403Y-129903582D01*
X111343543Y-129908541D01*
X111329264Y-129912118D01*
X111314703Y-129914278D01*
X111300000Y-129915000D01*
X109650000Y-129915000D01*
X109635297Y-129914278D01*
X109620736Y-129912118D01*
X109606457Y-129908541D01*
X109592597Y-129903582D01*
X109579290Y-129897288D01*
X109566664Y-129889720D01*
X109554841Y-129880952D01*
X109543934Y-129871066D01*
X109534048Y-129860159D01*
X109525280Y-129848336D01*
X109517712Y-129835710D01*
X109511418Y-129822403D01*
X109506459Y-129808543D01*
X109502882Y-129794264D01*
X109500722Y-129779703D01*
X109500000Y-129765000D01*
X109500000Y-129465000D01*
X109500722Y-129450297D01*
X109502882Y-129435736D01*
X109506459Y-129421457D01*
X109511418Y-129407597D01*
X109517712Y-129394290D01*
X109525280Y-129381664D01*
X109534048Y-129369841D01*
X109543934Y-129358934D01*
X109554841Y-129349048D01*
X109566664Y-129340280D01*
X109579290Y-129332712D01*
X109592597Y-129326418D01*
X109606457Y-129321459D01*
X109620736Y-129317882D01*
X109635297Y-129315722D01*
X109650000Y-129315000D01*
X111300000Y-129315000D01*
X111314703Y-129315722D01*
G37*
G36*
X111314703Y-128045722D02*
G01*
X111329264Y-128047882D01*
X111343543Y-128051459D01*
X111357403Y-128056418D01*
X111370710Y-128062712D01*
X111383336Y-128070280D01*
X111395159Y-128079048D01*
X111406066Y-128088934D01*
X111415952Y-128099841D01*
X111424720Y-128111664D01*
X111432288Y-128124290D01*
X111438582Y-128137597D01*
X111443541Y-128151457D01*
X111447118Y-128165736D01*
X111449278Y-128180297D01*
X111450000Y-128195000D01*
X111450000Y-128495000D01*
X111449278Y-128509703D01*
X111447118Y-128524264D01*
X111443541Y-128538543D01*
X111438582Y-128552403D01*
X111432288Y-128565710D01*
X111424720Y-128578336D01*
X111415952Y-128590159D01*
X111406066Y-128601066D01*
X111395159Y-128610952D01*
X111383336Y-128619720D01*
X111370710Y-128627288D01*
X111357403Y-128633582D01*
X111343543Y-128638541D01*
X111329264Y-128642118D01*
X111314703Y-128644278D01*
X111300000Y-128645000D01*
X109650000Y-128645000D01*
X109635297Y-128644278D01*
X109620736Y-128642118D01*
X109606457Y-128638541D01*
X109592597Y-128633582D01*
X109579290Y-128627288D01*
X109566664Y-128619720D01*
X109554841Y-128610952D01*
X109543934Y-128601066D01*
X109534048Y-128590159D01*
X109525280Y-128578336D01*
X109517712Y-128565710D01*
X109511418Y-128552403D01*
X109506459Y-128538543D01*
X109502882Y-128524264D01*
X109500722Y-128509703D01*
X109500000Y-128495000D01*
X109500000Y-128195000D01*
X109500722Y-128180297D01*
X109502882Y-128165736D01*
X109506459Y-128151457D01*
X109511418Y-128137597D01*
X109517712Y-128124290D01*
X109525280Y-128111664D01*
X109534048Y-128099841D01*
X109543934Y-128088934D01*
X109554841Y-128079048D01*
X109566664Y-128070280D01*
X109579290Y-128062712D01*
X109592597Y-128056418D01*
X109606457Y-128051459D01*
X109620736Y-128047882D01*
X109635297Y-128045722D01*
X109650000Y-128045000D01*
X111300000Y-128045000D01*
X111314703Y-128045722D01*
G37*
D16*
X103550000Y-93550000D03*
X103550000Y-94200000D03*
X103550000Y-94850000D03*
X103550000Y-95500000D03*
X103550000Y-96150000D03*
X103550000Y-96800000D03*
X103550000Y-97450000D03*
X109450000Y-97450000D03*
X109450000Y-96800000D03*
X109450000Y-96150000D03*
X109450000Y-95500000D03*
X109450000Y-94850000D03*
X109450000Y-94200000D03*
X109450000Y-93550000D03*
D10*
G36*
X97777691Y-98814053D02*
G01*
X97798926Y-98817203D01*
X97819750Y-98822419D01*
X97839962Y-98829651D01*
X97859368Y-98838830D01*
X97877781Y-98849866D01*
X97895024Y-98862654D01*
X97910930Y-98877070D01*
X97925346Y-98892976D01*
X97938134Y-98910219D01*
X97949170Y-98928632D01*
X97958349Y-98948038D01*
X97965581Y-98968250D01*
X97970797Y-98989074D01*
X97973947Y-99010309D01*
X97975000Y-99031750D01*
X97975000Y-99469250D01*
X97973947Y-99490691D01*
X97970797Y-99511926D01*
X97965581Y-99532750D01*
X97958349Y-99552962D01*
X97949170Y-99572368D01*
X97938134Y-99590781D01*
X97925346Y-99608024D01*
X97910930Y-99623930D01*
X97895024Y-99638346D01*
X97877781Y-99651134D01*
X97859368Y-99662170D01*
X97839962Y-99671349D01*
X97819750Y-99678581D01*
X97798926Y-99683797D01*
X97777691Y-99686947D01*
X97756250Y-99688000D01*
X97243750Y-99688000D01*
X97222309Y-99686947D01*
X97201074Y-99683797D01*
X97180250Y-99678581D01*
X97160038Y-99671349D01*
X97140632Y-99662170D01*
X97122219Y-99651134D01*
X97104976Y-99638346D01*
X97089070Y-99623930D01*
X97074654Y-99608024D01*
X97061866Y-99590781D01*
X97050830Y-99572368D01*
X97041651Y-99552962D01*
X97034419Y-99532750D01*
X97029203Y-99511926D01*
X97026053Y-99490691D01*
X97025000Y-99469250D01*
X97025000Y-99031750D01*
X97026053Y-99010309D01*
X97029203Y-98989074D01*
X97034419Y-98968250D01*
X97041651Y-98948038D01*
X97050830Y-98928632D01*
X97061866Y-98910219D01*
X97074654Y-98892976D01*
X97089070Y-98877070D01*
X97104976Y-98862654D01*
X97122219Y-98849866D01*
X97140632Y-98838830D01*
X97160038Y-98829651D01*
X97180250Y-98822419D01*
X97201074Y-98817203D01*
X97222309Y-98814053D01*
X97243750Y-98813000D01*
X97756250Y-98813000D01*
X97777691Y-98814053D01*
G37*
G36*
X97777691Y-100389053D02*
G01*
X97798926Y-100392203D01*
X97819750Y-100397419D01*
X97839962Y-100404651D01*
X97859368Y-100413830D01*
X97877781Y-100424866D01*
X97895024Y-100437654D01*
X97910930Y-100452070D01*
X97925346Y-100467976D01*
X97938134Y-100485219D01*
X97949170Y-100503632D01*
X97958349Y-100523038D01*
X97965581Y-100543250D01*
X97970797Y-100564074D01*
X97973947Y-100585309D01*
X97975000Y-100606750D01*
X97975000Y-101044250D01*
X97973947Y-101065691D01*
X97970797Y-101086926D01*
X97965581Y-101107750D01*
X97958349Y-101127962D01*
X97949170Y-101147368D01*
X97938134Y-101165781D01*
X97925346Y-101183024D01*
X97910930Y-101198930D01*
X97895024Y-101213346D01*
X97877781Y-101226134D01*
X97859368Y-101237170D01*
X97839962Y-101246349D01*
X97819750Y-101253581D01*
X97798926Y-101258797D01*
X97777691Y-101261947D01*
X97756250Y-101263000D01*
X97243750Y-101263000D01*
X97222309Y-101261947D01*
X97201074Y-101258797D01*
X97180250Y-101253581D01*
X97160038Y-101246349D01*
X97140632Y-101237170D01*
X97122219Y-101226134D01*
X97104976Y-101213346D01*
X97089070Y-101198930D01*
X97074654Y-101183024D01*
X97061866Y-101165781D01*
X97050830Y-101147368D01*
X97041651Y-101127962D01*
X97034419Y-101107750D01*
X97029203Y-101086926D01*
X97026053Y-101065691D01*
X97025000Y-101044250D01*
X97025000Y-100606750D01*
X97026053Y-100585309D01*
X97029203Y-100564074D01*
X97034419Y-100543250D01*
X97041651Y-100523038D01*
X97050830Y-100503632D01*
X97061866Y-100485219D01*
X97074654Y-100467976D01*
X97089070Y-100452070D01*
X97104976Y-100437654D01*
X97122219Y-100424866D01*
X97140632Y-100413830D01*
X97160038Y-100404651D01*
X97180250Y-100397419D01*
X97201074Y-100392203D01*
X97222309Y-100389053D01*
X97243750Y-100388000D01*
X97756250Y-100388000D01*
X97777691Y-100389053D01*
G37*
G36*
X98277691Y-128776053D02*
G01*
X98298926Y-128779203D01*
X98319750Y-128784419D01*
X98339962Y-128791651D01*
X98359368Y-128800830D01*
X98377781Y-128811866D01*
X98395024Y-128824654D01*
X98410930Y-128839070D01*
X98425346Y-128854976D01*
X98438134Y-128872219D01*
X98449170Y-128890632D01*
X98458349Y-128910038D01*
X98465581Y-128930250D01*
X98470797Y-128951074D01*
X98473947Y-128972309D01*
X98475000Y-128993750D01*
X98475000Y-129431250D01*
X98473947Y-129452691D01*
X98470797Y-129473926D01*
X98465581Y-129494750D01*
X98458349Y-129514962D01*
X98449170Y-129534368D01*
X98438134Y-129552781D01*
X98425346Y-129570024D01*
X98410930Y-129585930D01*
X98395024Y-129600346D01*
X98377781Y-129613134D01*
X98359368Y-129624170D01*
X98339962Y-129633349D01*
X98319750Y-129640581D01*
X98298926Y-129645797D01*
X98277691Y-129648947D01*
X98256250Y-129650000D01*
X97743750Y-129650000D01*
X97722309Y-129648947D01*
X97701074Y-129645797D01*
X97680250Y-129640581D01*
X97660038Y-129633349D01*
X97640632Y-129624170D01*
X97622219Y-129613134D01*
X97604976Y-129600346D01*
X97589070Y-129585930D01*
X97574654Y-129570024D01*
X97561866Y-129552781D01*
X97550830Y-129534368D01*
X97541651Y-129514962D01*
X97534419Y-129494750D01*
X97529203Y-129473926D01*
X97526053Y-129452691D01*
X97525000Y-129431250D01*
X97525000Y-128993750D01*
X97526053Y-128972309D01*
X97529203Y-128951074D01*
X97534419Y-128930250D01*
X97541651Y-128910038D01*
X97550830Y-128890632D01*
X97561866Y-128872219D01*
X97574654Y-128854976D01*
X97589070Y-128839070D01*
X97604976Y-128824654D01*
X97622219Y-128811866D01*
X97640632Y-128800830D01*
X97660038Y-128791651D01*
X97680250Y-128784419D01*
X97701074Y-128779203D01*
X97722309Y-128776053D01*
X97743750Y-128775000D01*
X98256250Y-128775000D01*
X98277691Y-128776053D01*
G37*
G36*
X98277691Y-130351053D02*
G01*
X98298926Y-130354203D01*
X98319750Y-130359419D01*
X98339962Y-130366651D01*
X98359368Y-130375830D01*
X98377781Y-130386866D01*
X98395024Y-130399654D01*
X98410930Y-130414070D01*
X98425346Y-130429976D01*
X98438134Y-130447219D01*
X98449170Y-130465632D01*
X98458349Y-130485038D01*
X98465581Y-130505250D01*
X98470797Y-130526074D01*
X98473947Y-130547309D01*
X98475000Y-130568750D01*
X98475000Y-131006250D01*
X98473947Y-131027691D01*
X98470797Y-131048926D01*
X98465581Y-131069750D01*
X98458349Y-131089962D01*
X98449170Y-131109368D01*
X98438134Y-131127781D01*
X98425346Y-131145024D01*
X98410930Y-131160930D01*
X98395024Y-131175346D01*
X98377781Y-131188134D01*
X98359368Y-131199170D01*
X98339962Y-131208349D01*
X98319750Y-131215581D01*
X98298926Y-131220797D01*
X98277691Y-131223947D01*
X98256250Y-131225000D01*
X97743750Y-131225000D01*
X97722309Y-131223947D01*
X97701074Y-131220797D01*
X97680250Y-131215581D01*
X97660038Y-131208349D01*
X97640632Y-131199170D01*
X97622219Y-131188134D01*
X97604976Y-131175346D01*
X97589070Y-131160930D01*
X97574654Y-131145024D01*
X97561866Y-131127781D01*
X97550830Y-131109368D01*
X97541651Y-131089962D01*
X97534419Y-131069750D01*
X97529203Y-131048926D01*
X97526053Y-131027691D01*
X97525000Y-131006250D01*
X97525000Y-130568750D01*
X97526053Y-130547309D01*
X97529203Y-130526074D01*
X97534419Y-130505250D01*
X97541651Y-130485038D01*
X97550830Y-130465632D01*
X97561866Y-130447219D01*
X97574654Y-130429976D01*
X97589070Y-130414070D01*
X97604976Y-130399654D01*
X97622219Y-130386866D01*
X97640632Y-130375830D01*
X97660038Y-130366651D01*
X97680250Y-130359419D01*
X97701074Y-130354203D01*
X97722309Y-130351053D01*
X97743750Y-130350000D01*
X98256250Y-130350000D01*
X98277691Y-130351053D01*
G37*
G36*
X100277691Y-130351053D02*
G01*
X100298926Y-130354203D01*
X100319750Y-130359419D01*
X100339962Y-130366651D01*
X100359368Y-130375830D01*
X100377781Y-130386866D01*
X100395024Y-130399654D01*
X100410930Y-130414070D01*
X100425346Y-130429976D01*
X100438134Y-130447219D01*
X100449170Y-130465632D01*
X100458349Y-130485038D01*
X100465581Y-130505250D01*
X100470797Y-130526074D01*
X100473947Y-130547309D01*
X100475000Y-130568750D01*
X100475000Y-131006250D01*
X100473947Y-131027691D01*
X100470797Y-131048926D01*
X100465581Y-131069750D01*
X100458349Y-131089962D01*
X100449170Y-131109368D01*
X100438134Y-131127781D01*
X100425346Y-131145024D01*
X100410930Y-131160930D01*
X100395024Y-131175346D01*
X100377781Y-131188134D01*
X100359368Y-131199170D01*
X100339962Y-131208349D01*
X100319750Y-131215581D01*
X100298926Y-131220797D01*
X100277691Y-131223947D01*
X100256250Y-131225000D01*
X99743750Y-131225000D01*
X99722309Y-131223947D01*
X99701074Y-131220797D01*
X99680250Y-131215581D01*
X99660038Y-131208349D01*
X99640632Y-131199170D01*
X99622219Y-131188134D01*
X99604976Y-131175346D01*
X99589070Y-131160930D01*
X99574654Y-131145024D01*
X99561866Y-131127781D01*
X99550830Y-131109368D01*
X99541651Y-131089962D01*
X99534419Y-131069750D01*
X99529203Y-131048926D01*
X99526053Y-131027691D01*
X99525000Y-131006250D01*
X99525000Y-130568750D01*
X99526053Y-130547309D01*
X99529203Y-130526074D01*
X99534419Y-130505250D01*
X99541651Y-130485038D01*
X99550830Y-130465632D01*
X99561866Y-130447219D01*
X99574654Y-130429976D01*
X99589070Y-130414070D01*
X99604976Y-130399654D01*
X99622219Y-130386866D01*
X99640632Y-130375830D01*
X99660038Y-130366651D01*
X99680250Y-130359419D01*
X99701074Y-130354203D01*
X99722309Y-130351053D01*
X99743750Y-130350000D01*
X100256250Y-130350000D01*
X100277691Y-130351053D01*
G37*
G36*
X100277691Y-128776053D02*
G01*
X100298926Y-128779203D01*
X100319750Y-128784419D01*
X100339962Y-128791651D01*
X100359368Y-128800830D01*
X100377781Y-128811866D01*
X100395024Y-128824654D01*
X100410930Y-128839070D01*
X100425346Y-128854976D01*
X100438134Y-128872219D01*
X100449170Y-128890632D01*
X100458349Y-128910038D01*
X100465581Y-128930250D01*
X100470797Y-128951074D01*
X100473947Y-128972309D01*
X100475000Y-128993750D01*
X100475000Y-129431250D01*
X100473947Y-129452691D01*
X100470797Y-129473926D01*
X100465581Y-129494750D01*
X100458349Y-129514962D01*
X100449170Y-129534368D01*
X100438134Y-129552781D01*
X100425346Y-129570024D01*
X100410930Y-129585930D01*
X100395024Y-129600346D01*
X100377781Y-129613134D01*
X100359368Y-129624170D01*
X100339962Y-129633349D01*
X100319750Y-129640581D01*
X100298926Y-129645797D01*
X100277691Y-129648947D01*
X100256250Y-129650000D01*
X99743750Y-129650000D01*
X99722309Y-129648947D01*
X99701074Y-129645797D01*
X99680250Y-129640581D01*
X99660038Y-129633349D01*
X99640632Y-129624170D01*
X99622219Y-129613134D01*
X99604976Y-129600346D01*
X99589070Y-129585930D01*
X99574654Y-129570024D01*
X99561866Y-129552781D01*
X99550830Y-129534368D01*
X99541651Y-129514962D01*
X99534419Y-129494750D01*
X99529203Y-129473926D01*
X99526053Y-129452691D01*
X99525000Y-129431250D01*
X99525000Y-128993750D01*
X99526053Y-128972309D01*
X99529203Y-128951074D01*
X99534419Y-128930250D01*
X99541651Y-128910038D01*
X99550830Y-128890632D01*
X99561866Y-128872219D01*
X99574654Y-128854976D01*
X99589070Y-128839070D01*
X99604976Y-128824654D01*
X99622219Y-128811866D01*
X99640632Y-128800830D01*
X99660038Y-128791651D01*
X99680250Y-128784419D01*
X99701074Y-128779203D01*
X99722309Y-128776053D01*
X99743750Y-128775000D01*
X100256250Y-128775000D01*
X100277691Y-128776053D01*
G37*
G36*
X121277691Y-93276053D02*
G01*
X121298926Y-93279203D01*
X121319750Y-93284419D01*
X121339962Y-93291651D01*
X121359368Y-93300830D01*
X121377781Y-93311866D01*
X121395024Y-93324654D01*
X121410930Y-93339070D01*
X121425346Y-93354976D01*
X121438134Y-93372219D01*
X121449170Y-93390632D01*
X121458349Y-93410038D01*
X121465581Y-93430250D01*
X121470797Y-93451074D01*
X121473947Y-93472309D01*
X121475000Y-93493750D01*
X121475000Y-93931250D01*
X121473947Y-93952691D01*
X121470797Y-93973926D01*
X121465581Y-93994750D01*
X121458349Y-94014962D01*
X121449170Y-94034368D01*
X121438134Y-94052781D01*
X121425346Y-94070024D01*
X121410930Y-94085930D01*
X121395024Y-94100346D01*
X121377781Y-94113134D01*
X121359368Y-94124170D01*
X121339962Y-94133349D01*
X121319750Y-94140581D01*
X121298926Y-94145797D01*
X121277691Y-94148947D01*
X121256250Y-94150000D01*
X120743750Y-94150000D01*
X120722309Y-94148947D01*
X120701074Y-94145797D01*
X120680250Y-94140581D01*
X120660038Y-94133349D01*
X120640632Y-94124170D01*
X120622219Y-94113134D01*
X120604976Y-94100346D01*
X120589070Y-94085930D01*
X120574654Y-94070024D01*
X120561866Y-94052781D01*
X120550830Y-94034368D01*
X120541651Y-94014962D01*
X120534419Y-93994750D01*
X120529203Y-93973926D01*
X120526053Y-93952691D01*
X120525000Y-93931250D01*
X120525000Y-93493750D01*
X120526053Y-93472309D01*
X120529203Y-93451074D01*
X120534419Y-93430250D01*
X120541651Y-93410038D01*
X120550830Y-93390632D01*
X120561866Y-93372219D01*
X120574654Y-93354976D01*
X120589070Y-93339070D01*
X120604976Y-93324654D01*
X120622219Y-93311866D01*
X120640632Y-93300830D01*
X120660038Y-93291651D01*
X120680250Y-93284419D01*
X120701074Y-93279203D01*
X120722309Y-93276053D01*
X120743750Y-93275000D01*
X121256250Y-93275000D01*
X121277691Y-93276053D01*
G37*
G36*
X121277691Y-94851053D02*
G01*
X121298926Y-94854203D01*
X121319750Y-94859419D01*
X121339962Y-94866651D01*
X121359368Y-94875830D01*
X121377781Y-94886866D01*
X121395024Y-94899654D01*
X121410930Y-94914070D01*
X121425346Y-94929976D01*
X121438134Y-94947219D01*
X121449170Y-94965632D01*
X121458349Y-94985038D01*
X121465581Y-95005250D01*
X121470797Y-95026074D01*
X121473947Y-95047309D01*
X121475000Y-95068750D01*
X121475000Y-95506250D01*
X121473947Y-95527691D01*
X121470797Y-95548926D01*
X121465581Y-95569750D01*
X121458349Y-95589962D01*
X121449170Y-95609368D01*
X121438134Y-95627781D01*
X121425346Y-95645024D01*
X121410930Y-95660930D01*
X121395024Y-95675346D01*
X121377781Y-95688134D01*
X121359368Y-95699170D01*
X121339962Y-95708349D01*
X121319750Y-95715581D01*
X121298926Y-95720797D01*
X121277691Y-95723947D01*
X121256250Y-95725000D01*
X120743750Y-95725000D01*
X120722309Y-95723947D01*
X120701074Y-95720797D01*
X120680250Y-95715581D01*
X120660038Y-95708349D01*
X120640632Y-95699170D01*
X120622219Y-95688134D01*
X120604976Y-95675346D01*
X120589070Y-95660930D01*
X120574654Y-95645024D01*
X120561866Y-95627781D01*
X120550830Y-95609368D01*
X120541651Y-95589962D01*
X120534419Y-95569750D01*
X120529203Y-95548926D01*
X120526053Y-95527691D01*
X120525000Y-95506250D01*
X120525000Y-95068750D01*
X120526053Y-95047309D01*
X120529203Y-95026074D01*
X120534419Y-95005250D01*
X120541651Y-94985038D01*
X120550830Y-94965632D01*
X120561866Y-94947219D01*
X120574654Y-94929976D01*
X120589070Y-94914070D01*
X120604976Y-94899654D01*
X120622219Y-94886866D01*
X120640632Y-94875830D01*
X120660038Y-94866651D01*
X120680250Y-94859419D01*
X120701074Y-94854203D01*
X120722309Y-94851053D01*
X120743750Y-94850000D01*
X121256250Y-94850000D01*
X121277691Y-94851053D01*
G37*
G36*
X121277691Y-90851053D02*
G01*
X121298926Y-90854203D01*
X121319750Y-90859419D01*
X121339962Y-90866651D01*
X121359368Y-90875830D01*
X121377781Y-90886866D01*
X121395024Y-90899654D01*
X121410930Y-90914070D01*
X121425346Y-90929976D01*
X121438134Y-90947219D01*
X121449170Y-90965632D01*
X121458349Y-90985038D01*
X121465581Y-91005250D01*
X121470797Y-91026074D01*
X121473947Y-91047309D01*
X121475000Y-91068750D01*
X121475000Y-91506250D01*
X121473947Y-91527691D01*
X121470797Y-91548926D01*
X121465581Y-91569750D01*
X121458349Y-91589962D01*
X121449170Y-91609368D01*
X121438134Y-91627781D01*
X121425346Y-91645024D01*
X121410930Y-91660930D01*
X121395024Y-91675346D01*
X121377781Y-91688134D01*
X121359368Y-91699170D01*
X121339962Y-91708349D01*
X121319750Y-91715581D01*
X121298926Y-91720797D01*
X121277691Y-91723947D01*
X121256250Y-91725000D01*
X120743750Y-91725000D01*
X120722309Y-91723947D01*
X120701074Y-91720797D01*
X120680250Y-91715581D01*
X120660038Y-91708349D01*
X120640632Y-91699170D01*
X120622219Y-91688134D01*
X120604976Y-91675346D01*
X120589070Y-91660930D01*
X120574654Y-91645024D01*
X120561866Y-91627781D01*
X120550830Y-91609368D01*
X120541651Y-91589962D01*
X120534419Y-91569750D01*
X120529203Y-91548926D01*
X120526053Y-91527691D01*
X120525000Y-91506250D01*
X120525000Y-91068750D01*
X120526053Y-91047309D01*
X120529203Y-91026074D01*
X120534419Y-91005250D01*
X120541651Y-90985038D01*
X120550830Y-90965632D01*
X120561866Y-90947219D01*
X120574654Y-90929976D01*
X120589070Y-90914070D01*
X120604976Y-90899654D01*
X120622219Y-90886866D01*
X120640632Y-90875830D01*
X120660038Y-90866651D01*
X120680250Y-90859419D01*
X120701074Y-90854203D01*
X120722309Y-90851053D01*
X120743750Y-90850000D01*
X121256250Y-90850000D01*
X121277691Y-90851053D01*
G37*
G36*
X121277691Y-89276053D02*
G01*
X121298926Y-89279203D01*
X121319750Y-89284419D01*
X121339962Y-89291651D01*
X121359368Y-89300830D01*
X121377781Y-89311866D01*
X121395024Y-89324654D01*
X121410930Y-89339070D01*
X121425346Y-89354976D01*
X121438134Y-89372219D01*
X121449170Y-89390632D01*
X121458349Y-89410038D01*
X121465581Y-89430250D01*
X121470797Y-89451074D01*
X121473947Y-89472309D01*
X121475000Y-89493750D01*
X121475000Y-89931250D01*
X121473947Y-89952691D01*
X121470797Y-89973926D01*
X121465581Y-89994750D01*
X121458349Y-90014962D01*
X121449170Y-90034368D01*
X121438134Y-90052781D01*
X121425346Y-90070024D01*
X121410930Y-90085930D01*
X121395024Y-90100346D01*
X121377781Y-90113134D01*
X121359368Y-90124170D01*
X121339962Y-90133349D01*
X121319750Y-90140581D01*
X121298926Y-90145797D01*
X121277691Y-90148947D01*
X121256250Y-90150000D01*
X120743750Y-90150000D01*
X120722309Y-90148947D01*
X120701074Y-90145797D01*
X120680250Y-90140581D01*
X120660038Y-90133349D01*
X120640632Y-90124170D01*
X120622219Y-90113134D01*
X120604976Y-90100346D01*
X120589070Y-90085930D01*
X120574654Y-90070024D01*
X120561866Y-90052781D01*
X120550830Y-90034368D01*
X120541651Y-90014962D01*
X120534419Y-89994750D01*
X120529203Y-89973926D01*
X120526053Y-89952691D01*
X120525000Y-89931250D01*
X120525000Y-89493750D01*
X120526053Y-89472309D01*
X120529203Y-89451074D01*
X120534419Y-89430250D01*
X120541651Y-89410038D01*
X120550830Y-89390632D01*
X120561866Y-89372219D01*
X120574654Y-89354976D01*
X120589070Y-89339070D01*
X120604976Y-89324654D01*
X120622219Y-89311866D01*
X120640632Y-89300830D01*
X120660038Y-89291651D01*
X120680250Y-89284419D01*
X120701074Y-89279203D01*
X120722309Y-89276053D01*
X120743750Y-89275000D01*
X121256250Y-89275000D01*
X121277691Y-89276053D01*
G37*
G36*
X97777691Y-93851053D02*
G01*
X97798926Y-93854203D01*
X97819750Y-93859419D01*
X97839962Y-93866651D01*
X97859368Y-93875830D01*
X97877781Y-93886866D01*
X97895024Y-93899654D01*
X97910930Y-93914070D01*
X97925346Y-93929976D01*
X97938134Y-93947219D01*
X97949170Y-93965632D01*
X97958349Y-93985038D01*
X97965581Y-94005250D01*
X97970797Y-94026074D01*
X97973947Y-94047309D01*
X97975000Y-94068750D01*
X97975000Y-94506250D01*
X97973947Y-94527691D01*
X97970797Y-94548926D01*
X97965581Y-94569750D01*
X97958349Y-94589962D01*
X97949170Y-94609368D01*
X97938134Y-94627781D01*
X97925346Y-94645024D01*
X97910930Y-94660930D01*
X97895024Y-94675346D01*
X97877781Y-94688134D01*
X97859368Y-94699170D01*
X97839962Y-94708349D01*
X97819750Y-94715581D01*
X97798926Y-94720797D01*
X97777691Y-94723947D01*
X97756250Y-94725000D01*
X97243750Y-94725000D01*
X97222309Y-94723947D01*
X97201074Y-94720797D01*
X97180250Y-94715581D01*
X97160038Y-94708349D01*
X97140632Y-94699170D01*
X97122219Y-94688134D01*
X97104976Y-94675346D01*
X97089070Y-94660930D01*
X97074654Y-94645024D01*
X97061866Y-94627781D01*
X97050830Y-94609368D01*
X97041651Y-94589962D01*
X97034419Y-94569750D01*
X97029203Y-94548926D01*
X97026053Y-94527691D01*
X97025000Y-94506250D01*
X97025000Y-94068750D01*
X97026053Y-94047309D01*
X97029203Y-94026074D01*
X97034419Y-94005250D01*
X97041651Y-93985038D01*
X97050830Y-93965632D01*
X97061866Y-93947219D01*
X97074654Y-93929976D01*
X97089070Y-93914070D01*
X97104976Y-93899654D01*
X97122219Y-93886866D01*
X97140632Y-93875830D01*
X97160038Y-93866651D01*
X97180250Y-93859419D01*
X97201074Y-93854203D01*
X97222309Y-93851053D01*
X97243750Y-93850000D01*
X97756250Y-93850000D01*
X97777691Y-93851053D01*
G37*
G36*
X97777691Y-92276053D02*
G01*
X97798926Y-92279203D01*
X97819750Y-92284419D01*
X97839962Y-92291651D01*
X97859368Y-92300830D01*
X97877781Y-92311866D01*
X97895024Y-92324654D01*
X97910930Y-92339070D01*
X97925346Y-92354976D01*
X97938134Y-92372219D01*
X97949170Y-92390632D01*
X97958349Y-92410038D01*
X97965581Y-92430250D01*
X97970797Y-92451074D01*
X97973947Y-92472309D01*
X97975000Y-92493750D01*
X97975000Y-92931250D01*
X97973947Y-92952691D01*
X97970797Y-92973926D01*
X97965581Y-92994750D01*
X97958349Y-93014962D01*
X97949170Y-93034368D01*
X97938134Y-93052781D01*
X97925346Y-93070024D01*
X97910930Y-93085930D01*
X97895024Y-93100346D01*
X97877781Y-93113134D01*
X97859368Y-93124170D01*
X97839962Y-93133349D01*
X97819750Y-93140581D01*
X97798926Y-93145797D01*
X97777691Y-93148947D01*
X97756250Y-93150000D01*
X97243750Y-93150000D01*
X97222309Y-93148947D01*
X97201074Y-93145797D01*
X97180250Y-93140581D01*
X97160038Y-93133349D01*
X97140632Y-93124170D01*
X97122219Y-93113134D01*
X97104976Y-93100346D01*
X97089070Y-93085930D01*
X97074654Y-93070024D01*
X97061866Y-93052781D01*
X97050830Y-93034368D01*
X97041651Y-93014962D01*
X97034419Y-92994750D01*
X97029203Y-92973926D01*
X97026053Y-92952691D01*
X97025000Y-92931250D01*
X97025000Y-92493750D01*
X97026053Y-92472309D01*
X97029203Y-92451074D01*
X97034419Y-92430250D01*
X97041651Y-92410038D01*
X97050830Y-92390632D01*
X97061866Y-92372219D01*
X97074654Y-92354976D01*
X97089070Y-92339070D01*
X97104976Y-92324654D01*
X97122219Y-92311866D01*
X97140632Y-92300830D01*
X97160038Y-92291651D01*
X97180250Y-92284419D01*
X97201074Y-92279203D01*
X97222309Y-92276053D01*
X97243750Y-92275000D01*
X97756250Y-92275000D01*
X97777691Y-92276053D01*
G37*
G36*
X103527691Y-88026053D02*
G01*
X103548926Y-88029203D01*
X103569750Y-88034419D01*
X103589962Y-88041651D01*
X103609368Y-88050830D01*
X103627781Y-88061866D01*
X103645024Y-88074654D01*
X103660930Y-88089070D01*
X103675346Y-88104976D01*
X103688134Y-88122219D01*
X103699170Y-88140632D01*
X103708349Y-88160038D01*
X103715581Y-88180250D01*
X103720797Y-88201074D01*
X103723947Y-88222309D01*
X103725000Y-88243750D01*
X103725000Y-88756250D01*
X103723947Y-88777691D01*
X103720797Y-88798926D01*
X103715581Y-88819750D01*
X103708349Y-88839962D01*
X103699170Y-88859368D01*
X103688134Y-88877781D01*
X103675346Y-88895024D01*
X103660930Y-88910930D01*
X103645024Y-88925346D01*
X103627781Y-88938134D01*
X103609368Y-88949170D01*
X103589962Y-88958349D01*
X103569750Y-88965581D01*
X103548926Y-88970797D01*
X103527691Y-88973947D01*
X103506250Y-88975000D01*
X103068750Y-88975000D01*
X103047309Y-88973947D01*
X103026074Y-88970797D01*
X103005250Y-88965581D01*
X102985038Y-88958349D01*
X102965632Y-88949170D01*
X102947219Y-88938134D01*
X102929976Y-88925346D01*
X102914070Y-88910930D01*
X102899654Y-88895024D01*
X102886866Y-88877781D01*
X102875830Y-88859368D01*
X102866651Y-88839962D01*
X102859419Y-88819750D01*
X102854203Y-88798926D01*
X102851053Y-88777691D01*
X102850000Y-88756250D01*
X102850000Y-88243750D01*
X102851053Y-88222309D01*
X102854203Y-88201074D01*
X102859419Y-88180250D01*
X102866651Y-88160038D01*
X102875830Y-88140632D01*
X102886866Y-88122219D01*
X102899654Y-88104976D01*
X102914070Y-88089070D01*
X102929976Y-88074654D01*
X102947219Y-88061866D01*
X102965632Y-88050830D01*
X102985038Y-88041651D01*
X103005250Y-88034419D01*
X103026074Y-88029203D01*
X103047309Y-88026053D01*
X103068750Y-88025000D01*
X103506250Y-88025000D01*
X103527691Y-88026053D01*
G37*
G36*
X101952691Y-88026053D02*
G01*
X101973926Y-88029203D01*
X101994750Y-88034419D01*
X102014962Y-88041651D01*
X102034368Y-88050830D01*
X102052781Y-88061866D01*
X102070024Y-88074654D01*
X102085930Y-88089070D01*
X102100346Y-88104976D01*
X102113134Y-88122219D01*
X102124170Y-88140632D01*
X102133349Y-88160038D01*
X102140581Y-88180250D01*
X102145797Y-88201074D01*
X102148947Y-88222309D01*
X102150000Y-88243750D01*
X102150000Y-88756250D01*
X102148947Y-88777691D01*
X102145797Y-88798926D01*
X102140581Y-88819750D01*
X102133349Y-88839962D01*
X102124170Y-88859368D01*
X102113134Y-88877781D01*
X102100346Y-88895024D01*
X102085930Y-88910930D01*
X102070024Y-88925346D01*
X102052781Y-88938134D01*
X102034368Y-88949170D01*
X102014962Y-88958349D01*
X101994750Y-88965581D01*
X101973926Y-88970797D01*
X101952691Y-88973947D01*
X101931250Y-88975000D01*
X101493750Y-88975000D01*
X101472309Y-88973947D01*
X101451074Y-88970797D01*
X101430250Y-88965581D01*
X101410038Y-88958349D01*
X101390632Y-88949170D01*
X101372219Y-88938134D01*
X101354976Y-88925346D01*
X101339070Y-88910930D01*
X101324654Y-88895024D01*
X101311866Y-88877781D01*
X101300830Y-88859368D01*
X101291651Y-88839962D01*
X101284419Y-88819750D01*
X101279203Y-88798926D01*
X101276053Y-88777691D01*
X101275000Y-88756250D01*
X101275000Y-88243750D01*
X101276053Y-88222309D01*
X101279203Y-88201074D01*
X101284419Y-88180250D01*
X101291651Y-88160038D01*
X101300830Y-88140632D01*
X101311866Y-88122219D01*
X101324654Y-88104976D01*
X101339070Y-88089070D01*
X101354976Y-88074654D01*
X101372219Y-88061866D01*
X101390632Y-88050830D01*
X101410038Y-88041651D01*
X101430250Y-88034419D01*
X101451074Y-88029203D01*
X101472309Y-88026053D01*
X101493750Y-88025000D01*
X101931250Y-88025000D01*
X101952691Y-88026053D01*
G37*
G36*
X116952691Y-127776053D02*
G01*
X116973926Y-127779203D01*
X116994750Y-127784419D01*
X117014962Y-127791651D01*
X117034368Y-127800830D01*
X117052781Y-127811866D01*
X117070024Y-127824654D01*
X117085930Y-127839070D01*
X117100346Y-127854976D01*
X117113134Y-127872219D01*
X117124170Y-127890632D01*
X117133349Y-127910038D01*
X117140581Y-127930250D01*
X117145797Y-127951074D01*
X117148947Y-127972309D01*
X117150000Y-127993750D01*
X117150000Y-128506250D01*
X117148947Y-128527691D01*
X117145797Y-128548926D01*
X117140581Y-128569750D01*
X117133349Y-128589962D01*
X117124170Y-128609368D01*
X117113134Y-128627781D01*
X117100346Y-128645024D01*
X117085930Y-128660930D01*
X117070024Y-128675346D01*
X117052781Y-128688134D01*
X117034368Y-128699170D01*
X117014962Y-128708349D01*
X116994750Y-128715581D01*
X116973926Y-128720797D01*
X116952691Y-128723947D01*
X116931250Y-128725000D01*
X116493750Y-128725000D01*
X116472309Y-128723947D01*
X116451074Y-128720797D01*
X116430250Y-128715581D01*
X116410038Y-128708349D01*
X116390632Y-128699170D01*
X116372219Y-128688134D01*
X116354976Y-128675346D01*
X116339070Y-128660930D01*
X116324654Y-128645024D01*
X116311866Y-128627781D01*
X116300830Y-128609368D01*
X116291651Y-128589962D01*
X116284419Y-128569750D01*
X116279203Y-128548926D01*
X116276053Y-128527691D01*
X116275000Y-128506250D01*
X116275000Y-127993750D01*
X116276053Y-127972309D01*
X116279203Y-127951074D01*
X116284419Y-127930250D01*
X116291651Y-127910038D01*
X116300830Y-127890632D01*
X116311866Y-127872219D01*
X116324654Y-127854976D01*
X116339070Y-127839070D01*
X116354976Y-127824654D01*
X116372219Y-127811866D01*
X116390632Y-127800830D01*
X116410038Y-127791651D01*
X116430250Y-127784419D01*
X116451074Y-127779203D01*
X116472309Y-127776053D01*
X116493750Y-127775000D01*
X116931250Y-127775000D01*
X116952691Y-127776053D01*
G37*
G36*
X118527691Y-127776053D02*
G01*
X118548926Y-127779203D01*
X118569750Y-127784419D01*
X118589962Y-127791651D01*
X118609368Y-127800830D01*
X118627781Y-127811866D01*
X118645024Y-127824654D01*
X118660930Y-127839070D01*
X118675346Y-127854976D01*
X118688134Y-127872219D01*
X118699170Y-127890632D01*
X118708349Y-127910038D01*
X118715581Y-127930250D01*
X118720797Y-127951074D01*
X118723947Y-127972309D01*
X118725000Y-127993750D01*
X118725000Y-128506250D01*
X118723947Y-128527691D01*
X118720797Y-128548926D01*
X118715581Y-128569750D01*
X118708349Y-128589962D01*
X118699170Y-128609368D01*
X118688134Y-128627781D01*
X118675346Y-128645024D01*
X118660930Y-128660930D01*
X118645024Y-128675346D01*
X118627781Y-128688134D01*
X118609368Y-128699170D01*
X118589962Y-128708349D01*
X118569750Y-128715581D01*
X118548926Y-128720797D01*
X118527691Y-128723947D01*
X118506250Y-128725000D01*
X118068750Y-128725000D01*
X118047309Y-128723947D01*
X118026074Y-128720797D01*
X118005250Y-128715581D01*
X117985038Y-128708349D01*
X117965632Y-128699170D01*
X117947219Y-128688134D01*
X117929976Y-128675346D01*
X117914070Y-128660930D01*
X117899654Y-128645024D01*
X117886866Y-128627781D01*
X117875830Y-128609368D01*
X117866651Y-128589962D01*
X117859419Y-128569750D01*
X117854203Y-128548926D01*
X117851053Y-128527691D01*
X117850000Y-128506250D01*
X117850000Y-127993750D01*
X117851053Y-127972309D01*
X117854203Y-127951074D01*
X117859419Y-127930250D01*
X117866651Y-127910038D01*
X117875830Y-127890632D01*
X117886866Y-127872219D01*
X117899654Y-127854976D01*
X117914070Y-127839070D01*
X117929976Y-127824654D01*
X117947219Y-127811866D01*
X117965632Y-127800830D01*
X117985038Y-127791651D01*
X118005250Y-127784419D01*
X118026074Y-127779203D01*
X118047309Y-127776053D01*
X118068750Y-127775000D01*
X118506250Y-127775000D01*
X118527691Y-127776053D01*
G37*
G36*
X121202691Y-119276053D02*
G01*
X121223926Y-119279203D01*
X121244750Y-119284419D01*
X121264962Y-119291651D01*
X121284368Y-119300830D01*
X121302781Y-119311866D01*
X121320024Y-119324654D01*
X121335930Y-119339070D01*
X121350346Y-119354976D01*
X121363134Y-119372219D01*
X121374170Y-119390632D01*
X121383349Y-119410038D01*
X121390581Y-119430250D01*
X121395797Y-119451074D01*
X121398947Y-119472309D01*
X121400000Y-119493750D01*
X121400000Y-120006250D01*
X121398947Y-120027691D01*
X121395797Y-120048926D01*
X121390581Y-120069750D01*
X121383349Y-120089962D01*
X121374170Y-120109368D01*
X121363134Y-120127781D01*
X121350346Y-120145024D01*
X121335930Y-120160930D01*
X121320024Y-120175346D01*
X121302781Y-120188134D01*
X121284368Y-120199170D01*
X121264962Y-120208349D01*
X121244750Y-120215581D01*
X121223926Y-120220797D01*
X121202691Y-120223947D01*
X121181250Y-120225000D01*
X120743750Y-120225000D01*
X120722309Y-120223947D01*
X120701074Y-120220797D01*
X120680250Y-120215581D01*
X120660038Y-120208349D01*
X120640632Y-120199170D01*
X120622219Y-120188134D01*
X120604976Y-120175346D01*
X120589070Y-120160930D01*
X120574654Y-120145024D01*
X120561866Y-120127781D01*
X120550830Y-120109368D01*
X120541651Y-120089962D01*
X120534419Y-120069750D01*
X120529203Y-120048926D01*
X120526053Y-120027691D01*
X120525000Y-120006250D01*
X120525000Y-119493750D01*
X120526053Y-119472309D01*
X120529203Y-119451074D01*
X120534419Y-119430250D01*
X120541651Y-119410038D01*
X120550830Y-119390632D01*
X120561866Y-119372219D01*
X120574654Y-119354976D01*
X120589070Y-119339070D01*
X120604976Y-119324654D01*
X120622219Y-119311866D01*
X120640632Y-119300830D01*
X120660038Y-119291651D01*
X120680250Y-119284419D01*
X120701074Y-119279203D01*
X120722309Y-119276053D01*
X120743750Y-119275000D01*
X121181250Y-119275000D01*
X121202691Y-119276053D01*
G37*
G36*
X122777691Y-119276053D02*
G01*
X122798926Y-119279203D01*
X122819750Y-119284419D01*
X122839962Y-119291651D01*
X122859368Y-119300830D01*
X122877781Y-119311866D01*
X122895024Y-119324654D01*
X122910930Y-119339070D01*
X122925346Y-119354976D01*
X122938134Y-119372219D01*
X122949170Y-119390632D01*
X122958349Y-119410038D01*
X122965581Y-119430250D01*
X122970797Y-119451074D01*
X122973947Y-119472309D01*
X122975000Y-119493750D01*
X122975000Y-120006250D01*
X122973947Y-120027691D01*
X122970797Y-120048926D01*
X122965581Y-120069750D01*
X122958349Y-120089962D01*
X122949170Y-120109368D01*
X122938134Y-120127781D01*
X122925346Y-120145024D01*
X122910930Y-120160930D01*
X122895024Y-120175346D01*
X122877781Y-120188134D01*
X122859368Y-120199170D01*
X122839962Y-120208349D01*
X122819750Y-120215581D01*
X122798926Y-120220797D01*
X122777691Y-120223947D01*
X122756250Y-120225000D01*
X122318750Y-120225000D01*
X122297309Y-120223947D01*
X122276074Y-120220797D01*
X122255250Y-120215581D01*
X122235038Y-120208349D01*
X122215632Y-120199170D01*
X122197219Y-120188134D01*
X122179976Y-120175346D01*
X122164070Y-120160930D01*
X122149654Y-120145024D01*
X122136866Y-120127781D01*
X122125830Y-120109368D01*
X122116651Y-120089962D01*
X122109419Y-120069750D01*
X122104203Y-120048926D01*
X122101053Y-120027691D01*
X122100000Y-120006250D01*
X122100000Y-119493750D01*
X122101053Y-119472309D01*
X122104203Y-119451074D01*
X122109419Y-119430250D01*
X122116651Y-119410038D01*
X122125830Y-119390632D01*
X122136866Y-119372219D01*
X122149654Y-119354976D01*
X122164070Y-119339070D01*
X122179976Y-119324654D01*
X122197219Y-119311866D01*
X122215632Y-119300830D01*
X122235038Y-119291651D01*
X122255250Y-119284419D01*
X122276074Y-119279203D01*
X122297309Y-119276053D01*
X122318750Y-119275000D01*
X122756250Y-119275000D01*
X122777691Y-119276053D01*
G37*
G36*
X116452691Y-93026053D02*
G01*
X116473926Y-93029203D01*
X116494750Y-93034419D01*
X116514962Y-93041651D01*
X116534368Y-93050830D01*
X116552781Y-93061866D01*
X116570024Y-93074654D01*
X116585930Y-93089070D01*
X116600346Y-93104976D01*
X116613134Y-93122219D01*
X116624170Y-93140632D01*
X116633349Y-93160038D01*
X116640581Y-93180250D01*
X116645797Y-93201074D01*
X116648947Y-93222309D01*
X116650000Y-93243750D01*
X116650000Y-93756250D01*
X116648947Y-93777691D01*
X116645797Y-93798926D01*
X116640581Y-93819750D01*
X116633349Y-93839962D01*
X116624170Y-93859368D01*
X116613134Y-93877781D01*
X116600346Y-93895024D01*
X116585930Y-93910930D01*
X116570024Y-93925346D01*
X116552781Y-93938134D01*
X116534368Y-93949170D01*
X116514962Y-93958349D01*
X116494750Y-93965581D01*
X116473926Y-93970797D01*
X116452691Y-93973947D01*
X116431250Y-93975000D01*
X115993750Y-93975000D01*
X115972309Y-93973947D01*
X115951074Y-93970797D01*
X115930250Y-93965581D01*
X115910038Y-93958349D01*
X115890632Y-93949170D01*
X115872219Y-93938134D01*
X115854976Y-93925346D01*
X115839070Y-93910930D01*
X115824654Y-93895024D01*
X115811866Y-93877781D01*
X115800830Y-93859368D01*
X115791651Y-93839962D01*
X115784419Y-93819750D01*
X115779203Y-93798926D01*
X115776053Y-93777691D01*
X115775000Y-93756250D01*
X115775000Y-93243750D01*
X115776053Y-93222309D01*
X115779203Y-93201074D01*
X115784419Y-93180250D01*
X115791651Y-93160038D01*
X115800830Y-93140632D01*
X115811866Y-93122219D01*
X115824654Y-93104976D01*
X115839070Y-93089070D01*
X115854976Y-93074654D01*
X115872219Y-93061866D01*
X115890632Y-93050830D01*
X115910038Y-93041651D01*
X115930250Y-93034419D01*
X115951074Y-93029203D01*
X115972309Y-93026053D01*
X115993750Y-93025000D01*
X116431250Y-93025000D01*
X116452691Y-93026053D01*
G37*
G36*
X118027691Y-93026053D02*
G01*
X118048926Y-93029203D01*
X118069750Y-93034419D01*
X118089962Y-93041651D01*
X118109368Y-93050830D01*
X118127781Y-93061866D01*
X118145024Y-93074654D01*
X118160930Y-93089070D01*
X118175346Y-93104976D01*
X118188134Y-93122219D01*
X118199170Y-93140632D01*
X118208349Y-93160038D01*
X118215581Y-93180250D01*
X118220797Y-93201074D01*
X118223947Y-93222309D01*
X118225000Y-93243750D01*
X118225000Y-93756250D01*
X118223947Y-93777691D01*
X118220797Y-93798926D01*
X118215581Y-93819750D01*
X118208349Y-93839962D01*
X118199170Y-93859368D01*
X118188134Y-93877781D01*
X118175346Y-93895024D01*
X118160930Y-93910930D01*
X118145024Y-93925346D01*
X118127781Y-93938134D01*
X118109368Y-93949170D01*
X118089962Y-93958349D01*
X118069750Y-93965581D01*
X118048926Y-93970797D01*
X118027691Y-93973947D01*
X118006250Y-93975000D01*
X117568750Y-93975000D01*
X117547309Y-93973947D01*
X117526074Y-93970797D01*
X117505250Y-93965581D01*
X117485038Y-93958349D01*
X117465632Y-93949170D01*
X117447219Y-93938134D01*
X117429976Y-93925346D01*
X117414070Y-93910930D01*
X117399654Y-93895024D01*
X117386866Y-93877781D01*
X117375830Y-93859368D01*
X117366651Y-93839962D01*
X117359419Y-93819750D01*
X117354203Y-93798926D01*
X117351053Y-93777691D01*
X117350000Y-93756250D01*
X117350000Y-93243750D01*
X117351053Y-93222309D01*
X117354203Y-93201074D01*
X117359419Y-93180250D01*
X117366651Y-93160038D01*
X117375830Y-93140632D01*
X117386866Y-93122219D01*
X117399654Y-93104976D01*
X117414070Y-93089070D01*
X117429976Y-93074654D01*
X117447219Y-93061866D01*
X117465632Y-93050830D01*
X117485038Y-93041651D01*
X117505250Y-93034419D01*
X117526074Y-93029203D01*
X117547309Y-93026053D01*
X117568750Y-93025000D01*
X118006250Y-93025000D01*
X118027691Y-93026053D01*
G37*
G36*
X116452691Y-95526053D02*
G01*
X116473926Y-95529203D01*
X116494750Y-95534419D01*
X116514962Y-95541651D01*
X116534368Y-95550830D01*
X116552781Y-95561866D01*
X116570024Y-95574654D01*
X116585930Y-95589070D01*
X116600346Y-95604976D01*
X116613134Y-95622219D01*
X116624170Y-95640632D01*
X116633349Y-95660038D01*
X116640581Y-95680250D01*
X116645797Y-95701074D01*
X116648947Y-95722309D01*
X116650000Y-95743750D01*
X116650000Y-96256250D01*
X116648947Y-96277691D01*
X116645797Y-96298926D01*
X116640581Y-96319750D01*
X116633349Y-96339962D01*
X116624170Y-96359368D01*
X116613134Y-96377781D01*
X116600346Y-96395024D01*
X116585930Y-96410930D01*
X116570024Y-96425346D01*
X116552781Y-96438134D01*
X116534368Y-96449170D01*
X116514962Y-96458349D01*
X116494750Y-96465581D01*
X116473926Y-96470797D01*
X116452691Y-96473947D01*
X116431250Y-96475000D01*
X115993750Y-96475000D01*
X115972309Y-96473947D01*
X115951074Y-96470797D01*
X115930250Y-96465581D01*
X115910038Y-96458349D01*
X115890632Y-96449170D01*
X115872219Y-96438134D01*
X115854976Y-96425346D01*
X115839070Y-96410930D01*
X115824654Y-96395024D01*
X115811866Y-96377781D01*
X115800830Y-96359368D01*
X115791651Y-96339962D01*
X115784419Y-96319750D01*
X115779203Y-96298926D01*
X115776053Y-96277691D01*
X115775000Y-96256250D01*
X115775000Y-95743750D01*
X115776053Y-95722309D01*
X115779203Y-95701074D01*
X115784419Y-95680250D01*
X115791651Y-95660038D01*
X115800830Y-95640632D01*
X115811866Y-95622219D01*
X115824654Y-95604976D01*
X115839070Y-95589070D01*
X115854976Y-95574654D01*
X115872219Y-95561866D01*
X115890632Y-95550830D01*
X115910038Y-95541651D01*
X115930250Y-95534419D01*
X115951074Y-95529203D01*
X115972309Y-95526053D01*
X115993750Y-95525000D01*
X116431250Y-95525000D01*
X116452691Y-95526053D01*
G37*
G36*
X118027691Y-95526053D02*
G01*
X118048926Y-95529203D01*
X118069750Y-95534419D01*
X118089962Y-95541651D01*
X118109368Y-95550830D01*
X118127781Y-95561866D01*
X118145024Y-95574654D01*
X118160930Y-95589070D01*
X118175346Y-95604976D01*
X118188134Y-95622219D01*
X118199170Y-95640632D01*
X118208349Y-95660038D01*
X118215581Y-95680250D01*
X118220797Y-95701074D01*
X118223947Y-95722309D01*
X118225000Y-95743750D01*
X118225000Y-96256250D01*
X118223947Y-96277691D01*
X118220797Y-96298926D01*
X118215581Y-96319750D01*
X118208349Y-96339962D01*
X118199170Y-96359368D01*
X118188134Y-96377781D01*
X118175346Y-96395024D01*
X118160930Y-96410930D01*
X118145024Y-96425346D01*
X118127781Y-96438134D01*
X118109368Y-96449170D01*
X118089962Y-96458349D01*
X118069750Y-96465581D01*
X118048926Y-96470797D01*
X118027691Y-96473947D01*
X118006250Y-96475000D01*
X117568750Y-96475000D01*
X117547309Y-96473947D01*
X117526074Y-96470797D01*
X117505250Y-96465581D01*
X117485038Y-96458349D01*
X117465632Y-96449170D01*
X117447219Y-96438134D01*
X117429976Y-96425346D01*
X117414070Y-96410930D01*
X117399654Y-96395024D01*
X117386866Y-96377781D01*
X117375830Y-96359368D01*
X117366651Y-96339962D01*
X117359419Y-96319750D01*
X117354203Y-96298926D01*
X117351053Y-96277691D01*
X117350000Y-96256250D01*
X117350000Y-95743750D01*
X117351053Y-95722309D01*
X117354203Y-95701074D01*
X117359419Y-95680250D01*
X117366651Y-95660038D01*
X117375830Y-95640632D01*
X117386866Y-95622219D01*
X117399654Y-95604976D01*
X117414070Y-95589070D01*
X117429976Y-95574654D01*
X117447219Y-95561866D01*
X117465632Y-95550830D01*
X117485038Y-95541651D01*
X117505250Y-95534419D01*
X117526074Y-95529203D01*
X117547309Y-95526053D01*
X117568750Y-95525000D01*
X118006250Y-95525000D01*
X118027691Y-95526053D01*
G37*
G36*
X113027691Y-111526053D02*
G01*
X113048926Y-111529203D01*
X113069750Y-111534419D01*
X113089962Y-111541651D01*
X113109368Y-111550830D01*
X113127781Y-111561866D01*
X113145024Y-111574654D01*
X113160930Y-111589070D01*
X113175346Y-111604976D01*
X113188134Y-111622219D01*
X113199170Y-111640632D01*
X113208349Y-111660038D01*
X113215581Y-111680250D01*
X113220797Y-111701074D01*
X113223947Y-111722309D01*
X113225000Y-111743750D01*
X113225000Y-112256250D01*
X113223947Y-112277691D01*
X113220797Y-112298926D01*
X113215581Y-112319750D01*
X113208349Y-112339962D01*
X113199170Y-112359368D01*
X113188134Y-112377781D01*
X113175346Y-112395024D01*
X113160930Y-112410930D01*
X113145024Y-112425346D01*
X113127781Y-112438134D01*
X113109368Y-112449170D01*
X113089962Y-112458349D01*
X113069750Y-112465581D01*
X113048926Y-112470797D01*
X113027691Y-112473947D01*
X113006250Y-112475000D01*
X112568750Y-112475000D01*
X112547309Y-112473947D01*
X112526074Y-112470797D01*
X112505250Y-112465581D01*
X112485038Y-112458349D01*
X112465632Y-112449170D01*
X112447219Y-112438134D01*
X112429976Y-112425346D01*
X112414070Y-112410930D01*
X112399654Y-112395024D01*
X112386866Y-112377781D01*
X112375830Y-112359368D01*
X112366651Y-112339962D01*
X112359419Y-112319750D01*
X112354203Y-112298926D01*
X112351053Y-112277691D01*
X112350000Y-112256250D01*
X112350000Y-111743750D01*
X112351053Y-111722309D01*
X112354203Y-111701074D01*
X112359419Y-111680250D01*
X112366651Y-111660038D01*
X112375830Y-111640632D01*
X112386866Y-111622219D01*
X112399654Y-111604976D01*
X112414070Y-111589070D01*
X112429976Y-111574654D01*
X112447219Y-111561866D01*
X112465632Y-111550830D01*
X112485038Y-111541651D01*
X112505250Y-111534419D01*
X112526074Y-111529203D01*
X112547309Y-111526053D01*
X112568750Y-111525000D01*
X113006250Y-111525000D01*
X113027691Y-111526053D01*
G37*
G36*
X111452691Y-111526053D02*
G01*
X111473926Y-111529203D01*
X111494750Y-111534419D01*
X111514962Y-111541651D01*
X111534368Y-111550830D01*
X111552781Y-111561866D01*
X111570024Y-111574654D01*
X111585930Y-111589070D01*
X111600346Y-111604976D01*
X111613134Y-111622219D01*
X111624170Y-111640632D01*
X111633349Y-111660038D01*
X111640581Y-111680250D01*
X111645797Y-111701074D01*
X111648947Y-111722309D01*
X111650000Y-111743750D01*
X111650000Y-112256250D01*
X111648947Y-112277691D01*
X111645797Y-112298926D01*
X111640581Y-112319750D01*
X111633349Y-112339962D01*
X111624170Y-112359368D01*
X111613134Y-112377781D01*
X111600346Y-112395024D01*
X111585930Y-112410930D01*
X111570024Y-112425346D01*
X111552781Y-112438134D01*
X111534368Y-112449170D01*
X111514962Y-112458349D01*
X111494750Y-112465581D01*
X111473926Y-112470797D01*
X111452691Y-112473947D01*
X111431250Y-112475000D01*
X110993750Y-112475000D01*
X110972309Y-112473947D01*
X110951074Y-112470797D01*
X110930250Y-112465581D01*
X110910038Y-112458349D01*
X110890632Y-112449170D01*
X110872219Y-112438134D01*
X110854976Y-112425346D01*
X110839070Y-112410930D01*
X110824654Y-112395024D01*
X110811866Y-112377781D01*
X110800830Y-112359368D01*
X110791651Y-112339962D01*
X110784419Y-112319750D01*
X110779203Y-112298926D01*
X110776053Y-112277691D01*
X110775000Y-112256250D01*
X110775000Y-111743750D01*
X110776053Y-111722309D01*
X110779203Y-111701074D01*
X110784419Y-111680250D01*
X110791651Y-111660038D01*
X110800830Y-111640632D01*
X110811866Y-111622219D01*
X110824654Y-111604976D01*
X110839070Y-111589070D01*
X110854976Y-111574654D01*
X110872219Y-111561866D01*
X110890632Y-111550830D01*
X110910038Y-111541651D01*
X110930250Y-111534419D01*
X110951074Y-111529203D01*
X110972309Y-111526053D01*
X110993750Y-111525000D01*
X111431250Y-111525000D01*
X111452691Y-111526053D01*
G37*
G36*
X116990691Y-131776053D02*
G01*
X117011926Y-131779203D01*
X117032750Y-131784419D01*
X117052962Y-131791651D01*
X117072368Y-131800830D01*
X117090781Y-131811866D01*
X117108024Y-131824654D01*
X117123930Y-131839070D01*
X117138346Y-131854976D01*
X117151134Y-131872219D01*
X117162170Y-131890632D01*
X117171349Y-131910038D01*
X117178581Y-131930250D01*
X117183797Y-131951074D01*
X117186947Y-131972309D01*
X117188000Y-131993750D01*
X117188000Y-132506250D01*
X117186947Y-132527691D01*
X117183797Y-132548926D01*
X117178581Y-132569750D01*
X117171349Y-132589962D01*
X117162170Y-132609368D01*
X117151134Y-132627781D01*
X117138346Y-132645024D01*
X117123930Y-132660930D01*
X117108024Y-132675346D01*
X117090781Y-132688134D01*
X117072368Y-132699170D01*
X117052962Y-132708349D01*
X117032750Y-132715581D01*
X117011926Y-132720797D01*
X116990691Y-132723947D01*
X116969250Y-132725000D01*
X116531750Y-132725000D01*
X116510309Y-132723947D01*
X116489074Y-132720797D01*
X116468250Y-132715581D01*
X116448038Y-132708349D01*
X116428632Y-132699170D01*
X116410219Y-132688134D01*
X116392976Y-132675346D01*
X116377070Y-132660930D01*
X116362654Y-132645024D01*
X116349866Y-132627781D01*
X116338830Y-132609368D01*
X116329651Y-132589962D01*
X116322419Y-132569750D01*
X116317203Y-132548926D01*
X116314053Y-132527691D01*
X116313000Y-132506250D01*
X116313000Y-131993750D01*
X116314053Y-131972309D01*
X116317203Y-131951074D01*
X116322419Y-131930250D01*
X116329651Y-131910038D01*
X116338830Y-131890632D01*
X116349866Y-131872219D01*
X116362654Y-131854976D01*
X116377070Y-131839070D01*
X116392976Y-131824654D01*
X116410219Y-131811866D01*
X116428632Y-131800830D01*
X116448038Y-131791651D01*
X116468250Y-131784419D01*
X116489074Y-131779203D01*
X116510309Y-131776053D01*
X116531750Y-131775000D01*
X116969250Y-131775000D01*
X116990691Y-131776053D01*
G37*
G36*
X118565691Y-131776053D02*
G01*
X118586926Y-131779203D01*
X118607750Y-131784419D01*
X118627962Y-131791651D01*
X118647368Y-131800830D01*
X118665781Y-131811866D01*
X118683024Y-131824654D01*
X118698930Y-131839070D01*
X118713346Y-131854976D01*
X118726134Y-131872219D01*
X118737170Y-131890632D01*
X118746349Y-131910038D01*
X118753581Y-131930250D01*
X118758797Y-131951074D01*
X118761947Y-131972309D01*
X118763000Y-131993750D01*
X118763000Y-132506250D01*
X118761947Y-132527691D01*
X118758797Y-132548926D01*
X118753581Y-132569750D01*
X118746349Y-132589962D01*
X118737170Y-132609368D01*
X118726134Y-132627781D01*
X118713346Y-132645024D01*
X118698930Y-132660930D01*
X118683024Y-132675346D01*
X118665781Y-132688134D01*
X118647368Y-132699170D01*
X118627962Y-132708349D01*
X118607750Y-132715581D01*
X118586926Y-132720797D01*
X118565691Y-132723947D01*
X118544250Y-132725000D01*
X118106750Y-132725000D01*
X118085309Y-132723947D01*
X118064074Y-132720797D01*
X118043250Y-132715581D01*
X118023038Y-132708349D01*
X118003632Y-132699170D01*
X117985219Y-132688134D01*
X117967976Y-132675346D01*
X117952070Y-132660930D01*
X117937654Y-132645024D01*
X117924866Y-132627781D01*
X117913830Y-132609368D01*
X117904651Y-132589962D01*
X117897419Y-132569750D01*
X117892203Y-132548926D01*
X117889053Y-132527691D01*
X117888000Y-132506250D01*
X117888000Y-131993750D01*
X117889053Y-131972309D01*
X117892203Y-131951074D01*
X117897419Y-131930250D01*
X117904651Y-131910038D01*
X117913830Y-131890632D01*
X117924866Y-131872219D01*
X117937654Y-131854976D01*
X117952070Y-131839070D01*
X117967976Y-131824654D01*
X117985219Y-131811866D01*
X118003632Y-131800830D01*
X118023038Y-131791651D01*
X118043250Y-131784419D01*
X118064074Y-131779203D01*
X118085309Y-131776053D01*
X118106750Y-131775000D01*
X118544250Y-131775000D01*
X118565691Y-131776053D01*
G37*
M02*
