G04 #@! TF.GenerationSoftware,KiCad,Pcbnew,(5.99.0-6951-g72beaf1538)*
G04 #@! TF.CreationDate,2020-12-20T08:42:52+11:00*
G04 #@! TF.ProjectId,Tph_Synth_Featherwing,5470685f-5379-46e7-9468-5f4665617468,rev?*
G04 #@! TF.SameCoordinates,Original*
G04 #@! TF.FileFunction,Legend,Bot*
G04 #@! TF.FilePolarity,Positive*
%FSLAX46Y46*%
G04 Gerber Fmt 4.6, Leading zero omitted, Abs format (unit mm)*
G04 Created by KiCad (PCBNEW (5.99.0-6951-g72beaf1538)) date 2020-12-20 08:42:52*
%MOMM*%
%LPD*%
G01*
G04 APERTURE LIST*
%ADD10C,0.150000*%
%ADD11C,0.250000*%
%ADD12C,0.120000*%
%ADD13C,0.010000*%
G04 APERTURE END LIST*
D10*
X101338000Y-133349904D02*
X101385619Y-133445142D01*
X101385619Y-133588000D01*
X101338000Y-133730857D01*
X101242761Y-133826095D01*
X101147523Y-133873714D01*
X100957047Y-133921333D01*
X100814190Y-133921333D01*
X100623714Y-133873714D01*
X100528476Y-133826095D01*
X100433238Y-133730857D01*
X100385619Y-133588000D01*
X100385619Y-133492761D01*
X100433238Y-133349904D01*
X100480857Y-133302285D01*
X100814190Y-133302285D01*
X100814190Y-133492761D01*
X100385619Y-132873714D02*
X101385619Y-132873714D01*
X100385619Y-132302285D01*
X101385619Y-132302285D01*
X100385619Y-131826095D02*
X101385619Y-131826095D01*
X101385619Y-131588000D01*
X101338000Y-131445142D01*
X101242761Y-131349904D01*
X101147523Y-131302285D01*
X100957047Y-131254666D01*
X100814190Y-131254666D01*
X100623714Y-131302285D01*
X100528476Y-131349904D01*
X100433238Y-131445142D01*
X100385619Y-131588000D01*
X100385619Y-131826095D01*
X128373238Y-113331476D02*
X128325619Y-113188619D01*
X128325619Y-112950523D01*
X128373238Y-112855285D01*
X128420857Y-112807666D01*
X128516095Y-112760047D01*
X128611333Y-112760047D01*
X128706571Y-112807666D01*
X128754190Y-112855285D01*
X128801809Y-112950523D01*
X128849428Y-113141000D01*
X128897047Y-113236238D01*
X128944666Y-113283857D01*
X129039904Y-113331476D01*
X129135142Y-113331476D01*
X129230380Y-113283857D01*
X129278000Y-113236238D01*
X129325619Y-113141000D01*
X129325619Y-112902904D01*
X129278000Y-112760047D01*
X128420857Y-111760047D02*
X128373238Y-111807666D01*
X128325619Y-111950523D01*
X128325619Y-112045761D01*
X128373238Y-112188619D01*
X128468476Y-112283857D01*
X128563714Y-112331476D01*
X128754190Y-112379095D01*
X128897047Y-112379095D01*
X129087523Y-112331476D01*
X129182761Y-112283857D01*
X129278000Y-112188619D01*
X129325619Y-112045761D01*
X129325619Y-111950523D01*
X129278000Y-111807666D01*
X129230380Y-111760047D01*
X128325619Y-110855285D02*
X128325619Y-111331476D01*
X129325619Y-111331476D01*
X131040238Y-113355285D02*
X130992619Y-113212428D01*
X130992619Y-112974333D01*
X131040238Y-112879095D01*
X131087857Y-112831476D01*
X131183095Y-112783857D01*
X131278333Y-112783857D01*
X131373571Y-112831476D01*
X131421190Y-112879095D01*
X131468809Y-112974333D01*
X131516428Y-113164809D01*
X131564047Y-113260047D01*
X131611666Y-113307666D01*
X131706904Y-113355285D01*
X131802142Y-113355285D01*
X131897380Y-113307666D01*
X131945000Y-113260047D01*
X131992619Y-113164809D01*
X131992619Y-112926714D01*
X131945000Y-112783857D01*
X130992619Y-112355285D02*
X131992619Y-112355285D01*
X131992619Y-112117190D01*
X131945000Y-111974333D01*
X131849761Y-111879095D01*
X131754523Y-111831476D01*
X131564047Y-111783857D01*
X131421190Y-111783857D01*
X131230714Y-111831476D01*
X131135476Y-111879095D01*
X131040238Y-111974333D01*
X130992619Y-112117190D01*
X130992619Y-112355285D01*
X131278333Y-111402904D02*
X131278333Y-110926714D01*
X130992619Y-111498142D02*
X131992619Y-111164809D01*
X130992619Y-110831476D01*
X96305619Y-133953095D02*
X96305619Y-133334047D01*
X95924666Y-133667380D01*
X95924666Y-133524523D01*
X95877047Y-133429285D01*
X95829428Y-133381666D01*
X95734190Y-133334047D01*
X95496095Y-133334047D01*
X95400857Y-133381666D01*
X95353238Y-133429285D01*
X95305619Y-133524523D01*
X95305619Y-133810238D01*
X95353238Y-133905476D01*
X95400857Y-133953095D01*
X96305619Y-133048333D02*
X95305619Y-132715000D01*
X96305619Y-132381666D01*
X96305619Y-132143571D02*
X96305619Y-131524523D01*
X95924666Y-131857857D01*
X95924666Y-131715000D01*
X95877047Y-131619761D01*
X95829428Y-131572142D01*
X95734190Y-131524523D01*
X95496095Y-131524523D01*
X95400857Y-131572142D01*
X95353238Y-131619761D01*
X95305619Y-131715000D01*
X95305619Y-132000714D01*
X95353238Y-132095952D01*
X95400857Y-132143571D01*
X109005619Y-113466333D02*
X108005619Y-113133000D01*
X109005619Y-112799666D01*
X109005619Y-112466333D02*
X108196095Y-112466333D01*
X108100857Y-112418714D01*
X108053238Y-112371095D01*
X108005619Y-112275857D01*
X108005619Y-112085380D01*
X108053238Y-111990142D01*
X108100857Y-111942523D01*
X108196095Y-111894904D01*
X109005619Y-111894904D01*
X108053238Y-111466333D02*
X108005619Y-111323476D01*
X108005619Y-111085380D01*
X108053238Y-110990142D01*
X108100857Y-110942523D01*
X108196095Y-110894904D01*
X108291333Y-110894904D01*
X108386571Y-110942523D01*
X108434190Y-110990142D01*
X108481809Y-111085380D01*
X108529428Y-111275857D01*
X108577047Y-111371095D01*
X108624666Y-111418714D01*
X108719904Y-111466333D01*
X108815142Y-111466333D01*
X108910380Y-111418714D01*
X108958000Y-111371095D01*
X109005619Y-111275857D01*
X109005619Y-111037761D01*
X108958000Y-110894904D01*
X108529428Y-110133000D02*
X108481809Y-109990142D01*
X108434190Y-109942523D01*
X108338952Y-109894904D01*
X108196095Y-109894904D01*
X108100857Y-109942523D01*
X108053238Y-109990142D01*
X108005619Y-110085380D01*
X108005619Y-110466333D01*
X109005619Y-110466333D01*
X109005619Y-110133000D01*
X108958000Y-110037761D01*
X108910380Y-109990142D01*
X108815142Y-109942523D01*
X108719904Y-109942523D01*
X108624666Y-109990142D01*
X108577047Y-110037761D01*
X108529428Y-110133000D01*
X108529428Y-110466333D01*
D11*
X126321428Y-96092380D02*
X125702380Y-96092380D01*
X126035714Y-96473333D01*
X125892857Y-96473333D01*
X125797619Y-96520952D01*
X125750000Y-96568571D01*
X125702380Y-96663809D01*
X125702380Y-96901904D01*
X125750000Y-96997142D01*
X125797619Y-97044761D01*
X125892857Y-97092380D01*
X126178571Y-97092380D01*
X126273809Y-97044761D01*
X126321428Y-96997142D01*
X125273809Y-96711428D02*
X124511904Y-96711428D01*
X124035714Y-96425714D02*
X124035714Y-97425714D01*
X124035714Y-96473333D02*
X123940476Y-96425714D01*
X123750000Y-96425714D01*
X123654761Y-96473333D01*
X123607142Y-96520952D01*
X123559523Y-96616190D01*
X123559523Y-96901904D01*
X123607142Y-96997142D01*
X123654761Y-97044761D01*
X123750000Y-97092380D01*
X123940476Y-97092380D01*
X124035714Y-97044761D01*
X123130952Y-97092380D02*
X123130952Y-96092380D01*
X122702380Y-97092380D02*
X122702380Y-96568571D01*
X122750000Y-96473333D01*
X122845238Y-96425714D01*
X122988095Y-96425714D01*
X123083333Y-96473333D01*
X123130952Y-96520952D01*
X121797619Y-97092380D02*
X121797619Y-96568571D01*
X121845238Y-96473333D01*
X121940476Y-96425714D01*
X122130952Y-96425714D01*
X122226190Y-96473333D01*
X121797619Y-97044761D02*
X121892857Y-97092380D01*
X122130952Y-97092380D01*
X122226190Y-97044761D01*
X122273809Y-96949523D01*
X122273809Y-96854285D01*
X122226190Y-96759047D01*
X122130952Y-96711428D01*
X121892857Y-96711428D01*
X121797619Y-96663809D01*
X121369047Y-97044761D02*
X121273809Y-97092380D01*
X121083333Y-97092380D01*
X120988095Y-97044761D01*
X120940476Y-96949523D01*
X120940476Y-96901904D01*
X120988095Y-96806666D01*
X121083333Y-96759047D01*
X121226190Y-96759047D01*
X121321428Y-96711428D01*
X121369047Y-96616190D01*
X121369047Y-96568571D01*
X121321428Y-96473333D01*
X121226190Y-96425714D01*
X121083333Y-96425714D01*
X120988095Y-96473333D01*
X120130952Y-97044761D02*
X120226190Y-97092380D01*
X120416666Y-97092380D01*
X120511904Y-97044761D01*
X120559523Y-96949523D01*
X120559523Y-96568571D01*
X120511904Y-96473333D01*
X120416666Y-96425714D01*
X120226190Y-96425714D01*
X120130952Y-96473333D01*
X120083333Y-96568571D01*
X120083333Y-96663809D01*
X120559523Y-96759047D01*
X118940476Y-97044761D02*
X118797619Y-97092380D01*
X118559523Y-97092380D01*
X118464285Y-97044761D01*
X118416666Y-96997142D01*
X118369047Y-96901904D01*
X118369047Y-96806666D01*
X118416666Y-96711428D01*
X118464285Y-96663809D01*
X118559523Y-96616190D01*
X118750000Y-96568571D01*
X118845238Y-96520952D01*
X118892857Y-96473333D01*
X118940476Y-96378095D01*
X118940476Y-96282857D01*
X118892857Y-96187619D01*
X118845238Y-96140000D01*
X118750000Y-96092380D01*
X118511904Y-96092380D01*
X118369047Y-96140000D01*
X117940476Y-97092380D02*
X117940476Y-96425714D01*
X117940476Y-96092380D02*
X117988095Y-96140000D01*
X117940476Y-96187619D01*
X117892857Y-96140000D01*
X117940476Y-96092380D01*
X117940476Y-96187619D01*
X117464285Y-97092380D02*
X117464285Y-96425714D01*
X117464285Y-96520952D02*
X117416666Y-96473333D01*
X117321428Y-96425714D01*
X117178571Y-96425714D01*
X117083333Y-96473333D01*
X117035714Y-96568571D01*
X117035714Y-97092380D01*
X117035714Y-96568571D02*
X116988095Y-96473333D01*
X116892857Y-96425714D01*
X116750000Y-96425714D01*
X116654761Y-96473333D01*
X116607142Y-96568571D01*
X116607142Y-97092380D01*
X115702380Y-96425714D02*
X115702380Y-97092380D01*
X116130952Y-96425714D02*
X116130952Y-96949523D01*
X116083333Y-97044761D01*
X115988095Y-97092380D01*
X115845238Y-97092380D01*
X115750000Y-97044761D01*
X115702380Y-96997142D01*
X115083333Y-97092380D02*
X115178571Y-97044761D01*
X115226190Y-96949523D01*
X115226190Y-96092380D01*
X114273809Y-97092380D02*
X114273809Y-96568571D01*
X114321428Y-96473333D01*
X114416666Y-96425714D01*
X114607142Y-96425714D01*
X114702380Y-96473333D01*
X114273809Y-97044761D02*
X114369047Y-97092380D01*
X114607142Y-97092380D01*
X114702380Y-97044761D01*
X114750000Y-96949523D01*
X114750000Y-96854285D01*
X114702380Y-96759047D01*
X114607142Y-96711428D01*
X114369047Y-96711428D01*
X114273809Y-96663809D01*
X113940476Y-96425714D02*
X113559523Y-96425714D01*
X113797619Y-96092380D02*
X113797619Y-96949523D01*
X113750000Y-97044761D01*
X113654761Y-97092380D01*
X113559523Y-97092380D01*
X113083333Y-97092380D02*
X113178571Y-97044761D01*
X113226190Y-96997142D01*
X113273809Y-96901904D01*
X113273809Y-96616190D01*
X113226190Y-96520952D01*
X113178571Y-96473333D01*
X113083333Y-96425714D01*
X112940476Y-96425714D01*
X112845238Y-96473333D01*
X112797619Y-96520952D01*
X112750000Y-96616190D01*
X112750000Y-96901904D01*
X112797619Y-96997142D01*
X112845238Y-97044761D01*
X112940476Y-97092380D01*
X113083333Y-97092380D01*
X112321428Y-97092380D02*
X112321428Y-96425714D01*
X112321428Y-96616190D02*
X112273809Y-96520952D01*
X112226190Y-96473333D01*
X112130952Y-96425714D01*
X112035714Y-96425714D01*
X110607142Y-96568571D02*
X110940476Y-96568571D01*
X110940476Y-97092380D02*
X110940476Y-96092380D01*
X110464285Y-96092380D01*
X109702380Y-97044761D02*
X109797619Y-97092380D01*
X109988095Y-97092380D01*
X110083333Y-97044761D01*
X110130952Y-96949523D01*
X110130952Y-96568571D01*
X110083333Y-96473333D01*
X109988095Y-96425714D01*
X109797619Y-96425714D01*
X109702380Y-96473333D01*
X109654761Y-96568571D01*
X109654761Y-96663809D01*
X110130952Y-96759047D01*
X108797619Y-97092380D02*
X108797619Y-96568571D01*
X108845238Y-96473333D01*
X108940476Y-96425714D01*
X109130952Y-96425714D01*
X109226190Y-96473333D01*
X108797619Y-97044761D02*
X108892857Y-97092380D01*
X109130952Y-97092380D01*
X109226190Y-97044761D01*
X109273809Y-96949523D01*
X109273809Y-96854285D01*
X109226190Y-96759047D01*
X109130952Y-96711428D01*
X108892857Y-96711428D01*
X108797619Y-96663809D01*
X108464285Y-96425714D02*
X108083333Y-96425714D01*
X108321428Y-96092380D02*
X108321428Y-96949523D01*
X108273809Y-97044761D01*
X108178571Y-97092380D01*
X108083333Y-97092380D01*
X107750000Y-97092380D02*
X107750000Y-96092380D01*
X107321428Y-97092380D02*
X107321428Y-96568571D01*
X107369047Y-96473333D01*
X107464285Y-96425714D01*
X107607142Y-96425714D01*
X107702380Y-96473333D01*
X107750000Y-96520952D01*
X106464285Y-97044761D02*
X106559523Y-97092380D01*
X106750000Y-97092380D01*
X106845238Y-97044761D01*
X106892857Y-96949523D01*
X106892857Y-96568571D01*
X106845238Y-96473333D01*
X106750000Y-96425714D01*
X106559523Y-96425714D01*
X106464285Y-96473333D01*
X106416666Y-96568571D01*
X106416666Y-96663809D01*
X106892857Y-96759047D01*
X105988095Y-97092380D02*
X105988095Y-96425714D01*
X105988095Y-96616190D02*
X105940476Y-96520952D01*
X105892857Y-96473333D01*
X105797619Y-96425714D01*
X105702380Y-96425714D01*
X105464285Y-96425714D02*
X105273809Y-97092380D01*
X105083333Y-96616190D01*
X104892857Y-97092380D01*
X104702380Y-96425714D01*
X104321428Y-97092380D02*
X104321428Y-96425714D01*
X104321428Y-96092380D02*
X104369047Y-96140000D01*
X104321428Y-96187619D01*
X104273809Y-96140000D01*
X104321428Y-96092380D01*
X104321428Y-96187619D01*
X103845238Y-96425714D02*
X103845238Y-97092380D01*
X103845238Y-96520952D02*
X103797619Y-96473333D01*
X103702380Y-96425714D01*
X103559523Y-96425714D01*
X103464285Y-96473333D01*
X103416666Y-96568571D01*
X103416666Y-97092380D01*
X102511904Y-96425714D02*
X102511904Y-97235238D01*
X102559523Y-97330476D01*
X102607142Y-97378095D01*
X102702380Y-97425714D01*
X102845238Y-97425714D01*
X102940476Y-97378095D01*
X102511904Y-97044761D02*
X102607142Y-97092380D01*
X102797619Y-97092380D01*
X102892857Y-97044761D01*
X102940476Y-96997142D01*
X102988095Y-96901904D01*
X102988095Y-96616190D01*
X102940476Y-96520952D01*
X102892857Y-96473333D01*
X102797619Y-96425714D01*
X102607142Y-96425714D01*
X102511904Y-96473333D01*
X102035714Y-96997142D02*
X101988095Y-97044761D01*
X102035714Y-97092380D01*
X102083333Y-97044761D01*
X102035714Y-96997142D01*
X102035714Y-97092380D01*
X127607142Y-98654761D02*
X127464285Y-98702380D01*
X127226190Y-98702380D01*
X127130952Y-98654761D01*
X127083333Y-98607142D01*
X127035714Y-98511904D01*
X127035714Y-98416666D01*
X127083333Y-98321428D01*
X127130952Y-98273809D01*
X127226190Y-98226190D01*
X127416666Y-98178571D01*
X127511904Y-98130952D01*
X127559523Y-98083333D01*
X127607142Y-97988095D01*
X127607142Y-97892857D01*
X127559523Y-97797619D01*
X127511904Y-97750000D01*
X127416666Y-97702380D01*
X127178571Y-97702380D01*
X127035714Y-97750000D01*
X126178571Y-98035714D02*
X126178571Y-98702380D01*
X126607142Y-98035714D02*
X126607142Y-98559523D01*
X126559523Y-98654761D01*
X126464285Y-98702380D01*
X126321428Y-98702380D01*
X126226190Y-98654761D01*
X126178571Y-98607142D01*
X125702380Y-98702380D02*
X125702380Y-98035714D01*
X125702380Y-97702380D02*
X125750000Y-97750000D01*
X125702380Y-97797619D01*
X125654761Y-97750000D01*
X125702380Y-97702380D01*
X125702380Y-97797619D01*
X125369047Y-98035714D02*
X124988095Y-98035714D01*
X125226190Y-97702380D02*
X125226190Y-98559523D01*
X125178571Y-98654761D01*
X125083333Y-98702380D01*
X124988095Y-98702380D01*
X124226190Y-98702380D02*
X124226190Y-98178571D01*
X124273809Y-98083333D01*
X124369047Y-98035714D01*
X124559523Y-98035714D01*
X124654761Y-98083333D01*
X124226190Y-98654761D02*
X124321428Y-98702380D01*
X124559523Y-98702380D01*
X124654761Y-98654761D01*
X124702380Y-98559523D01*
X124702380Y-98464285D01*
X124654761Y-98369047D01*
X124559523Y-98321428D01*
X124321428Y-98321428D01*
X124226190Y-98273809D01*
X123750000Y-98702380D02*
X123750000Y-97702380D01*
X123750000Y-98083333D02*
X123654761Y-98035714D01*
X123464285Y-98035714D01*
X123369047Y-98083333D01*
X123321428Y-98130952D01*
X123273809Y-98226190D01*
X123273809Y-98511904D01*
X123321428Y-98607142D01*
X123369047Y-98654761D01*
X123464285Y-98702380D01*
X123654761Y-98702380D01*
X123750000Y-98654761D01*
X122702380Y-98702380D02*
X122797619Y-98654761D01*
X122845238Y-98559523D01*
X122845238Y-97702380D01*
X121940476Y-98654761D02*
X122035714Y-98702380D01*
X122226190Y-98702380D01*
X122321428Y-98654761D01*
X122369047Y-98559523D01*
X122369047Y-98178571D01*
X122321428Y-98083333D01*
X122226190Y-98035714D01*
X122035714Y-98035714D01*
X121940476Y-98083333D01*
X121892857Y-98178571D01*
X121892857Y-98273809D01*
X122369047Y-98369047D01*
X120845238Y-98035714D02*
X120464285Y-98035714D01*
X120702380Y-98702380D02*
X120702380Y-97845238D01*
X120654761Y-97750000D01*
X120559523Y-97702380D01*
X120464285Y-97702380D01*
X119988095Y-98702380D02*
X120083333Y-98654761D01*
X120130952Y-98607142D01*
X120178571Y-98511904D01*
X120178571Y-98226190D01*
X120130952Y-98130952D01*
X120083333Y-98083333D01*
X119988095Y-98035714D01*
X119845238Y-98035714D01*
X119750000Y-98083333D01*
X119702380Y-98130952D01*
X119654761Y-98226190D01*
X119654761Y-98511904D01*
X119702380Y-98607142D01*
X119750000Y-98654761D01*
X119845238Y-98702380D01*
X119988095Y-98702380D01*
X119226190Y-98702380D02*
X119226190Y-98035714D01*
X119226190Y-98226190D02*
X119178571Y-98130952D01*
X119130952Y-98083333D01*
X119035714Y-98035714D01*
X118940476Y-98035714D01*
X117416666Y-98035714D02*
X117416666Y-98702380D01*
X117845238Y-98035714D02*
X117845238Y-98559523D01*
X117797619Y-98654761D01*
X117702380Y-98702380D01*
X117559523Y-98702380D01*
X117464285Y-98654761D01*
X117416666Y-98607142D01*
X116988095Y-98654761D02*
X116892857Y-98702380D01*
X116702380Y-98702380D01*
X116607142Y-98654761D01*
X116559523Y-98559523D01*
X116559523Y-98511904D01*
X116607142Y-98416666D01*
X116702380Y-98369047D01*
X116845238Y-98369047D01*
X116940476Y-98321428D01*
X116988095Y-98226190D01*
X116988095Y-98178571D01*
X116940476Y-98083333D01*
X116845238Y-98035714D01*
X116702380Y-98035714D01*
X116607142Y-98083333D01*
X115750000Y-98654761D02*
X115845238Y-98702380D01*
X116035714Y-98702380D01*
X116130952Y-98654761D01*
X116178571Y-98559523D01*
X116178571Y-98178571D01*
X116130952Y-98083333D01*
X116035714Y-98035714D01*
X115845238Y-98035714D01*
X115750000Y-98083333D01*
X115702380Y-98178571D01*
X115702380Y-98273809D01*
X116178571Y-98369047D01*
X114607142Y-98035714D02*
X114416666Y-98702380D01*
X114226190Y-98226190D01*
X114035714Y-98702380D01*
X113845238Y-98035714D01*
X113464285Y-98702380D02*
X113464285Y-98035714D01*
X113464285Y-97702380D02*
X113511904Y-97750000D01*
X113464285Y-97797619D01*
X113416666Y-97750000D01*
X113464285Y-97702380D01*
X113464285Y-97797619D01*
X113130952Y-98035714D02*
X112750000Y-98035714D01*
X112988095Y-97702380D02*
X112988095Y-98559523D01*
X112940476Y-98654761D01*
X112845238Y-98702380D01*
X112750000Y-98702380D01*
X112416666Y-98702380D02*
X112416666Y-97702380D01*
X111988095Y-98702380D02*
X111988095Y-98178571D01*
X112035714Y-98083333D01*
X112130952Y-98035714D01*
X112273809Y-98035714D01*
X112369047Y-98083333D01*
X112416666Y-98130952D01*
X110892857Y-97702380D02*
X110321428Y-97702380D01*
X110607142Y-98702380D02*
X110607142Y-97702380D01*
X109607142Y-98654761D02*
X109702380Y-98702380D01*
X109892857Y-98702380D01*
X109988095Y-98654761D01*
X110035714Y-98559523D01*
X110035714Y-98178571D01*
X109988095Y-98083333D01*
X109892857Y-98035714D01*
X109702380Y-98035714D01*
X109607142Y-98083333D01*
X109559523Y-98178571D01*
X109559523Y-98273809D01*
X110035714Y-98369047D01*
X108750000Y-98654761D02*
X108845238Y-98702380D01*
X109035714Y-98702380D01*
X109130952Y-98654761D01*
X109178571Y-98559523D01*
X109178571Y-98178571D01*
X109130952Y-98083333D01*
X109035714Y-98035714D01*
X108845238Y-98035714D01*
X108750000Y-98083333D01*
X108702380Y-98178571D01*
X108702380Y-98273809D01*
X109178571Y-98369047D01*
X108273809Y-98035714D02*
X108273809Y-98702380D01*
X108273809Y-98130952D02*
X108226190Y-98083333D01*
X108130952Y-98035714D01*
X107988095Y-98035714D01*
X107892857Y-98083333D01*
X107845238Y-98178571D01*
X107845238Y-98702380D01*
X107416666Y-98654761D02*
X107321428Y-98702380D01*
X107130952Y-98702380D01*
X107035714Y-98654761D01*
X106988095Y-98559523D01*
X106988095Y-98511904D01*
X107035714Y-98416666D01*
X107130952Y-98369047D01*
X107273809Y-98369047D01*
X107369047Y-98321428D01*
X107416666Y-98226190D01*
X107416666Y-98178571D01*
X107369047Y-98083333D01*
X107273809Y-98035714D01*
X107130952Y-98035714D01*
X107035714Y-98083333D01*
X106654761Y-98035714D02*
X106416666Y-98702380D01*
X106178571Y-98035714D02*
X106416666Y-98702380D01*
X106511904Y-98940476D01*
X106559523Y-98988095D01*
X106654761Y-99035714D01*
X104702380Y-98178571D02*
X105035714Y-98178571D01*
X105035714Y-98702380D02*
X105035714Y-97702380D01*
X104559523Y-97702380D01*
X103797619Y-98654761D02*
X103892857Y-98702380D01*
X104083333Y-98702380D01*
X104178571Y-98654761D01*
X104226190Y-98559523D01*
X104226190Y-98178571D01*
X104178571Y-98083333D01*
X104083333Y-98035714D01*
X103892857Y-98035714D01*
X103797619Y-98083333D01*
X103750000Y-98178571D01*
X103750000Y-98273809D01*
X104226190Y-98369047D01*
X102892857Y-98702380D02*
X102892857Y-98178571D01*
X102940476Y-98083333D01*
X103035714Y-98035714D01*
X103226190Y-98035714D01*
X103321428Y-98083333D01*
X102892857Y-98654761D02*
X102988095Y-98702380D01*
X103226190Y-98702380D01*
X103321428Y-98654761D01*
X103369047Y-98559523D01*
X103369047Y-98464285D01*
X103321428Y-98369047D01*
X103226190Y-98321428D01*
X102988095Y-98321428D01*
X102892857Y-98273809D01*
X102559523Y-98035714D02*
X102178571Y-98035714D01*
X102416666Y-97702380D02*
X102416666Y-98559523D01*
X102369047Y-98654761D01*
X102273809Y-98702380D01*
X102178571Y-98702380D01*
X101845238Y-98702380D02*
X101845238Y-97702380D01*
X101416666Y-98702380D02*
X101416666Y-98178571D01*
X101464285Y-98083333D01*
X101559523Y-98035714D01*
X101702380Y-98035714D01*
X101797619Y-98083333D01*
X101845238Y-98130952D01*
X100559523Y-98654761D02*
X100654761Y-98702380D01*
X100845238Y-98702380D01*
X100940476Y-98654761D01*
X100988095Y-98559523D01*
X100988095Y-98178571D01*
X100940476Y-98083333D01*
X100845238Y-98035714D01*
X100654761Y-98035714D01*
X100559523Y-98083333D01*
X100511904Y-98178571D01*
X100511904Y-98273809D01*
X100988095Y-98369047D01*
X100083333Y-98702380D02*
X100083333Y-98035714D01*
X100083333Y-98226190D02*
X100035714Y-98130952D01*
X99988095Y-98083333D01*
X99892857Y-98035714D01*
X99797619Y-98035714D01*
X123654761Y-100312380D02*
X123654761Y-99788571D01*
X123702380Y-99693333D01*
X123797619Y-99645714D01*
X123988095Y-99645714D01*
X124083333Y-99693333D01*
X123654761Y-100264761D02*
X123750000Y-100312380D01*
X123988095Y-100312380D01*
X124083333Y-100264761D01*
X124130952Y-100169523D01*
X124130952Y-100074285D01*
X124083333Y-99979047D01*
X123988095Y-99931428D01*
X123750000Y-99931428D01*
X123654761Y-99883809D01*
X123321428Y-99645714D02*
X122940476Y-99645714D01*
X123178571Y-99312380D02*
X123178571Y-100169523D01*
X123130952Y-100264761D01*
X123035714Y-100312380D01*
X122940476Y-100312380D01*
X121416666Y-100312380D02*
X121416666Y-99788571D01*
X121464285Y-99693333D01*
X121559523Y-99645714D01*
X121750000Y-99645714D01*
X121845238Y-99693333D01*
X121416666Y-100264761D02*
X121511904Y-100312380D01*
X121750000Y-100312380D01*
X121845238Y-100264761D01*
X121892857Y-100169523D01*
X121892857Y-100074285D01*
X121845238Y-99979047D01*
X121750000Y-99931428D01*
X121511904Y-99931428D01*
X121416666Y-99883809D01*
X120940476Y-100312380D02*
X120940476Y-99645714D01*
X120940476Y-99836190D02*
X120892857Y-99740952D01*
X120845238Y-99693333D01*
X120750000Y-99645714D01*
X120654761Y-99645714D01*
X120178571Y-100312380D02*
X120273809Y-100264761D01*
X120321428Y-100217142D01*
X120369047Y-100121904D01*
X120369047Y-99836190D01*
X120321428Y-99740952D01*
X120273809Y-99693333D01*
X120178571Y-99645714D01*
X120035714Y-99645714D01*
X119940476Y-99693333D01*
X119892857Y-99740952D01*
X119845238Y-99836190D01*
X119845238Y-100121904D01*
X119892857Y-100217142D01*
X119940476Y-100264761D01*
X120035714Y-100312380D01*
X120178571Y-100312380D01*
X118988095Y-99645714D02*
X118988095Y-100312380D01*
X119416666Y-99645714D02*
X119416666Y-100169523D01*
X119369047Y-100264761D01*
X119273809Y-100312380D01*
X119130952Y-100312380D01*
X119035714Y-100264761D01*
X118988095Y-100217142D01*
X118511904Y-99645714D02*
X118511904Y-100312380D01*
X118511904Y-99740952D02*
X118464285Y-99693333D01*
X118369047Y-99645714D01*
X118226190Y-99645714D01*
X118130952Y-99693333D01*
X118083333Y-99788571D01*
X118083333Y-100312380D01*
X117178571Y-100312380D02*
X117178571Y-99312380D01*
X117178571Y-100264761D02*
X117273809Y-100312380D01*
X117464285Y-100312380D01*
X117559523Y-100264761D01*
X117607142Y-100217142D01*
X117654761Y-100121904D01*
X117654761Y-99836190D01*
X117607142Y-99740952D01*
X117559523Y-99693333D01*
X117464285Y-99645714D01*
X117273809Y-99645714D01*
X117178571Y-99693333D01*
X116035714Y-99312380D02*
X115416666Y-99312380D01*
X115750000Y-99693333D01*
X115607142Y-99693333D01*
X115511904Y-99740952D01*
X115464285Y-99788571D01*
X115416666Y-99883809D01*
X115416666Y-100121904D01*
X115464285Y-100217142D01*
X115511904Y-100264761D01*
X115607142Y-100312380D01*
X115892857Y-100312380D01*
X115988095Y-100264761D01*
X116035714Y-100217142D01*
X114988095Y-100217142D02*
X114940476Y-100264761D01*
X114988095Y-100312380D01*
X115035714Y-100264761D01*
X114988095Y-100217142D01*
X114988095Y-100312380D01*
X114559523Y-99407619D02*
X114511904Y-99360000D01*
X114416666Y-99312380D01*
X114178571Y-99312380D01*
X114083333Y-99360000D01*
X114035714Y-99407619D01*
X113988095Y-99502857D01*
X113988095Y-99598095D01*
X114035714Y-99740952D01*
X114607142Y-100312380D01*
X113988095Y-100312380D01*
X113559523Y-100312380D02*
X113559523Y-99312380D01*
X113226190Y-100026666D01*
X112892857Y-99312380D01*
X112892857Y-100312380D01*
X112416666Y-100312380D02*
X112416666Y-99312380D01*
X112416666Y-99788571D02*
X111845238Y-99788571D01*
X111845238Y-100312380D02*
X111845238Y-99312380D01*
X111464285Y-99645714D02*
X110940476Y-99645714D01*
X111464285Y-100312380D01*
X110940476Y-100312380D01*
X109797619Y-100312380D02*
X109797619Y-99312380D01*
X109369047Y-99407619D02*
X109321428Y-99360000D01*
X109226190Y-99312380D01*
X108988095Y-99312380D01*
X108892857Y-99360000D01*
X108845238Y-99407619D01*
X108797619Y-99502857D01*
X108797619Y-99598095D01*
X108845238Y-99740952D01*
X109416666Y-100312380D01*
X108797619Y-100312380D01*
X107797619Y-100217142D02*
X107845238Y-100264761D01*
X107988095Y-100312380D01*
X108083333Y-100312380D01*
X108226190Y-100264761D01*
X108321428Y-100169523D01*
X108369047Y-100074285D01*
X108416666Y-99883809D01*
X108416666Y-99740952D01*
X108369047Y-99550476D01*
X108321428Y-99455238D01*
X108226190Y-99360000D01*
X108083333Y-99312380D01*
X107988095Y-99312380D01*
X107845238Y-99360000D01*
X107797619Y-99407619D01*
X106178571Y-100264761D02*
X106273809Y-100312380D01*
X106464285Y-100312380D01*
X106559523Y-100264761D01*
X106607142Y-100217142D01*
X106654761Y-100121904D01*
X106654761Y-99836190D01*
X106607142Y-99740952D01*
X106559523Y-99693333D01*
X106464285Y-99645714D01*
X106273809Y-99645714D01*
X106178571Y-99693333D01*
X105607142Y-100312380D02*
X105702380Y-100264761D01*
X105750000Y-100169523D01*
X105750000Y-99312380D01*
X105083333Y-100312380D02*
X105178571Y-100264761D01*
X105226190Y-100217142D01*
X105273809Y-100121904D01*
X105273809Y-99836190D01*
X105226190Y-99740952D01*
X105178571Y-99693333D01*
X105083333Y-99645714D01*
X104940476Y-99645714D01*
X104845238Y-99693333D01*
X104797619Y-99740952D01*
X104750000Y-99836190D01*
X104750000Y-100121904D01*
X104797619Y-100217142D01*
X104845238Y-100264761D01*
X104940476Y-100312380D01*
X105083333Y-100312380D01*
X103892857Y-100264761D02*
X103988095Y-100312380D01*
X104178571Y-100312380D01*
X104273809Y-100264761D01*
X104321428Y-100217142D01*
X104369047Y-100121904D01*
X104369047Y-99836190D01*
X104321428Y-99740952D01*
X104273809Y-99693333D01*
X104178571Y-99645714D01*
X103988095Y-99645714D01*
X103892857Y-99693333D01*
X103464285Y-100312380D02*
X103464285Y-99312380D01*
X103369047Y-99931428D02*
X103083333Y-100312380D01*
X103083333Y-99645714D02*
X103464285Y-100026666D01*
X102654761Y-100217142D02*
X102607142Y-100264761D01*
X102654761Y-100312380D01*
X102702380Y-100264761D01*
X102654761Y-100217142D01*
X102654761Y-100312380D01*
X118666666Y-118675714D02*
X118428571Y-119342380D01*
X118190476Y-118675714D01*
X117619047Y-118342380D02*
X117523809Y-118342380D01*
X117428571Y-118390000D01*
X117380952Y-118437619D01*
X117333333Y-118532857D01*
X117285714Y-118723333D01*
X117285714Y-118961428D01*
X117333333Y-119151904D01*
X117380952Y-119247142D01*
X117428571Y-119294761D01*
X117523809Y-119342380D01*
X117619047Y-119342380D01*
X117714285Y-119294761D01*
X117761904Y-119247142D01*
X117809523Y-119151904D01*
X117857142Y-118961428D01*
X117857142Y-118723333D01*
X117809523Y-118532857D01*
X117761904Y-118437619D01*
X117714285Y-118390000D01*
X117619047Y-118342380D01*
X116857142Y-119247142D02*
X116809523Y-119294761D01*
X116857142Y-119342380D01*
X116904761Y-119294761D01*
X116857142Y-119247142D01*
X116857142Y-119342380D01*
X116476190Y-118342380D02*
X115857142Y-118342380D01*
X116190476Y-118723333D01*
X116047619Y-118723333D01*
X115952380Y-118770952D01*
X115904761Y-118818571D01*
X115857142Y-118913809D01*
X115857142Y-119151904D01*
X115904761Y-119247142D01*
X115952380Y-119294761D01*
X116047619Y-119342380D01*
X116333333Y-119342380D01*
X116428571Y-119294761D01*
X116476190Y-119247142D01*
X114714285Y-118437619D02*
X114666666Y-118390000D01*
X114571428Y-118342380D01*
X114333333Y-118342380D01*
X114238095Y-118390000D01*
X114190476Y-118437619D01*
X114142857Y-118532857D01*
X114142857Y-118628095D01*
X114190476Y-118770952D01*
X114761904Y-119342380D01*
X114142857Y-119342380D01*
X113523809Y-118342380D02*
X113428571Y-118342380D01*
X113333333Y-118390000D01*
X113285714Y-118437619D01*
X113238095Y-118532857D01*
X113190476Y-118723333D01*
X113190476Y-118961428D01*
X113238095Y-119151904D01*
X113285714Y-119247142D01*
X113333333Y-119294761D01*
X113428571Y-119342380D01*
X113523809Y-119342380D01*
X113619047Y-119294761D01*
X113666666Y-119247142D01*
X113714285Y-119151904D01*
X113761904Y-118961428D01*
X113761904Y-118723333D01*
X113714285Y-118532857D01*
X113666666Y-118437619D01*
X113619047Y-118390000D01*
X113523809Y-118342380D01*
X112047619Y-118294761D02*
X112904761Y-119580476D01*
X111190476Y-119342380D02*
X111761904Y-119342380D01*
X111476190Y-119342380D02*
X111476190Y-118342380D01*
X111571428Y-118485238D01*
X111666666Y-118580476D01*
X111761904Y-118628095D01*
X110809523Y-118437619D02*
X110761904Y-118390000D01*
X110666666Y-118342380D01*
X110428571Y-118342380D01*
X110333333Y-118390000D01*
X110285714Y-118437619D01*
X110238095Y-118532857D01*
X110238095Y-118628095D01*
X110285714Y-118770952D01*
X110857142Y-119342380D01*
X110238095Y-119342380D01*
X109095238Y-118294761D02*
X109952380Y-119580476D01*
X108809523Y-118437619D02*
X108761904Y-118390000D01*
X108666666Y-118342380D01*
X108428571Y-118342380D01*
X108333333Y-118390000D01*
X108285714Y-118437619D01*
X108238095Y-118532857D01*
X108238095Y-118628095D01*
X108285714Y-118770952D01*
X108857142Y-119342380D01*
X108238095Y-119342380D01*
X107619047Y-118342380D02*
X107523809Y-118342380D01*
X107428571Y-118390000D01*
X107380952Y-118437619D01*
X107333333Y-118532857D01*
X107285714Y-118723333D01*
X107285714Y-118961428D01*
X107333333Y-119151904D01*
X107380952Y-119247142D01*
X107428571Y-119294761D01*
X107523809Y-119342380D01*
X107619047Y-119342380D01*
X107714285Y-119294761D01*
X107761904Y-119247142D01*
X107809523Y-119151904D01*
X107857142Y-118961428D01*
X107857142Y-118723333D01*
X107809523Y-118532857D01*
X107761904Y-118437619D01*
X107714285Y-118390000D01*
X107619047Y-118342380D01*
X106904761Y-118437619D02*
X106857142Y-118390000D01*
X106761904Y-118342380D01*
X106523809Y-118342380D01*
X106428571Y-118390000D01*
X106380952Y-118437619D01*
X106333333Y-118532857D01*
X106333333Y-118628095D01*
X106380952Y-118770952D01*
X106952380Y-119342380D01*
X106333333Y-119342380D01*
X105714285Y-118342380D02*
X105619047Y-118342380D01*
X105523809Y-118390000D01*
X105476190Y-118437619D01*
X105428571Y-118532857D01*
X105380952Y-118723333D01*
X105380952Y-118961428D01*
X105428571Y-119151904D01*
X105476190Y-119247142D01*
X105523809Y-119294761D01*
X105619047Y-119342380D01*
X105714285Y-119342380D01*
X105809523Y-119294761D01*
X105857142Y-119247142D01*
X105904761Y-119151904D01*
X105952380Y-118961428D01*
X105952380Y-118723333D01*
X105904761Y-118532857D01*
X105857142Y-118437619D01*
X105809523Y-118390000D01*
X105714285Y-118342380D01*
X121952380Y-120952380D02*
X121952380Y-119952380D01*
X121952380Y-120333333D02*
X121857142Y-120285714D01*
X121666666Y-120285714D01*
X121571428Y-120333333D01*
X121523809Y-120380952D01*
X121476190Y-120476190D01*
X121476190Y-120761904D01*
X121523809Y-120857142D01*
X121571428Y-120904761D01*
X121666666Y-120952380D01*
X121857142Y-120952380D01*
X121952380Y-120904761D01*
X121142857Y-120285714D02*
X120904761Y-120952380D01*
X120666666Y-120285714D02*
X120904761Y-120952380D01*
X121000000Y-121190476D01*
X121047619Y-121238095D01*
X121142857Y-121285714D01*
X119666666Y-119952380D02*
X119095238Y-119952380D01*
X119380952Y-120952380D02*
X119380952Y-119952380D01*
X118761904Y-120952380D02*
X118761904Y-120285714D01*
X118761904Y-119952380D02*
X118809523Y-120000000D01*
X118761904Y-120047619D01*
X118714285Y-120000000D01*
X118761904Y-119952380D01*
X118761904Y-120047619D01*
X118333333Y-120904761D02*
X118238095Y-120952380D01*
X118047619Y-120952380D01*
X117952380Y-120904761D01*
X117904761Y-120809523D01*
X117904761Y-120761904D01*
X117952380Y-120666666D01*
X118047619Y-120619047D01*
X118190476Y-120619047D01*
X118285714Y-120571428D01*
X118333333Y-120476190D01*
X118333333Y-120428571D01*
X118285714Y-120333333D01*
X118190476Y-120285714D01*
X118047619Y-120285714D01*
X117952380Y-120333333D01*
X117476190Y-120952380D02*
X117476190Y-119952380D01*
X117047619Y-120952380D02*
X117047619Y-120428571D01*
X117095238Y-120333333D01*
X117190476Y-120285714D01*
X117333333Y-120285714D01*
X117428571Y-120333333D01*
X117476190Y-120380952D01*
X116142857Y-120952380D02*
X116142857Y-120428571D01*
X116190476Y-120333333D01*
X116285714Y-120285714D01*
X116476190Y-120285714D01*
X116571428Y-120333333D01*
X116142857Y-120904761D02*
X116238095Y-120952380D01*
X116476190Y-120952380D01*
X116571428Y-120904761D01*
X116619047Y-120809523D01*
X116619047Y-120714285D01*
X116571428Y-120619047D01*
X116476190Y-120571428D01*
X116238095Y-120571428D01*
X116142857Y-120523809D01*
X115666666Y-120952380D02*
X115666666Y-120285714D01*
X115666666Y-120380952D02*
X115619047Y-120333333D01*
X115523809Y-120285714D01*
X115380952Y-120285714D01*
X115285714Y-120333333D01*
X115238095Y-120428571D01*
X115238095Y-120952380D01*
X115238095Y-120428571D02*
X115190476Y-120333333D01*
X115095238Y-120285714D01*
X114952380Y-120285714D01*
X114857142Y-120333333D01*
X114809523Y-120428571D01*
X114809523Y-120952380D01*
X113285714Y-121333333D02*
X113333333Y-121285714D01*
X113428571Y-121142857D01*
X113476190Y-121047619D01*
X113523809Y-120904761D01*
X113571428Y-120666666D01*
X113571428Y-120476190D01*
X113523809Y-120238095D01*
X113476190Y-120095238D01*
X113428571Y-120000000D01*
X113333333Y-119857142D01*
X113285714Y-119809523D01*
X113000000Y-120285714D02*
X112809523Y-120952380D01*
X112619047Y-120476190D01*
X112428571Y-120952380D01*
X112238095Y-120285714D01*
X111857142Y-120952380D02*
X111857142Y-119952380D01*
X111428571Y-120952380D02*
X111428571Y-120428571D01*
X111476190Y-120333333D01*
X111571428Y-120285714D01*
X111714285Y-120285714D01*
X111809523Y-120333333D01*
X111857142Y-120380952D01*
X110523809Y-120952380D02*
X110523809Y-120428571D01*
X110571428Y-120333333D01*
X110666666Y-120285714D01*
X110857142Y-120285714D01*
X110952380Y-120333333D01*
X110523809Y-120904761D02*
X110619047Y-120952380D01*
X110857142Y-120952380D01*
X110952380Y-120904761D01*
X111000000Y-120809523D01*
X111000000Y-120714285D01*
X110952380Y-120619047D01*
X110857142Y-120571428D01*
X110619047Y-120571428D01*
X110523809Y-120523809D01*
X110190476Y-120285714D02*
X109809523Y-120285714D01*
X110047619Y-119952380D02*
X110047619Y-120809523D01*
X110000000Y-120904761D01*
X109904761Y-120952380D01*
X109809523Y-120952380D01*
X109476190Y-120285714D02*
X109476190Y-120952380D01*
X109476190Y-120380952D02*
X109428571Y-120333333D01*
X109333333Y-120285714D01*
X109190476Y-120285714D01*
X109095238Y-120333333D01*
X109047619Y-120428571D01*
X109047619Y-120952380D01*
X108571428Y-120952380D02*
X108571428Y-120285714D01*
X108571428Y-119952380D02*
X108619047Y-120000000D01*
X108571428Y-120047619D01*
X108523809Y-120000000D01*
X108571428Y-119952380D01*
X108571428Y-120047619D01*
X107666666Y-120904761D02*
X107761904Y-120952380D01*
X107952380Y-120952380D01*
X108047619Y-120904761D01*
X108095238Y-120857142D01*
X108142857Y-120761904D01*
X108142857Y-120476190D01*
X108095238Y-120380952D01*
X108047619Y-120333333D01*
X107952380Y-120285714D01*
X107761904Y-120285714D01*
X107666666Y-120333333D01*
X107238095Y-120952380D02*
X107238095Y-119952380D01*
X107142857Y-120571428D02*
X106857142Y-120952380D01*
X106857142Y-120285714D02*
X107238095Y-120666666D01*
X106523809Y-121333333D02*
X106476190Y-121285714D01*
X106380952Y-121142857D01*
X106333333Y-121047619D01*
X106285714Y-120904761D01*
X106238095Y-120666666D01*
X106238095Y-120476190D01*
X106285714Y-120238095D01*
X106333333Y-120095238D01*
X106380952Y-120000000D01*
X106476190Y-119857142D01*
X106523809Y-119809523D01*
X105000000Y-120952380D02*
X105000000Y-119952380D01*
X104761904Y-119952380D01*
X104619047Y-120000000D01*
X104523809Y-120095238D01*
X104476190Y-120190476D01*
X104428571Y-120380952D01*
X104428571Y-120523809D01*
X104476190Y-120714285D01*
X104523809Y-120809523D01*
X104619047Y-120904761D01*
X104761904Y-120952380D01*
X105000000Y-120952380D01*
X104000000Y-120952380D02*
X104000000Y-119952380D01*
X103571428Y-120952380D02*
X103571428Y-120428571D01*
X103619047Y-120333333D01*
X103714285Y-120285714D01*
X103857142Y-120285714D01*
X103952380Y-120333333D01*
X104000000Y-120380952D01*
X102666666Y-120952380D02*
X102666666Y-120428571D01*
X102714285Y-120333333D01*
X102809523Y-120285714D01*
X103000000Y-120285714D01*
X103095238Y-120333333D01*
X102666666Y-120904761D02*
X102761904Y-120952380D01*
X103000000Y-120952380D01*
X103095238Y-120904761D01*
X103142857Y-120809523D01*
X103142857Y-120714285D01*
X103095238Y-120619047D01*
X103000000Y-120571428D01*
X102761904Y-120571428D01*
X102666666Y-120523809D01*
X102190476Y-120952380D02*
X102190476Y-120285714D01*
X102190476Y-120476190D02*
X102142857Y-120380952D01*
X102095238Y-120333333D01*
X102000000Y-120285714D01*
X101904761Y-120285714D01*
X115857142Y-121562380D02*
X115666666Y-121562380D01*
X115571428Y-121610000D01*
X115476190Y-121705238D01*
X115428571Y-121895714D01*
X115428571Y-122229047D01*
X115476190Y-122419523D01*
X115571428Y-122514761D01*
X115666666Y-122562380D01*
X115857142Y-122562380D01*
X115952380Y-122514761D01*
X116047619Y-122419523D01*
X116095238Y-122229047D01*
X116095238Y-121895714D01*
X116047619Y-121705238D01*
X115952380Y-121610000D01*
X115857142Y-121562380D01*
X115047619Y-122514761D02*
X114904761Y-122562380D01*
X114666666Y-122562380D01*
X114571428Y-122514761D01*
X114523809Y-122467142D01*
X114476190Y-122371904D01*
X114476190Y-122276666D01*
X114523809Y-122181428D01*
X114571428Y-122133809D01*
X114666666Y-122086190D01*
X114857142Y-122038571D01*
X114952380Y-121990952D01*
X115000000Y-121943333D01*
X115047619Y-121848095D01*
X115047619Y-121752857D01*
X115000000Y-121657619D01*
X114952380Y-121610000D01*
X114857142Y-121562380D01*
X114619047Y-121562380D01*
X114476190Y-121610000D01*
X114047619Y-122562380D02*
X114047619Y-121562380D01*
X114047619Y-122038571D02*
X113476190Y-122038571D01*
X113476190Y-122562380D02*
X113476190Y-121562380D01*
X113095238Y-121562380D02*
X112857142Y-122562380D01*
X112666666Y-121848095D01*
X112476190Y-122562380D01*
X112238095Y-121562380D01*
X111238095Y-121562380D02*
X110666666Y-121562380D01*
X110952380Y-122562380D02*
X110952380Y-121562380D01*
X110380952Y-122276666D02*
X109904761Y-122276666D01*
X110476190Y-122562380D02*
X110142857Y-121562380D01*
X109809523Y-122562380D01*
X109476190Y-122562380D02*
X109476190Y-121562380D01*
X109095238Y-121562380D01*
X109000000Y-121610000D01*
X108952380Y-121657619D01*
X108904761Y-121752857D01*
X108904761Y-121895714D01*
X108952380Y-121990952D01*
X109000000Y-122038571D01*
X109095238Y-122086190D01*
X109476190Y-122086190D01*
X107904761Y-122562380D02*
X108238095Y-122086190D01*
X108476190Y-122562380D02*
X108476190Y-121562380D01*
X108095238Y-121562380D01*
X108000000Y-121610000D01*
X107952380Y-121657619D01*
X107904761Y-121752857D01*
X107904761Y-121895714D01*
X107952380Y-121990952D01*
X108000000Y-122038571D01*
X108095238Y-122086190D01*
X108476190Y-122086190D01*
D10*
X103925619Y-113402857D02*
X102925619Y-113069523D01*
X103925619Y-112736190D01*
X103449428Y-112069523D02*
X103401809Y-111926666D01*
X103354190Y-111879047D01*
X103258952Y-111831428D01*
X103116095Y-111831428D01*
X103020857Y-111879047D01*
X102973238Y-111926666D01*
X102925619Y-112021904D01*
X102925619Y-112402857D01*
X103925619Y-112402857D01*
X103925619Y-112069523D01*
X103878000Y-111974285D01*
X103830380Y-111926666D01*
X103735142Y-111879047D01*
X103639904Y-111879047D01*
X103544666Y-111926666D01*
X103497047Y-111974285D01*
X103449428Y-112069523D01*
X103449428Y-112402857D01*
X103211333Y-111450476D02*
X103211333Y-110974285D01*
X102925619Y-111545714D02*
X103925619Y-111212380D01*
X102925619Y-110879047D01*
X103925619Y-110688571D02*
X103925619Y-110117142D01*
X102925619Y-110402857D02*
X103925619Y-110402857D01*
X117333333Y-89152380D02*
X117333333Y-89866666D01*
X117380952Y-90009523D01*
X117476190Y-90104761D01*
X117619047Y-90152380D01*
X117714285Y-90152380D01*
X116857142Y-90152380D02*
X116857142Y-89152380D01*
X116476190Y-89152380D01*
X116380952Y-89200000D01*
X116333333Y-89247619D01*
X116285714Y-89342857D01*
X116285714Y-89485714D01*
X116333333Y-89580952D01*
X116380952Y-89628571D01*
X116476190Y-89676190D01*
X116857142Y-89676190D01*
X115904761Y-89247619D02*
X115857142Y-89200000D01*
X115761904Y-89152380D01*
X115523809Y-89152380D01*
X115428571Y-89200000D01*
X115380952Y-89247619D01*
X115333333Y-89342857D01*
X115333333Y-89438095D01*
X115380952Y-89580952D01*
X115952380Y-90152380D01*
X115333333Y-90152380D01*
X100261904Y-126400380D02*
X99690476Y-126400380D01*
X99976190Y-127400380D02*
X99976190Y-126400380D01*
X99357142Y-127400380D02*
X99357142Y-126400380D01*
X98976190Y-126400380D01*
X98880952Y-126448000D01*
X98833333Y-126495619D01*
X98785714Y-126590857D01*
X98785714Y-126733714D01*
X98833333Y-126828952D01*
X98880952Y-126876571D01*
X98976190Y-126924190D01*
X99357142Y-126924190D01*
X98452380Y-126400380D02*
X97785714Y-126400380D01*
X98214285Y-127400380D01*
X92761904Y-126400380D02*
X92190476Y-126400380D01*
X92476190Y-127400380D02*
X92476190Y-126400380D01*
X91857142Y-127400380D02*
X91857142Y-126400380D01*
X91476190Y-126400380D01*
X91380952Y-126448000D01*
X91333333Y-126495619D01*
X91285714Y-126590857D01*
X91285714Y-126733714D01*
X91333333Y-126828952D01*
X91380952Y-126876571D01*
X91476190Y-126924190D01*
X91857142Y-126924190D01*
X90428571Y-126400380D02*
X90619047Y-126400380D01*
X90714285Y-126448000D01*
X90761904Y-126495619D01*
X90857142Y-126638476D01*
X90904761Y-126828952D01*
X90904761Y-127209904D01*
X90857142Y-127305142D01*
X90809523Y-127352761D01*
X90714285Y-127400380D01*
X90523809Y-127400380D01*
X90428571Y-127352761D01*
X90380952Y-127305142D01*
X90333333Y-127209904D01*
X90333333Y-126971809D01*
X90380952Y-126876571D01*
X90428571Y-126828952D01*
X90523809Y-126781333D01*
X90714285Y-126781333D01*
X90809523Y-126828952D01*
X90857142Y-126876571D01*
X90904761Y-126971809D01*
X112261904Y-125400380D02*
X111690476Y-125400380D01*
X111976190Y-126400380D02*
X111976190Y-125400380D01*
X111357142Y-126400380D02*
X111357142Y-125400380D01*
X110976190Y-125400380D01*
X110880952Y-125448000D01*
X110833333Y-125495619D01*
X110785714Y-125590857D01*
X110785714Y-125733714D01*
X110833333Y-125828952D01*
X110880952Y-125876571D01*
X110976190Y-125924190D01*
X111357142Y-125924190D01*
X110404761Y-125495619D02*
X110357142Y-125448000D01*
X110261904Y-125400380D01*
X110023809Y-125400380D01*
X109928571Y-125448000D01*
X109880952Y-125495619D01*
X109833333Y-125590857D01*
X109833333Y-125686095D01*
X109880952Y-125828952D01*
X110452380Y-126400380D01*
X109833333Y-126400380D01*
X106761904Y-125400380D02*
X106190476Y-125400380D01*
X106476190Y-126400380D02*
X106476190Y-125400380D01*
X105857142Y-126400380D02*
X105857142Y-125400380D01*
X105476190Y-125400380D01*
X105380952Y-125448000D01*
X105333333Y-125495619D01*
X105285714Y-125590857D01*
X105285714Y-125733714D01*
X105333333Y-125828952D01*
X105380952Y-125876571D01*
X105476190Y-125924190D01*
X105857142Y-125924190D01*
X104333333Y-126400380D02*
X104904761Y-126400380D01*
X104619047Y-126400380D02*
X104619047Y-125400380D01*
X104714285Y-125543238D01*
X104809523Y-125638476D01*
X104904761Y-125686095D01*
X131333333Y-129652380D02*
X131333333Y-130366666D01*
X131380952Y-130509523D01*
X131476190Y-130604761D01*
X131619047Y-130652380D01*
X131714285Y-130652380D01*
X130857142Y-130652380D02*
X130857142Y-129652380D01*
X130476190Y-129652380D01*
X130380952Y-129700000D01*
X130333333Y-129747619D01*
X130285714Y-129842857D01*
X130285714Y-129985714D01*
X130333333Y-130080952D01*
X130380952Y-130128571D01*
X130476190Y-130176190D01*
X130857142Y-130176190D01*
X129333333Y-130652380D02*
X129904761Y-130652380D01*
X129619047Y-130652380D02*
X129619047Y-129652380D01*
X129714285Y-129795238D01*
X129809523Y-129890476D01*
X129904761Y-129938095D01*
D12*
X115100000Y-90500000D02*
X115100000Y-92500000D01*
X117900000Y-90500000D02*
X115100000Y-90500000D01*
X115100000Y-92500000D02*
X117900000Y-92500000D01*
X117900000Y-92500000D02*
X117900000Y-90500000D01*
G36*
X125479537Y-125806313D02*
G01*
X125471345Y-125883462D01*
X125453519Y-125941276D01*
X125423975Y-125985422D01*
X125380625Y-126021568D01*
X125339332Y-126042463D01*
X125269987Y-126054090D01*
X125200736Y-126041377D01*
X125138145Y-126005945D01*
X125088779Y-125949418D01*
X125082818Y-125938995D01*
X125074945Y-125920733D01*
X125069106Y-125897429D01*
X125064999Y-125865085D01*
X125062325Y-125819704D01*
X125060781Y-125757287D01*
X125060734Y-125751748D01*
X125161429Y-125751748D01*
X125161772Y-125804577D01*
X125163942Y-125852362D01*
X125169307Y-125883209D01*
X125179217Y-125903935D01*
X125195021Y-125921356D01*
X125198724Y-125924705D01*
X125246299Y-125949419D01*
X125296635Y-125946890D01*
X125343517Y-125917288D01*
X125357477Y-125901953D01*
X125369160Y-125881622D01*
X125375686Y-125853514D01*
X125378524Y-125810550D01*
X125379143Y-125745647D01*
X125378837Y-125696122D01*
X125376722Y-125647782D01*
X125371390Y-125616587D01*
X125361460Y-125595647D01*
X125345550Y-125578073D01*
X125336204Y-125570159D01*
X125287776Y-125548843D01*
X125237040Y-125552198D01*
X125192987Y-125580107D01*
X125183504Y-125591173D01*
X125171939Y-125612009D01*
X125165252Y-125641106D01*
X125162173Y-125685381D01*
X125161429Y-125751748D01*
X125060734Y-125751748D01*
X125060067Y-125673837D01*
X125059883Y-125565358D01*
X125059829Y-125228601D01*
X125107000Y-125248362D01*
X125119472Y-125253770D01*
X125139324Y-125265985D01*
X125150687Y-125284482D01*
X125156933Y-125316829D01*
X125161429Y-125370593D01*
X125165535Y-125418866D01*
X125170963Y-125450557D01*
X125178739Y-125462383D01*
X125190457Y-125459212D01*
X125220318Y-125448067D01*
X125273684Y-125445304D01*
X125331093Y-125455625D01*
X125380625Y-125477861D01*
X125407876Y-125498443D01*
X125442865Y-125538600D01*
X125465274Y-125590086D01*
X125477190Y-125658568D01*
X125480542Y-125745647D01*
X125480698Y-125749714D01*
X125479537Y-125806313D01*
G37*
D13*
X125479537Y-125806313D02*
X125471345Y-125883462D01*
X125453519Y-125941276D01*
X125423975Y-125985422D01*
X125380625Y-126021568D01*
X125339332Y-126042463D01*
X125269987Y-126054090D01*
X125200736Y-126041377D01*
X125138145Y-126005945D01*
X125088779Y-125949418D01*
X125082818Y-125938995D01*
X125074945Y-125920733D01*
X125069106Y-125897429D01*
X125064999Y-125865085D01*
X125062325Y-125819704D01*
X125060781Y-125757287D01*
X125060734Y-125751748D01*
X125161429Y-125751748D01*
X125161772Y-125804577D01*
X125163942Y-125852362D01*
X125169307Y-125883209D01*
X125179217Y-125903935D01*
X125195021Y-125921356D01*
X125198724Y-125924705D01*
X125246299Y-125949419D01*
X125296635Y-125946890D01*
X125343517Y-125917288D01*
X125357477Y-125901953D01*
X125369160Y-125881622D01*
X125375686Y-125853514D01*
X125378524Y-125810550D01*
X125379143Y-125745647D01*
X125378837Y-125696122D01*
X125376722Y-125647782D01*
X125371390Y-125616587D01*
X125361460Y-125595647D01*
X125345550Y-125578073D01*
X125336204Y-125570159D01*
X125287776Y-125548843D01*
X125237040Y-125552198D01*
X125192987Y-125580107D01*
X125183504Y-125591173D01*
X125171939Y-125612009D01*
X125165252Y-125641106D01*
X125162173Y-125685381D01*
X125161429Y-125751748D01*
X125060734Y-125751748D01*
X125060067Y-125673837D01*
X125059883Y-125565358D01*
X125059829Y-125228601D01*
X125107000Y-125248362D01*
X125119472Y-125253770D01*
X125139324Y-125265985D01*
X125150687Y-125284482D01*
X125156933Y-125316829D01*
X125161429Y-125370593D01*
X125165535Y-125418866D01*
X125170963Y-125450557D01*
X125178739Y-125462383D01*
X125190457Y-125459212D01*
X125220318Y-125448067D01*
X125273684Y-125445304D01*
X125331093Y-125455625D01*
X125380625Y-125477861D01*
X125407876Y-125498443D01*
X125442865Y-125538600D01*
X125465274Y-125590086D01*
X125477190Y-125658568D01*
X125480542Y-125745647D01*
X125480698Y-125749714D01*
X125479537Y-125806313D01*
G36*
X126363933Y-120742371D02*
G01*
X126439856Y-120742865D01*
X126494491Y-120744135D01*
X126531500Y-120746547D01*
X126554547Y-120750467D01*
X126567296Y-120756262D01*
X126573411Y-120764299D01*
X126576556Y-120774943D01*
X126576646Y-120775325D01*
X126581814Y-120800347D01*
X126591209Y-120848681D01*
X126603867Y-120915260D01*
X126618825Y-120995014D01*
X126635119Y-121082875D01*
X126636448Y-121090064D01*
X126652691Y-121175340D01*
X126667805Y-121250242D01*
X126680808Y-121310219D01*
X126690715Y-121350717D01*
X126696544Y-121367184D01*
X126696575Y-121367210D01*
X126714943Y-121376320D01*
X126752640Y-121391457D01*
X126801543Y-121409358D01*
X126804297Y-121410330D01*
X126866817Y-121433959D01*
X126939543Y-121463595D01*
X127007294Y-121493062D01*
X127118703Y-121543626D01*
X127365399Y-121375160D01*
X127382775Y-121363311D01*
X127457202Y-121312947D01*
X127523614Y-121268612D01*
X127578039Y-121232916D01*
X127616506Y-121208471D01*
X127635042Y-121197889D01*
X127647743Y-121200315D01*
X127676579Y-121219110D01*
X127721143Y-121256330D01*
X127782670Y-121313020D01*
X127862398Y-121390227D01*
X127869532Y-121397255D01*
X127932796Y-121460222D01*
X127988990Y-121517268D01*
X128034677Y-121564817D01*
X128066414Y-121599297D01*
X128080764Y-121617131D01*
X128080810Y-121617217D01*
X128082633Y-121630795D01*
X128075910Y-121652820D01*
X128058946Y-121686304D01*
X128030044Y-121734261D01*
X127987508Y-121799704D01*
X127929644Y-121885645D01*
X127919783Y-121900151D01*
X127869913Y-121973635D01*
X127825905Y-122038687D01*
X127790380Y-122091417D01*
X127765959Y-122127936D01*
X127755264Y-122144356D01*
X127754458Y-122147834D01*
X127759518Y-122173785D01*
X127774677Y-122216159D01*
X127797463Y-122267728D01*
X127828429Y-122335170D01*
X127863004Y-122415195D01*
X127892366Y-122487629D01*
X127899645Y-122506377D01*
X127918710Y-122554246D01*
X127932715Y-122587596D01*
X127939041Y-122600114D01*
X127946025Y-122601050D01*
X127977413Y-122606461D01*
X128028787Y-122615806D01*
X128094802Y-122628069D01*
X128170113Y-122642232D01*
X128249375Y-122657280D01*
X128327243Y-122672195D01*
X128398370Y-122685961D01*
X128457412Y-122697562D01*
X128499022Y-122705980D01*
X128517857Y-122710199D01*
X128520980Y-122711389D01*
X128528591Y-122717805D01*
X128534254Y-122731465D01*
X128538251Y-122755999D01*
X128540866Y-122795038D01*
X128542384Y-122852213D01*
X128543086Y-122931154D01*
X128543257Y-123035492D01*
X128543257Y-123352799D01*
X128467057Y-123367839D01*
X128457840Y-123369642D01*
X128408891Y-123378980D01*
X128341205Y-123391669D01*
X128262478Y-123406273D01*
X128180400Y-123421355D01*
X128148078Y-123427422D01*
X128075855Y-123442181D01*
X128015666Y-123456137D01*
X127973040Y-123467952D01*
X127953510Y-123476287D01*
X127944660Y-123489905D01*
X127928548Y-123525938D01*
X127912065Y-123572572D01*
X127906263Y-123590034D01*
X127884906Y-123647358D01*
X127857359Y-123715201D01*
X127828107Y-123782355D01*
X127812463Y-123817430D01*
X127790174Y-123869822D01*
X127774857Y-123909058D01*
X127769162Y-123928563D01*
X127769478Y-123930036D01*
X127780281Y-123950729D01*
X127804638Y-123990665D01*
X127840081Y-124045972D01*
X127884136Y-124112781D01*
X127934332Y-124187220D01*
X128099501Y-124429623D01*
X127882503Y-124646983D01*
X127861516Y-124667899D01*
X127797342Y-124730505D01*
X127739990Y-124784495D01*
X127692820Y-124826826D01*
X127659192Y-124854457D01*
X127642467Y-124864343D01*
X127624303Y-124856821D01*
X127586265Y-124835227D01*
X127532726Y-124802151D01*
X127467884Y-124760191D01*
X127395940Y-124711943D01*
X127325275Y-124664291D01*
X127261526Y-124622328D01*
X127209513Y-124589165D01*
X127173279Y-124567378D01*
X127156867Y-124559543D01*
X127155905Y-124559614D01*
X127134103Y-124567338D01*
X127095440Y-124585323D01*
X127047612Y-124610013D01*
X127047110Y-124610284D01*
X126983587Y-124642099D01*
X126940060Y-124657642D01*
X126913052Y-124657685D01*
X126899090Y-124643000D01*
X126893180Y-124628544D01*
X126877229Y-124589831D01*
X126852660Y-124530316D01*
X126820779Y-124453165D01*
X126782893Y-124361541D01*
X126740310Y-124258607D01*
X126694337Y-124147526D01*
X126652667Y-124046472D01*
X126610268Y-123942780D01*
X126572756Y-123850119D01*
X126541388Y-123771642D01*
X126517425Y-123710500D01*
X126502123Y-123669843D01*
X126496743Y-123652825D01*
X126507018Y-123637219D01*
X126535563Y-123611162D01*
X126575971Y-123580887D01*
X126672979Y-123501684D01*
X126759793Y-123400475D01*
X126823322Y-123289116D01*
X126863177Y-123170893D01*
X126878965Y-123049095D01*
X126870296Y-122927010D01*
X126836778Y-122807925D01*
X126778021Y-122695129D01*
X126693632Y-122591911D01*
X126649631Y-122551713D01*
X126544211Y-122480638D01*
X126431410Y-122434301D01*
X126314525Y-122411599D01*
X126196853Y-122411428D01*
X126081690Y-122432687D01*
X125972335Y-122474270D01*
X125872083Y-122535076D01*
X125784233Y-122614001D01*
X125712080Y-122709941D01*
X125658922Y-122821795D01*
X125628057Y-122948457D01*
X125622392Y-123009507D01*
X125630185Y-123141776D01*
X125665284Y-123267266D01*
X125726649Y-123383759D01*
X125813243Y-123489039D01*
X125924029Y-123580887D01*
X125962931Y-123609930D01*
X125992104Y-123636272D01*
X126003257Y-123652800D01*
X125998810Y-123667209D01*
X125984378Y-123705815D01*
X125961173Y-123765201D01*
X125930452Y-123842215D01*
X125893474Y-123933703D01*
X125851496Y-124036516D01*
X125805778Y-124147502D01*
X125764178Y-124248072D01*
X125721222Y-124351947D01*
X125682829Y-124444819D01*
X125650305Y-124523525D01*
X125624958Y-124584899D01*
X125608095Y-124625779D01*
X125601025Y-124643000D01*
X125600943Y-124643204D01*
X125586798Y-124657745D01*
X125559659Y-124657579D01*
X125516023Y-124641927D01*
X125452388Y-124610013D01*
X125447379Y-124607326D01*
X125400125Y-124583150D01*
X125362811Y-124566037D01*
X125343133Y-124559543D01*
X125327005Y-124567218D01*
X125290959Y-124588871D01*
X125239092Y-124621928D01*
X125175445Y-124663810D01*
X125104060Y-124711943D01*
X125033724Y-124759131D01*
X124968670Y-124801267D01*
X124914820Y-124834578D01*
X124876374Y-124856469D01*
X124857534Y-124864343D01*
X124854325Y-124863343D01*
X124831954Y-124847584D01*
X124793733Y-124815033D01*
X124743021Y-124768733D01*
X124683181Y-124711726D01*
X124617571Y-124647058D01*
X124400648Y-124429772D01*
X124569601Y-124181253D01*
X124738553Y-123932733D01*
X124687183Y-123821595D01*
X124687031Y-123821266D01*
X124656183Y-123750418D01*
X124624661Y-123671523D01*
X124599266Y-123601600D01*
X124595423Y-123590322D01*
X124576047Y-123537967D01*
X124558574Y-123497283D01*
X124546388Y-123476287D01*
X124541426Y-123473322D01*
X124511634Y-123463375D01*
X124461047Y-123450505D01*
X124395194Y-123436053D01*
X124319600Y-123421355D01*
X124296957Y-123417210D01*
X124215038Y-123402116D01*
X124138600Y-123387899D01*
X124075337Y-123375995D01*
X124032943Y-123367839D01*
X123956743Y-123352799D01*
X123956743Y-123035492D01*
X123956760Y-122996476D01*
X123957082Y-122901292D01*
X123958033Y-122830255D01*
X123959896Y-122779734D01*
X123962955Y-122746098D01*
X123967494Y-122725718D01*
X123973795Y-122714962D01*
X123982143Y-122710199D01*
X123990224Y-122708270D01*
X124023172Y-122701445D01*
X124075736Y-122691022D01*
X124142569Y-122678018D01*
X124218328Y-122663449D01*
X124297665Y-122648333D01*
X124375237Y-122633685D01*
X124445698Y-122620523D01*
X124503702Y-122609863D01*
X124543904Y-122602721D01*
X124560959Y-122600114D01*
X124562112Y-122598541D01*
X124571385Y-122578119D01*
X124587432Y-122539045D01*
X124607635Y-122487629D01*
X124635672Y-122418353D01*
X124670186Y-122338290D01*
X124702538Y-122267728D01*
X124709952Y-122251889D01*
X124730755Y-122202293D01*
X124743219Y-122164038D01*
X124744863Y-122144356D01*
X124744015Y-122142962D01*
X124730548Y-122122420D01*
X124703850Y-122082516D01*
X124666539Y-122027140D01*
X124621234Y-121960177D01*
X124570552Y-121885517D01*
X124513445Y-121800692D01*
X124470607Y-121734800D01*
X124441460Y-121686478D01*
X124424317Y-121652733D01*
X124417495Y-121630572D01*
X124419306Y-121617002D01*
X124419915Y-121615984D01*
X124436297Y-121596210D01*
X124469695Y-121560175D01*
X124516671Y-121511451D01*
X124573786Y-121453612D01*
X124637603Y-121390227D01*
X124703802Y-121325905D01*
X124768648Y-121265447D01*
X124816299Y-121224655D01*
X124847990Y-121202484D01*
X124864958Y-121197889D01*
X124867175Y-121198921D01*
X124890524Y-121212837D01*
X124932912Y-121240030D01*
X124990369Y-121277889D01*
X125058923Y-121323803D01*
X125134601Y-121375160D01*
X125381298Y-121543626D01*
X125492706Y-121493062D01*
X125495943Y-121491597D01*
X125564343Y-121461965D01*
X125636907Y-121432493D01*
X125698457Y-121409358D01*
X125698729Y-121409262D01*
X125747595Y-121391367D01*
X125785212Y-121376253D01*
X125803457Y-121367184D01*
X125803752Y-121366855D01*
X125809946Y-121348282D01*
X125820139Y-121306045D01*
X125833348Y-121244696D01*
X125848590Y-121168789D01*
X125864881Y-121082875D01*
X125865449Y-121079796D01*
X125881713Y-120992128D01*
X125896608Y-120912741D01*
X125909171Y-120846701D01*
X125918438Y-120799079D01*
X125923444Y-120774943D01*
X125923764Y-120773605D01*
X125927060Y-120763273D01*
X125933738Y-120755506D01*
X125947462Y-120749940D01*
X125971895Y-120746207D01*
X126010702Y-120743942D01*
X126067546Y-120742778D01*
X126146090Y-120742348D01*
X126250000Y-120742286D01*
X126263056Y-120742286D01*
X126363933Y-120742371D01*
G37*
X126363933Y-120742371D02*
X126439856Y-120742865D01*
X126494491Y-120744135D01*
X126531500Y-120746547D01*
X126554547Y-120750467D01*
X126567296Y-120756262D01*
X126573411Y-120764299D01*
X126576556Y-120774943D01*
X126576646Y-120775325D01*
X126581814Y-120800347D01*
X126591209Y-120848681D01*
X126603867Y-120915260D01*
X126618825Y-120995014D01*
X126635119Y-121082875D01*
X126636448Y-121090064D01*
X126652691Y-121175340D01*
X126667805Y-121250242D01*
X126680808Y-121310219D01*
X126690715Y-121350717D01*
X126696544Y-121367184D01*
X126696575Y-121367210D01*
X126714943Y-121376320D01*
X126752640Y-121391457D01*
X126801543Y-121409358D01*
X126804297Y-121410330D01*
X126866817Y-121433959D01*
X126939543Y-121463595D01*
X127007294Y-121493062D01*
X127118703Y-121543626D01*
X127365399Y-121375160D01*
X127382775Y-121363311D01*
X127457202Y-121312947D01*
X127523614Y-121268612D01*
X127578039Y-121232916D01*
X127616506Y-121208471D01*
X127635042Y-121197889D01*
X127647743Y-121200315D01*
X127676579Y-121219110D01*
X127721143Y-121256330D01*
X127782670Y-121313020D01*
X127862398Y-121390227D01*
X127869532Y-121397255D01*
X127932796Y-121460222D01*
X127988990Y-121517268D01*
X128034677Y-121564817D01*
X128066414Y-121599297D01*
X128080764Y-121617131D01*
X128080810Y-121617217D01*
X128082633Y-121630795D01*
X128075910Y-121652820D01*
X128058946Y-121686304D01*
X128030044Y-121734261D01*
X127987508Y-121799704D01*
X127929644Y-121885645D01*
X127919783Y-121900151D01*
X127869913Y-121973635D01*
X127825905Y-122038687D01*
X127790380Y-122091417D01*
X127765959Y-122127936D01*
X127755264Y-122144356D01*
X127754458Y-122147834D01*
X127759518Y-122173785D01*
X127774677Y-122216159D01*
X127797463Y-122267728D01*
X127828429Y-122335170D01*
X127863004Y-122415195D01*
X127892366Y-122487629D01*
X127899645Y-122506377D01*
X127918710Y-122554246D01*
X127932715Y-122587596D01*
X127939041Y-122600114D01*
X127946025Y-122601050D01*
X127977413Y-122606461D01*
X128028787Y-122615806D01*
X128094802Y-122628069D01*
X128170113Y-122642232D01*
X128249375Y-122657280D01*
X128327243Y-122672195D01*
X128398370Y-122685961D01*
X128457412Y-122697562D01*
X128499022Y-122705980D01*
X128517857Y-122710199D01*
X128520980Y-122711389D01*
X128528591Y-122717805D01*
X128534254Y-122731465D01*
X128538251Y-122755999D01*
X128540866Y-122795038D01*
X128542384Y-122852213D01*
X128543086Y-122931154D01*
X128543257Y-123035492D01*
X128543257Y-123352799D01*
X128467057Y-123367839D01*
X128457840Y-123369642D01*
X128408891Y-123378980D01*
X128341205Y-123391669D01*
X128262478Y-123406273D01*
X128180400Y-123421355D01*
X128148078Y-123427422D01*
X128075855Y-123442181D01*
X128015666Y-123456137D01*
X127973040Y-123467952D01*
X127953510Y-123476287D01*
X127944660Y-123489905D01*
X127928548Y-123525938D01*
X127912065Y-123572572D01*
X127906263Y-123590034D01*
X127884906Y-123647358D01*
X127857359Y-123715201D01*
X127828107Y-123782355D01*
X127812463Y-123817430D01*
X127790174Y-123869822D01*
X127774857Y-123909058D01*
X127769162Y-123928563D01*
X127769478Y-123930036D01*
X127780281Y-123950729D01*
X127804638Y-123990665D01*
X127840081Y-124045972D01*
X127884136Y-124112781D01*
X127934332Y-124187220D01*
X128099501Y-124429623D01*
X127882503Y-124646983D01*
X127861516Y-124667899D01*
X127797342Y-124730505D01*
X127739990Y-124784495D01*
X127692820Y-124826826D01*
X127659192Y-124854457D01*
X127642467Y-124864343D01*
X127624303Y-124856821D01*
X127586265Y-124835227D01*
X127532726Y-124802151D01*
X127467884Y-124760191D01*
X127395940Y-124711943D01*
X127325275Y-124664291D01*
X127261526Y-124622328D01*
X127209513Y-124589165D01*
X127173279Y-124567378D01*
X127156867Y-124559543D01*
X127155905Y-124559614D01*
X127134103Y-124567338D01*
X127095440Y-124585323D01*
X127047612Y-124610013D01*
X127047110Y-124610284D01*
X126983587Y-124642099D01*
X126940060Y-124657642D01*
X126913052Y-124657685D01*
X126899090Y-124643000D01*
X126893180Y-124628544D01*
X126877229Y-124589831D01*
X126852660Y-124530316D01*
X126820779Y-124453165D01*
X126782893Y-124361541D01*
X126740310Y-124258607D01*
X126694337Y-124147526D01*
X126652667Y-124046472D01*
X126610268Y-123942780D01*
X126572756Y-123850119D01*
X126541388Y-123771642D01*
X126517425Y-123710500D01*
X126502123Y-123669843D01*
X126496743Y-123652825D01*
X126507018Y-123637219D01*
X126535563Y-123611162D01*
X126575971Y-123580887D01*
X126672979Y-123501684D01*
X126759793Y-123400475D01*
X126823322Y-123289116D01*
X126863177Y-123170893D01*
X126878965Y-123049095D01*
X126870296Y-122927010D01*
X126836778Y-122807925D01*
X126778021Y-122695129D01*
X126693632Y-122591911D01*
X126649631Y-122551713D01*
X126544211Y-122480638D01*
X126431410Y-122434301D01*
X126314525Y-122411599D01*
X126196853Y-122411428D01*
X126081690Y-122432687D01*
X125972335Y-122474270D01*
X125872083Y-122535076D01*
X125784233Y-122614001D01*
X125712080Y-122709941D01*
X125658922Y-122821795D01*
X125628057Y-122948457D01*
X125622392Y-123009507D01*
X125630185Y-123141776D01*
X125665284Y-123267266D01*
X125726649Y-123383759D01*
X125813243Y-123489039D01*
X125924029Y-123580887D01*
X125962931Y-123609930D01*
X125992104Y-123636272D01*
X126003257Y-123652800D01*
X125998810Y-123667209D01*
X125984378Y-123705815D01*
X125961173Y-123765201D01*
X125930452Y-123842215D01*
X125893474Y-123933703D01*
X125851496Y-124036516D01*
X125805778Y-124147502D01*
X125764178Y-124248072D01*
X125721222Y-124351947D01*
X125682829Y-124444819D01*
X125650305Y-124523525D01*
X125624958Y-124584899D01*
X125608095Y-124625779D01*
X125601025Y-124643000D01*
X125600943Y-124643204D01*
X125586798Y-124657745D01*
X125559659Y-124657579D01*
X125516023Y-124641927D01*
X125452388Y-124610013D01*
X125447379Y-124607326D01*
X125400125Y-124583150D01*
X125362811Y-124566037D01*
X125343133Y-124559543D01*
X125327005Y-124567218D01*
X125290959Y-124588871D01*
X125239092Y-124621928D01*
X125175445Y-124663810D01*
X125104060Y-124711943D01*
X125033724Y-124759131D01*
X124968670Y-124801267D01*
X124914820Y-124834578D01*
X124876374Y-124856469D01*
X124857534Y-124864343D01*
X124854325Y-124863343D01*
X124831954Y-124847584D01*
X124793733Y-124815033D01*
X124743021Y-124768733D01*
X124683181Y-124711726D01*
X124617571Y-124647058D01*
X124400648Y-124429772D01*
X124569601Y-124181253D01*
X124738553Y-123932733D01*
X124687183Y-123821595D01*
X124687031Y-123821266D01*
X124656183Y-123750418D01*
X124624661Y-123671523D01*
X124599266Y-123601600D01*
X124595423Y-123590322D01*
X124576047Y-123537967D01*
X124558574Y-123497283D01*
X124546388Y-123476287D01*
X124541426Y-123473322D01*
X124511634Y-123463375D01*
X124461047Y-123450505D01*
X124395194Y-123436053D01*
X124319600Y-123421355D01*
X124296957Y-123417210D01*
X124215038Y-123402116D01*
X124138600Y-123387899D01*
X124075337Y-123375995D01*
X124032943Y-123367839D01*
X123956743Y-123352799D01*
X123956743Y-123035492D01*
X123956760Y-122996476D01*
X123957082Y-122901292D01*
X123958033Y-122830255D01*
X123959896Y-122779734D01*
X123962955Y-122746098D01*
X123967494Y-122725718D01*
X123973795Y-122714962D01*
X123982143Y-122710199D01*
X123990224Y-122708270D01*
X124023172Y-122701445D01*
X124075736Y-122691022D01*
X124142569Y-122678018D01*
X124218328Y-122663449D01*
X124297665Y-122648333D01*
X124375237Y-122633685D01*
X124445698Y-122620523D01*
X124503702Y-122609863D01*
X124543904Y-122602721D01*
X124560959Y-122600114D01*
X124562112Y-122598541D01*
X124571385Y-122578119D01*
X124587432Y-122539045D01*
X124607635Y-122487629D01*
X124635672Y-122418353D01*
X124670186Y-122338290D01*
X124702538Y-122267728D01*
X124709952Y-122251889D01*
X124730755Y-122202293D01*
X124743219Y-122164038D01*
X124744863Y-122144356D01*
X124744015Y-122142962D01*
X124730548Y-122122420D01*
X124703850Y-122082516D01*
X124666539Y-122027140D01*
X124621234Y-121960177D01*
X124570552Y-121885517D01*
X124513445Y-121800692D01*
X124470607Y-121734800D01*
X124441460Y-121686478D01*
X124424317Y-121652733D01*
X124417495Y-121630572D01*
X124419306Y-121617002D01*
X124419915Y-121615984D01*
X124436297Y-121596210D01*
X124469695Y-121560175D01*
X124516671Y-121511451D01*
X124573786Y-121453612D01*
X124637603Y-121390227D01*
X124703802Y-121325905D01*
X124768648Y-121265447D01*
X124816299Y-121224655D01*
X124847990Y-121202484D01*
X124864958Y-121197889D01*
X124867175Y-121198921D01*
X124890524Y-121212837D01*
X124932912Y-121240030D01*
X124990369Y-121277889D01*
X125058923Y-121323803D01*
X125134601Y-121375160D01*
X125381298Y-121543626D01*
X125492706Y-121493062D01*
X125495943Y-121491597D01*
X125564343Y-121461965D01*
X125636907Y-121432493D01*
X125698457Y-121409358D01*
X125698729Y-121409262D01*
X125747595Y-121391367D01*
X125785212Y-121376253D01*
X125803457Y-121367184D01*
X125803752Y-121366855D01*
X125809946Y-121348282D01*
X125820139Y-121306045D01*
X125833348Y-121244696D01*
X125848590Y-121168789D01*
X125864881Y-121082875D01*
X125865449Y-121079796D01*
X125881713Y-120992128D01*
X125896608Y-120912741D01*
X125909171Y-120846701D01*
X125918438Y-120799079D01*
X125923444Y-120774943D01*
X125923764Y-120773605D01*
X125927060Y-120763273D01*
X125933738Y-120755506D01*
X125947462Y-120749940D01*
X125971895Y-120746207D01*
X126010702Y-120743942D01*
X126067546Y-120742778D01*
X126146090Y-120742348D01*
X126250000Y-120742286D01*
X126263056Y-120742286D01*
X126363933Y-120742371D01*
G36*
X124903941Y-125449282D02*
G01*
X124935774Y-125461758D01*
X124972743Y-125478602D01*
X124972743Y-125965196D01*
X124926812Y-126011127D01*
X124916320Y-126021427D01*
X124887255Y-126044320D01*
X124857943Y-126051735D01*
X124814326Y-126048321D01*
X124796568Y-126046114D01*
X124750767Y-126041445D01*
X124718743Y-126039585D01*
X124709244Y-126039869D01*
X124670274Y-126042948D01*
X124623160Y-126048321D01*
X124608085Y-126050168D01*
X124570110Y-126050893D01*
X124542325Y-126039429D01*
X124510674Y-126011127D01*
X124464743Y-125965196D01*
X124464743Y-125705055D01*
X124465101Y-125628180D01*
X124466216Y-125554886D01*
X124467952Y-125496850D01*
X124470167Y-125458663D01*
X124472721Y-125444914D01*
X124473256Y-125444951D01*
X124491808Y-125451793D01*
X124523153Y-125466868D01*
X124565608Y-125488822D01*
X124569604Y-125717240D01*
X124573600Y-125945657D01*
X124660686Y-125945657D01*
X124664657Y-125695286D01*
X124665916Y-125627227D01*
X124667718Y-125554482D01*
X124669671Y-125496730D01*
X124671612Y-125458648D01*
X124673377Y-125444914D01*
X124673885Y-125444962D01*
X124691482Y-125450015D01*
X124723834Y-125460849D01*
X124769543Y-125476783D01*
X124769765Y-125696706D01*
X124769988Y-125734909D01*
X124771531Y-125809146D01*
X124774292Y-125871145D01*
X124777977Y-125915308D01*
X124782292Y-125936041D01*
X124797732Y-125947131D01*
X124829241Y-125950556D01*
X124863886Y-125945657D01*
X124867857Y-125695286D01*
X124869278Y-125631663D01*
X124872225Y-125556356D01*
X124876079Y-125497286D01*
X124880542Y-125458718D01*
X124885317Y-125444914D01*
X124903941Y-125449282D01*
G37*
X124903941Y-125449282D02*
X124935774Y-125461758D01*
X124972743Y-125478602D01*
X124972743Y-125965196D01*
X124926812Y-126011127D01*
X124916320Y-126021427D01*
X124887255Y-126044320D01*
X124857943Y-126051735D01*
X124814326Y-126048321D01*
X124796568Y-126046114D01*
X124750767Y-126041445D01*
X124718743Y-126039585D01*
X124709244Y-126039869D01*
X124670274Y-126042948D01*
X124623160Y-126048321D01*
X124608085Y-126050168D01*
X124570110Y-126050893D01*
X124542325Y-126039429D01*
X124510674Y-126011127D01*
X124464743Y-125965196D01*
X124464743Y-125705055D01*
X124465101Y-125628180D01*
X124466216Y-125554886D01*
X124467952Y-125496850D01*
X124470167Y-125458663D01*
X124472721Y-125444914D01*
X124473256Y-125444951D01*
X124491808Y-125451793D01*
X124523153Y-125466868D01*
X124565608Y-125488822D01*
X124569604Y-125717240D01*
X124573600Y-125945657D01*
X124660686Y-125945657D01*
X124664657Y-125695286D01*
X124665916Y-125627227D01*
X124667718Y-125554482D01*
X124669671Y-125496730D01*
X124671612Y-125458648D01*
X124673377Y-125444914D01*
X124673885Y-125444962D01*
X124691482Y-125450015D01*
X124723834Y-125460849D01*
X124769543Y-125476783D01*
X124769765Y-125696706D01*
X124769988Y-125734909D01*
X124771531Y-125809146D01*
X124774292Y-125871145D01*
X124777977Y-125915308D01*
X124782292Y-125936041D01*
X124797732Y-125947131D01*
X124829241Y-125950556D01*
X124863886Y-125945657D01*
X124867857Y-125695286D01*
X124869278Y-125631663D01*
X124872225Y-125556356D01*
X124876079Y-125497286D01*
X124880542Y-125458718D01*
X124885317Y-125444914D01*
X124903941Y-125449282D01*
G36*
X123732829Y-125451097D02*
G01*
X123792753Y-125473355D01*
X123817673Y-125490080D01*
X123842910Y-125514043D01*
X123860912Y-125544526D01*
X123872858Y-125586023D01*
X123879930Y-125643032D01*
X123883308Y-125720047D01*
X123884171Y-125821565D01*
X123884002Y-125874027D01*
X123883153Y-125945715D01*
X123881711Y-126002925D01*
X123879814Y-126040809D01*
X123877597Y-126054514D01*
X123863172Y-126049981D01*
X123834054Y-126037670D01*
X123833181Y-126037272D01*
X123818060Y-126029356D01*
X123807891Y-126018495D01*
X123801691Y-125999471D01*
X123798478Y-125967069D01*
X123797270Y-125916071D01*
X123797086Y-125841261D01*
X123796714Y-125793804D01*
X123792750Y-125704615D01*
X123783673Y-125639287D01*
X123768524Y-125594393D01*
X123746345Y-125566507D01*
X123716175Y-125552203D01*
X123711990Y-125551206D01*
X123655480Y-125550427D01*
X123611410Y-125575744D01*
X123580972Y-125626502D01*
X123575544Y-125641175D01*
X123563171Y-125673649D01*
X123556905Y-125688572D01*
X123544036Y-125686516D01*
X123515933Y-125675357D01*
X123489721Y-125656927D01*
X123477771Y-125622098D01*
X123481336Y-125597151D01*
X123503235Y-125546547D01*
X123538644Y-125499128D01*
X123580052Y-125466334D01*
X123597400Y-125458752D01*
X123663089Y-125446076D01*
X123732829Y-125451097D01*
G37*
X123732829Y-125451097D02*
X123792753Y-125473355D01*
X123817673Y-125490080D01*
X123842910Y-125514043D01*
X123860912Y-125544526D01*
X123872858Y-125586023D01*
X123879930Y-125643032D01*
X123883308Y-125720047D01*
X123884171Y-125821565D01*
X123884002Y-125874027D01*
X123883153Y-125945715D01*
X123881711Y-126002925D01*
X123879814Y-126040809D01*
X123877597Y-126054514D01*
X123863172Y-126049981D01*
X123834054Y-126037670D01*
X123833181Y-126037272D01*
X123818060Y-126029356D01*
X123807891Y-126018495D01*
X123801691Y-125999471D01*
X123798478Y-125967069D01*
X123797270Y-125916071D01*
X123797086Y-125841261D01*
X123796714Y-125793804D01*
X123792750Y-125704615D01*
X123783673Y-125639287D01*
X123768524Y-125594393D01*
X123746345Y-125566507D01*
X123716175Y-125552203D01*
X123711990Y-125551206D01*
X123655480Y-125550427D01*
X123611410Y-125575744D01*
X123580972Y-125626502D01*
X123575544Y-125641175D01*
X123563171Y-125673649D01*
X123556905Y-125688572D01*
X123544036Y-125686516D01*
X123515933Y-125675357D01*
X123489721Y-125656927D01*
X123477771Y-125622098D01*
X123481336Y-125597151D01*
X123503235Y-125546547D01*
X123538644Y-125499128D01*
X123580052Y-125466334D01*
X123597400Y-125458752D01*
X123663089Y-125446076D01*
X123732829Y-125451097D01*
G36*
X126928543Y-125249444D02*
G01*
X126975714Y-125269342D01*
X126975714Y-125666509D01*
X126975519Y-125769498D01*
X126974998Y-125862141D01*
X126974199Y-125940700D01*
X126973172Y-126001439D01*
X126971963Y-126040623D01*
X126970623Y-126054514D01*
X126970099Y-126054468D01*
X126952287Y-126049420D01*
X126919823Y-126038580D01*
X126874114Y-126022646D01*
X126874114Y-125818173D01*
X126873824Y-125737832D01*
X126872474Y-125679562D01*
X126869369Y-125639909D01*
X126863812Y-125613618D01*
X126855107Y-125595436D01*
X126842556Y-125580107D01*
X126833999Y-125571955D01*
X126787728Y-125549375D01*
X126736728Y-125551375D01*
X126689993Y-125578073D01*
X126683189Y-125584698D01*
X126672293Y-125598456D01*
X126664836Y-125616642D01*
X126660169Y-125644177D01*
X126657642Y-125685981D01*
X126656602Y-125746973D01*
X126656400Y-125832073D01*
X126656303Y-125875234D01*
X126655674Y-125946224D01*
X126654556Y-126003076D01*
X126653063Y-126040828D01*
X126651309Y-126054514D01*
X126650785Y-126054468D01*
X126632973Y-126049420D01*
X126600509Y-126038580D01*
X126554800Y-126022646D01*
X126554823Y-125817237D01*
X126554857Y-125798951D01*
X126556778Y-125703626D01*
X126562678Y-125631543D01*
X126574001Y-125577813D01*
X126592187Y-125537549D01*
X126618679Y-125505861D01*
X126654918Y-125477861D01*
X126690263Y-125460333D01*
X126746773Y-125446785D01*
X126802356Y-125446015D01*
X126845086Y-125459195D01*
X126848298Y-125461015D01*
X126858205Y-125460820D01*
X126864975Y-125445572D01*
X126869861Y-125410613D01*
X126874114Y-125351289D01*
X126881371Y-125229547D01*
X126928543Y-125249444D01*
G37*
X126928543Y-125249444D02*
X126975714Y-125269342D01*
X126975714Y-125666509D01*
X126975519Y-125769498D01*
X126974998Y-125862141D01*
X126974199Y-125940700D01*
X126973172Y-126001439D01*
X126971963Y-126040623D01*
X126970623Y-126054514D01*
X126970099Y-126054468D01*
X126952287Y-126049420D01*
X126919823Y-126038580D01*
X126874114Y-126022646D01*
X126874114Y-125818173D01*
X126873824Y-125737832D01*
X126872474Y-125679562D01*
X126869369Y-125639909D01*
X126863812Y-125613618D01*
X126855107Y-125595436D01*
X126842556Y-125580107D01*
X126833999Y-125571955D01*
X126787728Y-125549375D01*
X126736728Y-125551375D01*
X126689993Y-125578073D01*
X126683189Y-125584698D01*
X126672293Y-125598456D01*
X126664836Y-125616642D01*
X126660169Y-125644177D01*
X126657642Y-125685981D01*
X126656602Y-125746973D01*
X126656400Y-125832073D01*
X126656303Y-125875234D01*
X126655674Y-125946224D01*
X126654556Y-126003076D01*
X126653063Y-126040828D01*
X126651309Y-126054514D01*
X126650785Y-126054468D01*
X126632973Y-126049420D01*
X126600509Y-126038580D01*
X126554800Y-126022646D01*
X126554823Y-125817237D01*
X126554857Y-125798951D01*
X126556778Y-125703626D01*
X126562678Y-125631543D01*
X126574001Y-125577813D01*
X126592187Y-125537549D01*
X126618679Y-125505861D01*
X126654918Y-125477861D01*
X126690263Y-125460333D01*
X126746773Y-125446785D01*
X126802356Y-125446015D01*
X126845086Y-125459195D01*
X126848298Y-125461015D01*
X126858205Y-125460820D01*
X126864975Y-125445572D01*
X126869861Y-125410613D01*
X126874114Y-125351289D01*
X126881371Y-125229547D01*
X126928543Y-125249444D01*
G36*
X128407684Y-125804078D02*
G01*
X128405078Y-125827387D01*
X128385660Y-125910352D01*
X128350573Y-125973448D01*
X128297212Y-126021808D01*
X128294196Y-126023804D01*
X128226362Y-126052185D01*
X128155535Y-126054711D01*
X128087289Y-126033097D01*
X128027196Y-125989062D01*
X127980829Y-125924322D01*
X127980050Y-125922761D01*
X127964643Y-125882558D01*
X127953357Y-125836866D01*
X127947370Y-125793972D01*
X127947861Y-125762160D01*
X127956007Y-125749714D01*
X127963244Y-125750471D01*
X127997851Y-125764235D01*
X128037078Y-125789546D01*
X128070448Y-125818845D01*
X128087483Y-125844572D01*
X128105192Y-125879471D01*
X128141485Y-125911212D01*
X128183630Y-125923886D01*
X128199077Y-125920221D01*
X128229569Y-125901774D01*
X128256128Y-125876166D01*
X128267486Y-125852934D01*
X128267482Y-125852848D01*
X128254596Y-125842179D01*
X128220241Y-125822933D01*
X128169593Y-125797813D01*
X128107829Y-125769524D01*
X128107489Y-125769374D01*
X128040388Y-125739498D01*
X127995411Y-125717973D01*
X127968145Y-125701437D01*
X127954178Y-125686531D01*
X127949097Y-125669893D01*
X127948490Y-125648162D01*
X127952711Y-125607013D01*
X128096000Y-125607013D01*
X128110791Y-125619949D01*
X128147644Y-125639333D01*
X128148725Y-125639881D01*
X128192205Y-125660587D01*
X128231102Y-125677105D01*
X128255778Y-125684093D01*
X128265676Y-125674753D01*
X128267486Y-125642748D01*
X128259966Y-125602915D01*
X128233897Y-125566717D01*
X128196154Y-125547950D01*
X128154077Y-125549845D01*
X128115005Y-125575632D01*
X128099647Y-125593451D01*
X128096000Y-125607013D01*
X127952711Y-125607013D01*
X127953833Y-125596086D01*
X127980251Y-125525335D01*
X128024473Y-125469735D01*
X128081697Y-125431239D01*
X128147120Y-125411797D01*
X128215937Y-125413359D01*
X128283347Y-125437878D01*
X128344544Y-125487302D01*
X128378450Y-125536212D01*
X128402806Y-125606027D01*
X128406767Y-125642748D01*
X128412299Y-125694055D01*
X128407684Y-125804078D01*
G37*
X128407684Y-125804078D02*
X128405078Y-125827387D01*
X128385660Y-125910352D01*
X128350573Y-125973448D01*
X128297212Y-126021808D01*
X128294196Y-126023804D01*
X128226362Y-126052185D01*
X128155535Y-126054711D01*
X128087289Y-126033097D01*
X128027196Y-125989062D01*
X127980829Y-125924322D01*
X127980050Y-125922761D01*
X127964643Y-125882558D01*
X127953357Y-125836866D01*
X127947370Y-125793972D01*
X127947861Y-125762160D01*
X127956007Y-125749714D01*
X127963244Y-125750471D01*
X127997851Y-125764235D01*
X128037078Y-125789546D01*
X128070448Y-125818845D01*
X128087483Y-125844572D01*
X128105192Y-125879471D01*
X128141485Y-125911212D01*
X128183630Y-125923886D01*
X128199077Y-125920221D01*
X128229569Y-125901774D01*
X128256128Y-125876166D01*
X128267486Y-125852934D01*
X128267482Y-125852848D01*
X128254596Y-125842179D01*
X128220241Y-125822933D01*
X128169593Y-125797813D01*
X128107829Y-125769524D01*
X128107489Y-125769374D01*
X128040388Y-125739498D01*
X127995411Y-125717973D01*
X127968145Y-125701437D01*
X127954178Y-125686531D01*
X127949097Y-125669893D01*
X127948490Y-125648162D01*
X127952711Y-125607013D01*
X128096000Y-125607013D01*
X128110791Y-125619949D01*
X128147644Y-125639333D01*
X128148725Y-125639881D01*
X128192205Y-125660587D01*
X128231102Y-125677105D01*
X128255778Y-125684093D01*
X128265676Y-125674753D01*
X128267486Y-125642748D01*
X128259966Y-125602915D01*
X128233897Y-125566717D01*
X128196154Y-125547950D01*
X128154077Y-125549845D01*
X128115005Y-125575632D01*
X128099647Y-125593451D01*
X128096000Y-125607013D01*
X127952711Y-125607013D01*
X127953833Y-125596086D01*
X127980251Y-125525335D01*
X128024473Y-125469735D01*
X128081697Y-125431239D01*
X128147120Y-125411797D01*
X128215937Y-125413359D01*
X128283347Y-125437878D01*
X128344544Y-125487302D01*
X128378450Y-125536212D01*
X128402806Y-125606027D01*
X128406767Y-125642748D01*
X128412299Y-125694055D01*
X128407684Y-125804078D01*
G36*
X126339483Y-125460569D02*
G01*
X126389376Y-125489661D01*
X126411325Y-125512327D01*
X126453504Y-125580082D01*
X126467714Y-125653950D01*
X126467714Y-125704770D01*
X126420999Y-125685128D01*
X126388692Y-125665308D01*
X126363231Y-125624160D01*
X126360616Y-125615675D01*
X126332478Y-125572451D01*
X126290067Y-125549103D01*
X126241370Y-125548100D01*
X126194373Y-125571914D01*
X126187357Y-125578056D01*
X126163893Y-125604745D01*
X126160019Y-125628014D01*
X126177768Y-125650862D01*
X126219179Y-125676287D01*
X126286286Y-125707288D01*
X126290824Y-125709252D01*
X126365322Y-125743990D01*
X126416203Y-125774763D01*
X126447525Y-125805488D01*
X126463343Y-125840082D01*
X126467714Y-125882462D01*
X126461986Y-125929446D01*
X126433062Y-125989585D01*
X126382178Y-126032788D01*
X126345374Y-126045759D01*
X126293434Y-126052856D01*
X126242999Y-126051340D01*
X126206983Y-126040632D01*
X126203158Y-126037966D01*
X126192998Y-126019337D01*
X126200048Y-125986505D01*
X126212297Y-125960735D01*
X126231939Y-125950006D01*
X126269191Y-125950539D01*
X126320908Y-125947462D01*
X126354701Y-125926212D01*
X126366114Y-125886877D01*
X126366104Y-125885747D01*
X126359187Y-125862913D01*
X126335659Y-125841963D01*
X126289914Y-125817815D01*
X126227704Y-125788741D01*
X126186499Y-125772925D01*
X126162712Y-125773944D01*
X126151597Y-125794837D01*
X126148408Y-125838641D01*
X126148400Y-125908393D01*
X126148044Y-125951452D01*
X126146413Y-126004626D01*
X126143761Y-126041022D01*
X126140422Y-126054514D01*
X126139530Y-126054423D01*
X126120237Y-126047110D01*
X126088284Y-126031678D01*
X126044124Y-126008842D01*
X126049371Y-125803078D01*
X126049736Y-125789432D01*
X126053904Y-125693651D01*
X126061268Y-125621462D01*
X126073330Y-125568058D01*
X126091593Y-125528633D01*
X126117560Y-125498380D01*
X126152733Y-125472493D01*
X126153384Y-125472087D01*
X126210256Y-125450968D01*
X126276033Y-125447400D01*
X126339483Y-125460569D01*
G37*
X126339483Y-125460569D02*
X126389376Y-125489661D01*
X126411325Y-125512327D01*
X126453504Y-125580082D01*
X126467714Y-125653950D01*
X126467714Y-125704770D01*
X126420999Y-125685128D01*
X126388692Y-125665308D01*
X126363231Y-125624160D01*
X126360616Y-125615675D01*
X126332478Y-125572451D01*
X126290067Y-125549103D01*
X126241370Y-125548100D01*
X126194373Y-125571914D01*
X126187357Y-125578056D01*
X126163893Y-125604745D01*
X126160019Y-125628014D01*
X126177768Y-125650862D01*
X126219179Y-125676287D01*
X126286286Y-125707288D01*
X126290824Y-125709252D01*
X126365322Y-125743990D01*
X126416203Y-125774763D01*
X126447525Y-125805488D01*
X126463343Y-125840082D01*
X126467714Y-125882462D01*
X126461986Y-125929446D01*
X126433062Y-125989585D01*
X126382178Y-126032788D01*
X126345374Y-126045759D01*
X126293434Y-126052856D01*
X126242999Y-126051340D01*
X126206983Y-126040632D01*
X126203158Y-126037966D01*
X126192998Y-126019337D01*
X126200048Y-125986505D01*
X126212297Y-125960735D01*
X126231939Y-125950006D01*
X126269191Y-125950539D01*
X126320908Y-125947462D01*
X126354701Y-125926212D01*
X126366114Y-125886877D01*
X126366104Y-125885747D01*
X126359187Y-125862913D01*
X126335659Y-125841963D01*
X126289914Y-125817815D01*
X126227704Y-125788741D01*
X126186499Y-125772925D01*
X126162712Y-125773944D01*
X126151597Y-125794837D01*
X126148408Y-125838641D01*
X126148400Y-125908393D01*
X126148044Y-125951452D01*
X126146413Y-126004626D01*
X126143761Y-126041022D01*
X126140422Y-126054514D01*
X126139530Y-126054423D01*
X126120237Y-126047110D01*
X126088284Y-126031678D01*
X126044124Y-126008842D01*
X126049371Y-125803078D01*
X126049736Y-125789432D01*
X126053904Y-125693651D01*
X126061268Y-125621462D01*
X126073330Y-125568058D01*
X126091593Y-125528633D01*
X126117560Y-125498380D01*
X126152733Y-125472493D01*
X126153384Y-125472087D01*
X126210256Y-125450968D01*
X126276033Y-125447400D01*
X126339483Y-125460569D01*
G36*
X125857691Y-125466467D02*
G01*
X125862273Y-125469003D01*
X125899704Y-125498057D01*
X125933170Y-125535410D01*
X125939007Y-125543852D01*
X125950165Y-125563553D01*
X125958136Y-125586935D01*
X125963618Y-125619067D01*
X125967307Y-125665019D01*
X125969899Y-125729859D01*
X125972092Y-125818657D01*
X125972402Y-125833669D01*
X125973400Y-125930999D01*
X125971994Y-125999934D01*
X125968164Y-126040948D01*
X125961889Y-126054514D01*
X125942898Y-126050452D01*
X125910638Y-126038144D01*
X125903041Y-126034545D01*
X125891176Y-126026398D01*
X125882994Y-126013004D01*
X125877643Y-125989608D01*
X125874269Y-125951455D01*
X125872019Y-125893790D01*
X125870040Y-125811857D01*
X125869498Y-125787907D01*
X125867403Y-125712266D01*
X125864683Y-125659328D01*
X125860515Y-125624075D01*
X125854079Y-125601487D01*
X125844550Y-125586544D01*
X125831106Y-125574227D01*
X125791305Y-125552634D01*
X125742341Y-125548476D01*
X125698529Y-125564999D01*
X125667008Y-125599210D01*
X125654914Y-125648114D01*
X125654578Y-125661407D01*
X125647972Y-125685472D01*
X125628470Y-125689144D01*
X125590283Y-125674813D01*
X125581438Y-125670217D01*
X125557534Y-125643186D01*
X125557061Y-125602994D01*
X125579836Y-125547409D01*
X125600727Y-125517117D01*
X125654142Y-125474084D01*
X125720074Y-125449755D01*
X125790574Y-125446443D01*
X125857691Y-125466467D01*
G37*
X125857691Y-125466467D02*
X125862273Y-125469003D01*
X125899704Y-125498057D01*
X125933170Y-125535410D01*
X125939007Y-125543852D01*
X125950165Y-125563553D01*
X125958136Y-125586935D01*
X125963618Y-125619067D01*
X125967307Y-125665019D01*
X125969899Y-125729859D01*
X125972092Y-125818657D01*
X125972402Y-125833669D01*
X125973400Y-125930999D01*
X125971994Y-125999934D01*
X125968164Y-126040948D01*
X125961889Y-126054514D01*
X125942898Y-126050452D01*
X125910638Y-126038144D01*
X125903041Y-126034545D01*
X125891176Y-126026398D01*
X125882994Y-126013004D01*
X125877643Y-125989608D01*
X125874269Y-125951455D01*
X125872019Y-125893790D01*
X125870040Y-125811857D01*
X125869498Y-125787907D01*
X125867403Y-125712266D01*
X125864683Y-125659328D01*
X125860515Y-125624075D01*
X125854079Y-125601487D01*
X125844550Y-125586544D01*
X125831106Y-125574227D01*
X125791305Y-125552634D01*
X125742341Y-125548476D01*
X125698529Y-125564999D01*
X125667008Y-125599210D01*
X125654914Y-125648114D01*
X125654578Y-125661407D01*
X125647972Y-125685472D01*
X125628470Y-125689144D01*
X125590283Y-125674813D01*
X125581438Y-125670217D01*
X125557534Y-125643186D01*
X125557061Y-125602994D01*
X125579836Y-125547409D01*
X125600727Y-125517117D01*
X125654142Y-125474084D01*
X125720074Y-125449755D01*
X125790574Y-125446443D01*
X125857691Y-125466467D01*
G36*
X128961252Y-125913000D02*
G01*
X128961651Y-125945339D01*
X128962929Y-126053455D01*
X128963185Y-126136186D01*
X128961634Y-126196426D01*
X128957490Y-126237073D01*
X128949964Y-126261023D01*
X128938271Y-126271171D01*
X128921624Y-126270414D01*
X128899236Y-126261648D01*
X128870321Y-126247769D01*
X128864142Y-126244808D01*
X128838413Y-126230311D01*
X128824976Y-126213065D01*
X128819834Y-126184308D01*
X128818990Y-126135283D01*
X128818952Y-126047257D01*
X128728276Y-126047257D01*
X128672498Y-126044815D01*
X128628640Y-126034908D01*
X128592218Y-126014886D01*
X128589503Y-126012929D01*
X128552546Y-125979869D01*
X128526826Y-125939931D01*
X128510606Y-125887657D01*
X128502148Y-125817588D01*
X128500084Y-125738430D01*
X128644857Y-125738430D01*
X128644882Y-125751697D01*
X128646261Y-125811584D01*
X128650687Y-125850732D01*
X128659461Y-125876153D01*
X128673886Y-125894857D01*
X128674784Y-125895750D01*
X128710237Y-125919952D01*
X128744596Y-125917567D01*
X128783403Y-125888260D01*
X128792895Y-125878244D01*
X128806876Y-125857708D01*
X128814760Y-125830997D01*
X128818245Y-125790499D01*
X128819029Y-125728603D01*
X128818350Y-125691130D01*
X128810983Y-125622980D01*
X128794168Y-125578330D01*
X128766234Y-125553926D01*
X128725509Y-125546514D01*
X128708350Y-125548094D01*
X128678660Y-125563766D01*
X128659031Y-125598691D01*
X128648188Y-125655901D01*
X128644857Y-125738430D01*
X128500084Y-125738430D01*
X128499714Y-125724267D01*
X128500253Y-125656169D01*
X128502707Y-125604587D01*
X128508158Y-125568816D01*
X128517686Y-125542015D01*
X128532371Y-125517338D01*
X128545852Y-125498480D01*
X128594799Y-125447568D01*
X128650256Y-125419918D01*
X128719928Y-125411165D01*
X128799664Y-125419890D01*
X128868595Y-125451185D01*
X128923113Y-125506381D01*
X128927223Y-125512224D01*
X128936808Y-125527753D01*
X128944151Y-125545498D01*
X128949612Y-125569290D01*
X128953550Y-125602958D01*
X128956323Y-125650333D01*
X128958292Y-125715245D01*
X128958528Y-125728603D01*
X128959815Y-125801524D01*
X128961252Y-125913000D01*
G37*
X128961252Y-125913000D02*
X128961651Y-125945339D01*
X128962929Y-126053455D01*
X128963185Y-126136186D01*
X128961634Y-126196426D01*
X128957490Y-126237073D01*
X128949964Y-126261023D01*
X128938271Y-126271171D01*
X128921624Y-126270414D01*
X128899236Y-126261648D01*
X128870321Y-126247769D01*
X128864142Y-126244808D01*
X128838413Y-126230311D01*
X128824976Y-126213065D01*
X128819834Y-126184308D01*
X128818990Y-126135283D01*
X128818952Y-126047257D01*
X128728276Y-126047257D01*
X128672498Y-126044815D01*
X128628640Y-126034908D01*
X128592218Y-126014886D01*
X128589503Y-126012929D01*
X128552546Y-125979869D01*
X128526826Y-125939931D01*
X128510606Y-125887657D01*
X128502148Y-125817588D01*
X128500084Y-125738430D01*
X128644857Y-125738430D01*
X128644882Y-125751697D01*
X128646261Y-125811584D01*
X128650687Y-125850732D01*
X128659461Y-125876153D01*
X128673886Y-125894857D01*
X128674784Y-125895750D01*
X128710237Y-125919952D01*
X128744596Y-125917567D01*
X128783403Y-125888260D01*
X128792895Y-125878244D01*
X128806876Y-125857708D01*
X128814760Y-125830997D01*
X128818245Y-125790499D01*
X128819029Y-125728603D01*
X128818350Y-125691130D01*
X128810983Y-125622980D01*
X128794168Y-125578330D01*
X128766234Y-125553926D01*
X128725509Y-125546514D01*
X128708350Y-125548094D01*
X128678660Y-125563766D01*
X128659031Y-125598691D01*
X128648188Y-125655901D01*
X128644857Y-125738430D01*
X128500084Y-125738430D01*
X128499714Y-125724267D01*
X128500253Y-125656169D01*
X128502707Y-125604587D01*
X128508158Y-125568816D01*
X128517686Y-125542015D01*
X128532371Y-125517338D01*
X128545852Y-125498480D01*
X128594799Y-125447568D01*
X128650256Y-125419918D01*
X128719928Y-125411165D01*
X128799664Y-125419890D01*
X128868595Y-125451185D01*
X128923113Y-125506381D01*
X128927223Y-125512224D01*
X128936808Y-125527753D01*
X128944151Y-125545498D01*
X128949612Y-125569290D01*
X128953550Y-125602958D01*
X128956323Y-125650333D01*
X128958292Y-125715245D01*
X128958528Y-125728603D01*
X128959815Y-125801524D01*
X128961252Y-125913000D01*
G36*
X129515701Y-125750935D02*
G01*
X129514914Y-125821119D01*
X129512210Y-125870022D01*
X129506606Y-125904178D01*
X129497119Y-125930124D01*
X129482768Y-125954397D01*
X129479237Y-125959433D01*
X129441878Y-125999143D01*
X129399311Y-126029092D01*
X129377452Y-126038810D01*
X129298908Y-126055020D01*
X129221231Y-126044535D01*
X129149645Y-126008707D01*
X129089374Y-125948887D01*
X129084286Y-125940873D01*
X129067730Y-125894342D01*
X129056573Y-125829552D01*
X129051160Y-125754727D01*
X129051767Y-125685513D01*
X129198248Y-125685513D01*
X129199402Y-125781399D01*
X129199866Y-125787569D01*
X129206629Y-125840478D01*
X129218671Y-125874029D01*
X129239005Y-125897016D01*
X129273097Y-125918548D01*
X129306814Y-125919680D01*
X129341543Y-125894857D01*
X129347584Y-125888325D01*
X129359417Y-125868779D01*
X129366404Y-125840386D01*
X129369727Y-125796430D01*
X129370571Y-125730192D01*
X129369125Y-125668150D01*
X129361907Y-125609042D01*
X129347006Y-125571686D01*
X129322636Y-125552152D01*
X129287008Y-125546514D01*
X129273440Y-125547635D01*
X129235430Y-125568194D01*
X129210312Y-125614299D01*
X129198248Y-125685513D01*
X129051767Y-125685513D01*
X129051833Y-125678096D01*
X129058937Y-125607882D01*
X129072815Y-125552312D01*
X129090649Y-125515301D01*
X129140855Y-125457733D01*
X129208885Y-125421962D01*
X129292158Y-125409665D01*
X129314398Y-125410331D01*
X129379891Y-125423947D01*
X129433687Y-125458249D01*
X129483057Y-125517338D01*
X129485995Y-125521722D01*
X129499287Y-125545299D01*
X129507932Y-125571949D01*
X129512904Y-125608159D01*
X129515174Y-125660413D01*
X129515678Y-125730192D01*
X129515714Y-125735200D01*
X129515701Y-125750935D01*
G37*
X129515701Y-125750935D02*
X129514914Y-125821119D01*
X129512210Y-125870022D01*
X129506606Y-125904178D01*
X129497119Y-125930124D01*
X129482768Y-125954397D01*
X129479237Y-125959433D01*
X129441878Y-125999143D01*
X129399311Y-126029092D01*
X129377452Y-126038810D01*
X129298908Y-126055020D01*
X129221231Y-126044535D01*
X129149645Y-126008707D01*
X129089374Y-125948887D01*
X129084286Y-125940873D01*
X129067730Y-125894342D01*
X129056573Y-125829552D01*
X129051160Y-125754727D01*
X129051767Y-125685513D01*
X129198248Y-125685513D01*
X129199402Y-125781399D01*
X129199866Y-125787569D01*
X129206629Y-125840478D01*
X129218671Y-125874029D01*
X129239005Y-125897016D01*
X129273097Y-125918548D01*
X129306814Y-125919680D01*
X129341543Y-125894857D01*
X129347584Y-125888325D01*
X129359417Y-125868779D01*
X129366404Y-125840386D01*
X129369727Y-125796430D01*
X129370571Y-125730192D01*
X129369125Y-125668150D01*
X129361907Y-125609042D01*
X129347006Y-125571686D01*
X129322636Y-125552152D01*
X129287008Y-125546514D01*
X129273440Y-125547635D01*
X129235430Y-125568194D01*
X129210312Y-125614299D01*
X129198248Y-125685513D01*
X129051767Y-125685513D01*
X129051833Y-125678096D01*
X129058937Y-125607882D01*
X129072815Y-125552312D01*
X129090649Y-125515301D01*
X129140855Y-125457733D01*
X129208885Y-125421962D01*
X129292158Y-125409665D01*
X129314398Y-125410331D01*
X129379891Y-125423947D01*
X129433687Y-125458249D01*
X129483057Y-125517338D01*
X129485995Y-125521722D01*
X129499287Y-125545299D01*
X129507932Y-125571949D01*
X129512904Y-125608159D01*
X129515174Y-125660413D01*
X129515678Y-125730192D01*
X129515714Y-125735200D01*
X129515701Y-125750935D01*
G36*
X127681020Y-125417822D02*
G01*
X127748810Y-125449680D01*
X127804366Y-125504770D01*
X127815881Y-125522016D01*
X127825432Y-125541562D01*
X127832206Y-125566198D01*
X127836819Y-125600711D01*
X127839888Y-125649889D01*
X127842029Y-125718519D01*
X127843859Y-125811389D01*
X127848404Y-126069007D01*
X127810225Y-126054491D01*
X127775268Y-126041156D01*
X127749097Y-126028323D01*
X127732013Y-126011780D01*
X127722086Y-125986465D01*
X127717386Y-125947316D01*
X127715982Y-125889268D01*
X127715943Y-125807261D01*
X127715744Y-125741895D01*
X127714559Y-125679173D01*
X127711729Y-125636334D01*
X127706609Y-125608220D01*
X127698553Y-125589675D01*
X127686914Y-125575543D01*
X127658303Y-125555600D01*
X127610239Y-125548083D01*
X127562688Y-125567079D01*
X127559550Y-125569511D01*
X127549769Y-125580748D01*
X127542553Y-125598770D01*
X127537299Y-125628026D01*
X127533402Y-125672962D01*
X127530256Y-125738028D01*
X127527257Y-125827670D01*
X127520000Y-126067697D01*
X127458314Y-126040044D01*
X127396629Y-126012391D01*
X127396629Y-125793246D01*
X127396884Y-125733711D01*
X127399086Y-125650892D01*
X127404661Y-125589227D01*
X127414941Y-125543748D01*
X127431258Y-125509484D01*
X127454943Y-125481466D01*
X127487328Y-125454723D01*
X127533907Y-125427780D01*
X127607287Y-125410191D01*
X127681020Y-125417822D01*
G37*
X127681020Y-125417822D02*
X127748810Y-125449680D01*
X127804366Y-125504770D01*
X127815881Y-125522016D01*
X127825432Y-125541562D01*
X127832206Y-125566198D01*
X127836819Y-125600711D01*
X127839888Y-125649889D01*
X127842029Y-125718519D01*
X127843859Y-125811389D01*
X127848404Y-126069007D01*
X127810225Y-126054491D01*
X127775268Y-126041156D01*
X127749097Y-126028323D01*
X127732013Y-126011780D01*
X127722086Y-125986465D01*
X127717386Y-125947316D01*
X127715982Y-125889268D01*
X127715943Y-125807261D01*
X127715744Y-125741895D01*
X127714559Y-125679173D01*
X127711729Y-125636334D01*
X127706609Y-125608220D01*
X127698553Y-125589675D01*
X127686914Y-125575543D01*
X127658303Y-125555600D01*
X127610239Y-125548083D01*
X127562688Y-125567079D01*
X127559550Y-125569511D01*
X127549769Y-125580748D01*
X127542553Y-125598770D01*
X127537299Y-125628026D01*
X127533402Y-125672962D01*
X127530256Y-125738028D01*
X127527257Y-125827670D01*
X127520000Y-126067697D01*
X127458314Y-126040044D01*
X127396629Y-126012391D01*
X127396629Y-125793246D01*
X127396884Y-125733711D01*
X127399086Y-125650892D01*
X127404661Y-125589227D01*
X127414941Y-125543748D01*
X127431258Y-125509484D01*
X127454943Y-125481466D01*
X127487328Y-125454723D01*
X127533907Y-125427780D01*
X127607287Y-125410191D01*
X127681020Y-125417822D01*
G36*
X123390307Y-125791305D02*
G01*
X123386762Y-125867521D01*
X123377483Y-125923294D01*
X123360375Y-125964613D01*
X123333344Y-125997467D01*
X123294292Y-126027846D01*
X123269445Y-126041660D01*
X123229615Y-126050965D01*
X123173665Y-126050230D01*
X123142385Y-126047283D01*
X123104653Y-126038283D01*
X123074494Y-126018720D01*
X123039408Y-125982267D01*
X123034720Y-125976943D01*
X123003177Y-125935969D01*
X122988128Y-125900283D01*
X122984286Y-125857966D01*
X122984286Y-125795779D01*
X123027742Y-125812182D01*
X123059424Y-125831356D01*
X123086962Y-125876347D01*
X123092711Y-125890752D01*
X123124855Y-125931546D01*
X123168611Y-125952081D01*
X123216254Y-125950235D01*
X123260057Y-125923886D01*
X123275111Y-125907455D01*
X123288763Y-125882667D01*
X123284493Y-125860144D01*
X123259916Y-125836964D01*
X123212651Y-125810202D01*
X123140314Y-125776934D01*
X122991543Y-125711816D01*
X122987595Y-125647308D01*
X122989079Y-125606220D01*
X123086010Y-125606220D01*
X123093368Y-125631657D01*
X123126848Y-125658814D01*
X123187614Y-125689714D01*
X123197669Y-125694190D01*
X123245751Y-125715017D01*
X123281726Y-125729665D01*
X123298444Y-125735200D01*
X123300977Y-125731126D01*
X123301993Y-125706247D01*
X123298369Y-125666257D01*
X123289242Y-125627152D01*
X123260773Y-125577884D01*
X123219678Y-125550122D01*
X123170590Y-125546364D01*
X123118144Y-125569109D01*
X123103609Y-125580481D01*
X123086010Y-125606220D01*
X122989079Y-125606220D01*
X122989338Y-125599064D01*
X123011281Y-125538096D01*
X123038979Y-125504497D01*
X123096405Y-125466966D01*
X123164527Y-125448006D01*
X123234947Y-125449507D01*
X123299267Y-125473355D01*
X123313426Y-125482513D01*
X123345904Y-125510849D01*
X123368116Y-125546695D01*
X123381804Y-125595384D01*
X123388715Y-125662249D01*
X123389628Y-125706247D01*
X123390590Y-125752622D01*
X123390307Y-125791305D01*
G37*
X123390307Y-125791305D02*
X123386762Y-125867521D01*
X123377483Y-125923294D01*
X123360375Y-125964613D01*
X123333344Y-125997467D01*
X123294292Y-126027846D01*
X123269445Y-126041660D01*
X123229615Y-126050965D01*
X123173665Y-126050230D01*
X123142385Y-126047283D01*
X123104653Y-126038283D01*
X123074494Y-126018720D01*
X123039408Y-125982267D01*
X123034720Y-125976943D01*
X123003177Y-125935969D01*
X122988128Y-125900283D01*
X122984286Y-125857966D01*
X122984286Y-125795779D01*
X123027742Y-125812182D01*
X123059424Y-125831356D01*
X123086962Y-125876347D01*
X123092711Y-125890752D01*
X123124855Y-125931546D01*
X123168611Y-125952081D01*
X123216254Y-125950235D01*
X123260057Y-125923886D01*
X123275111Y-125907455D01*
X123288763Y-125882667D01*
X123284493Y-125860144D01*
X123259916Y-125836964D01*
X123212651Y-125810202D01*
X123140314Y-125776934D01*
X122991543Y-125711816D01*
X122987595Y-125647308D01*
X122989079Y-125606220D01*
X123086010Y-125606220D01*
X123093368Y-125631657D01*
X123126848Y-125658814D01*
X123187614Y-125689714D01*
X123197669Y-125694190D01*
X123245751Y-125715017D01*
X123281726Y-125729665D01*
X123298444Y-125735200D01*
X123300977Y-125731126D01*
X123301993Y-125706247D01*
X123298369Y-125666257D01*
X123289242Y-125627152D01*
X123260773Y-125577884D01*
X123219678Y-125550122D01*
X123170590Y-125546364D01*
X123118144Y-125569109D01*
X123103609Y-125580481D01*
X123086010Y-125606220D01*
X122989079Y-125606220D01*
X122989338Y-125599064D01*
X123011281Y-125538096D01*
X123038979Y-125504497D01*
X123096405Y-125466966D01*
X123164527Y-125448006D01*
X123234947Y-125449507D01*
X123299267Y-125473355D01*
X123313426Y-125482513D01*
X123345904Y-125510849D01*
X123368116Y-125546695D01*
X123381804Y-125595384D01*
X123388715Y-125662249D01*
X123389628Y-125706247D01*
X123390590Y-125752622D01*
X123390307Y-125791305D01*
G36*
X124217495Y-125446220D02*
G01*
X124248599Y-125454121D01*
X124277559Y-125473817D01*
X124314831Y-125510484D01*
X124338801Y-125536378D01*
X124363770Y-125569997D01*
X124375031Y-125601506D01*
X124377657Y-125641485D01*
X124377657Y-125706917D01*
X124333035Y-125683842D01*
X124297673Y-125655724D01*
X124273451Y-125617848D01*
X124269291Y-125607551D01*
X124237594Y-125567637D01*
X124193554Y-125547624D01*
X124145531Y-125549572D01*
X124101886Y-125575543D01*
X124083420Y-125596635D01*
X124072663Y-125623619D01*
X124084178Y-125647634D01*
X124119981Y-125671791D01*
X124182090Y-125699199D01*
X124191515Y-125702985D01*
X124248058Y-125727759D01*
X124296580Y-125752189D01*
X124327451Y-125771486D01*
X124358371Y-125805953D01*
X124378927Y-125860957D01*
X124376744Y-125919983D01*
X124352424Y-125975845D01*
X124306568Y-126021355D01*
X124269438Y-126040727D01*
X124197711Y-126054292D01*
X124157852Y-126052462D01*
X124120953Y-126042568D01*
X124106797Y-126021806D01*
X124112091Y-125987613D01*
X124113631Y-125983092D01*
X124125842Y-125959116D01*
X124146174Y-125950042D01*
X124184908Y-125950649D01*
X124212257Y-125951474D01*
X124244257Y-125944392D01*
X124266182Y-125923219D01*
X124278670Y-125897152D01*
X124280062Y-125869845D01*
X124279998Y-125869685D01*
X124263807Y-125854930D01*
X124229155Y-125833457D01*
X124184321Y-125809458D01*
X124137582Y-125787125D01*
X124097217Y-125770652D01*
X124071504Y-125764229D01*
X124067679Y-125770518D01*
X124062864Y-125800115D01*
X124059566Y-125848447D01*
X124058343Y-125909372D01*
X124058058Y-125951542D01*
X124056718Y-126004653D01*
X124054528Y-126041025D01*
X124051769Y-126054514D01*
X124037344Y-126049981D01*
X124008226Y-126037670D01*
X123971257Y-126020826D01*
X123971257Y-125804721D01*
X123971493Y-125749327D01*
X123973729Y-125665207D01*
X123979423Y-125602800D01*
X123989903Y-125557358D01*
X124006497Y-125524133D01*
X124030531Y-125498378D01*
X124063333Y-125475344D01*
X124105124Y-125456335D01*
X124182287Y-125444914D01*
X124217495Y-125446220D01*
G37*
X124217495Y-125446220D02*
X124248599Y-125454121D01*
X124277559Y-125473817D01*
X124314831Y-125510484D01*
X124338801Y-125536378D01*
X124363770Y-125569997D01*
X124375031Y-125601506D01*
X124377657Y-125641485D01*
X124377657Y-125706917D01*
X124333035Y-125683842D01*
X124297673Y-125655724D01*
X124273451Y-125617848D01*
X124269291Y-125607551D01*
X124237594Y-125567637D01*
X124193554Y-125547624D01*
X124145531Y-125549572D01*
X124101886Y-125575543D01*
X124083420Y-125596635D01*
X124072663Y-125623619D01*
X124084178Y-125647634D01*
X124119981Y-125671791D01*
X124182090Y-125699199D01*
X124191515Y-125702985D01*
X124248058Y-125727759D01*
X124296580Y-125752189D01*
X124327451Y-125771486D01*
X124358371Y-125805953D01*
X124378927Y-125860957D01*
X124376744Y-125919983D01*
X124352424Y-125975845D01*
X124306568Y-126021355D01*
X124269438Y-126040727D01*
X124197711Y-126054292D01*
X124157852Y-126052462D01*
X124120953Y-126042568D01*
X124106797Y-126021806D01*
X124112091Y-125987613D01*
X124113631Y-125983092D01*
X124125842Y-125959116D01*
X124146174Y-125950042D01*
X124184908Y-125950649D01*
X124212257Y-125951474D01*
X124244257Y-125944392D01*
X124266182Y-125923219D01*
X124278670Y-125897152D01*
X124280062Y-125869845D01*
X124279998Y-125869685D01*
X124263807Y-125854930D01*
X124229155Y-125833457D01*
X124184321Y-125809458D01*
X124137582Y-125787125D01*
X124097217Y-125770652D01*
X124071504Y-125764229D01*
X124067679Y-125770518D01*
X124062864Y-125800115D01*
X124059566Y-125848447D01*
X124058343Y-125909372D01*
X124058058Y-125951542D01*
X124056718Y-126004653D01*
X124054528Y-126041025D01*
X124051769Y-126054514D01*
X124037344Y-126049981D01*
X124008226Y-126037670D01*
X123971257Y-126020826D01*
X123971257Y-125804721D01*
X123971493Y-125749327D01*
X123973729Y-125665207D01*
X123979423Y-125602800D01*
X123989903Y-125557358D01*
X124006497Y-125524133D01*
X124030531Y-125498378D01*
X124063333Y-125475344D01*
X124105124Y-125456335D01*
X124182287Y-125444914D01*
X124217495Y-125446220D01*
D12*
X99700000Y-125500000D02*
G75*
G03*
X99700000Y-125500000I-700000J0D01*
G01*
X92200000Y-125500000D02*
G75*
G03*
X92200000Y-125500000I-700000J0D01*
G01*
X111700000Y-124500000D02*
G75*
G03*
X111700000Y-124500000I-700000J0D01*
G01*
X106200000Y-124500000D02*
G75*
G03*
X106200000Y-124500000I-700000J0D01*
G01*
X131900000Y-131000000D02*
X129100000Y-131000000D01*
X129100000Y-133000000D02*
X131900000Y-133000000D01*
X129100000Y-131000000D02*
X129100000Y-133000000D01*
X131900000Y-133000000D02*
X131900000Y-131000000D01*
M02*
