G04 #@! TF.GenerationSoftware,KiCad,Pcbnew,(2018-02-15 revision 29b28de31)-makepkg*
G04 #@! TF.CreationDate,2019-12-21T00:19:12+11:00*
G04 #@! TF.ProjectId,Tph_Synth_Featherwing,5470685F53796E74685F466561746865,rev?*
G04 #@! TF.SameCoordinates,Original*
G04 #@! TF.FileFunction,Soldermask,Bot*
G04 #@! TF.FilePolarity,Negative*
%FSLAX46Y46*%
G04 Gerber Fmt 4.6, Leading zero omitted, Abs format (unit mm)*
G04 Created by KiCad (PCBNEW (2018-02-15 revision 29b28de31)-makepkg) date 12/21/19 00:19:12*
%MOMM*%
%LPD*%
G01*
G04 APERTURE LIST*
%ADD10C,0.700000*%
%ADD11C,0.100000*%
%ADD12C,2.100000*%
%ADD13C,1.840000*%
%ADD14C,5.000000*%
%ADD15C,2.200000*%
%ADD16C,1.400000*%
%ADD17C,2.178000*%
%ADD18C,4.210000*%
%ADD19C,2.899360*%
G04 APERTURE END LIST*
D10*
X115775000Y-91500000D03*
D11*
G36*
X115275000Y-90750000D02*
X116425000Y-90750000D01*
X116125000Y-91200000D01*
X116125000Y-91800000D01*
X116425000Y-92250000D01*
X115275000Y-92250000D01*
X115275000Y-90750000D01*
X115275000Y-90750000D01*
G37*
D10*
X117225000Y-91500000D03*
D11*
G36*
X116225000Y-91500000D02*
X116725000Y-90750000D01*
X117725000Y-90750000D01*
X117725000Y-92250000D01*
X116725000Y-92250000D01*
X116225000Y-91500000D01*
X116225000Y-91500000D01*
G37*
D12*
X134500000Y-94000000D03*
X127500000Y-94000000D03*
D11*
G36*
X125771447Y-103951487D02*
X125801425Y-103955934D01*
X125830824Y-103963298D01*
X125859358Y-103973508D01*
X125886755Y-103986465D01*
X125912750Y-104002046D01*
X125937092Y-104020100D01*
X125959548Y-104040452D01*
X125979900Y-104062908D01*
X125997954Y-104087250D01*
X126013535Y-104113245D01*
X126026492Y-104140642D01*
X126036702Y-104169176D01*
X126044066Y-104198575D01*
X126048513Y-104228553D01*
X126050000Y-104258823D01*
X126050000Y-105741177D01*
X126048513Y-105771447D01*
X126044066Y-105801425D01*
X126036702Y-105830824D01*
X126026492Y-105859358D01*
X126013535Y-105886755D01*
X125997954Y-105912750D01*
X125979900Y-105937092D01*
X125959548Y-105959548D01*
X125937092Y-105979900D01*
X125912750Y-105997954D01*
X125886755Y-106013535D01*
X125859358Y-106026492D01*
X125830824Y-106036702D01*
X125801425Y-106044066D01*
X125771447Y-106048513D01*
X125741177Y-106050000D01*
X124258823Y-106050000D01*
X124228553Y-106048513D01*
X124198575Y-106044066D01*
X124169176Y-106036702D01*
X124140642Y-106026492D01*
X124113245Y-106013535D01*
X124087250Y-105997954D01*
X124062908Y-105979900D01*
X124040452Y-105959548D01*
X124020100Y-105937092D01*
X124002046Y-105912750D01*
X123986465Y-105886755D01*
X123973508Y-105859358D01*
X123963298Y-105830824D01*
X123955934Y-105801425D01*
X123951487Y-105771447D01*
X123950000Y-105741177D01*
X123950000Y-104258823D01*
X123951487Y-104228553D01*
X123955934Y-104198575D01*
X123963298Y-104169176D01*
X123973508Y-104140642D01*
X123986465Y-104113245D01*
X124002046Y-104087250D01*
X124020100Y-104062908D01*
X124040452Y-104040452D01*
X124062908Y-104020100D01*
X124087250Y-104002046D01*
X124113245Y-103986465D01*
X124140642Y-103973508D01*
X124169176Y-103963298D01*
X124198575Y-103955934D01*
X124228553Y-103951487D01*
X124258823Y-103950000D01*
X125741177Y-103950000D01*
X125771447Y-103951487D01*
X125771447Y-103951487D01*
G37*
D12*
X125000000Y-105000000D03*
X125000000Y-107500000D03*
X127500000Y-105000000D03*
X127500000Y-107500000D03*
X134680000Y-105000000D03*
X134680000Y-107500000D03*
D10*
X129775000Y-132000000D03*
D11*
G36*
X129275000Y-131250000D02*
X130425000Y-131250000D01*
X130125000Y-131700000D01*
X130125000Y-132300000D01*
X130425000Y-132750000D01*
X129275000Y-132750000D01*
X129275000Y-131250000D01*
X129275000Y-131250000D01*
G37*
D10*
X131225000Y-132000000D03*
D11*
G36*
X130225000Y-132000000D02*
X130725000Y-131250000D01*
X131725000Y-131250000D01*
X131725000Y-132750000D01*
X130725000Y-132750000D01*
X130225000Y-132000000D01*
X130225000Y-132000000D01*
G37*
D13*
X112000000Y-104000000D03*
X109460000Y-104000000D03*
X106920000Y-104000000D03*
D14*
X132000000Y-83800000D03*
X122000000Y-83800000D03*
D15*
X129500000Y-80500000D03*
X127000000Y-80500000D03*
X124500000Y-80500000D03*
X89500000Y-91000000D03*
X89500000Y-88500000D03*
X89500000Y-86000000D03*
D14*
X92800000Y-93500000D03*
X92800000Y-83500000D03*
X111750000Y-83800000D03*
X101750000Y-83800000D03*
D15*
X109250000Y-80500000D03*
X106750000Y-80500000D03*
X104250000Y-80500000D03*
X89500000Y-107000000D03*
X89500000Y-104500000D03*
X89500000Y-102000000D03*
D14*
X92800000Y-109500000D03*
X92800000Y-99500000D03*
D16*
X105500000Y-124500000D03*
X111000000Y-124500000D03*
X91500000Y-125500000D03*
X99000000Y-125500000D03*
D17*
X93300000Y-135230000D03*
X95840000Y-135230000D03*
X98380000Y-135230000D03*
X100920000Y-135230000D03*
X103460000Y-135230000D03*
X106000000Y-135230000D03*
X108540000Y-135230000D03*
X111080000Y-135230000D03*
X113620000Y-135230000D03*
X116160000Y-135230000D03*
X118700000Y-135230000D03*
X121240000Y-135230000D03*
X123780000Y-135230000D03*
X126320000Y-135230000D03*
X128860000Y-135230000D03*
X131400000Y-135230000D03*
X131400000Y-114910000D03*
X128860000Y-114910000D03*
X126320000Y-114910000D03*
X123780000Y-114910000D03*
X121240000Y-114910000D03*
X118700000Y-114910000D03*
X116160000Y-114910000D03*
X113620000Y-114910000D03*
X111080000Y-114910000D03*
X108540000Y-114910000D03*
X106000000Y-114910000D03*
X103460000Y-114910000D03*
D18*
X89490000Y-116180000D03*
X89490000Y-133960000D03*
D19*
X135210000Y-116180000D03*
X135210000Y-133960000D03*
M02*
