G04 #@! TF.GenerationSoftware,KiCad,Pcbnew,(2018-02-15 revision 29b28de31)-makepkg*
G04 #@! TF.CreationDate,2019-12-21T00:19:12+11:00*
G04 #@! TF.ProjectId,Tph_Synth_Featherwing,5470685F53796E74685F466561746865,rev?*
G04 #@! TF.SameCoordinates,Original*
G04 #@! TF.FileFunction,Soldermask,Top*
G04 #@! TF.FilePolarity,Negative*
%FSLAX46Y46*%
G04 Gerber Fmt 4.6, Leading zero omitted, Abs format (unit mm)*
G04 Created by KiCad (PCBNEW (2018-02-15 revision 29b28de31)-makepkg) date 12/21/19 00:19:12*
%MOMM*%
%LPD*%
G01*
G04 APERTURE LIST*
%ADD10C,0.100000*%
%ADD11C,1.375000*%
%ADD12R,3.200000X3.400000*%
%ADD13C,1.275000*%
%ADD14R,2.600000X3.200000*%
%ADD15R,3.200000X3.200000*%
%ADD16C,2.100000*%
%ADD17R,2.900000X2.700000*%
%ADD18R,0.700000X1.800000*%
%ADD19R,1.850000X0.850000*%
%ADD20C,1.000000*%
%ADD21C,1.840000*%
%ADD22C,5.000000*%
%ADD23C,2.200000*%
%ADD24C,1.400000*%
%ADD25C,2.178000*%
%ADD26C,4.210000*%
%ADD27C,2.899360*%
G04 APERTURE END LIST*
D10*
G36*
X115939943Y-88101655D02*
X115973312Y-88106605D01*
X116006035Y-88114802D01*
X116037797Y-88126166D01*
X116068293Y-88140590D01*
X116097227Y-88157932D01*
X116124323Y-88178028D01*
X116149318Y-88200682D01*
X116171972Y-88225677D01*
X116192068Y-88252773D01*
X116209410Y-88281707D01*
X116223834Y-88312203D01*
X116235198Y-88343965D01*
X116243395Y-88376688D01*
X116248345Y-88410057D01*
X116250000Y-88443750D01*
X116250000Y-89556250D01*
X116248345Y-89589943D01*
X116243395Y-89623312D01*
X116235198Y-89656035D01*
X116223834Y-89687797D01*
X116209410Y-89718293D01*
X116192068Y-89747227D01*
X116171972Y-89774323D01*
X116149318Y-89799318D01*
X116124323Y-89821972D01*
X116097227Y-89842068D01*
X116068293Y-89859410D01*
X116037797Y-89873834D01*
X116006035Y-89885198D01*
X115973312Y-89893395D01*
X115939943Y-89898345D01*
X115906250Y-89900000D01*
X115218750Y-89900000D01*
X115185057Y-89898345D01*
X115151688Y-89893395D01*
X115118965Y-89885198D01*
X115087203Y-89873834D01*
X115056707Y-89859410D01*
X115027773Y-89842068D01*
X115000677Y-89821972D01*
X114975682Y-89799318D01*
X114953028Y-89774323D01*
X114932932Y-89747227D01*
X114915590Y-89718293D01*
X114901166Y-89687797D01*
X114889802Y-89656035D01*
X114881605Y-89623312D01*
X114876655Y-89589943D01*
X114875000Y-89556250D01*
X114875000Y-88443750D01*
X114876655Y-88410057D01*
X114881605Y-88376688D01*
X114889802Y-88343965D01*
X114901166Y-88312203D01*
X114915590Y-88281707D01*
X114932932Y-88252773D01*
X114953028Y-88225677D01*
X114975682Y-88200682D01*
X115000677Y-88178028D01*
X115027773Y-88157932D01*
X115056707Y-88140590D01*
X115087203Y-88126166D01*
X115118965Y-88114802D01*
X115151688Y-88106605D01*
X115185057Y-88101655D01*
X115218750Y-88100000D01*
X115906250Y-88100000D01*
X115939943Y-88101655D01*
X115939943Y-88101655D01*
G37*
D11*
X115562500Y-89000000D03*
D10*
G36*
X117814943Y-88101655D02*
X117848312Y-88106605D01*
X117881035Y-88114802D01*
X117912797Y-88126166D01*
X117943293Y-88140590D01*
X117972227Y-88157932D01*
X117999323Y-88178028D01*
X118024318Y-88200682D01*
X118046972Y-88225677D01*
X118067068Y-88252773D01*
X118084410Y-88281707D01*
X118098834Y-88312203D01*
X118110198Y-88343965D01*
X118118395Y-88376688D01*
X118123345Y-88410057D01*
X118125000Y-88443750D01*
X118125000Y-89556250D01*
X118123345Y-89589943D01*
X118118395Y-89623312D01*
X118110198Y-89656035D01*
X118098834Y-89687797D01*
X118084410Y-89718293D01*
X118067068Y-89747227D01*
X118046972Y-89774323D01*
X118024318Y-89799318D01*
X117999323Y-89821972D01*
X117972227Y-89842068D01*
X117943293Y-89859410D01*
X117912797Y-89873834D01*
X117881035Y-89885198D01*
X117848312Y-89893395D01*
X117814943Y-89898345D01*
X117781250Y-89900000D01*
X117093750Y-89900000D01*
X117060057Y-89898345D01*
X117026688Y-89893395D01*
X116993965Y-89885198D01*
X116962203Y-89873834D01*
X116931707Y-89859410D01*
X116902773Y-89842068D01*
X116875677Y-89821972D01*
X116850682Y-89799318D01*
X116828028Y-89774323D01*
X116807932Y-89747227D01*
X116790590Y-89718293D01*
X116776166Y-89687797D01*
X116764802Y-89656035D01*
X116756605Y-89623312D01*
X116751655Y-89589943D01*
X116750000Y-89556250D01*
X116750000Y-88443750D01*
X116751655Y-88410057D01*
X116756605Y-88376688D01*
X116764802Y-88343965D01*
X116776166Y-88312203D01*
X116790590Y-88281707D01*
X116807932Y-88252773D01*
X116828028Y-88225677D01*
X116850682Y-88200682D01*
X116875677Y-88178028D01*
X116902773Y-88157932D01*
X116931707Y-88140590D01*
X116962203Y-88126166D01*
X116993965Y-88114802D01*
X117026688Y-88106605D01*
X117060057Y-88101655D01*
X117093750Y-88100000D01*
X117781250Y-88100000D01*
X117814943Y-88101655D01*
X117814943Y-88101655D01*
G37*
D11*
X117437500Y-89000000D03*
D12*
X130500000Y-130150000D03*
X130500000Y-119850000D03*
D10*
G36*
X97387493Y-122076535D02*
X97418435Y-122081125D01*
X97448778Y-122088725D01*
X97478230Y-122099263D01*
X97506508Y-122112638D01*
X97533338Y-122128719D01*
X97558463Y-122147353D01*
X97581640Y-122168360D01*
X97602647Y-122191537D01*
X97621281Y-122216662D01*
X97637362Y-122243492D01*
X97650737Y-122271770D01*
X97661275Y-122301222D01*
X97668875Y-122331565D01*
X97673465Y-122362507D01*
X97675000Y-122393750D01*
X97675000Y-123106250D01*
X97673465Y-123137493D01*
X97668875Y-123168435D01*
X97661275Y-123198778D01*
X97650737Y-123228230D01*
X97637362Y-123256508D01*
X97621281Y-123283338D01*
X97602647Y-123308463D01*
X97581640Y-123331640D01*
X97558463Y-123352647D01*
X97533338Y-123371281D01*
X97506508Y-123387362D01*
X97478230Y-123400737D01*
X97448778Y-123411275D01*
X97418435Y-123418875D01*
X97387493Y-123423465D01*
X97356250Y-123425000D01*
X96718750Y-123425000D01*
X96687507Y-123423465D01*
X96656565Y-123418875D01*
X96626222Y-123411275D01*
X96596770Y-123400737D01*
X96568492Y-123387362D01*
X96541662Y-123371281D01*
X96516537Y-123352647D01*
X96493360Y-123331640D01*
X96472353Y-123308463D01*
X96453719Y-123283338D01*
X96437638Y-123256508D01*
X96424263Y-123228230D01*
X96413725Y-123198778D01*
X96406125Y-123168435D01*
X96401535Y-123137493D01*
X96400000Y-123106250D01*
X96400000Y-122393750D01*
X96401535Y-122362507D01*
X96406125Y-122331565D01*
X96413725Y-122301222D01*
X96424263Y-122271770D01*
X96437638Y-122243492D01*
X96453719Y-122216662D01*
X96472353Y-122191537D01*
X96493360Y-122168360D01*
X96516537Y-122147353D01*
X96541662Y-122128719D01*
X96568492Y-122112638D01*
X96596770Y-122099263D01*
X96626222Y-122088725D01*
X96656565Y-122081125D01*
X96687507Y-122076535D01*
X96718750Y-122075000D01*
X97356250Y-122075000D01*
X97387493Y-122076535D01*
X97387493Y-122076535D01*
G37*
D13*
X97037500Y-122750000D03*
D10*
G36*
X95812493Y-122076535D02*
X95843435Y-122081125D01*
X95873778Y-122088725D01*
X95903230Y-122099263D01*
X95931508Y-122112638D01*
X95958338Y-122128719D01*
X95983463Y-122147353D01*
X96006640Y-122168360D01*
X96027647Y-122191537D01*
X96046281Y-122216662D01*
X96062362Y-122243492D01*
X96075737Y-122271770D01*
X96086275Y-122301222D01*
X96093875Y-122331565D01*
X96098465Y-122362507D01*
X96100000Y-122393750D01*
X96100000Y-123106250D01*
X96098465Y-123137493D01*
X96093875Y-123168435D01*
X96086275Y-123198778D01*
X96075737Y-123228230D01*
X96062362Y-123256508D01*
X96046281Y-123283338D01*
X96027647Y-123308463D01*
X96006640Y-123331640D01*
X95983463Y-123352647D01*
X95958338Y-123371281D01*
X95931508Y-123387362D01*
X95903230Y-123400737D01*
X95873778Y-123411275D01*
X95843435Y-123418875D01*
X95812493Y-123423465D01*
X95781250Y-123425000D01*
X95143750Y-123425000D01*
X95112507Y-123423465D01*
X95081565Y-123418875D01*
X95051222Y-123411275D01*
X95021770Y-123400737D01*
X94993492Y-123387362D01*
X94966662Y-123371281D01*
X94941537Y-123352647D01*
X94918360Y-123331640D01*
X94897353Y-123308463D01*
X94878719Y-123283338D01*
X94862638Y-123256508D01*
X94849263Y-123228230D01*
X94838725Y-123198778D01*
X94831125Y-123168435D01*
X94826535Y-123137493D01*
X94825000Y-123106250D01*
X94825000Y-122393750D01*
X94826535Y-122362507D01*
X94831125Y-122331565D01*
X94838725Y-122301222D01*
X94849263Y-122271770D01*
X94862638Y-122243492D01*
X94878719Y-122216662D01*
X94897353Y-122191537D01*
X94918360Y-122168360D01*
X94941537Y-122147353D01*
X94966662Y-122128719D01*
X94993492Y-122112638D01*
X95021770Y-122099263D01*
X95051222Y-122088725D01*
X95081565Y-122081125D01*
X95112507Y-122076535D01*
X95143750Y-122075000D01*
X95781250Y-122075000D01*
X95812493Y-122076535D01*
X95812493Y-122076535D01*
G37*
D13*
X95462500Y-122750000D03*
D10*
G36*
X95812493Y-119493535D02*
X95843435Y-119498125D01*
X95873778Y-119505725D01*
X95903230Y-119516263D01*
X95931508Y-119529638D01*
X95958338Y-119545719D01*
X95983463Y-119564353D01*
X96006640Y-119585360D01*
X96027647Y-119608537D01*
X96046281Y-119633662D01*
X96062362Y-119660492D01*
X96075737Y-119688770D01*
X96086275Y-119718222D01*
X96093875Y-119748565D01*
X96098465Y-119779507D01*
X96100000Y-119810750D01*
X96100000Y-120523250D01*
X96098465Y-120554493D01*
X96093875Y-120585435D01*
X96086275Y-120615778D01*
X96075737Y-120645230D01*
X96062362Y-120673508D01*
X96046281Y-120700338D01*
X96027647Y-120725463D01*
X96006640Y-120748640D01*
X95983463Y-120769647D01*
X95958338Y-120788281D01*
X95931508Y-120804362D01*
X95903230Y-120817737D01*
X95873778Y-120828275D01*
X95843435Y-120835875D01*
X95812493Y-120840465D01*
X95781250Y-120842000D01*
X95143750Y-120842000D01*
X95112507Y-120840465D01*
X95081565Y-120835875D01*
X95051222Y-120828275D01*
X95021770Y-120817737D01*
X94993492Y-120804362D01*
X94966662Y-120788281D01*
X94941537Y-120769647D01*
X94918360Y-120748640D01*
X94897353Y-120725463D01*
X94878719Y-120700338D01*
X94862638Y-120673508D01*
X94849263Y-120645230D01*
X94838725Y-120615778D01*
X94831125Y-120585435D01*
X94826535Y-120554493D01*
X94825000Y-120523250D01*
X94825000Y-119810750D01*
X94826535Y-119779507D01*
X94831125Y-119748565D01*
X94838725Y-119718222D01*
X94849263Y-119688770D01*
X94862638Y-119660492D01*
X94878719Y-119633662D01*
X94897353Y-119608537D01*
X94918360Y-119585360D01*
X94941537Y-119564353D01*
X94966662Y-119545719D01*
X94993492Y-119529638D01*
X95021770Y-119516263D01*
X95051222Y-119505725D01*
X95081565Y-119498125D01*
X95112507Y-119493535D01*
X95143750Y-119492000D01*
X95781250Y-119492000D01*
X95812493Y-119493535D01*
X95812493Y-119493535D01*
G37*
D13*
X95462500Y-120167000D03*
D10*
G36*
X97387493Y-119493535D02*
X97418435Y-119498125D01*
X97448778Y-119505725D01*
X97478230Y-119516263D01*
X97506508Y-119529638D01*
X97533338Y-119545719D01*
X97558463Y-119564353D01*
X97581640Y-119585360D01*
X97602647Y-119608537D01*
X97621281Y-119633662D01*
X97637362Y-119660492D01*
X97650737Y-119688770D01*
X97661275Y-119718222D01*
X97668875Y-119748565D01*
X97673465Y-119779507D01*
X97675000Y-119810750D01*
X97675000Y-120523250D01*
X97673465Y-120554493D01*
X97668875Y-120585435D01*
X97661275Y-120615778D01*
X97650737Y-120645230D01*
X97637362Y-120673508D01*
X97621281Y-120700338D01*
X97602647Y-120725463D01*
X97581640Y-120748640D01*
X97558463Y-120769647D01*
X97533338Y-120788281D01*
X97506508Y-120804362D01*
X97478230Y-120817737D01*
X97448778Y-120828275D01*
X97418435Y-120835875D01*
X97387493Y-120840465D01*
X97356250Y-120842000D01*
X96718750Y-120842000D01*
X96687507Y-120840465D01*
X96656565Y-120835875D01*
X96626222Y-120828275D01*
X96596770Y-120817737D01*
X96568492Y-120804362D01*
X96541662Y-120788281D01*
X96516537Y-120769647D01*
X96493360Y-120748640D01*
X96472353Y-120725463D01*
X96453719Y-120700338D01*
X96437638Y-120673508D01*
X96424263Y-120645230D01*
X96413725Y-120615778D01*
X96406125Y-120585435D01*
X96401535Y-120554493D01*
X96400000Y-120523250D01*
X96400000Y-119810750D01*
X96401535Y-119779507D01*
X96406125Y-119748565D01*
X96413725Y-119718222D01*
X96424263Y-119688770D01*
X96437638Y-119660492D01*
X96453719Y-119633662D01*
X96472353Y-119608537D01*
X96493360Y-119585360D01*
X96516537Y-119564353D01*
X96541662Y-119545719D01*
X96568492Y-119529638D01*
X96596770Y-119516263D01*
X96626222Y-119505725D01*
X96656565Y-119498125D01*
X96687507Y-119493535D01*
X96718750Y-119492000D01*
X97356250Y-119492000D01*
X97387493Y-119493535D01*
X97387493Y-119493535D01*
G37*
D13*
X97037500Y-120167000D03*
D10*
G36*
X97387493Y-116909535D02*
X97418435Y-116914125D01*
X97448778Y-116921725D01*
X97478230Y-116932263D01*
X97506508Y-116945638D01*
X97533338Y-116961719D01*
X97558463Y-116980353D01*
X97581640Y-117001360D01*
X97602647Y-117024537D01*
X97621281Y-117049662D01*
X97637362Y-117076492D01*
X97650737Y-117104770D01*
X97661275Y-117134222D01*
X97668875Y-117164565D01*
X97673465Y-117195507D01*
X97675000Y-117226750D01*
X97675000Y-117939250D01*
X97673465Y-117970493D01*
X97668875Y-118001435D01*
X97661275Y-118031778D01*
X97650737Y-118061230D01*
X97637362Y-118089508D01*
X97621281Y-118116338D01*
X97602647Y-118141463D01*
X97581640Y-118164640D01*
X97558463Y-118185647D01*
X97533338Y-118204281D01*
X97506508Y-118220362D01*
X97478230Y-118233737D01*
X97448778Y-118244275D01*
X97418435Y-118251875D01*
X97387493Y-118256465D01*
X97356250Y-118258000D01*
X96718750Y-118258000D01*
X96687507Y-118256465D01*
X96656565Y-118251875D01*
X96626222Y-118244275D01*
X96596770Y-118233737D01*
X96568492Y-118220362D01*
X96541662Y-118204281D01*
X96516537Y-118185647D01*
X96493360Y-118164640D01*
X96472353Y-118141463D01*
X96453719Y-118116338D01*
X96437638Y-118089508D01*
X96424263Y-118061230D01*
X96413725Y-118031778D01*
X96406125Y-118001435D01*
X96401535Y-117970493D01*
X96400000Y-117939250D01*
X96400000Y-117226750D01*
X96401535Y-117195507D01*
X96406125Y-117164565D01*
X96413725Y-117134222D01*
X96424263Y-117104770D01*
X96437638Y-117076492D01*
X96453719Y-117049662D01*
X96472353Y-117024537D01*
X96493360Y-117001360D01*
X96516537Y-116980353D01*
X96541662Y-116961719D01*
X96568492Y-116945638D01*
X96596770Y-116932263D01*
X96626222Y-116921725D01*
X96656565Y-116914125D01*
X96687507Y-116909535D01*
X96718750Y-116908000D01*
X97356250Y-116908000D01*
X97387493Y-116909535D01*
X97387493Y-116909535D01*
G37*
D13*
X97037500Y-117583000D03*
D10*
G36*
X95812493Y-116909535D02*
X95843435Y-116914125D01*
X95873778Y-116921725D01*
X95903230Y-116932263D01*
X95931508Y-116945638D01*
X95958338Y-116961719D01*
X95983463Y-116980353D01*
X96006640Y-117001360D01*
X96027647Y-117024537D01*
X96046281Y-117049662D01*
X96062362Y-117076492D01*
X96075737Y-117104770D01*
X96086275Y-117134222D01*
X96093875Y-117164565D01*
X96098465Y-117195507D01*
X96100000Y-117226750D01*
X96100000Y-117939250D01*
X96098465Y-117970493D01*
X96093875Y-118001435D01*
X96086275Y-118031778D01*
X96075737Y-118061230D01*
X96062362Y-118089508D01*
X96046281Y-118116338D01*
X96027647Y-118141463D01*
X96006640Y-118164640D01*
X95983463Y-118185647D01*
X95958338Y-118204281D01*
X95931508Y-118220362D01*
X95903230Y-118233737D01*
X95873778Y-118244275D01*
X95843435Y-118251875D01*
X95812493Y-118256465D01*
X95781250Y-118258000D01*
X95143750Y-118258000D01*
X95112507Y-118256465D01*
X95081565Y-118251875D01*
X95051222Y-118244275D01*
X95021770Y-118233737D01*
X94993492Y-118220362D01*
X94966662Y-118204281D01*
X94941537Y-118185647D01*
X94918360Y-118164640D01*
X94897353Y-118141463D01*
X94878719Y-118116338D01*
X94862638Y-118089508D01*
X94849263Y-118061230D01*
X94838725Y-118031778D01*
X94831125Y-118001435D01*
X94826535Y-117970493D01*
X94825000Y-117939250D01*
X94825000Y-117226750D01*
X94826535Y-117195507D01*
X94831125Y-117164565D01*
X94838725Y-117134222D01*
X94849263Y-117104770D01*
X94862638Y-117076492D01*
X94878719Y-117049662D01*
X94897353Y-117024537D01*
X94918360Y-117001360D01*
X94941537Y-116980353D01*
X94966662Y-116961719D01*
X94993492Y-116945638D01*
X95021770Y-116932263D01*
X95051222Y-116921725D01*
X95081565Y-116914125D01*
X95112507Y-116909535D01*
X95143750Y-116908000D01*
X95781250Y-116908000D01*
X95812493Y-116909535D01*
X95812493Y-116909535D01*
G37*
D13*
X95462500Y-117583000D03*
D10*
G36*
X95812493Y-114326535D02*
X95843435Y-114331125D01*
X95873778Y-114338725D01*
X95903230Y-114349263D01*
X95931508Y-114362638D01*
X95958338Y-114378719D01*
X95983463Y-114397353D01*
X96006640Y-114418360D01*
X96027647Y-114441537D01*
X96046281Y-114466662D01*
X96062362Y-114493492D01*
X96075737Y-114521770D01*
X96086275Y-114551222D01*
X96093875Y-114581565D01*
X96098465Y-114612507D01*
X96100000Y-114643750D01*
X96100000Y-115356250D01*
X96098465Y-115387493D01*
X96093875Y-115418435D01*
X96086275Y-115448778D01*
X96075737Y-115478230D01*
X96062362Y-115506508D01*
X96046281Y-115533338D01*
X96027647Y-115558463D01*
X96006640Y-115581640D01*
X95983463Y-115602647D01*
X95958338Y-115621281D01*
X95931508Y-115637362D01*
X95903230Y-115650737D01*
X95873778Y-115661275D01*
X95843435Y-115668875D01*
X95812493Y-115673465D01*
X95781250Y-115675000D01*
X95143750Y-115675000D01*
X95112507Y-115673465D01*
X95081565Y-115668875D01*
X95051222Y-115661275D01*
X95021770Y-115650737D01*
X94993492Y-115637362D01*
X94966662Y-115621281D01*
X94941537Y-115602647D01*
X94918360Y-115581640D01*
X94897353Y-115558463D01*
X94878719Y-115533338D01*
X94862638Y-115506508D01*
X94849263Y-115478230D01*
X94838725Y-115448778D01*
X94831125Y-115418435D01*
X94826535Y-115387493D01*
X94825000Y-115356250D01*
X94825000Y-114643750D01*
X94826535Y-114612507D01*
X94831125Y-114581565D01*
X94838725Y-114551222D01*
X94849263Y-114521770D01*
X94862638Y-114493492D01*
X94878719Y-114466662D01*
X94897353Y-114441537D01*
X94918360Y-114418360D01*
X94941537Y-114397353D01*
X94966662Y-114378719D01*
X94993492Y-114362638D01*
X95021770Y-114349263D01*
X95051222Y-114338725D01*
X95081565Y-114331125D01*
X95112507Y-114326535D01*
X95143750Y-114325000D01*
X95781250Y-114325000D01*
X95812493Y-114326535D01*
X95812493Y-114326535D01*
G37*
D13*
X95462500Y-115000000D03*
D10*
G36*
X97387493Y-114326535D02*
X97418435Y-114331125D01*
X97448778Y-114338725D01*
X97478230Y-114349263D01*
X97506508Y-114362638D01*
X97533338Y-114378719D01*
X97558463Y-114397353D01*
X97581640Y-114418360D01*
X97602647Y-114441537D01*
X97621281Y-114466662D01*
X97637362Y-114493492D01*
X97650737Y-114521770D01*
X97661275Y-114551222D01*
X97668875Y-114581565D01*
X97673465Y-114612507D01*
X97675000Y-114643750D01*
X97675000Y-115356250D01*
X97673465Y-115387493D01*
X97668875Y-115418435D01*
X97661275Y-115448778D01*
X97650737Y-115478230D01*
X97637362Y-115506508D01*
X97621281Y-115533338D01*
X97602647Y-115558463D01*
X97581640Y-115581640D01*
X97558463Y-115602647D01*
X97533338Y-115621281D01*
X97506508Y-115637362D01*
X97478230Y-115650737D01*
X97448778Y-115661275D01*
X97418435Y-115668875D01*
X97387493Y-115673465D01*
X97356250Y-115675000D01*
X96718750Y-115675000D01*
X96687507Y-115673465D01*
X96656565Y-115668875D01*
X96626222Y-115661275D01*
X96596770Y-115650737D01*
X96568492Y-115637362D01*
X96541662Y-115621281D01*
X96516537Y-115602647D01*
X96493360Y-115581640D01*
X96472353Y-115558463D01*
X96453719Y-115533338D01*
X96437638Y-115506508D01*
X96424263Y-115478230D01*
X96413725Y-115448778D01*
X96406125Y-115418435D01*
X96401535Y-115387493D01*
X96400000Y-115356250D01*
X96400000Y-114643750D01*
X96401535Y-114612507D01*
X96406125Y-114581565D01*
X96413725Y-114551222D01*
X96424263Y-114521770D01*
X96437638Y-114493492D01*
X96453719Y-114466662D01*
X96472353Y-114441537D01*
X96493360Y-114418360D01*
X96516537Y-114397353D01*
X96541662Y-114378719D01*
X96568492Y-114362638D01*
X96596770Y-114349263D01*
X96626222Y-114338725D01*
X96656565Y-114331125D01*
X96687507Y-114326535D01*
X96718750Y-114325000D01*
X97356250Y-114325000D01*
X97387493Y-114326535D01*
X97387493Y-114326535D01*
G37*
D13*
X97037500Y-115000000D03*
D10*
G36*
X91887493Y-128651535D02*
X91918435Y-128656125D01*
X91948778Y-128663725D01*
X91978230Y-128674263D01*
X92006508Y-128687638D01*
X92033338Y-128703719D01*
X92058463Y-128722353D01*
X92081640Y-128743360D01*
X92102647Y-128766537D01*
X92121281Y-128791662D01*
X92137362Y-128818492D01*
X92150737Y-128846770D01*
X92161275Y-128876222D01*
X92168875Y-128906565D01*
X92173465Y-128937507D01*
X92175000Y-128968750D01*
X92175000Y-129606250D01*
X92173465Y-129637493D01*
X92168875Y-129668435D01*
X92161275Y-129698778D01*
X92150737Y-129728230D01*
X92137362Y-129756508D01*
X92121281Y-129783338D01*
X92102647Y-129808463D01*
X92081640Y-129831640D01*
X92058463Y-129852647D01*
X92033338Y-129871281D01*
X92006508Y-129887362D01*
X91978230Y-129900737D01*
X91948778Y-129911275D01*
X91918435Y-129918875D01*
X91887493Y-129923465D01*
X91856250Y-129925000D01*
X91143750Y-129925000D01*
X91112507Y-129923465D01*
X91081565Y-129918875D01*
X91051222Y-129911275D01*
X91021770Y-129900737D01*
X90993492Y-129887362D01*
X90966662Y-129871281D01*
X90941537Y-129852647D01*
X90918360Y-129831640D01*
X90897353Y-129808463D01*
X90878719Y-129783338D01*
X90862638Y-129756508D01*
X90849263Y-129728230D01*
X90838725Y-129698778D01*
X90831125Y-129668435D01*
X90826535Y-129637493D01*
X90825000Y-129606250D01*
X90825000Y-128968750D01*
X90826535Y-128937507D01*
X90831125Y-128906565D01*
X90838725Y-128876222D01*
X90849263Y-128846770D01*
X90862638Y-128818492D01*
X90878719Y-128791662D01*
X90897353Y-128766537D01*
X90918360Y-128743360D01*
X90941537Y-128722353D01*
X90966662Y-128703719D01*
X90993492Y-128687638D01*
X91021770Y-128674263D01*
X91051222Y-128663725D01*
X91081565Y-128656125D01*
X91112507Y-128651535D01*
X91143750Y-128650000D01*
X91856250Y-128650000D01*
X91887493Y-128651535D01*
X91887493Y-128651535D01*
G37*
D13*
X91500000Y-129287500D03*
D10*
G36*
X91887493Y-127076535D02*
X91918435Y-127081125D01*
X91948778Y-127088725D01*
X91978230Y-127099263D01*
X92006508Y-127112638D01*
X92033338Y-127128719D01*
X92058463Y-127147353D01*
X92081640Y-127168360D01*
X92102647Y-127191537D01*
X92121281Y-127216662D01*
X92137362Y-127243492D01*
X92150737Y-127271770D01*
X92161275Y-127301222D01*
X92168875Y-127331565D01*
X92173465Y-127362507D01*
X92175000Y-127393750D01*
X92175000Y-128031250D01*
X92173465Y-128062493D01*
X92168875Y-128093435D01*
X92161275Y-128123778D01*
X92150737Y-128153230D01*
X92137362Y-128181508D01*
X92121281Y-128208338D01*
X92102647Y-128233463D01*
X92081640Y-128256640D01*
X92058463Y-128277647D01*
X92033338Y-128296281D01*
X92006508Y-128312362D01*
X91978230Y-128325737D01*
X91948778Y-128336275D01*
X91918435Y-128343875D01*
X91887493Y-128348465D01*
X91856250Y-128350000D01*
X91143750Y-128350000D01*
X91112507Y-128348465D01*
X91081565Y-128343875D01*
X91051222Y-128336275D01*
X91021770Y-128325737D01*
X90993492Y-128312362D01*
X90966662Y-128296281D01*
X90941537Y-128277647D01*
X90918360Y-128256640D01*
X90897353Y-128233463D01*
X90878719Y-128208338D01*
X90862638Y-128181508D01*
X90849263Y-128153230D01*
X90838725Y-128123778D01*
X90831125Y-128093435D01*
X90826535Y-128062493D01*
X90825000Y-128031250D01*
X90825000Y-127393750D01*
X90826535Y-127362507D01*
X90831125Y-127331565D01*
X90838725Y-127301222D01*
X90849263Y-127271770D01*
X90862638Y-127243492D01*
X90878719Y-127216662D01*
X90897353Y-127191537D01*
X90918360Y-127168360D01*
X90941537Y-127147353D01*
X90966662Y-127128719D01*
X90993492Y-127112638D01*
X91021770Y-127099263D01*
X91051222Y-127088725D01*
X91081565Y-127081125D01*
X91112507Y-127076535D01*
X91143750Y-127075000D01*
X91856250Y-127075000D01*
X91887493Y-127076535D01*
X91887493Y-127076535D01*
G37*
D13*
X91500000Y-127712500D03*
D10*
G36*
X118137493Y-97826535D02*
X118168435Y-97831125D01*
X118198778Y-97838725D01*
X118228230Y-97849263D01*
X118256508Y-97862638D01*
X118283338Y-97878719D01*
X118308463Y-97897353D01*
X118331640Y-97918360D01*
X118352647Y-97941537D01*
X118371281Y-97966662D01*
X118387362Y-97993492D01*
X118400737Y-98021770D01*
X118411275Y-98051222D01*
X118418875Y-98081565D01*
X118423465Y-98112507D01*
X118425000Y-98143750D01*
X118425000Y-98856250D01*
X118423465Y-98887493D01*
X118418875Y-98918435D01*
X118411275Y-98948778D01*
X118400737Y-98978230D01*
X118387362Y-99006508D01*
X118371281Y-99033338D01*
X118352647Y-99058463D01*
X118331640Y-99081640D01*
X118308463Y-99102647D01*
X118283338Y-99121281D01*
X118256508Y-99137362D01*
X118228230Y-99150737D01*
X118198778Y-99161275D01*
X118168435Y-99168875D01*
X118137493Y-99173465D01*
X118106250Y-99175000D01*
X117468750Y-99175000D01*
X117437507Y-99173465D01*
X117406565Y-99168875D01*
X117376222Y-99161275D01*
X117346770Y-99150737D01*
X117318492Y-99137362D01*
X117291662Y-99121281D01*
X117266537Y-99102647D01*
X117243360Y-99081640D01*
X117222353Y-99058463D01*
X117203719Y-99033338D01*
X117187638Y-99006508D01*
X117174263Y-98978230D01*
X117163725Y-98948778D01*
X117156125Y-98918435D01*
X117151535Y-98887493D01*
X117150000Y-98856250D01*
X117150000Y-98143750D01*
X117151535Y-98112507D01*
X117156125Y-98081565D01*
X117163725Y-98051222D01*
X117174263Y-98021770D01*
X117187638Y-97993492D01*
X117203719Y-97966662D01*
X117222353Y-97941537D01*
X117243360Y-97918360D01*
X117266537Y-97897353D01*
X117291662Y-97878719D01*
X117318492Y-97862638D01*
X117346770Y-97849263D01*
X117376222Y-97838725D01*
X117406565Y-97831125D01*
X117437507Y-97826535D01*
X117468750Y-97825000D01*
X118106250Y-97825000D01*
X118137493Y-97826535D01*
X118137493Y-97826535D01*
G37*
D13*
X117787500Y-98500000D03*
D10*
G36*
X116562493Y-97826535D02*
X116593435Y-97831125D01*
X116623778Y-97838725D01*
X116653230Y-97849263D01*
X116681508Y-97862638D01*
X116708338Y-97878719D01*
X116733463Y-97897353D01*
X116756640Y-97918360D01*
X116777647Y-97941537D01*
X116796281Y-97966662D01*
X116812362Y-97993492D01*
X116825737Y-98021770D01*
X116836275Y-98051222D01*
X116843875Y-98081565D01*
X116848465Y-98112507D01*
X116850000Y-98143750D01*
X116850000Y-98856250D01*
X116848465Y-98887493D01*
X116843875Y-98918435D01*
X116836275Y-98948778D01*
X116825737Y-98978230D01*
X116812362Y-99006508D01*
X116796281Y-99033338D01*
X116777647Y-99058463D01*
X116756640Y-99081640D01*
X116733463Y-99102647D01*
X116708338Y-99121281D01*
X116681508Y-99137362D01*
X116653230Y-99150737D01*
X116623778Y-99161275D01*
X116593435Y-99168875D01*
X116562493Y-99173465D01*
X116531250Y-99175000D01*
X115893750Y-99175000D01*
X115862507Y-99173465D01*
X115831565Y-99168875D01*
X115801222Y-99161275D01*
X115771770Y-99150737D01*
X115743492Y-99137362D01*
X115716662Y-99121281D01*
X115691537Y-99102647D01*
X115668360Y-99081640D01*
X115647353Y-99058463D01*
X115628719Y-99033338D01*
X115612638Y-99006508D01*
X115599263Y-98978230D01*
X115588725Y-98948778D01*
X115581125Y-98918435D01*
X115576535Y-98887493D01*
X115575000Y-98856250D01*
X115575000Y-98143750D01*
X115576535Y-98112507D01*
X115581125Y-98081565D01*
X115588725Y-98051222D01*
X115599263Y-98021770D01*
X115612638Y-97993492D01*
X115628719Y-97966662D01*
X115647353Y-97941537D01*
X115668360Y-97918360D01*
X115691537Y-97897353D01*
X115716662Y-97878719D01*
X115743492Y-97862638D01*
X115771770Y-97849263D01*
X115801222Y-97838725D01*
X115831565Y-97831125D01*
X115862507Y-97826535D01*
X115893750Y-97825000D01*
X116531250Y-97825000D01*
X116562493Y-97826535D01*
X116562493Y-97826535D01*
G37*
D13*
X116212500Y-98500000D03*
D10*
G36*
X114089943Y-128896655D02*
X114123312Y-128901605D01*
X114156035Y-128909802D01*
X114187797Y-128921166D01*
X114218293Y-128935590D01*
X114247227Y-128952932D01*
X114274323Y-128973028D01*
X114299318Y-128995682D01*
X114321972Y-129020677D01*
X114342068Y-129047773D01*
X114359410Y-129076707D01*
X114373834Y-129107203D01*
X114385198Y-129138965D01*
X114393395Y-129171688D01*
X114398345Y-129205057D01*
X114400000Y-129238750D01*
X114400000Y-129926250D01*
X114398345Y-129959943D01*
X114393395Y-129993312D01*
X114385198Y-130026035D01*
X114373834Y-130057797D01*
X114359410Y-130088293D01*
X114342068Y-130117227D01*
X114321972Y-130144323D01*
X114299318Y-130169318D01*
X114274323Y-130191972D01*
X114247227Y-130212068D01*
X114218293Y-130229410D01*
X114187797Y-130243834D01*
X114156035Y-130255198D01*
X114123312Y-130263395D01*
X114089943Y-130268345D01*
X114056250Y-130270000D01*
X112943750Y-130270000D01*
X112910057Y-130268345D01*
X112876688Y-130263395D01*
X112843965Y-130255198D01*
X112812203Y-130243834D01*
X112781707Y-130229410D01*
X112752773Y-130212068D01*
X112725677Y-130191972D01*
X112700682Y-130169318D01*
X112678028Y-130144323D01*
X112657932Y-130117227D01*
X112640590Y-130088293D01*
X112626166Y-130057797D01*
X112614802Y-130026035D01*
X112606605Y-129993312D01*
X112601655Y-129959943D01*
X112600000Y-129926250D01*
X112600000Y-129238750D01*
X112601655Y-129205057D01*
X112606605Y-129171688D01*
X112614802Y-129138965D01*
X112626166Y-129107203D01*
X112640590Y-129076707D01*
X112657932Y-129047773D01*
X112678028Y-129020677D01*
X112700682Y-128995682D01*
X112725677Y-128973028D01*
X112752773Y-128952932D01*
X112781707Y-128935590D01*
X112812203Y-128921166D01*
X112843965Y-128909802D01*
X112876688Y-128901605D01*
X112910057Y-128896655D01*
X112943750Y-128895000D01*
X114056250Y-128895000D01*
X114089943Y-128896655D01*
X114089943Y-128896655D01*
G37*
D11*
X113500000Y-129582500D03*
D10*
G36*
X114089943Y-130771655D02*
X114123312Y-130776605D01*
X114156035Y-130784802D01*
X114187797Y-130796166D01*
X114218293Y-130810590D01*
X114247227Y-130827932D01*
X114274323Y-130848028D01*
X114299318Y-130870682D01*
X114321972Y-130895677D01*
X114342068Y-130922773D01*
X114359410Y-130951707D01*
X114373834Y-130982203D01*
X114385198Y-131013965D01*
X114393395Y-131046688D01*
X114398345Y-131080057D01*
X114400000Y-131113750D01*
X114400000Y-131801250D01*
X114398345Y-131834943D01*
X114393395Y-131868312D01*
X114385198Y-131901035D01*
X114373834Y-131932797D01*
X114359410Y-131963293D01*
X114342068Y-131992227D01*
X114321972Y-132019323D01*
X114299318Y-132044318D01*
X114274323Y-132066972D01*
X114247227Y-132087068D01*
X114218293Y-132104410D01*
X114187797Y-132118834D01*
X114156035Y-132130198D01*
X114123312Y-132138395D01*
X114089943Y-132143345D01*
X114056250Y-132145000D01*
X112943750Y-132145000D01*
X112910057Y-132143345D01*
X112876688Y-132138395D01*
X112843965Y-132130198D01*
X112812203Y-132118834D01*
X112781707Y-132104410D01*
X112752773Y-132087068D01*
X112725677Y-132066972D01*
X112700682Y-132044318D01*
X112678028Y-132019323D01*
X112657932Y-131992227D01*
X112640590Y-131963293D01*
X112626166Y-131932797D01*
X112614802Y-131901035D01*
X112606605Y-131868312D01*
X112601655Y-131834943D01*
X112600000Y-131801250D01*
X112600000Y-131113750D01*
X112601655Y-131080057D01*
X112606605Y-131046688D01*
X112614802Y-131013965D01*
X112626166Y-130982203D01*
X112640590Y-130951707D01*
X112657932Y-130922773D01*
X112678028Y-130895677D01*
X112700682Y-130870682D01*
X112725677Y-130848028D01*
X112752773Y-130827932D01*
X112781707Y-130810590D01*
X112812203Y-130796166D01*
X112843965Y-130784802D01*
X112876688Y-130776605D01*
X112910057Y-130771655D01*
X112943750Y-130770000D01*
X114056250Y-130770000D01*
X114089943Y-130771655D01*
X114089943Y-130771655D01*
G37*
D11*
X113500000Y-131457500D03*
D10*
G36*
X120501943Y-110601655D02*
X120535312Y-110606605D01*
X120568035Y-110614802D01*
X120599797Y-110626166D01*
X120630293Y-110640590D01*
X120659227Y-110657932D01*
X120686323Y-110678028D01*
X120711318Y-110700682D01*
X120733972Y-110725677D01*
X120754068Y-110752773D01*
X120771410Y-110781707D01*
X120785834Y-110812203D01*
X120797198Y-110843965D01*
X120805395Y-110876688D01*
X120810345Y-110910057D01*
X120812000Y-110943750D01*
X120812000Y-112056250D01*
X120810345Y-112089943D01*
X120805395Y-112123312D01*
X120797198Y-112156035D01*
X120785834Y-112187797D01*
X120771410Y-112218293D01*
X120754068Y-112247227D01*
X120733972Y-112274323D01*
X120711318Y-112299318D01*
X120686323Y-112321972D01*
X120659227Y-112342068D01*
X120630293Y-112359410D01*
X120599797Y-112373834D01*
X120568035Y-112385198D01*
X120535312Y-112393395D01*
X120501943Y-112398345D01*
X120468250Y-112400000D01*
X119780750Y-112400000D01*
X119747057Y-112398345D01*
X119713688Y-112393395D01*
X119680965Y-112385198D01*
X119649203Y-112373834D01*
X119618707Y-112359410D01*
X119589773Y-112342068D01*
X119562677Y-112321972D01*
X119537682Y-112299318D01*
X119515028Y-112274323D01*
X119494932Y-112247227D01*
X119477590Y-112218293D01*
X119463166Y-112187797D01*
X119451802Y-112156035D01*
X119443605Y-112123312D01*
X119438655Y-112089943D01*
X119437000Y-112056250D01*
X119437000Y-110943750D01*
X119438655Y-110910057D01*
X119443605Y-110876688D01*
X119451802Y-110843965D01*
X119463166Y-110812203D01*
X119477590Y-110781707D01*
X119494932Y-110752773D01*
X119515028Y-110725677D01*
X119537682Y-110700682D01*
X119562677Y-110678028D01*
X119589773Y-110657932D01*
X119618707Y-110640590D01*
X119649203Y-110626166D01*
X119680965Y-110614802D01*
X119713688Y-110606605D01*
X119747057Y-110601655D01*
X119780750Y-110600000D01*
X120468250Y-110600000D01*
X120501943Y-110601655D01*
X120501943Y-110601655D01*
G37*
D11*
X120124500Y-111500000D03*
D10*
G36*
X122376943Y-110601655D02*
X122410312Y-110606605D01*
X122443035Y-110614802D01*
X122474797Y-110626166D01*
X122505293Y-110640590D01*
X122534227Y-110657932D01*
X122561323Y-110678028D01*
X122586318Y-110700682D01*
X122608972Y-110725677D01*
X122629068Y-110752773D01*
X122646410Y-110781707D01*
X122660834Y-110812203D01*
X122672198Y-110843965D01*
X122680395Y-110876688D01*
X122685345Y-110910057D01*
X122687000Y-110943750D01*
X122687000Y-112056250D01*
X122685345Y-112089943D01*
X122680395Y-112123312D01*
X122672198Y-112156035D01*
X122660834Y-112187797D01*
X122646410Y-112218293D01*
X122629068Y-112247227D01*
X122608972Y-112274323D01*
X122586318Y-112299318D01*
X122561323Y-112321972D01*
X122534227Y-112342068D01*
X122505293Y-112359410D01*
X122474797Y-112373834D01*
X122443035Y-112385198D01*
X122410312Y-112393395D01*
X122376943Y-112398345D01*
X122343250Y-112400000D01*
X121655750Y-112400000D01*
X121622057Y-112398345D01*
X121588688Y-112393395D01*
X121555965Y-112385198D01*
X121524203Y-112373834D01*
X121493707Y-112359410D01*
X121464773Y-112342068D01*
X121437677Y-112321972D01*
X121412682Y-112299318D01*
X121390028Y-112274323D01*
X121369932Y-112247227D01*
X121352590Y-112218293D01*
X121338166Y-112187797D01*
X121326802Y-112156035D01*
X121318605Y-112123312D01*
X121313655Y-112089943D01*
X121312000Y-112056250D01*
X121312000Y-110943750D01*
X121313655Y-110910057D01*
X121318605Y-110876688D01*
X121326802Y-110843965D01*
X121338166Y-110812203D01*
X121352590Y-110781707D01*
X121369932Y-110752773D01*
X121390028Y-110725677D01*
X121412682Y-110700682D01*
X121437677Y-110678028D01*
X121464773Y-110657932D01*
X121493707Y-110640590D01*
X121524203Y-110626166D01*
X121555965Y-110614802D01*
X121588688Y-110606605D01*
X121622057Y-110601655D01*
X121655750Y-110600000D01*
X122343250Y-110600000D01*
X122376943Y-110601655D01*
X122376943Y-110601655D01*
G37*
D11*
X121999500Y-111500000D03*
D10*
G36*
X122314943Y-103601655D02*
X122348312Y-103606605D01*
X122381035Y-103614802D01*
X122412797Y-103626166D01*
X122443293Y-103640590D01*
X122472227Y-103657932D01*
X122499323Y-103678028D01*
X122524318Y-103700682D01*
X122546972Y-103725677D01*
X122567068Y-103752773D01*
X122584410Y-103781707D01*
X122598834Y-103812203D01*
X122610198Y-103843965D01*
X122618395Y-103876688D01*
X122623345Y-103910057D01*
X122625000Y-103943750D01*
X122625000Y-105056250D01*
X122623345Y-105089943D01*
X122618395Y-105123312D01*
X122610198Y-105156035D01*
X122598834Y-105187797D01*
X122584410Y-105218293D01*
X122567068Y-105247227D01*
X122546972Y-105274323D01*
X122524318Y-105299318D01*
X122499323Y-105321972D01*
X122472227Y-105342068D01*
X122443293Y-105359410D01*
X122412797Y-105373834D01*
X122381035Y-105385198D01*
X122348312Y-105393395D01*
X122314943Y-105398345D01*
X122281250Y-105400000D01*
X121593750Y-105400000D01*
X121560057Y-105398345D01*
X121526688Y-105393395D01*
X121493965Y-105385198D01*
X121462203Y-105373834D01*
X121431707Y-105359410D01*
X121402773Y-105342068D01*
X121375677Y-105321972D01*
X121350682Y-105299318D01*
X121328028Y-105274323D01*
X121307932Y-105247227D01*
X121290590Y-105218293D01*
X121276166Y-105187797D01*
X121264802Y-105156035D01*
X121256605Y-105123312D01*
X121251655Y-105089943D01*
X121250000Y-105056250D01*
X121250000Y-103943750D01*
X121251655Y-103910057D01*
X121256605Y-103876688D01*
X121264802Y-103843965D01*
X121276166Y-103812203D01*
X121290590Y-103781707D01*
X121307932Y-103752773D01*
X121328028Y-103725677D01*
X121350682Y-103700682D01*
X121375677Y-103678028D01*
X121402773Y-103657932D01*
X121431707Y-103640590D01*
X121462203Y-103626166D01*
X121493965Y-103614802D01*
X121526688Y-103606605D01*
X121560057Y-103601655D01*
X121593750Y-103600000D01*
X122281250Y-103600000D01*
X122314943Y-103601655D01*
X122314943Y-103601655D01*
G37*
D11*
X121937500Y-104500000D03*
D10*
G36*
X120439943Y-103601655D02*
X120473312Y-103606605D01*
X120506035Y-103614802D01*
X120537797Y-103626166D01*
X120568293Y-103640590D01*
X120597227Y-103657932D01*
X120624323Y-103678028D01*
X120649318Y-103700682D01*
X120671972Y-103725677D01*
X120692068Y-103752773D01*
X120709410Y-103781707D01*
X120723834Y-103812203D01*
X120735198Y-103843965D01*
X120743395Y-103876688D01*
X120748345Y-103910057D01*
X120750000Y-103943750D01*
X120750000Y-105056250D01*
X120748345Y-105089943D01*
X120743395Y-105123312D01*
X120735198Y-105156035D01*
X120723834Y-105187797D01*
X120709410Y-105218293D01*
X120692068Y-105247227D01*
X120671972Y-105274323D01*
X120649318Y-105299318D01*
X120624323Y-105321972D01*
X120597227Y-105342068D01*
X120568293Y-105359410D01*
X120537797Y-105373834D01*
X120506035Y-105385198D01*
X120473312Y-105393395D01*
X120439943Y-105398345D01*
X120406250Y-105400000D01*
X119718750Y-105400000D01*
X119685057Y-105398345D01*
X119651688Y-105393395D01*
X119618965Y-105385198D01*
X119587203Y-105373834D01*
X119556707Y-105359410D01*
X119527773Y-105342068D01*
X119500677Y-105321972D01*
X119475682Y-105299318D01*
X119453028Y-105274323D01*
X119432932Y-105247227D01*
X119415590Y-105218293D01*
X119401166Y-105187797D01*
X119389802Y-105156035D01*
X119381605Y-105123312D01*
X119376655Y-105089943D01*
X119375000Y-105056250D01*
X119375000Y-103943750D01*
X119376655Y-103910057D01*
X119381605Y-103876688D01*
X119389802Y-103843965D01*
X119401166Y-103812203D01*
X119415590Y-103781707D01*
X119432932Y-103752773D01*
X119453028Y-103725677D01*
X119475682Y-103700682D01*
X119500677Y-103678028D01*
X119527773Y-103657932D01*
X119556707Y-103640590D01*
X119587203Y-103626166D01*
X119618965Y-103614802D01*
X119651688Y-103606605D01*
X119685057Y-103601655D01*
X119718750Y-103600000D01*
X120406250Y-103600000D01*
X120439943Y-103601655D01*
X120439943Y-103601655D01*
G37*
D11*
X120062500Y-104500000D03*
D10*
G36*
X120501943Y-107101655D02*
X120535312Y-107106605D01*
X120568035Y-107114802D01*
X120599797Y-107126166D01*
X120630293Y-107140590D01*
X120659227Y-107157932D01*
X120686323Y-107178028D01*
X120711318Y-107200682D01*
X120733972Y-107225677D01*
X120754068Y-107252773D01*
X120771410Y-107281707D01*
X120785834Y-107312203D01*
X120797198Y-107343965D01*
X120805395Y-107376688D01*
X120810345Y-107410057D01*
X120812000Y-107443750D01*
X120812000Y-108556250D01*
X120810345Y-108589943D01*
X120805395Y-108623312D01*
X120797198Y-108656035D01*
X120785834Y-108687797D01*
X120771410Y-108718293D01*
X120754068Y-108747227D01*
X120733972Y-108774323D01*
X120711318Y-108799318D01*
X120686323Y-108821972D01*
X120659227Y-108842068D01*
X120630293Y-108859410D01*
X120599797Y-108873834D01*
X120568035Y-108885198D01*
X120535312Y-108893395D01*
X120501943Y-108898345D01*
X120468250Y-108900000D01*
X119780750Y-108900000D01*
X119747057Y-108898345D01*
X119713688Y-108893395D01*
X119680965Y-108885198D01*
X119649203Y-108873834D01*
X119618707Y-108859410D01*
X119589773Y-108842068D01*
X119562677Y-108821972D01*
X119537682Y-108799318D01*
X119515028Y-108774323D01*
X119494932Y-108747227D01*
X119477590Y-108718293D01*
X119463166Y-108687797D01*
X119451802Y-108656035D01*
X119443605Y-108623312D01*
X119438655Y-108589943D01*
X119437000Y-108556250D01*
X119437000Y-107443750D01*
X119438655Y-107410057D01*
X119443605Y-107376688D01*
X119451802Y-107343965D01*
X119463166Y-107312203D01*
X119477590Y-107281707D01*
X119494932Y-107252773D01*
X119515028Y-107225677D01*
X119537682Y-107200682D01*
X119562677Y-107178028D01*
X119589773Y-107157932D01*
X119618707Y-107140590D01*
X119649203Y-107126166D01*
X119680965Y-107114802D01*
X119713688Y-107106605D01*
X119747057Y-107101655D01*
X119780750Y-107100000D01*
X120468250Y-107100000D01*
X120501943Y-107101655D01*
X120501943Y-107101655D01*
G37*
D11*
X120124500Y-108000000D03*
D10*
G36*
X122376943Y-107101655D02*
X122410312Y-107106605D01*
X122443035Y-107114802D01*
X122474797Y-107126166D01*
X122505293Y-107140590D01*
X122534227Y-107157932D01*
X122561323Y-107178028D01*
X122586318Y-107200682D01*
X122608972Y-107225677D01*
X122629068Y-107252773D01*
X122646410Y-107281707D01*
X122660834Y-107312203D01*
X122672198Y-107343965D01*
X122680395Y-107376688D01*
X122685345Y-107410057D01*
X122687000Y-107443750D01*
X122687000Y-108556250D01*
X122685345Y-108589943D01*
X122680395Y-108623312D01*
X122672198Y-108656035D01*
X122660834Y-108687797D01*
X122646410Y-108718293D01*
X122629068Y-108747227D01*
X122608972Y-108774323D01*
X122586318Y-108799318D01*
X122561323Y-108821972D01*
X122534227Y-108842068D01*
X122505293Y-108859410D01*
X122474797Y-108873834D01*
X122443035Y-108885198D01*
X122410312Y-108893395D01*
X122376943Y-108898345D01*
X122343250Y-108900000D01*
X121655750Y-108900000D01*
X121622057Y-108898345D01*
X121588688Y-108893395D01*
X121555965Y-108885198D01*
X121524203Y-108873834D01*
X121493707Y-108859410D01*
X121464773Y-108842068D01*
X121437677Y-108821972D01*
X121412682Y-108799318D01*
X121390028Y-108774323D01*
X121369932Y-108747227D01*
X121352590Y-108718293D01*
X121338166Y-108687797D01*
X121326802Y-108656035D01*
X121318605Y-108623312D01*
X121313655Y-108589943D01*
X121312000Y-108556250D01*
X121312000Y-107443750D01*
X121313655Y-107410057D01*
X121318605Y-107376688D01*
X121326802Y-107343965D01*
X121338166Y-107312203D01*
X121352590Y-107281707D01*
X121369932Y-107252773D01*
X121390028Y-107225677D01*
X121412682Y-107200682D01*
X121437677Y-107178028D01*
X121464773Y-107157932D01*
X121493707Y-107140590D01*
X121524203Y-107126166D01*
X121555965Y-107114802D01*
X121588688Y-107106605D01*
X121622057Y-107101655D01*
X121655750Y-107100000D01*
X122343250Y-107100000D01*
X122376943Y-107101655D01*
X122376943Y-107101655D01*
G37*
D11*
X121999500Y-108000000D03*
D10*
G36*
X98089943Y-106876655D02*
X98123312Y-106881605D01*
X98156035Y-106889802D01*
X98187797Y-106901166D01*
X98218293Y-106915590D01*
X98247227Y-106932932D01*
X98274323Y-106953028D01*
X98299318Y-106975682D01*
X98321972Y-107000677D01*
X98342068Y-107027773D01*
X98359410Y-107056707D01*
X98373834Y-107087203D01*
X98385198Y-107118965D01*
X98393395Y-107151688D01*
X98398345Y-107185057D01*
X98400000Y-107218750D01*
X98400000Y-107906250D01*
X98398345Y-107939943D01*
X98393395Y-107973312D01*
X98385198Y-108006035D01*
X98373834Y-108037797D01*
X98359410Y-108068293D01*
X98342068Y-108097227D01*
X98321972Y-108124323D01*
X98299318Y-108149318D01*
X98274323Y-108171972D01*
X98247227Y-108192068D01*
X98218293Y-108209410D01*
X98187797Y-108223834D01*
X98156035Y-108235198D01*
X98123312Y-108243395D01*
X98089943Y-108248345D01*
X98056250Y-108250000D01*
X96943750Y-108250000D01*
X96910057Y-108248345D01*
X96876688Y-108243395D01*
X96843965Y-108235198D01*
X96812203Y-108223834D01*
X96781707Y-108209410D01*
X96752773Y-108192068D01*
X96725677Y-108171972D01*
X96700682Y-108149318D01*
X96678028Y-108124323D01*
X96657932Y-108097227D01*
X96640590Y-108068293D01*
X96626166Y-108037797D01*
X96614802Y-108006035D01*
X96606605Y-107973312D01*
X96601655Y-107939943D01*
X96600000Y-107906250D01*
X96600000Y-107218750D01*
X96601655Y-107185057D01*
X96606605Y-107151688D01*
X96614802Y-107118965D01*
X96626166Y-107087203D01*
X96640590Y-107056707D01*
X96657932Y-107027773D01*
X96678028Y-107000677D01*
X96700682Y-106975682D01*
X96725677Y-106953028D01*
X96752773Y-106932932D01*
X96781707Y-106915590D01*
X96812203Y-106901166D01*
X96843965Y-106889802D01*
X96876688Y-106881605D01*
X96910057Y-106876655D01*
X96943750Y-106875000D01*
X98056250Y-106875000D01*
X98089943Y-106876655D01*
X98089943Y-106876655D01*
G37*
D11*
X97500000Y-107562500D03*
D10*
G36*
X98089943Y-108751655D02*
X98123312Y-108756605D01*
X98156035Y-108764802D01*
X98187797Y-108776166D01*
X98218293Y-108790590D01*
X98247227Y-108807932D01*
X98274323Y-108828028D01*
X98299318Y-108850682D01*
X98321972Y-108875677D01*
X98342068Y-108902773D01*
X98359410Y-108931707D01*
X98373834Y-108962203D01*
X98385198Y-108993965D01*
X98393395Y-109026688D01*
X98398345Y-109060057D01*
X98400000Y-109093750D01*
X98400000Y-109781250D01*
X98398345Y-109814943D01*
X98393395Y-109848312D01*
X98385198Y-109881035D01*
X98373834Y-109912797D01*
X98359410Y-109943293D01*
X98342068Y-109972227D01*
X98321972Y-109999323D01*
X98299318Y-110024318D01*
X98274323Y-110046972D01*
X98247227Y-110067068D01*
X98218293Y-110084410D01*
X98187797Y-110098834D01*
X98156035Y-110110198D01*
X98123312Y-110118395D01*
X98089943Y-110123345D01*
X98056250Y-110125000D01*
X96943750Y-110125000D01*
X96910057Y-110123345D01*
X96876688Y-110118395D01*
X96843965Y-110110198D01*
X96812203Y-110098834D01*
X96781707Y-110084410D01*
X96752773Y-110067068D01*
X96725677Y-110046972D01*
X96700682Y-110024318D01*
X96678028Y-109999323D01*
X96657932Y-109972227D01*
X96640590Y-109943293D01*
X96626166Y-109912797D01*
X96614802Y-109881035D01*
X96606605Y-109848312D01*
X96601655Y-109814943D01*
X96600000Y-109781250D01*
X96600000Y-109093750D01*
X96601655Y-109060057D01*
X96606605Y-109026688D01*
X96614802Y-108993965D01*
X96626166Y-108962203D01*
X96640590Y-108931707D01*
X96657932Y-108902773D01*
X96678028Y-108875677D01*
X96700682Y-108850682D01*
X96725677Y-108828028D01*
X96752773Y-108807932D01*
X96781707Y-108790590D01*
X96812203Y-108776166D01*
X96843965Y-108764802D01*
X96876688Y-108756605D01*
X96910057Y-108751655D01*
X96943750Y-108750000D01*
X98056250Y-108750000D01*
X98089943Y-108751655D01*
X98089943Y-108751655D01*
G37*
D11*
X97500000Y-109437500D03*
D10*
G36*
X103089943Y-108751655D02*
X103123312Y-108756605D01*
X103156035Y-108764802D01*
X103187797Y-108776166D01*
X103218293Y-108790590D01*
X103247227Y-108807932D01*
X103274323Y-108828028D01*
X103299318Y-108850682D01*
X103321972Y-108875677D01*
X103342068Y-108902773D01*
X103359410Y-108931707D01*
X103373834Y-108962203D01*
X103385198Y-108993965D01*
X103393395Y-109026688D01*
X103398345Y-109060057D01*
X103400000Y-109093750D01*
X103400000Y-109781250D01*
X103398345Y-109814943D01*
X103393395Y-109848312D01*
X103385198Y-109881035D01*
X103373834Y-109912797D01*
X103359410Y-109943293D01*
X103342068Y-109972227D01*
X103321972Y-109999323D01*
X103299318Y-110024318D01*
X103274323Y-110046972D01*
X103247227Y-110067068D01*
X103218293Y-110084410D01*
X103187797Y-110098834D01*
X103156035Y-110110198D01*
X103123312Y-110118395D01*
X103089943Y-110123345D01*
X103056250Y-110125000D01*
X101943750Y-110125000D01*
X101910057Y-110123345D01*
X101876688Y-110118395D01*
X101843965Y-110110198D01*
X101812203Y-110098834D01*
X101781707Y-110084410D01*
X101752773Y-110067068D01*
X101725677Y-110046972D01*
X101700682Y-110024318D01*
X101678028Y-109999323D01*
X101657932Y-109972227D01*
X101640590Y-109943293D01*
X101626166Y-109912797D01*
X101614802Y-109881035D01*
X101606605Y-109848312D01*
X101601655Y-109814943D01*
X101600000Y-109781250D01*
X101600000Y-109093750D01*
X101601655Y-109060057D01*
X101606605Y-109026688D01*
X101614802Y-108993965D01*
X101626166Y-108962203D01*
X101640590Y-108931707D01*
X101657932Y-108902773D01*
X101678028Y-108875677D01*
X101700682Y-108850682D01*
X101725677Y-108828028D01*
X101752773Y-108807932D01*
X101781707Y-108790590D01*
X101812203Y-108776166D01*
X101843965Y-108764802D01*
X101876688Y-108756605D01*
X101910057Y-108751655D01*
X101943750Y-108750000D01*
X103056250Y-108750000D01*
X103089943Y-108751655D01*
X103089943Y-108751655D01*
G37*
D11*
X102500000Y-109437500D03*
D10*
G36*
X103089943Y-106876655D02*
X103123312Y-106881605D01*
X103156035Y-106889802D01*
X103187797Y-106901166D01*
X103218293Y-106915590D01*
X103247227Y-106932932D01*
X103274323Y-106953028D01*
X103299318Y-106975682D01*
X103321972Y-107000677D01*
X103342068Y-107027773D01*
X103359410Y-107056707D01*
X103373834Y-107087203D01*
X103385198Y-107118965D01*
X103393395Y-107151688D01*
X103398345Y-107185057D01*
X103400000Y-107218750D01*
X103400000Y-107906250D01*
X103398345Y-107939943D01*
X103393395Y-107973312D01*
X103385198Y-108006035D01*
X103373834Y-108037797D01*
X103359410Y-108068293D01*
X103342068Y-108097227D01*
X103321972Y-108124323D01*
X103299318Y-108149318D01*
X103274323Y-108171972D01*
X103247227Y-108192068D01*
X103218293Y-108209410D01*
X103187797Y-108223834D01*
X103156035Y-108235198D01*
X103123312Y-108243395D01*
X103089943Y-108248345D01*
X103056250Y-108250000D01*
X101943750Y-108250000D01*
X101910057Y-108248345D01*
X101876688Y-108243395D01*
X101843965Y-108235198D01*
X101812203Y-108223834D01*
X101781707Y-108209410D01*
X101752773Y-108192068D01*
X101725677Y-108171972D01*
X101700682Y-108149318D01*
X101678028Y-108124323D01*
X101657932Y-108097227D01*
X101640590Y-108068293D01*
X101626166Y-108037797D01*
X101614802Y-108006035D01*
X101606605Y-107973312D01*
X101601655Y-107939943D01*
X101600000Y-107906250D01*
X101600000Y-107218750D01*
X101601655Y-107185057D01*
X101606605Y-107151688D01*
X101614802Y-107118965D01*
X101626166Y-107087203D01*
X101640590Y-107056707D01*
X101657932Y-107027773D01*
X101678028Y-107000677D01*
X101700682Y-106975682D01*
X101725677Y-106953028D01*
X101752773Y-106932932D01*
X101781707Y-106915590D01*
X101812203Y-106901166D01*
X101843965Y-106889802D01*
X101876688Y-106881605D01*
X101910057Y-106876655D01*
X101943750Y-106875000D01*
X103056250Y-106875000D01*
X103089943Y-106876655D01*
X103089943Y-106876655D01*
G37*
D11*
X102500000Y-107562500D03*
D10*
G36*
X103089943Y-128896655D02*
X103123312Y-128901605D01*
X103156035Y-128909802D01*
X103187797Y-128921166D01*
X103218293Y-128935590D01*
X103247227Y-128952932D01*
X103274323Y-128973028D01*
X103299318Y-128995682D01*
X103321972Y-129020677D01*
X103342068Y-129047773D01*
X103359410Y-129076707D01*
X103373834Y-129107203D01*
X103385198Y-129138965D01*
X103393395Y-129171688D01*
X103398345Y-129205057D01*
X103400000Y-129238750D01*
X103400000Y-129926250D01*
X103398345Y-129959943D01*
X103393395Y-129993312D01*
X103385198Y-130026035D01*
X103373834Y-130057797D01*
X103359410Y-130088293D01*
X103342068Y-130117227D01*
X103321972Y-130144323D01*
X103299318Y-130169318D01*
X103274323Y-130191972D01*
X103247227Y-130212068D01*
X103218293Y-130229410D01*
X103187797Y-130243834D01*
X103156035Y-130255198D01*
X103123312Y-130263395D01*
X103089943Y-130268345D01*
X103056250Y-130270000D01*
X101943750Y-130270000D01*
X101910057Y-130268345D01*
X101876688Y-130263395D01*
X101843965Y-130255198D01*
X101812203Y-130243834D01*
X101781707Y-130229410D01*
X101752773Y-130212068D01*
X101725677Y-130191972D01*
X101700682Y-130169318D01*
X101678028Y-130144323D01*
X101657932Y-130117227D01*
X101640590Y-130088293D01*
X101626166Y-130057797D01*
X101614802Y-130026035D01*
X101606605Y-129993312D01*
X101601655Y-129959943D01*
X101600000Y-129926250D01*
X101600000Y-129238750D01*
X101601655Y-129205057D01*
X101606605Y-129171688D01*
X101614802Y-129138965D01*
X101626166Y-129107203D01*
X101640590Y-129076707D01*
X101657932Y-129047773D01*
X101678028Y-129020677D01*
X101700682Y-128995682D01*
X101725677Y-128973028D01*
X101752773Y-128952932D01*
X101781707Y-128935590D01*
X101812203Y-128921166D01*
X101843965Y-128909802D01*
X101876688Y-128901605D01*
X101910057Y-128896655D01*
X101943750Y-128895000D01*
X103056250Y-128895000D01*
X103089943Y-128896655D01*
X103089943Y-128896655D01*
G37*
D11*
X102500000Y-129582500D03*
D10*
G36*
X103089943Y-130771655D02*
X103123312Y-130776605D01*
X103156035Y-130784802D01*
X103187797Y-130796166D01*
X103218293Y-130810590D01*
X103247227Y-130827932D01*
X103274323Y-130848028D01*
X103299318Y-130870682D01*
X103321972Y-130895677D01*
X103342068Y-130922773D01*
X103359410Y-130951707D01*
X103373834Y-130982203D01*
X103385198Y-131013965D01*
X103393395Y-131046688D01*
X103398345Y-131080057D01*
X103400000Y-131113750D01*
X103400000Y-131801250D01*
X103398345Y-131834943D01*
X103393395Y-131868312D01*
X103385198Y-131901035D01*
X103373834Y-131932797D01*
X103359410Y-131963293D01*
X103342068Y-131992227D01*
X103321972Y-132019323D01*
X103299318Y-132044318D01*
X103274323Y-132066972D01*
X103247227Y-132087068D01*
X103218293Y-132104410D01*
X103187797Y-132118834D01*
X103156035Y-132130198D01*
X103123312Y-132138395D01*
X103089943Y-132143345D01*
X103056250Y-132145000D01*
X101943750Y-132145000D01*
X101910057Y-132143345D01*
X101876688Y-132138395D01*
X101843965Y-132130198D01*
X101812203Y-132118834D01*
X101781707Y-132104410D01*
X101752773Y-132087068D01*
X101725677Y-132066972D01*
X101700682Y-132044318D01*
X101678028Y-132019323D01*
X101657932Y-131992227D01*
X101640590Y-131963293D01*
X101626166Y-131932797D01*
X101614802Y-131901035D01*
X101606605Y-131868312D01*
X101601655Y-131834943D01*
X101600000Y-131801250D01*
X101600000Y-131113750D01*
X101601655Y-131080057D01*
X101606605Y-131046688D01*
X101614802Y-131013965D01*
X101626166Y-130982203D01*
X101640590Y-130951707D01*
X101657932Y-130922773D01*
X101678028Y-130895677D01*
X101700682Y-130870682D01*
X101725677Y-130848028D01*
X101752773Y-130827932D01*
X101781707Y-130810590D01*
X101812203Y-130796166D01*
X101843965Y-130784802D01*
X101876688Y-130776605D01*
X101910057Y-130771655D01*
X101943750Y-130770000D01*
X103056250Y-130770000D01*
X103089943Y-130771655D01*
X103089943Y-130771655D01*
G37*
D11*
X102500000Y-131457500D03*
D10*
G36*
X123814943Y-127351655D02*
X123848312Y-127356605D01*
X123881035Y-127364802D01*
X123912797Y-127376166D01*
X123943293Y-127390590D01*
X123972227Y-127407932D01*
X123999323Y-127428028D01*
X124024318Y-127450682D01*
X124046972Y-127475677D01*
X124067068Y-127502773D01*
X124084410Y-127531707D01*
X124098834Y-127562203D01*
X124110198Y-127593965D01*
X124118395Y-127626688D01*
X124123345Y-127660057D01*
X124125000Y-127693750D01*
X124125000Y-128806250D01*
X124123345Y-128839943D01*
X124118395Y-128873312D01*
X124110198Y-128906035D01*
X124098834Y-128937797D01*
X124084410Y-128968293D01*
X124067068Y-128997227D01*
X124046972Y-129024323D01*
X124024318Y-129049318D01*
X123999323Y-129071972D01*
X123972227Y-129092068D01*
X123943293Y-129109410D01*
X123912797Y-129123834D01*
X123881035Y-129135198D01*
X123848312Y-129143395D01*
X123814943Y-129148345D01*
X123781250Y-129150000D01*
X123093750Y-129150000D01*
X123060057Y-129148345D01*
X123026688Y-129143395D01*
X122993965Y-129135198D01*
X122962203Y-129123834D01*
X122931707Y-129109410D01*
X122902773Y-129092068D01*
X122875677Y-129071972D01*
X122850682Y-129049318D01*
X122828028Y-129024323D01*
X122807932Y-128997227D01*
X122790590Y-128968293D01*
X122776166Y-128937797D01*
X122764802Y-128906035D01*
X122756605Y-128873312D01*
X122751655Y-128839943D01*
X122750000Y-128806250D01*
X122750000Y-127693750D01*
X122751655Y-127660057D01*
X122756605Y-127626688D01*
X122764802Y-127593965D01*
X122776166Y-127562203D01*
X122790590Y-127531707D01*
X122807932Y-127502773D01*
X122828028Y-127475677D01*
X122850682Y-127450682D01*
X122875677Y-127428028D01*
X122902773Y-127407932D01*
X122931707Y-127390590D01*
X122962203Y-127376166D01*
X122993965Y-127364802D01*
X123026688Y-127356605D01*
X123060057Y-127351655D01*
X123093750Y-127350000D01*
X123781250Y-127350000D01*
X123814943Y-127351655D01*
X123814943Y-127351655D01*
G37*
D11*
X123437500Y-128250000D03*
D10*
G36*
X121939943Y-127351655D02*
X121973312Y-127356605D01*
X122006035Y-127364802D01*
X122037797Y-127376166D01*
X122068293Y-127390590D01*
X122097227Y-127407932D01*
X122124323Y-127428028D01*
X122149318Y-127450682D01*
X122171972Y-127475677D01*
X122192068Y-127502773D01*
X122209410Y-127531707D01*
X122223834Y-127562203D01*
X122235198Y-127593965D01*
X122243395Y-127626688D01*
X122248345Y-127660057D01*
X122250000Y-127693750D01*
X122250000Y-128806250D01*
X122248345Y-128839943D01*
X122243395Y-128873312D01*
X122235198Y-128906035D01*
X122223834Y-128937797D01*
X122209410Y-128968293D01*
X122192068Y-128997227D01*
X122171972Y-129024323D01*
X122149318Y-129049318D01*
X122124323Y-129071972D01*
X122097227Y-129092068D01*
X122068293Y-129109410D01*
X122037797Y-129123834D01*
X122006035Y-129135198D01*
X121973312Y-129143395D01*
X121939943Y-129148345D01*
X121906250Y-129150000D01*
X121218750Y-129150000D01*
X121185057Y-129148345D01*
X121151688Y-129143395D01*
X121118965Y-129135198D01*
X121087203Y-129123834D01*
X121056707Y-129109410D01*
X121027773Y-129092068D01*
X121000677Y-129071972D01*
X120975682Y-129049318D01*
X120953028Y-129024323D01*
X120932932Y-128997227D01*
X120915590Y-128968293D01*
X120901166Y-128937797D01*
X120889802Y-128906035D01*
X120881605Y-128873312D01*
X120876655Y-128839943D01*
X120875000Y-128806250D01*
X120875000Y-127693750D01*
X120876655Y-127660057D01*
X120881605Y-127626688D01*
X120889802Y-127593965D01*
X120901166Y-127562203D01*
X120915590Y-127531707D01*
X120932932Y-127502773D01*
X120953028Y-127475677D01*
X120975682Y-127450682D01*
X121000677Y-127428028D01*
X121027773Y-127407932D01*
X121056707Y-127390590D01*
X121087203Y-127376166D01*
X121118965Y-127364802D01*
X121151688Y-127356605D01*
X121185057Y-127351655D01*
X121218750Y-127350000D01*
X121906250Y-127350000D01*
X121939943Y-127351655D01*
X121939943Y-127351655D01*
G37*
D11*
X121562500Y-128250000D03*
D10*
G36*
X121939943Y-131101655D02*
X121973312Y-131106605D01*
X122006035Y-131114802D01*
X122037797Y-131126166D01*
X122068293Y-131140590D01*
X122097227Y-131157932D01*
X122124323Y-131178028D01*
X122149318Y-131200682D01*
X122171972Y-131225677D01*
X122192068Y-131252773D01*
X122209410Y-131281707D01*
X122223834Y-131312203D01*
X122235198Y-131343965D01*
X122243395Y-131376688D01*
X122248345Y-131410057D01*
X122250000Y-131443750D01*
X122250000Y-132556250D01*
X122248345Y-132589943D01*
X122243395Y-132623312D01*
X122235198Y-132656035D01*
X122223834Y-132687797D01*
X122209410Y-132718293D01*
X122192068Y-132747227D01*
X122171972Y-132774323D01*
X122149318Y-132799318D01*
X122124323Y-132821972D01*
X122097227Y-132842068D01*
X122068293Y-132859410D01*
X122037797Y-132873834D01*
X122006035Y-132885198D01*
X121973312Y-132893395D01*
X121939943Y-132898345D01*
X121906250Y-132900000D01*
X121218750Y-132900000D01*
X121185057Y-132898345D01*
X121151688Y-132893395D01*
X121118965Y-132885198D01*
X121087203Y-132873834D01*
X121056707Y-132859410D01*
X121027773Y-132842068D01*
X121000677Y-132821972D01*
X120975682Y-132799318D01*
X120953028Y-132774323D01*
X120932932Y-132747227D01*
X120915590Y-132718293D01*
X120901166Y-132687797D01*
X120889802Y-132656035D01*
X120881605Y-132623312D01*
X120876655Y-132589943D01*
X120875000Y-132556250D01*
X120875000Y-131443750D01*
X120876655Y-131410057D01*
X120881605Y-131376688D01*
X120889802Y-131343965D01*
X120901166Y-131312203D01*
X120915590Y-131281707D01*
X120932932Y-131252773D01*
X120953028Y-131225677D01*
X120975682Y-131200682D01*
X121000677Y-131178028D01*
X121027773Y-131157932D01*
X121056707Y-131140590D01*
X121087203Y-131126166D01*
X121118965Y-131114802D01*
X121151688Y-131106605D01*
X121185057Y-131101655D01*
X121218750Y-131100000D01*
X121906250Y-131100000D01*
X121939943Y-131101655D01*
X121939943Y-131101655D01*
G37*
D11*
X121562500Y-132000000D03*
D10*
G36*
X123814943Y-131101655D02*
X123848312Y-131106605D01*
X123881035Y-131114802D01*
X123912797Y-131126166D01*
X123943293Y-131140590D01*
X123972227Y-131157932D01*
X123999323Y-131178028D01*
X124024318Y-131200682D01*
X124046972Y-131225677D01*
X124067068Y-131252773D01*
X124084410Y-131281707D01*
X124098834Y-131312203D01*
X124110198Y-131343965D01*
X124118395Y-131376688D01*
X124123345Y-131410057D01*
X124125000Y-131443750D01*
X124125000Y-132556250D01*
X124123345Y-132589943D01*
X124118395Y-132623312D01*
X124110198Y-132656035D01*
X124098834Y-132687797D01*
X124084410Y-132718293D01*
X124067068Y-132747227D01*
X124046972Y-132774323D01*
X124024318Y-132799318D01*
X123999323Y-132821972D01*
X123972227Y-132842068D01*
X123943293Y-132859410D01*
X123912797Y-132873834D01*
X123881035Y-132885198D01*
X123848312Y-132893395D01*
X123814943Y-132898345D01*
X123781250Y-132900000D01*
X123093750Y-132900000D01*
X123060057Y-132898345D01*
X123026688Y-132893395D01*
X122993965Y-132885198D01*
X122962203Y-132873834D01*
X122931707Y-132859410D01*
X122902773Y-132842068D01*
X122875677Y-132821972D01*
X122850682Y-132799318D01*
X122828028Y-132774323D01*
X122807932Y-132747227D01*
X122790590Y-132718293D01*
X122776166Y-132687797D01*
X122764802Y-132656035D01*
X122756605Y-132623312D01*
X122751655Y-132589943D01*
X122750000Y-132556250D01*
X122750000Y-131443750D01*
X122751655Y-131410057D01*
X122756605Y-131376688D01*
X122764802Y-131343965D01*
X122776166Y-131312203D01*
X122790590Y-131281707D01*
X122807932Y-131252773D01*
X122828028Y-131225677D01*
X122850682Y-131200682D01*
X122875677Y-131178028D01*
X122902773Y-131157932D01*
X122931707Y-131140590D01*
X122962203Y-131126166D01*
X122993965Y-131114802D01*
X123026688Y-131106605D01*
X123060057Y-131101655D01*
X123093750Y-131100000D01*
X123781250Y-131100000D01*
X123814943Y-131101655D01*
X123814943Y-131101655D01*
G37*
D11*
X123437500Y-132000000D03*
D10*
G36*
X116189943Y-118851655D02*
X116223312Y-118856605D01*
X116256035Y-118864802D01*
X116287797Y-118876166D01*
X116318293Y-118890590D01*
X116347227Y-118907932D01*
X116374323Y-118928028D01*
X116399318Y-118950682D01*
X116421972Y-118975677D01*
X116442068Y-119002773D01*
X116459410Y-119031707D01*
X116473834Y-119062203D01*
X116485198Y-119093965D01*
X116493395Y-119126688D01*
X116498345Y-119160057D01*
X116500000Y-119193750D01*
X116500000Y-120306250D01*
X116498345Y-120339943D01*
X116493395Y-120373312D01*
X116485198Y-120406035D01*
X116473834Y-120437797D01*
X116459410Y-120468293D01*
X116442068Y-120497227D01*
X116421972Y-120524323D01*
X116399318Y-120549318D01*
X116374323Y-120571972D01*
X116347227Y-120592068D01*
X116318293Y-120609410D01*
X116287797Y-120623834D01*
X116256035Y-120635198D01*
X116223312Y-120643395D01*
X116189943Y-120648345D01*
X116156250Y-120650000D01*
X115468750Y-120650000D01*
X115435057Y-120648345D01*
X115401688Y-120643395D01*
X115368965Y-120635198D01*
X115337203Y-120623834D01*
X115306707Y-120609410D01*
X115277773Y-120592068D01*
X115250677Y-120571972D01*
X115225682Y-120549318D01*
X115203028Y-120524323D01*
X115182932Y-120497227D01*
X115165590Y-120468293D01*
X115151166Y-120437797D01*
X115139802Y-120406035D01*
X115131605Y-120373312D01*
X115126655Y-120339943D01*
X115125000Y-120306250D01*
X115125000Y-119193750D01*
X115126655Y-119160057D01*
X115131605Y-119126688D01*
X115139802Y-119093965D01*
X115151166Y-119062203D01*
X115165590Y-119031707D01*
X115182932Y-119002773D01*
X115203028Y-118975677D01*
X115225682Y-118950682D01*
X115250677Y-118928028D01*
X115277773Y-118907932D01*
X115306707Y-118890590D01*
X115337203Y-118876166D01*
X115368965Y-118864802D01*
X115401688Y-118856605D01*
X115435057Y-118851655D01*
X115468750Y-118850000D01*
X116156250Y-118850000D01*
X116189943Y-118851655D01*
X116189943Y-118851655D01*
G37*
D11*
X115812500Y-119750000D03*
D10*
G36*
X118064943Y-118851655D02*
X118098312Y-118856605D01*
X118131035Y-118864802D01*
X118162797Y-118876166D01*
X118193293Y-118890590D01*
X118222227Y-118907932D01*
X118249323Y-118928028D01*
X118274318Y-118950682D01*
X118296972Y-118975677D01*
X118317068Y-119002773D01*
X118334410Y-119031707D01*
X118348834Y-119062203D01*
X118360198Y-119093965D01*
X118368395Y-119126688D01*
X118373345Y-119160057D01*
X118375000Y-119193750D01*
X118375000Y-120306250D01*
X118373345Y-120339943D01*
X118368395Y-120373312D01*
X118360198Y-120406035D01*
X118348834Y-120437797D01*
X118334410Y-120468293D01*
X118317068Y-120497227D01*
X118296972Y-120524323D01*
X118274318Y-120549318D01*
X118249323Y-120571972D01*
X118222227Y-120592068D01*
X118193293Y-120609410D01*
X118162797Y-120623834D01*
X118131035Y-120635198D01*
X118098312Y-120643395D01*
X118064943Y-120648345D01*
X118031250Y-120650000D01*
X117343750Y-120650000D01*
X117310057Y-120648345D01*
X117276688Y-120643395D01*
X117243965Y-120635198D01*
X117212203Y-120623834D01*
X117181707Y-120609410D01*
X117152773Y-120592068D01*
X117125677Y-120571972D01*
X117100682Y-120549318D01*
X117078028Y-120524323D01*
X117057932Y-120497227D01*
X117040590Y-120468293D01*
X117026166Y-120437797D01*
X117014802Y-120406035D01*
X117006605Y-120373312D01*
X117001655Y-120339943D01*
X117000000Y-120306250D01*
X117000000Y-119193750D01*
X117001655Y-119160057D01*
X117006605Y-119126688D01*
X117014802Y-119093965D01*
X117026166Y-119062203D01*
X117040590Y-119031707D01*
X117057932Y-119002773D01*
X117078028Y-118975677D01*
X117100682Y-118950682D01*
X117125677Y-118928028D01*
X117152773Y-118907932D01*
X117181707Y-118890590D01*
X117212203Y-118876166D01*
X117243965Y-118864802D01*
X117276688Y-118856605D01*
X117310057Y-118851655D01*
X117343750Y-118850000D01*
X118031250Y-118850000D01*
X118064943Y-118851655D01*
X118064943Y-118851655D01*
G37*
D11*
X117687500Y-119750000D03*
D10*
G36*
X100589943Y-106876655D02*
X100623312Y-106881605D01*
X100656035Y-106889802D01*
X100687797Y-106901166D01*
X100718293Y-106915590D01*
X100747227Y-106932932D01*
X100774323Y-106953028D01*
X100799318Y-106975682D01*
X100821972Y-107000677D01*
X100842068Y-107027773D01*
X100859410Y-107056707D01*
X100873834Y-107087203D01*
X100885198Y-107118965D01*
X100893395Y-107151688D01*
X100898345Y-107185057D01*
X100900000Y-107218750D01*
X100900000Y-107906250D01*
X100898345Y-107939943D01*
X100893395Y-107973312D01*
X100885198Y-108006035D01*
X100873834Y-108037797D01*
X100859410Y-108068293D01*
X100842068Y-108097227D01*
X100821972Y-108124323D01*
X100799318Y-108149318D01*
X100774323Y-108171972D01*
X100747227Y-108192068D01*
X100718293Y-108209410D01*
X100687797Y-108223834D01*
X100656035Y-108235198D01*
X100623312Y-108243395D01*
X100589943Y-108248345D01*
X100556250Y-108250000D01*
X99443750Y-108250000D01*
X99410057Y-108248345D01*
X99376688Y-108243395D01*
X99343965Y-108235198D01*
X99312203Y-108223834D01*
X99281707Y-108209410D01*
X99252773Y-108192068D01*
X99225677Y-108171972D01*
X99200682Y-108149318D01*
X99178028Y-108124323D01*
X99157932Y-108097227D01*
X99140590Y-108068293D01*
X99126166Y-108037797D01*
X99114802Y-108006035D01*
X99106605Y-107973312D01*
X99101655Y-107939943D01*
X99100000Y-107906250D01*
X99100000Y-107218750D01*
X99101655Y-107185057D01*
X99106605Y-107151688D01*
X99114802Y-107118965D01*
X99126166Y-107087203D01*
X99140590Y-107056707D01*
X99157932Y-107027773D01*
X99178028Y-107000677D01*
X99200682Y-106975682D01*
X99225677Y-106953028D01*
X99252773Y-106932932D01*
X99281707Y-106915590D01*
X99312203Y-106901166D01*
X99343965Y-106889802D01*
X99376688Y-106881605D01*
X99410057Y-106876655D01*
X99443750Y-106875000D01*
X100556250Y-106875000D01*
X100589943Y-106876655D01*
X100589943Y-106876655D01*
G37*
D11*
X100000000Y-107562500D03*
D10*
G36*
X100589943Y-108751655D02*
X100623312Y-108756605D01*
X100656035Y-108764802D01*
X100687797Y-108776166D01*
X100718293Y-108790590D01*
X100747227Y-108807932D01*
X100774323Y-108828028D01*
X100799318Y-108850682D01*
X100821972Y-108875677D01*
X100842068Y-108902773D01*
X100859410Y-108931707D01*
X100873834Y-108962203D01*
X100885198Y-108993965D01*
X100893395Y-109026688D01*
X100898345Y-109060057D01*
X100900000Y-109093750D01*
X100900000Y-109781250D01*
X100898345Y-109814943D01*
X100893395Y-109848312D01*
X100885198Y-109881035D01*
X100873834Y-109912797D01*
X100859410Y-109943293D01*
X100842068Y-109972227D01*
X100821972Y-109999323D01*
X100799318Y-110024318D01*
X100774323Y-110046972D01*
X100747227Y-110067068D01*
X100718293Y-110084410D01*
X100687797Y-110098834D01*
X100656035Y-110110198D01*
X100623312Y-110118395D01*
X100589943Y-110123345D01*
X100556250Y-110125000D01*
X99443750Y-110125000D01*
X99410057Y-110123345D01*
X99376688Y-110118395D01*
X99343965Y-110110198D01*
X99312203Y-110098834D01*
X99281707Y-110084410D01*
X99252773Y-110067068D01*
X99225677Y-110046972D01*
X99200682Y-110024318D01*
X99178028Y-109999323D01*
X99157932Y-109972227D01*
X99140590Y-109943293D01*
X99126166Y-109912797D01*
X99114802Y-109881035D01*
X99106605Y-109848312D01*
X99101655Y-109814943D01*
X99100000Y-109781250D01*
X99100000Y-109093750D01*
X99101655Y-109060057D01*
X99106605Y-109026688D01*
X99114802Y-108993965D01*
X99126166Y-108962203D01*
X99140590Y-108931707D01*
X99157932Y-108902773D01*
X99178028Y-108875677D01*
X99200682Y-108850682D01*
X99225677Y-108828028D01*
X99252773Y-108807932D01*
X99281707Y-108790590D01*
X99312203Y-108776166D01*
X99343965Y-108764802D01*
X99376688Y-108756605D01*
X99410057Y-108751655D01*
X99443750Y-108750000D01*
X100556250Y-108750000D01*
X100589943Y-108751655D01*
X100589943Y-108751655D01*
G37*
D11*
X100000000Y-109437500D03*
D14*
X133600000Y-97700000D03*
X135600000Y-90300000D03*
D15*
X126200000Y-90300000D03*
D16*
X134500000Y-94000000D03*
X127500000Y-94000000D03*
D10*
G36*
X125771447Y-103951487D02*
X125801425Y-103955934D01*
X125830824Y-103963298D01*
X125859358Y-103973508D01*
X125886755Y-103986465D01*
X125912750Y-104002046D01*
X125937092Y-104020100D01*
X125959548Y-104040452D01*
X125979900Y-104062908D01*
X125997954Y-104087250D01*
X126013535Y-104113245D01*
X126026492Y-104140642D01*
X126036702Y-104169176D01*
X126044066Y-104198575D01*
X126048513Y-104228553D01*
X126050000Y-104258823D01*
X126050000Y-105741177D01*
X126048513Y-105771447D01*
X126044066Y-105801425D01*
X126036702Y-105830824D01*
X126026492Y-105859358D01*
X126013535Y-105886755D01*
X125997954Y-105912750D01*
X125979900Y-105937092D01*
X125959548Y-105959548D01*
X125937092Y-105979900D01*
X125912750Y-105997954D01*
X125886755Y-106013535D01*
X125859358Y-106026492D01*
X125830824Y-106036702D01*
X125801425Y-106044066D01*
X125771447Y-106048513D01*
X125741177Y-106050000D01*
X124258823Y-106050000D01*
X124228553Y-106048513D01*
X124198575Y-106044066D01*
X124169176Y-106036702D01*
X124140642Y-106026492D01*
X124113245Y-106013535D01*
X124087250Y-105997954D01*
X124062908Y-105979900D01*
X124040452Y-105959548D01*
X124020100Y-105937092D01*
X124002046Y-105912750D01*
X123986465Y-105886755D01*
X123973508Y-105859358D01*
X123963298Y-105830824D01*
X123955934Y-105801425D01*
X123951487Y-105771447D01*
X123950000Y-105741177D01*
X123950000Y-104258823D01*
X123951487Y-104228553D01*
X123955934Y-104198575D01*
X123963298Y-104169176D01*
X123973508Y-104140642D01*
X123986465Y-104113245D01*
X124002046Y-104087250D01*
X124020100Y-104062908D01*
X124040452Y-104040452D01*
X124062908Y-104020100D01*
X124087250Y-104002046D01*
X124113245Y-103986465D01*
X124140642Y-103973508D01*
X124169176Y-103963298D01*
X124198575Y-103955934D01*
X124228553Y-103951487D01*
X124258823Y-103950000D01*
X125741177Y-103950000D01*
X125771447Y-103951487D01*
X125771447Y-103951487D01*
G37*
D16*
X125000000Y-105000000D03*
X125000000Y-107500000D03*
X127500000Y-105000000D03*
X127500000Y-107500000D03*
X134680000Y-105000000D03*
X134680000Y-107500000D03*
D17*
X112400000Y-124000000D03*
X108100000Y-124000000D03*
X108100000Y-119000000D03*
X112400000Y-119000000D03*
D18*
X94000000Y-125800000D03*
X94500000Y-125800000D03*
X95000000Y-125800000D03*
X95500000Y-125800000D03*
X96000000Y-125800000D03*
X96000000Y-130200000D03*
X95500000Y-130200000D03*
X95000000Y-130200000D03*
X94500000Y-130200000D03*
X94000000Y-130200000D03*
D19*
X121950000Y-125225000D03*
X121950000Y-124575000D03*
X121950000Y-123925000D03*
X121950000Y-123275000D03*
X117550000Y-123275000D03*
X117550000Y-123925000D03*
X117550000Y-124575000D03*
X117550000Y-125225000D03*
D10*
G36*
X106474504Y-127846204D02*
X106498773Y-127849804D01*
X106522571Y-127855765D01*
X106545671Y-127864030D01*
X106567849Y-127874520D01*
X106588893Y-127887133D01*
X106608598Y-127901747D01*
X106626777Y-127918223D01*
X106643253Y-127936402D01*
X106657867Y-127956107D01*
X106670480Y-127977151D01*
X106680970Y-127999329D01*
X106689235Y-128022429D01*
X106695196Y-128046227D01*
X106698796Y-128070496D01*
X106700000Y-128095000D01*
X106700000Y-128595000D01*
X106698796Y-128619504D01*
X106695196Y-128643773D01*
X106689235Y-128667571D01*
X106680970Y-128690671D01*
X106670480Y-128712849D01*
X106657867Y-128733893D01*
X106643253Y-128753598D01*
X106626777Y-128771777D01*
X106608598Y-128788253D01*
X106588893Y-128802867D01*
X106567849Y-128815480D01*
X106545671Y-128825970D01*
X106522571Y-128834235D01*
X106498773Y-128840196D01*
X106474504Y-128843796D01*
X106450000Y-128845000D01*
X104600000Y-128845000D01*
X104575496Y-128843796D01*
X104551227Y-128840196D01*
X104527429Y-128834235D01*
X104504329Y-128825970D01*
X104482151Y-128815480D01*
X104461107Y-128802867D01*
X104441402Y-128788253D01*
X104423223Y-128771777D01*
X104406747Y-128753598D01*
X104392133Y-128733893D01*
X104379520Y-128712849D01*
X104369030Y-128690671D01*
X104360765Y-128667571D01*
X104354804Y-128643773D01*
X104351204Y-128619504D01*
X104350000Y-128595000D01*
X104350000Y-128095000D01*
X104351204Y-128070496D01*
X104354804Y-128046227D01*
X104360765Y-128022429D01*
X104369030Y-127999329D01*
X104379520Y-127977151D01*
X104392133Y-127956107D01*
X104406747Y-127936402D01*
X104423223Y-127918223D01*
X104441402Y-127901747D01*
X104461107Y-127887133D01*
X104482151Y-127874520D01*
X104504329Y-127864030D01*
X104527429Y-127855765D01*
X104551227Y-127849804D01*
X104575496Y-127846204D01*
X104600000Y-127845000D01*
X106450000Y-127845000D01*
X106474504Y-127846204D01*
X106474504Y-127846204D01*
G37*
D20*
X105525000Y-128345000D03*
D10*
G36*
X106474504Y-129116204D02*
X106498773Y-129119804D01*
X106522571Y-129125765D01*
X106545671Y-129134030D01*
X106567849Y-129144520D01*
X106588893Y-129157133D01*
X106608598Y-129171747D01*
X106626777Y-129188223D01*
X106643253Y-129206402D01*
X106657867Y-129226107D01*
X106670480Y-129247151D01*
X106680970Y-129269329D01*
X106689235Y-129292429D01*
X106695196Y-129316227D01*
X106698796Y-129340496D01*
X106700000Y-129365000D01*
X106700000Y-129865000D01*
X106698796Y-129889504D01*
X106695196Y-129913773D01*
X106689235Y-129937571D01*
X106680970Y-129960671D01*
X106670480Y-129982849D01*
X106657867Y-130003893D01*
X106643253Y-130023598D01*
X106626777Y-130041777D01*
X106608598Y-130058253D01*
X106588893Y-130072867D01*
X106567849Y-130085480D01*
X106545671Y-130095970D01*
X106522571Y-130104235D01*
X106498773Y-130110196D01*
X106474504Y-130113796D01*
X106450000Y-130115000D01*
X104600000Y-130115000D01*
X104575496Y-130113796D01*
X104551227Y-130110196D01*
X104527429Y-130104235D01*
X104504329Y-130095970D01*
X104482151Y-130085480D01*
X104461107Y-130072867D01*
X104441402Y-130058253D01*
X104423223Y-130041777D01*
X104406747Y-130023598D01*
X104392133Y-130003893D01*
X104379520Y-129982849D01*
X104369030Y-129960671D01*
X104360765Y-129937571D01*
X104354804Y-129913773D01*
X104351204Y-129889504D01*
X104350000Y-129865000D01*
X104350000Y-129365000D01*
X104351204Y-129340496D01*
X104354804Y-129316227D01*
X104360765Y-129292429D01*
X104369030Y-129269329D01*
X104379520Y-129247151D01*
X104392133Y-129226107D01*
X104406747Y-129206402D01*
X104423223Y-129188223D01*
X104441402Y-129171747D01*
X104461107Y-129157133D01*
X104482151Y-129144520D01*
X104504329Y-129134030D01*
X104527429Y-129125765D01*
X104551227Y-129119804D01*
X104575496Y-129116204D01*
X104600000Y-129115000D01*
X106450000Y-129115000D01*
X106474504Y-129116204D01*
X106474504Y-129116204D01*
G37*
D20*
X105525000Y-129615000D03*
D10*
G36*
X106474504Y-130386204D02*
X106498773Y-130389804D01*
X106522571Y-130395765D01*
X106545671Y-130404030D01*
X106567849Y-130414520D01*
X106588893Y-130427133D01*
X106608598Y-130441747D01*
X106626777Y-130458223D01*
X106643253Y-130476402D01*
X106657867Y-130496107D01*
X106670480Y-130517151D01*
X106680970Y-130539329D01*
X106689235Y-130562429D01*
X106695196Y-130586227D01*
X106698796Y-130610496D01*
X106700000Y-130635000D01*
X106700000Y-131135000D01*
X106698796Y-131159504D01*
X106695196Y-131183773D01*
X106689235Y-131207571D01*
X106680970Y-131230671D01*
X106670480Y-131252849D01*
X106657867Y-131273893D01*
X106643253Y-131293598D01*
X106626777Y-131311777D01*
X106608598Y-131328253D01*
X106588893Y-131342867D01*
X106567849Y-131355480D01*
X106545671Y-131365970D01*
X106522571Y-131374235D01*
X106498773Y-131380196D01*
X106474504Y-131383796D01*
X106450000Y-131385000D01*
X104600000Y-131385000D01*
X104575496Y-131383796D01*
X104551227Y-131380196D01*
X104527429Y-131374235D01*
X104504329Y-131365970D01*
X104482151Y-131355480D01*
X104461107Y-131342867D01*
X104441402Y-131328253D01*
X104423223Y-131311777D01*
X104406747Y-131293598D01*
X104392133Y-131273893D01*
X104379520Y-131252849D01*
X104369030Y-131230671D01*
X104360765Y-131207571D01*
X104354804Y-131183773D01*
X104351204Y-131159504D01*
X104350000Y-131135000D01*
X104350000Y-130635000D01*
X104351204Y-130610496D01*
X104354804Y-130586227D01*
X104360765Y-130562429D01*
X104369030Y-130539329D01*
X104379520Y-130517151D01*
X104392133Y-130496107D01*
X104406747Y-130476402D01*
X104423223Y-130458223D01*
X104441402Y-130441747D01*
X104461107Y-130427133D01*
X104482151Y-130414520D01*
X104504329Y-130404030D01*
X104527429Y-130395765D01*
X104551227Y-130389804D01*
X104575496Y-130386204D01*
X104600000Y-130385000D01*
X106450000Y-130385000D01*
X106474504Y-130386204D01*
X106474504Y-130386204D01*
G37*
D20*
X105525000Y-130885000D03*
D10*
G36*
X106474504Y-131656204D02*
X106498773Y-131659804D01*
X106522571Y-131665765D01*
X106545671Y-131674030D01*
X106567849Y-131684520D01*
X106588893Y-131697133D01*
X106608598Y-131711747D01*
X106626777Y-131728223D01*
X106643253Y-131746402D01*
X106657867Y-131766107D01*
X106670480Y-131787151D01*
X106680970Y-131809329D01*
X106689235Y-131832429D01*
X106695196Y-131856227D01*
X106698796Y-131880496D01*
X106700000Y-131905000D01*
X106700000Y-132405000D01*
X106698796Y-132429504D01*
X106695196Y-132453773D01*
X106689235Y-132477571D01*
X106680970Y-132500671D01*
X106670480Y-132522849D01*
X106657867Y-132543893D01*
X106643253Y-132563598D01*
X106626777Y-132581777D01*
X106608598Y-132598253D01*
X106588893Y-132612867D01*
X106567849Y-132625480D01*
X106545671Y-132635970D01*
X106522571Y-132644235D01*
X106498773Y-132650196D01*
X106474504Y-132653796D01*
X106450000Y-132655000D01*
X104600000Y-132655000D01*
X104575496Y-132653796D01*
X104551227Y-132650196D01*
X104527429Y-132644235D01*
X104504329Y-132635970D01*
X104482151Y-132625480D01*
X104461107Y-132612867D01*
X104441402Y-132598253D01*
X104423223Y-132581777D01*
X104406747Y-132563598D01*
X104392133Y-132543893D01*
X104379520Y-132522849D01*
X104369030Y-132500671D01*
X104360765Y-132477571D01*
X104354804Y-132453773D01*
X104351204Y-132429504D01*
X104350000Y-132405000D01*
X104350000Y-131905000D01*
X104351204Y-131880496D01*
X104354804Y-131856227D01*
X104360765Y-131832429D01*
X104369030Y-131809329D01*
X104379520Y-131787151D01*
X104392133Y-131766107D01*
X104406747Y-131746402D01*
X104423223Y-131728223D01*
X104441402Y-131711747D01*
X104461107Y-131697133D01*
X104482151Y-131684520D01*
X104504329Y-131674030D01*
X104527429Y-131665765D01*
X104551227Y-131659804D01*
X104575496Y-131656204D01*
X104600000Y-131655000D01*
X106450000Y-131655000D01*
X106474504Y-131656204D01*
X106474504Y-131656204D01*
G37*
D20*
X105525000Y-132155000D03*
D10*
G36*
X111424504Y-131656204D02*
X111448773Y-131659804D01*
X111472571Y-131665765D01*
X111495671Y-131674030D01*
X111517849Y-131684520D01*
X111538893Y-131697133D01*
X111558598Y-131711747D01*
X111576777Y-131728223D01*
X111593253Y-131746402D01*
X111607867Y-131766107D01*
X111620480Y-131787151D01*
X111630970Y-131809329D01*
X111639235Y-131832429D01*
X111645196Y-131856227D01*
X111648796Y-131880496D01*
X111650000Y-131905000D01*
X111650000Y-132405000D01*
X111648796Y-132429504D01*
X111645196Y-132453773D01*
X111639235Y-132477571D01*
X111630970Y-132500671D01*
X111620480Y-132522849D01*
X111607867Y-132543893D01*
X111593253Y-132563598D01*
X111576777Y-132581777D01*
X111558598Y-132598253D01*
X111538893Y-132612867D01*
X111517849Y-132625480D01*
X111495671Y-132635970D01*
X111472571Y-132644235D01*
X111448773Y-132650196D01*
X111424504Y-132653796D01*
X111400000Y-132655000D01*
X109550000Y-132655000D01*
X109525496Y-132653796D01*
X109501227Y-132650196D01*
X109477429Y-132644235D01*
X109454329Y-132635970D01*
X109432151Y-132625480D01*
X109411107Y-132612867D01*
X109391402Y-132598253D01*
X109373223Y-132581777D01*
X109356747Y-132563598D01*
X109342133Y-132543893D01*
X109329520Y-132522849D01*
X109319030Y-132500671D01*
X109310765Y-132477571D01*
X109304804Y-132453773D01*
X109301204Y-132429504D01*
X109300000Y-132405000D01*
X109300000Y-131905000D01*
X109301204Y-131880496D01*
X109304804Y-131856227D01*
X109310765Y-131832429D01*
X109319030Y-131809329D01*
X109329520Y-131787151D01*
X109342133Y-131766107D01*
X109356747Y-131746402D01*
X109373223Y-131728223D01*
X109391402Y-131711747D01*
X109411107Y-131697133D01*
X109432151Y-131684520D01*
X109454329Y-131674030D01*
X109477429Y-131665765D01*
X109501227Y-131659804D01*
X109525496Y-131656204D01*
X109550000Y-131655000D01*
X111400000Y-131655000D01*
X111424504Y-131656204D01*
X111424504Y-131656204D01*
G37*
D20*
X110475000Y-132155000D03*
D10*
G36*
X111424504Y-130386204D02*
X111448773Y-130389804D01*
X111472571Y-130395765D01*
X111495671Y-130404030D01*
X111517849Y-130414520D01*
X111538893Y-130427133D01*
X111558598Y-130441747D01*
X111576777Y-130458223D01*
X111593253Y-130476402D01*
X111607867Y-130496107D01*
X111620480Y-130517151D01*
X111630970Y-130539329D01*
X111639235Y-130562429D01*
X111645196Y-130586227D01*
X111648796Y-130610496D01*
X111650000Y-130635000D01*
X111650000Y-131135000D01*
X111648796Y-131159504D01*
X111645196Y-131183773D01*
X111639235Y-131207571D01*
X111630970Y-131230671D01*
X111620480Y-131252849D01*
X111607867Y-131273893D01*
X111593253Y-131293598D01*
X111576777Y-131311777D01*
X111558598Y-131328253D01*
X111538893Y-131342867D01*
X111517849Y-131355480D01*
X111495671Y-131365970D01*
X111472571Y-131374235D01*
X111448773Y-131380196D01*
X111424504Y-131383796D01*
X111400000Y-131385000D01*
X109550000Y-131385000D01*
X109525496Y-131383796D01*
X109501227Y-131380196D01*
X109477429Y-131374235D01*
X109454329Y-131365970D01*
X109432151Y-131355480D01*
X109411107Y-131342867D01*
X109391402Y-131328253D01*
X109373223Y-131311777D01*
X109356747Y-131293598D01*
X109342133Y-131273893D01*
X109329520Y-131252849D01*
X109319030Y-131230671D01*
X109310765Y-131207571D01*
X109304804Y-131183773D01*
X109301204Y-131159504D01*
X109300000Y-131135000D01*
X109300000Y-130635000D01*
X109301204Y-130610496D01*
X109304804Y-130586227D01*
X109310765Y-130562429D01*
X109319030Y-130539329D01*
X109329520Y-130517151D01*
X109342133Y-130496107D01*
X109356747Y-130476402D01*
X109373223Y-130458223D01*
X109391402Y-130441747D01*
X109411107Y-130427133D01*
X109432151Y-130414520D01*
X109454329Y-130404030D01*
X109477429Y-130395765D01*
X109501227Y-130389804D01*
X109525496Y-130386204D01*
X109550000Y-130385000D01*
X111400000Y-130385000D01*
X111424504Y-130386204D01*
X111424504Y-130386204D01*
G37*
D20*
X110475000Y-130885000D03*
D10*
G36*
X111424504Y-129116204D02*
X111448773Y-129119804D01*
X111472571Y-129125765D01*
X111495671Y-129134030D01*
X111517849Y-129144520D01*
X111538893Y-129157133D01*
X111558598Y-129171747D01*
X111576777Y-129188223D01*
X111593253Y-129206402D01*
X111607867Y-129226107D01*
X111620480Y-129247151D01*
X111630970Y-129269329D01*
X111639235Y-129292429D01*
X111645196Y-129316227D01*
X111648796Y-129340496D01*
X111650000Y-129365000D01*
X111650000Y-129865000D01*
X111648796Y-129889504D01*
X111645196Y-129913773D01*
X111639235Y-129937571D01*
X111630970Y-129960671D01*
X111620480Y-129982849D01*
X111607867Y-130003893D01*
X111593253Y-130023598D01*
X111576777Y-130041777D01*
X111558598Y-130058253D01*
X111538893Y-130072867D01*
X111517849Y-130085480D01*
X111495671Y-130095970D01*
X111472571Y-130104235D01*
X111448773Y-130110196D01*
X111424504Y-130113796D01*
X111400000Y-130115000D01*
X109550000Y-130115000D01*
X109525496Y-130113796D01*
X109501227Y-130110196D01*
X109477429Y-130104235D01*
X109454329Y-130095970D01*
X109432151Y-130085480D01*
X109411107Y-130072867D01*
X109391402Y-130058253D01*
X109373223Y-130041777D01*
X109356747Y-130023598D01*
X109342133Y-130003893D01*
X109329520Y-129982849D01*
X109319030Y-129960671D01*
X109310765Y-129937571D01*
X109304804Y-129913773D01*
X109301204Y-129889504D01*
X109300000Y-129865000D01*
X109300000Y-129365000D01*
X109301204Y-129340496D01*
X109304804Y-129316227D01*
X109310765Y-129292429D01*
X109319030Y-129269329D01*
X109329520Y-129247151D01*
X109342133Y-129226107D01*
X109356747Y-129206402D01*
X109373223Y-129188223D01*
X109391402Y-129171747D01*
X109411107Y-129157133D01*
X109432151Y-129144520D01*
X109454329Y-129134030D01*
X109477429Y-129125765D01*
X109501227Y-129119804D01*
X109525496Y-129116204D01*
X109550000Y-129115000D01*
X111400000Y-129115000D01*
X111424504Y-129116204D01*
X111424504Y-129116204D01*
G37*
D20*
X110475000Y-129615000D03*
D10*
G36*
X111424504Y-127846204D02*
X111448773Y-127849804D01*
X111472571Y-127855765D01*
X111495671Y-127864030D01*
X111517849Y-127874520D01*
X111538893Y-127887133D01*
X111558598Y-127901747D01*
X111576777Y-127918223D01*
X111593253Y-127936402D01*
X111607867Y-127956107D01*
X111620480Y-127977151D01*
X111630970Y-127999329D01*
X111639235Y-128022429D01*
X111645196Y-128046227D01*
X111648796Y-128070496D01*
X111650000Y-128095000D01*
X111650000Y-128595000D01*
X111648796Y-128619504D01*
X111645196Y-128643773D01*
X111639235Y-128667571D01*
X111630970Y-128690671D01*
X111620480Y-128712849D01*
X111607867Y-128733893D01*
X111593253Y-128753598D01*
X111576777Y-128771777D01*
X111558598Y-128788253D01*
X111538893Y-128802867D01*
X111517849Y-128815480D01*
X111495671Y-128825970D01*
X111472571Y-128834235D01*
X111448773Y-128840196D01*
X111424504Y-128843796D01*
X111400000Y-128845000D01*
X109550000Y-128845000D01*
X109525496Y-128843796D01*
X109501227Y-128840196D01*
X109477429Y-128834235D01*
X109454329Y-128825970D01*
X109432151Y-128815480D01*
X109411107Y-128802867D01*
X109391402Y-128788253D01*
X109373223Y-128771777D01*
X109356747Y-128753598D01*
X109342133Y-128733893D01*
X109329520Y-128712849D01*
X109319030Y-128690671D01*
X109310765Y-128667571D01*
X109304804Y-128643773D01*
X109301204Y-128619504D01*
X109300000Y-128595000D01*
X109300000Y-128095000D01*
X109301204Y-128070496D01*
X109304804Y-128046227D01*
X109310765Y-128022429D01*
X109319030Y-127999329D01*
X109329520Y-127977151D01*
X109342133Y-127956107D01*
X109356747Y-127936402D01*
X109373223Y-127918223D01*
X109391402Y-127901747D01*
X109411107Y-127887133D01*
X109432151Y-127874520D01*
X109454329Y-127864030D01*
X109477429Y-127855765D01*
X109501227Y-127849804D01*
X109525496Y-127846204D01*
X109550000Y-127845000D01*
X111400000Y-127845000D01*
X111424504Y-127846204D01*
X111424504Y-127846204D01*
G37*
D20*
X110475000Y-128345000D03*
D19*
X103550000Y-93550000D03*
X103550000Y-94200000D03*
X103550000Y-94850000D03*
X103550000Y-95500000D03*
X103550000Y-96150000D03*
X103550000Y-96800000D03*
X103550000Y-97450000D03*
X109450000Y-97450000D03*
X109450000Y-96800000D03*
X109450000Y-96150000D03*
X109450000Y-95500000D03*
X109450000Y-94850000D03*
X109450000Y-94200000D03*
X109450000Y-93550000D03*
D21*
X112000000Y-104000000D03*
X109460000Y-104000000D03*
X106920000Y-104000000D03*
D22*
X132000000Y-83800000D03*
X122000000Y-83800000D03*
D23*
X129500000Y-80500000D03*
X127000000Y-80500000D03*
X124500000Y-80500000D03*
X89500000Y-91000000D03*
X89500000Y-88500000D03*
X89500000Y-86000000D03*
D22*
X92800000Y-93500000D03*
X92800000Y-83500000D03*
X111750000Y-83800000D03*
X101750000Y-83800000D03*
D23*
X109250000Y-80500000D03*
X106750000Y-80500000D03*
X104250000Y-80500000D03*
X89500000Y-107000000D03*
X89500000Y-104500000D03*
X89500000Y-102000000D03*
D22*
X92800000Y-109500000D03*
X92800000Y-99500000D03*
D10*
G36*
X97887493Y-98614535D02*
X97918435Y-98619125D01*
X97948778Y-98626725D01*
X97978230Y-98637263D01*
X98006508Y-98650638D01*
X98033338Y-98666719D01*
X98058463Y-98685353D01*
X98081640Y-98706360D01*
X98102647Y-98729537D01*
X98121281Y-98754662D01*
X98137362Y-98781492D01*
X98150737Y-98809770D01*
X98161275Y-98839222D01*
X98168875Y-98869565D01*
X98173465Y-98900507D01*
X98175000Y-98931750D01*
X98175000Y-99569250D01*
X98173465Y-99600493D01*
X98168875Y-99631435D01*
X98161275Y-99661778D01*
X98150737Y-99691230D01*
X98137362Y-99719508D01*
X98121281Y-99746338D01*
X98102647Y-99771463D01*
X98081640Y-99794640D01*
X98058463Y-99815647D01*
X98033338Y-99834281D01*
X98006508Y-99850362D01*
X97978230Y-99863737D01*
X97948778Y-99874275D01*
X97918435Y-99881875D01*
X97887493Y-99886465D01*
X97856250Y-99888000D01*
X97143750Y-99888000D01*
X97112507Y-99886465D01*
X97081565Y-99881875D01*
X97051222Y-99874275D01*
X97021770Y-99863737D01*
X96993492Y-99850362D01*
X96966662Y-99834281D01*
X96941537Y-99815647D01*
X96918360Y-99794640D01*
X96897353Y-99771463D01*
X96878719Y-99746338D01*
X96862638Y-99719508D01*
X96849263Y-99691230D01*
X96838725Y-99661778D01*
X96831125Y-99631435D01*
X96826535Y-99600493D01*
X96825000Y-99569250D01*
X96825000Y-98931750D01*
X96826535Y-98900507D01*
X96831125Y-98869565D01*
X96838725Y-98839222D01*
X96849263Y-98809770D01*
X96862638Y-98781492D01*
X96878719Y-98754662D01*
X96897353Y-98729537D01*
X96918360Y-98706360D01*
X96941537Y-98685353D01*
X96966662Y-98666719D01*
X96993492Y-98650638D01*
X97021770Y-98637263D01*
X97051222Y-98626725D01*
X97081565Y-98619125D01*
X97112507Y-98614535D01*
X97143750Y-98613000D01*
X97856250Y-98613000D01*
X97887493Y-98614535D01*
X97887493Y-98614535D01*
G37*
D13*
X97500000Y-99250500D03*
D10*
G36*
X97887493Y-100189535D02*
X97918435Y-100194125D01*
X97948778Y-100201725D01*
X97978230Y-100212263D01*
X98006508Y-100225638D01*
X98033338Y-100241719D01*
X98058463Y-100260353D01*
X98081640Y-100281360D01*
X98102647Y-100304537D01*
X98121281Y-100329662D01*
X98137362Y-100356492D01*
X98150737Y-100384770D01*
X98161275Y-100414222D01*
X98168875Y-100444565D01*
X98173465Y-100475507D01*
X98175000Y-100506750D01*
X98175000Y-101144250D01*
X98173465Y-101175493D01*
X98168875Y-101206435D01*
X98161275Y-101236778D01*
X98150737Y-101266230D01*
X98137362Y-101294508D01*
X98121281Y-101321338D01*
X98102647Y-101346463D01*
X98081640Y-101369640D01*
X98058463Y-101390647D01*
X98033338Y-101409281D01*
X98006508Y-101425362D01*
X97978230Y-101438737D01*
X97948778Y-101449275D01*
X97918435Y-101456875D01*
X97887493Y-101461465D01*
X97856250Y-101463000D01*
X97143750Y-101463000D01*
X97112507Y-101461465D01*
X97081565Y-101456875D01*
X97051222Y-101449275D01*
X97021770Y-101438737D01*
X96993492Y-101425362D01*
X96966662Y-101409281D01*
X96941537Y-101390647D01*
X96918360Y-101369640D01*
X96897353Y-101346463D01*
X96878719Y-101321338D01*
X96862638Y-101294508D01*
X96849263Y-101266230D01*
X96838725Y-101236778D01*
X96831125Y-101206435D01*
X96826535Y-101175493D01*
X96825000Y-101144250D01*
X96825000Y-100506750D01*
X96826535Y-100475507D01*
X96831125Y-100444565D01*
X96838725Y-100414222D01*
X96849263Y-100384770D01*
X96862638Y-100356492D01*
X96878719Y-100329662D01*
X96897353Y-100304537D01*
X96918360Y-100281360D01*
X96941537Y-100260353D01*
X96966662Y-100241719D01*
X96993492Y-100225638D01*
X97021770Y-100212263D01*
X97051222Y-100201725D01*
X97081565Y-100194125D01*
X97112507Y-100189535D01*
X97143750Y-100188000D01*
X97856250Y-100188000D01*
X97887493Y-100189535D01*
X97887493Y-100189535D01*
G37*
D13*
X97500000Y-100825500D03*
D10*
G36*
X98387493Y-128576535D02*
X98418435Y-128581125D01*
X98448778Y-128588725D01*
X98478230Y-128599263D01*
X98506508Y-128612638D01*
X98533338Y-128628719D01*
X98558463Y-128647353D01*
X98581640Y-128668360D01*
X98602647Y-128691537D01*
X98621281Y-128716662D01*
X98637362Y-128743492D01*
X98650737Y-128771770D01*
X98661275Y-128801222D01*
X98668875Y-128831565D01*
X98673465Y-128862507D01*
X98675000Y-128893750D01*
X98675000Y-129531250D01*
X98673465Y-129562493D01*
X98668875Y-129593435D01*
X98661275Y-129623778D01*
X98650737Y-129653230D01*
X98637362Y-129681508D01*
X98621281Y-129708338D01*
X98602647Y-129733463D01*
X98581640Y-129756640D01*
X98558463Y-129777647D01*
X98533338Y-129796281D01*
X98506508Y-129812362D01*
X98478230Y-129825737D01*
X98448778Y-129836275D01*
X98418435Y-129843875D01*
X98387493Y-129848465D01*
X98356250Y-129850000D01*
X97643750Y-129850000D01*
X97612507Y-129848465D01*
X97581565Y-129843875D01*
X97551222Y-129836275D01*
X97521770Y-129825737D01*
X97493492Y-129812362D01*
X97466662Y-129796281D01*
X97441537Y-129777647D01*
X97418360Y-129756640D01*
X97397353Y-129733463D01*
X97378719Y-129708338D01*
X97362638Y-129681508D01*
X97349263Y-129653230D01*
X97338725Y-129623778D01*
X97331125Y-129593435D01*
X97326535Y-129562493D01*
X97325000Y-129531250D01*
X97325000Y-128893750D01*
X97326535Y-128862507D01*
X97331125Y-128831565D01*
X97338725Y-128801222D01*
X97349263Y-128771770D01*
X97362638Y-128743492D01*
X97378719Y-128716662D01*
X97397353Y-128691537D01*
X97418360Y-128668360D01*
X97441537Y-128647353D01*
X97466662Y-128628719D01*
X97493492Y-128612638D01*
X97521770Y-128599263D01*
X97551222Y-128588725D01*
X97581565Y-128581125D01*
X97612507Y-128576535D01*
X97643750Y-128575000D01*
X98356250Y-128575000D01*
X98387493Y-128576535D01*
X98387493Y-128576535D01*
G37*
D13*
X98000000Y-129212500D03*
D10*
G36*
X98387493Y-130151535D02*
X98418435Y-130156125D01*
X98448778Y-130163725D01*
X98478230Y-130174263D01*
X98506508Y-130187638D01*
X98533338Y-130203719D01*
X98558463Y-130222353D01*
X98581640Y-130243360D01*
X98602647Y-130266537D01*
X98621281Y-130291662D01*
X98637362Y-130318492D01*
X98650737Y-130346770D01*
X98661275Y-130376222D01*
X98668875Y-130406565D01*
X98673465Y-130437507D01*
X98675000Y-130468750D01*
X98675000Y-131106250D01*
X98673465Y-131137493D01*
X98668875Y-131168435D01*
X98661275Y-131198778D01*
X98650737Y-131228230D01*
X98637362Y-131256508D01*
X98621281Y-131283338D01*
X98602647Y-131308463D01*
X98581640Y-131331640D01*
X98558463Y-131352647D01*
X98533338Y-131371281D01*
X98506508Y-131387362D01*
X98478230Y-131400737D01*
X98448778Y-131411275D01*
X98418435Y-131418875D01*
X98387493Y-131423465D01*
X98356250Y-131425000D01*
X97643750Y-131425000D01*
X97612507Y-131423465D01*
X97581565Y-131418875D01*
X97551222Y-131411275D01*
X97521770Y-131400737D01*
X97493492Y-131387362D01*
X97466662Y-131371281D01*
X97441537Y-131352647D01*
X97418360Y-131331640D01*
X97397353Y-131308463D01*
X97378719Y-131283338D01*
X97362638Y-131256508D01*
X97349263Y-131228230D01*
X97338725Y-131198778D01*
X97331125Y-131168435D01*
X97326535Y-131137493D01*
X97325000Y-131106250D01*
X97325000Y-130468750D01*
X97326535Y-130437507D01*
X97331125Y-130406565D01*
X97338725Y-130376222D01*
X97349263Y-130346770D01*
X97362638Y-130318492D01*
X97378719Y-130291662D01*
X97397353Y-130266537D01*
X97418360Y-130243360D01*
X97441537Y-130222353D01*
X97466662Y-130203719D01*
X97493492Y-130187638D01*
X97521770Y-130174263D01*
X97551222Y-130163725D01*
X97581565Y-130156125D01*
X97612507Y-130151535D01*
X97643750Y-130150000D01*
X98356250Y-130150000D01*
X98387493Y-130151535D01*
X98387493Y-130151535D01*
G37*
D13*
X98000000Y-130787500D03*
D10*
G36*
X100387493Y-130151535D02*
X100418435Y-130156125D01*
X100448778Y-130163725D01*
X100478230Y-130174263D01*
X100506508Y-130187638D01*
X100533338Y-130203719D01*
X100558463Y-130222353D01*
X100581640Y-130243360D01*
X100602647Y-130266537D01*
X100621281Y-130291662D01*
X100637362Y-130318492D01*
X100650737Y-130346770D01*
X100661275Y-130376222D01*
X100668875Y-130406565D01*
X100673465Y-130437507D01*
X100675000Y-130468750D01*
X100675000Y-131106250D01*
X100673465Y-131137493D01*
X100668875Y-131168435D01*
X100661275Y-131198778D01*
X100650737Y-131228230D01*
X100637362Y-131256508D01*
X100621281Y-131283338D01*
X100602647Y-131308463D01*
X100581640Y-131331640D01*
X100558463Y-131352647D01*
X100533338Y-131371281D01*
X100506508Y-131387362D01*
X100478230Y-131400737D01*
X100448778Y-131411275D01*
X100418435Y-131418875D01*
X100387493Y-131423465D01*
X100356250Y-131425000D01*
X99643750Y-131425000D01*
X99612507Y-131423465D01*
X99581565Y-131418875D01*
X99551222Y-131411275D01*
X99521770Y-131400737D01*
X99493492Y-131387362D01*
X99466662Y-131371281D01*
X99441537Y-131352647D01*
X99418360Y-131331640D01*
X99397353Y-131308463D01*
X99378719Y-131283338D01*
X99362638Y-131256508D01*
X99349263Y-131228230D01*
X99338725Y-131198778D01*
X99331125Y-131168435D01*
X99326535Y-131137493D01*
X99325000Y-131106250D01*
X99325000Y-130468750D01*
X99326535Y-130437507D01*
X99331125Y-130406565D01*
X99338725Y-130376222D01*
X99349263Y-130346770D01*
X99362638Y-130318492D01*
X99378719Y-130291662D01*
X99397353Y-130266537D01*
X99418360Y-130243360D01*
X99441537Y-130222353D01*
X99466662Y-130203719D01*
X99493492Y-130187638D01*
X99521770Y-130174263D01*
X99551222Y-130163725D01*
X99581565Y-130156125D01*
X99612507Y-130151535D01*
X99643750Y-130150000D01*
X100356250Y-130150000D01*
X100387493Y-130151535D01*
X100387493Y-130151535D01*
G37*
D13*
X100000000Y-130787500D03*
D10*
G36*
X100387493Y-128576535D02*
X100418435Y-128581125D01*
X100448778Y-128588725D01*
X100478230Y-128599263D01*
X100506508Y-128612638D01*
X100533338Y-128628719D01*
X100558463Y-128647353D01*
X100581640Y-128668360D01*
X100602647Y-128691537D01*
X100621281Y-128716662D01*
X100637362Y-128743492D01*
X100650737Y-128771770D01*
X100661275Y-128801222D01*
X100668875Y-128831565D01*
X100673465Y-128862507D01*
X100675000Y-128893750D01*
X100675000Y-129531250D01*
X100673465Y-129562493D01*
X100668875Y-129593435D01*
X100661275Y-129623778D01*
X100650737Y-129653230D01*
X100637362Y-129681508D01*
X100621281Y-129708338D01*
X100602647Y-129733463D01*
X100581640Y-129756640D01*
X100558463Y-129777647D01*
X100533338Y-129796281D01*
X100506508Y-129812362D01*
X100478230Y-129825737D01*
X100448778Y-129836275D01*
X100418435Y-129843875D01*
X100387493Y-129848465D01*
X100356250Y-129850000D01*
X99643750Y-129850000D01*
X99612507Y-129848465D01*
X99581565Y-129843875D01*
X99551222Y-129836275D01*
X99521770Y-129825737D01*
X99493492Y-129812362D01*
X99466662Y-129796281D01*
X99441537Y-129777647D01*
X99418360Y-129756640D01*
X99397353Y-129733463D01*
X99378719Y-129708338D01*
X99362638Y-129681508D01*
X99349263Y-129653230D01*
X99338725Y-129623778D01*
X99331125Y-129593435D01*
X99326535Y-129562493D01*
X99325000Y-129531250D01*
X99325000Y-128893750D01*
X99326535Y-128862507D01*
X99331125Y-128831565D01*
X99338725Y-128801222D01*
X99349263Y-128771770D01*
X99362638Y-128743492D01*
X99378719Y-128716662D01*
X99397353Y-128691537D01*
X99418360Y-128668360D01*
X99441537Y-128647353D01*
X99466662Y-128628719D01*
X99493492Y-128612638D01*
X99521770Y-128599263D01*
X99551222Y-128588725D01*
X99581565Y-128581125D01*
X99612507Y-128576535D01*
X99643750Y-128575000D01*
X100356250Y-128575000D01*
X100387493Y-128576535D01*
X100387493Y-128576535D01*
G37*
D13*
X100000000Y-129212500D03*
D10*
G36*
X121387493Y-93076535D02*
X121418435Y-93081125D01*
X121448778Y-93088725D01*
X121478230Y-93099263D01*
X121506508Y-93112638D01*
X121533338Y-93128719D01*
X121558463Y-93147353D01*
X121581640Y-93168360D01*
X121602647Y-93191537D01*
X121621281Y-93216662D01*
X121637362Y-93243492D01*
X121650737Y-93271770D01*
X121661275Y-93301222D01*
X121668875Y-93331565D01*
X121673465Y-93362507D01*
X121675000Y-93393750D01*
X121675000Y-94031250D01*
X121673465Y-94062493D01*
X121668875Y-94093435D01*
X121661275Y-94123778D01*
X121650737Y-94153230D01*
X121637362Y-94181508D01*
X121621281Y-94208338D01*
X121602647Y-94233463D01*
X121581640Y-94256640D01*
X121558463Y-94277647D01*
X121533338Y-94296281D01*
X121506508Y-94312362D01*
X121478230Y-94325737D01*
X121448778Y-94336275D01*
X121418435Y-94343875D01*
X121387493Y-94348465D01*
X121356250Y-94350000D01*
X120643750Y-94350000D01*
X120612507Y-94348465D01*
X120581565Y-94343875D01*
X120551222Y-94336275D01*
X120521770Y-94325737D01*
X120493492Y-94312362D01*
X120466662Y-94296281D01*
X120441537Y-94277647D01*
X120418360Y-94256640D01*
X120397353Y-94233463D01*
X120378719Y-94208338D01*
X120362638Y-94181508D01*
X120349263Y-94153230D01*
X120338725Y-94123778D01*
X120331125Y-94093435D01*
X120326535Y-94062493D01*
X120325000Y-94031250D01*
X120325000Y-93393750D01*
X120326535Y-93362507D01*
X120331125Y-93331565D01*
X120338725Y-93301222D01*
X120349263Y-93271770D01*
X120362638Y-93243492D01*
X120378719Y-93216662D01*
X120397353Y-93191537D01*
X120418360Y-93168360D01*
X120441537Y-93147353D01*
X120466662Y-93128719D01*
X120493492Y-93112638D01*
X120521770Y-93099263D01*
X120551222Y-93088725D01*
X120581565Y-93081125D01*
X120612507Y-93076535D01*
X120643750Y-93075000D01*
X121356250Y-93075000D01*
X121387493Y-93076535D01*
X121387493Y-93076535D01*
G37*
D13*
X121000000Y-93712500D03*
D10*
G36*
X121387493Y-94651535D02*
X121418435Y-94656125D01*
X121448778Y-94663725D01*
X121478230Y-94674263D01*
X121506508Y-94687638D01*
X121533338Y-94703719D01*
X121558463Y-94722353D01*
X121581640Y-94743360D01*
X121602647Y-94766537D01*
X121621281Y-94791662D01*
X121637362Y-94818492D01*
X121650737Y-94846770D01*
X121661275Y-94876222D01*
X121668875Y-94906565D01*
X121673465Y-94937507D01*
X121675000Y-94968750D01*
X121675000Y-95606250D01*
X121673465Y-95637493D01*
X121668875Y-95668435D01*
X121661275Y-95698778D01*
X121650737Y-95728230D01*
X121637362Y-95756508D01*
X121621281Y-95783338D01*
X121602647Y-95808463D01*
X121581640Y-95831640D01*
X121558463Y-95852647D01*
X121533338Y-95871281D01*
X121506508Y-95887362D01*
X121478230Y-95900737D01*
X121448778Y-95911275D01*
X121418435Y-95918875D01*
X121387493Y-95923465D01*
X121356250Y-95925000D01*
X120643750Y-95925000D01*
X120612507Y-95923465D01*
X120581565Y-95918875D01*
X120551222Y-95911275D01*
X120521770Y-95900737D01*
X120493492Y-95887362D01*
X120466662Y-95871281D01*
X120441537Y-95852647D01*
X120418360Y-95831640D01*
X120397353Y-95808463D01*
X120378719Y-95783338D01*
X120362638Y-95756508D01*
X120349263Y-95728230D01*
X120338725Y-95698778D01*
X120331125Y-95668435D01*
X120326535Y-95637493D01*
X120325000Y-95606250D01*
X120325000Y-94968750D01*
X120326535Y-94937507D01*
X120331125Y-94906565D01*
X120338725Y-94876222D01*
X120349263Y-94846770D01*
X120362638Y-94818492D01*
X120378719Y-94791662D01*
X120397353Y-94766537D01*
X120418360Y-94743360D01*
X120441537Y-94722353D01*
X120466662Y-94703719D01*
X120493492Y-94687638D01*
X120521770Y-94674263D01*
X120551222Y-94663725D01*
X120581565Y-94656125D01*
X120612507Y-94651535D01*
X120643750Y-94650000D01*
X121356250Y-94650000D01*
X121387493Y-94651535D01*
X121387493Y-94651535D01*
G37*
D13*
X121000000Y-95287500D03*
D10*
G36*
X121387493Y-90651535D02*
X121418435Y-90656125D01*
X121448778Y-90663725D01*
X121478230Y-90674263D01*
X121506508Y-90687638D01*
X121533338Y-90703719D01*
X121558463Y-90722353D01*
X121581640Y-90743360D01*
X121602647Y-90766537D01*
X121621281Y-90791662D01*
X121637362Y-90818492D01*
X121650737Y-90846770D01*
X121661275Y-90876222D01*
X121668875Y-90906565D01*
X121673465Y-90937507D01*
X121675000Y-90968750D01*
X121675000Y-91606250D01*
X121673465Y-91637493D01*
X121668875Y-91668435D01*
X121661275Y-91698778D01*
X121650737Y-91728230D01*
X121637362Y-91756508D01*
X121621281Y-91783338D01*
X121602647Y-91808463D01*
X121581640Y-91831640D01*
X121558463Y-91852647D01*
X121533338Y-91871281D01*
X121506508Y-91887362D01*
X121478230Y-91900737D01*
X121448778Y-91911275D01*
X121418435Y-91918875D01*
X121387493Y-91923465D01*
X121356250Y-91925000D01*
X120643750Y-91925000D01*
X120612507Y-91923465D01*
X120581565Y-91918875D01*
X120551222Y-91911275D01*
X120521770Y-91900737D01*
X120493492Y-91887362D01*
X120466662Y-91871281D01*
X120441537Y-91852647D01*
X120418360Y-91831640D01*
X120397353Y-91808463D01*
X120378719Y-91783338D01*
X120362638Y-91756508D01*
X120349263Y-91728230D01*
X120338725Y-91698778D01*
X120331125Y-91668435D01*
X120326535Y-91637493D01*
X120325000Y-91606250D01*
X120325000Y-90968750D01*
X120326535Y-90937507D01*
X120331125Y-90906565D01*
X120338725Y-90876222D01*
X120349263Y-90846770D01*
X120362638Y-90818492D01*
X120378719Y-90791662D01*
X120397353Y-90766537D01*
X120418360Y-90743360D01*
X120441537Y-90722353D01*
X120466662Y-90703719D01*
X120493492Y-90687638D01*
X120521770Y-90674263D01*
X120551222Y-90663725D01*
X120581565Y-90656125D01*
X120612507Y-90651535D01*
X120643750Y-90650000D01*
X121356250Y-90650000D01*
X121387493Y-90651535D01*
X121387493Y-90651535D01*
G37*
D13*
X121000000Y-91287500D03*
D10*
G36*
X121387493Y-89076535D02*
X121418435Y-89081125D01*
X121448778Y-89088725D01*
X121478230Y-89099263D01*
X121506508Y-89112638D01*
X121533338Y-89128719D01*
X121558463Y-89147353D01*
X121581640Y-89168360D01*
X121602647Y-89191537D01*
X121621281Y-89216662D01*
X121637362Y-89243492D01*
X121650737Y-89271770D01*
X121661275Y-89301222D01*
X121668875Y-89331565D01*
X121673465Y-89362507D01*
X121675000Y-89393750D01*
X121675000Y-90031250D01*
X121673465Y-90062493D01*
X121668875Y-90093435D01*
X121661275Y-90123778D01*
X121650737Y-90153230D01*
X121637362Y-90181508D01*
X121621281Y-90208338D01*
X121602647Y-90233463D01*
X121581640Y-90256640D01*
X121558463Y-90277647D01*
X121533338Y-90296281D01*
X121506508Y-90312362D01*
X121478230Y-90325737D01*
X121448778Y-90336275D01*
X121418435Y-90343875D01*
X121387493Y-90348465D01*
X121356250Y-90350000D01*
X120643750Y-90350000D01*
X120612507Y-90348465D01*
X120581565Y-90343875D01*
X120551222Y-90336275D01*
X120521770Y-90325737D01*
X120493492Y-90312362D01*
X120466662Y-90296281D01*
X120441537Y-90277647D01*
X120418360Y-90256640D01*
X120397353Y-90233463D01*
X120378719Y-90208338D01*
X120362638Y-90181508D01*
X120349263Y-90153230D01*
X120338725Y-90123778D01*
X120331125Y-90093435D01*
X120326535Y-90062493D01*
X120325000Y-90031250D01*
X120325000Y-89393750D01*
X120326535Y-89362507D01*
X120331125Y-89331565D01*
X120338725Y-89301222D01*
X120349263Y-89271770D01*
X120362638Y-89243492D01*
X120378719Y-89216662D01*
X120397353Y-89191537D01*
X120418360Y-89168360D01*
X120441537Y-89147353D01*
X120466662Y-89128719D01*
X120493492Y-89112638D01*
X120521770Y-89099263D01*
X120551222Y-89088725D01*
X120581565Y-89081125D01*
X120612507Y-89076535D01*
X120643750Y-89075000D01*
X121356250Y-89075000D01*
X121387493Y-89076535D01*
X121387493Y-89076535D01*
G37*
D13*
X121000000Y-89712500D03*
D10*
G36*
X97887493Y-93651535D02*
X97918435Y-93656125D01*
X97948778Y-93663725D01*
X97978230Y-93674263D01*
X98006508Y-93687638D01*
X98033338Y-93703719D01*
X98058463Y-93722353D01*
X98081640Y-93743360D01*
X98102647Y-93766537D01*
X98121281Y-93791662D01*
X98137362Y-93818492D01*
X98150737Y-93846770D01*
X98161275Y-93876222D01*
X98168875Y-93906565D01*
X98173465Y-93937507D01*
X98175000Y-93968750D01*
X98175000Y-94606250D01*
X98173465Y-94637493D01*
X98168875Y-94668435D01*
X98161275Y-94698778D01*
X98150737Y-94728230D01*
X98137362Y-94756508D01*
X98121281Y-94783338D01*
X98102647Y-94808463D01*
X98081640Y-94831640D01*
X98058463Y-94852647D01*
X98033338Y-94871281D01*
X98006508Y-94887362D01*
X97978230Y-94900737D01*
X97948778Y-94911275D01*
X97918435Y-94918875D01*
X97887493Y-94923465D01*
X97856250Y-94925000D01*
X97143750Y-94925000D01*
X97112507Y-94923465D01*
X97081565Y-94918875D01*
X97051222Y-94911275D01*
X97021770Y-94900737D01*
X96993492Y-94887362D01*
X96966662Y-94871281D01*
X96941537Y-94852647D01*
X96918360Y-94831640D01*
X96897353Y-94808463D01*
X96878719Y-94783338D01*
X96862638Y-94756508D01*
X96849263Y-94728230D01*
X96838725Y-94698778D01*
X96831125Y-94668435D01*
X96826535Y-94637493D01*
X96825000Y-94606250D01*
X96825000Y-93968750D01*
X96826535Y-93937507D01*
X96831125Y-93906565D01*
X96838725Y-93876222D01*
X96849263Y-93846770D01*
X96862638Y-93818492D01*
X96878719Y-93791662D01*
X96897353Y-93766537D01*
X96918360Y-93743360D01*
X96941537Y-93722353D01*
X96966662Y-93703719D01*
X96993492Y-93687638D01*
X97021770Y-93674263D01*
X97051222Y-93663725D01*
X97081565Y-93656125D01*
X97112507Y-93651535D01*
X97143750Y-93650000D01*
X97856250Y-93650000D01*
X97887493Y-93651535D01*
X97887493Y-93651535D01*
G37*
D13*
X97500000Y-94287500D03*
D10*
G36*
X97887493Y-92076535D02*
X97918435Y-92081125D01*
X97948778Y-92088725D01*
X97978230Y-92099263D01*
X98006508Y-92112638D01*
X98033338Y-92128719D01*
X98058463Y-92147353D01*
X98081640Y-92168360D01*
X98102647Y-92191537D01*
X98121281Y-92216662D01*
X98137362Y-92243492D01*
X98150737Y-92271770D01*
X98161275Y-92301222D01*
X98168875Y-92331565D01*
X98173465Y-92362507D01*
X98175000Y-92393750D01*
X98175000Y-93031250D01*
X98173465Y-93062493D01*
X98168875Y-93093435D01*
X98161275Y-93123778D01*
X98150737Y-93153230D01*
X98137362Y-93181508D01*
X98121281Y-93208338D01*
X98102647Y-93233463D01*
X98081640Y-93256640D01*
X98058463Y-93277647D01*
X98033338Y-93296281D01*
X98006508Y-93312362D01*
X97978230Y-93325737D01*
X97948778Y-93336275D01*
X97918435Y-93343875D01*
X97887493Y-93348465D01*
X97856250Y-93350000D01*
X97143750Y-93350000D01*
X97112507Y-93348465D01*
X97081565Y-93343875D01*
X97051222Y-93336275D01*
X97021770Y-93325737D01*
X96993492Y-93312362D01*
X96966662Y-93296281D01*
X96941537Y-93277647D01*
X96918360Y-93256640D01*
X96897353Y-93233463D01*
X96878719Y-93208338D01*
X96862638Y-93181508D01*
X96849263Y-93153230D01*
X96838725Y-93123778D01*
X96831125Y-93093435D01*
X96826535Y-93062493D01*
X96825000Y-93031250D01*
X96825000Y-92393750D01*
X96826535Y-92362507D01*
X96831125Y-92331565D01*
X96838725Y-92301222D01*
X96849263Y-92271770D01*
X96862638Y-92243492D01*
X96878719Y-92216662D01*
X96897353Y-92191537D01*
X96918360Y-92168360D01*
X96941537Y-92147353D01*
X96966662Y-92128719D01*
X96993492Y-92112638D01*
X97021770Y-92099263D01*
X97051222Y-92088725D01*
X97081565Y-92081125D01*
X97112507Y-92076535D01*
X97143750Y-92075000D01*
X97856250Y-92075000D01*
X97887493Y-92076535D01*
X97887493Y-92076535D01*
G37*
D13*
X97500000Y-92712500D03*
D10*
G36*
X103637493Y-87826535D02*
X103668435Y-87831125D01*
X103698778Y-87838725D01*
X103728230Y-87849263D01*
X103756508Y-87862638D01*
X103783338Y-87878719D01*
X103808463Y-87897353D01*
X103831640Y-87918360D01*
X103852647Y-87941537D01*
X103871281Y-87966662D01*
X103887362Y-87993492D01*
X103900737Y-88021770D01*
X103911275Y-88051222D01*
X103918875Y-88081565D01*
X103923465Y-88112507D01*
X103925000Y-88143750D01*
X103925000Y-88856250D01*
X103923465Y-88887493D01*
X103918875Y-88918435D01*
X103911275Y-88948778D01*
X103900737Y-88978230D01*
X103887362Y-89006508D01*
X103871281Y-89033338D01*
X103852647Y-89058463D01*
X103831640Y-89081640D01*
X103808463Y-89102647D01*
X103783338Y-89121281D01*
X103756508Y-89137362D01*
X103728230Y-89150737D01*
X103698778Y-89161275D01*
X103668435Y-89168875D01*
X103637493Y-89173465D01*
X103606250Y-89175000D01*
X102968750Y-89175000D01*
X102937507Y-89173465D01*
X102906565Y-89168875D01*
X102876222Y-89161275D01*
X102846770Y-89150737D01*
X102818492Y-89137362D01*
X102791662Y-89121281D01*
X102766537Y-89102647D01*
X102743360Y-89081640D01*
X102722353Y-89058463D01*
X102703719Y-89033338D01*
X102687638Y-89006508D01*
X102674263Y-88978230D01*
X102663725Y-88948778D01*
X102656125Y-88918435D01*
X102651535Y-88887493D01*
X102650000Y-88856250D01*
X102650000Y-88143750D01*
X102651535Y-88112507D01*
X102656125Y-88081565D01*
X102663725Y-88051222D01*
X102674263Y-88021770D01*
X102687638Y-87993492D01*
X102703719Y-87966662D01*
X102722353Y-87941537D01*
X102743360Y-87918360D01*
X102766537Y-87897353D01*
X102791662Y-87878719D01*
X102818492Y-87862638D01*
X102846770Y-87849263D01*
X102876222Y-87838725D01*
X102906565Y-87831125D01*
X102937507Y-87826535D01*
X102968750Y-87825000D01*
X103606250Y-87825000D01*
X103637493Y-87826535D01*
X103637493Y-87826535D01*
G37*
D13*
X103287500Y-88500000D03*
D10*
G36*
X102062493Y-87826535D02*
X102093435Y-87831125D01*
X102123778Y-87838725D01*
X102153230Y-87849263D01*
X102181508Y-87862638D01*
X102208338Y-87878719D01*
X102233463Y-87897353D01*
X102256640Y-87918360D01*
X102277647Y-87941537D01*
X102296281Y-87966662D01*
X102312362Y-87993492D01*
X102325737Y-88021770D01*
X102336275Y-88051222D01*
X102343875Y-88081565D01*
X102348465Y-88112507D01*
X102350000Y-88143750D01*
X102350000Y-88856250D01*
X102348465Y-88887493D01*
X102343875Y-88918435D01*
X102336275Y-88948778D01*
X102325737Y-88978230D01*
X102312362Y-89006508D01*
X102296281Y-89033338D01*
X102277647Y-89058463D01*
X102256640Y-89081640D01*
X102233463Y-89102647D01*
X102208338Y-89121281D01*
X102181508Y-89137362D01*
X102153230Y-89150737D01*
X102123778Y-89161275D01*
X102093435Y-89168875D01*
X102062493Y-89173465D01*
X102031250Y-89175000D01*
X101393750Y-89175000D01*
X101362507Y-89173465D01*
X101331565Y-89168875D01*
X101301222Y-89161275D01*
X101271770Y-89150737D01*
X101243492Y-89137362D01*
X101216662Y-89121281D01*
X101191537Y-89102647D01*
X101168360Y-89081640D01*
X101147353Y-89058463D01*
X101128719Y-89033338D01*
X101112638Y-89006508D01*
X101099263Y-88978230D01*
X101088725Y-88948778D01*
X101081125Y-88918435D01*
X101076535Y-88887493D01*
X101075000Y-88856250D01*
X101075000Y-88143750D01*
X101076535Y-88112507D01*
X101081125Y-88081565D01*
X101088725Y-88051222D01*
X101099263Y-88021770D01*
X101112638Y-87993492D01*
X101128719Y-87966662D01*
X101147353Y-87941537D01*
X101168360Y-87918360D01*
X101191537Y-87897353D01*
X101216662Y-87878719D01*
X101243492Y-87862638D01*
X101271770Y-87849263D01*
X101301222Y-87838725D01*
X101331565Y-87831125D01*
X101362507Y-87826535D01*
X101393750Y-87825000D01*
X102031250Y-87825000D01*
X102062493Y-87826535D01*
X102062493Y-87826535D01*
G37*
D13*
X101712500Y-88500000D03*
D10*
G36*
X117062493Y-127576535D02*
X117093435Y-127581125D01*
X117123778Y-127588725D01*
X117153230Y-127599263D01*
X117181508Y-127612638D01*
X117208338Y-127628719D01*
X117233463Y-127647353D01*
X117256640Y-127668360D01*
X117277647Y-127691537D01*
X117296281Y-127716662D01*
X117312362Y-127743492D01*
X117325737Y-127771770D01*
X117336275Y-127801222D01*
X117343875Y-127831565D01*
X117348465Y-127862507D01*
X117350000Y-127893750D01*
X117350000Y-128606250D01*
X117348465Y-128637493D01*
X117343875Y-128668435D01*
X117336275Y-128698778D01*
X117325737Y-128728230D01*
X117312362Y-128756508D01*
X117296281Y-128783338D01*
X117277647Y-128808463D01*
X117256640Y-128831640D01*
X117233463Y-128852647D01*
X117208338Y-128871281D01*
X117181508Y-128887362D01*
X117153230Y-128900737D01*
X117123778Y-128911275D01*
X117093435Y-128918875D01*
X117062493Y-128923465D01*
X117031250Y-128925000D01*
X116393750Y-128925000D01*
X116362507Y-128923465D01*
X116331565Y-128918875D01*
X116301222Y-128911275D01*
X116271770Y-128900737D01*
X116243492Y-128887362D01*
X116216662Y-128871281D01*
X116191537Y-128852647D01*
X116168360Y-128831640D01*
X116147353Y-128808463D01*
X116128719Y-128783338D01*
X116112638Y-128756508D01*
X116099263Y-128728230D01*
X116088725Y-128698778D01*
X116081125Y-128668435D01*
X116076535Y-128637493D01*
X116075000Y-128606250D01*
X116075000Y-127893750D01*
X116076535Y-127862507D01*
X116081125Y-127831565D01*
X116088725Y-127801222D01*
X116099263Y-127771770D01*
X116112638Y-127743492D01*
X116128719Y-127716662D01*
X116147353Y-127691537D01*
X116168360Y-127668360D01*
X116191537Y-127647353D01*
X116216662Y-127628719D01*
X116243492Y-127612638D01*
X116271770Y-127599263D01*
X116301222Y-127588725D01*
X116331565Y-127581125D01*
X116362507Y-127576535D01*
X116393750Y-127575000D01*
X117031250Y-127575000D01*
X117062493Y-127576535D01*
X117062493Y-127576535D01*
G37*
D13*
X116712500Y-128250000D03*
D10*
G36*
X118637493Y-127576535D02*
X118668435Y-127581125D01*
X118698778Y-127588725D01*
X118728230Y-127599263D01*
X118756508Y-127612638D01*
X118783338Y-127628719D01*
X118808463Y-127647353D01*
X118831640Y-127668360D01*
X118852647Y-127691537D01*
X118871281Y-127716662D01*
X118887362Y-127743492D01*
X118900737Y-127771770D01*
X118911275Y-127801222D01*
X118918875Y-127831565D01*
X118923465Y-127862507D01*
X118925000Y-127893750D01*
X118925000Y-128606250D01*
X118923465Y-128637493D01*
X118918875Y-128668435D01*
X118911275Y-128698778D01*
X118900737Y-128728230D01*
X118887362Y-128756508D01*
X118871281Y-128783338D01*
X118852647Y-128808463D01*
X118831640Y-128831640D01*
X118808463Y-128852647D01*
X118783338Y-128871281D01*
X118756508Y-128887362D01*
X118728230Y-128900737D01*
X118698778Y-128911275D01*
X118668435Y-128918875D01*
X118637493Y-128923465D01*
X118606250Y-128925000D01*
X117968750Y-128925000D01*
X117937507Y-128923465D01*
X117906565Y-128918875D01*
X117876222Y-128911275D01*
X117846770Y-128900737D01*
X117818492Y-128887362D01*
X117791662Y-128871281D01*
X117766537Y-128852647D01*
X117743360Y-128831640D01*
X117722353Y-128808463D01*
X117703719Y-128783338D01*
X117687638Y-128756508D01*
X117674263Y-128728230D01*
X117663725Y-128698778D01*
X117656125Y-128668435D01*
X117651535Y-128637493D01*
X117650000Y-128606250D01*
X117650000Y-127893750D01*
X117651535Y-127862507D01*
X117656125Y-127831565D01*
X117663725Y-127801222D01*
X117674263Y-127771770D01*
X117687638Y-127743492D01*
X117703719Y-127716662D01*
X117722353Y-127691537D01*
X117743360Y-127668360D01*
X117766537Y-127647353D01*
X117791662Y-127628719D01*
X117818492Y-127612638D01*
X117846770Y-127599263D01*
X117876222Y-127588725D01*
X117906565Y-127581125D01*
X117937507Y-127576535D01*
X117968750Y-127575000D01*
X118606250Y-127575000D01*
X118637493Y-127576535D01*
X118637493Y-127576535D01*
G37*
D13*
X118287500Y-128250000D03*
D10*
G36*
X121312493Y-119076535D02*
X121343435Y-119081125D01*
X121373778Y-119088725D01*
X121403230Y-119099263D01*
X121431508Y-119112638D01*
X121458338Y-119128719D01*
X121483463Y-119147353D01*
X121506640Y-119168360D01*
X121527647Y-119191537D01*
X121546281Y-119216662D01*
X121562362Y-119243492D01*
X121575737Y-119271770D01*
X121586275Y-119301222D01*
X121593875Y-119331565D01*
X121598465Y-119362507D01*
X121600000Y-119393750D01*
X121600000Y-120106250D01*
X121598465Y-120137493D01*
X121593875Y-120168435D01*
X121586275Y-120198778D01*
X121575737Y-120228230D01*
X121562362Y-120256508D01*
X121546281Y-120283338D01*
X121527647Y-120308463D01*
X121506640Y-120331640D01*
X121483463Y-120352647D01*
X121458338Y-120371281D01*
X121431508Y-120387362D01*
X121403230Y-120400737D01*
X121373778Y-120411275D01*
X121343435Y-120418875D01*
X121312493Y-120423465D01*
X121281250Y-120425000D01*
X120643750Y-120425000D01*
X120612507Y-120423465D01*
X120581565Y-120418875D01*
X120551222Y-120411275D01*
X120521770Y-120400737D01*
X120493492Y-120387362D01*
X120466662Y-120371281D01*
X120441537Y-120352647D01*
X120418360Y-120331640D01*
X120397353Y-120308463D01*
X120378719Y-120283338D01*
X120362638Y-120256508D01*
X120349263Y-120228230D01*
X120338725Y-120198778D01*
X120331125Y-120168435D01*
X120326535Y-120137493D01*
X120325000Y-120106250D01*
X120325000Y-119393750D01*
X120326535Y-119362507D01*
X120331125Y-119331565D01*
X120338725Y-119301222D01*
X120349263Y-119271770D01*
X120362638Y-119243492D01*
X120378719Y-119216662D01*
X120397353Y-119191537D01*
X120418360Y-119168360D01*
X120441537Y-119147353D01*
X120466662Y-119128719D01*
X120493492Y-119112638D01*
X120521770Y-119099263D01*
X120551222Y-119088725D01*
X120581565Y-119081125D01*
X120612507Y-119076535D01*
X120643750Y-119075000D01*
X121281250Y-119075000D01*
X121312493Y-119076535D01*
X121312493Y-119076535D01*
G37*
D13*
X120962500Y-119750000D03*
D10*
G36*
X122887493Y-119076535D02*
X122918435Y-119081125D01*
X122948778Y-119088725D01*
X122978230Y-119099263D01*
X123006508Y-119112638D01*
X123033338Y-119128719D01*
X123058463Y-119147353D01*
X123081640Y-119168360D01*
X123102647Y-119191537D01*
X123121281Y-119216662D01*
X123137362Y-119243492D01*
X123150737Y-119271770D01*
X123161275Y-119301222D01*
X123168875Y-119331565D01*
X123173465Y-119362507D01*
X123175000Y-119393750D01*
X123175000Y-120106250D01*
X123173465Y-120137493D01*
X123168875Y-120168435D01*
X123161275Y-120198778D01*
X123150737Y-120228230D01*
X123137362Y-120256508D01*
X123121281Y-120283338D01*
X123102647Y-120308463D01*
X123081640Y-120331640D01*
X123058463Y-120352647D01*
X123033338Y-120371281D01*
X123006508Y-120387362D01*
X122978230Y-120400737D01*
X122948778Y-120411275D01*
X122918435Y-120418875D01*
X122887493Y-120423465D01*
X122856250Y-120425000D01*
X122218750Y-120425000D01*
X122187507Y-120423465D01*
X122156565Y-120418875D01*
X122126222Y-120411275D01*
X122096770Y-120400737D01*
X122068492Y-120387362D01*
X122041662Y-120371281D01*
X122016537Y-120352647D01*
X121993360Y-120331640D01*
X121972353Y-120308463D01*
X121953719Y-120283338D01*
X121937638Y-120256508D01*
X121924263Y-120228230D01*
X121913725Y-120198778D01*
X121906125Y-120168435D01*
X121901535Y-120137493D01*
X121900000Y-120106250D01*
X121900000Y-119393750D01*
X121901535Y-119362507D01*
X121906125Y-119331565D01*
X121913725Y-119301222D01*
X121924263Y-119271770D01*
X121937638Y-119243492D01*
X121953719Y-119216662D01*
X121972353Y-119191537D01*
X121993360Y-119168360D01*
X122016537Y-119147353D01*
X122041662Y-119128719D01*
X122068492Y-119112638D01*
X122096770Y-119099263D01*
X122126222Y-119088725D01*
X122156565Y-119081125D01*
X122187507Y-119076535D01*
X122218750Y-119075000D01*
X122856250Y-119075000D01*
X122887493Y-119076535D01*
X122887493Y-119076535D01*
G37*
D13*
X122537500Y-119750000D03*
D10*
G36*
X116562493Y-92826535D02*
X116593435Y-92831125D01*
X116623778Y-92838725D01*
X116653230Y-92849263D01*
X116681508Y-92862638D01*
X116708338Y-92878719D01*
X116733463Y-92897353D01*
X116756640Y-92918360D01*
X116777647Y-92941537D01*
X116796281Y-92966662D01*
X116812362Y-92993492D01*
X116825737Y-93021770D01*
X116836275Y-93051222D01*
X116843875Y-93081565D01*
X116848465Y-93112507D01*
X116850000Y-93143750D01*
X116850000Y-93856250D01*
X116848465Y-93887493D01*
X116843875Y-93918435D01*
X116836275Y-93948778D01*
X116825737Y-93978230D01*
X116812362Y-94006508D01*
X116796281Y-94033338D01*
X116777647Y-94058463D01*
X116756640Y-94081640D01*
X116733463Y-94102647D01*
X116708338Y-94121281D01*
X116681508Y-94137362D01*
X116653230Y-94150737D01*
X116623778Y-94161275D01*
X116593435Y-94168875D01*
X116562493Y-94173465D01*
X116531250Y-94175000D01*
X115893750Y-94175000D01*
X115862507Y-94173465D01*
X115831565Y-94168875D01*
X115801222Y-94161275D01*
X115771770Y-94150737D01*
X115743492Y-94137362D01*
X115716662Y-94121281D01*
X115691537Y-94102647D01*
X115668360Y-94081640D01*
X115647353Y-94058463D01*
X115628719Y-94033338D01*
X115612638Y-94006508D01*
X115599263Y-93978230D01*
X115588725Y-93948778D01*
X115581125Y-93918435D01*
X115576535Y-93887493D01*
X115575000Y-93856250D01*
X115575000Y-93143750D01*
X115576535Y-93112507D01*
X115581125Y-93081565D01*
X115588725Y-93051222D01*
X115599263Y-93021770D01*
X115612638Y-92993492D01*
X115628719Y-92966662D01*
X115647353Y-92941537D01*
X115668360Y-92918360D01*
X115691537Y-92897353D01*
X115716662Y-92878719D01*
X115743492Y-92862638D01*
X115771770Y-92849263D01*
X115801222Y-92838725D01*
X115831565Y-92831125D01*
X115862507Y-92826535D01*
X115893750Y-92825000D01*
X116531250Y-92825000D01*
X116562493Y-92826535D01*
X116562493Y-92826535D01*
G37*
D13*
X116212500Y-93500000D03*
D10*
G36*
X118137493Y-92826535D02*
X118168435Y-92831125D01*
X118198778Y-92838725D01*
X118228230Y-92849263D01*
X118256508Y-92862638D01*
X118283338Y-92878719D01*
X118308463Y-92897353D01*
X118331640Y-92918360D01*
X118352647Y-92941537D01*
X118371281Y-92966662D01*
X118387362Y-92993492D01*
X118400737Y-93021770D01*
X118411275Y-93051222D01*
X118418875Y-93081565D01*
X118423465Y-93112507D01*
X118425000Y-93143750D01*
X118425000Y-93856250D01*
X118423465Y-93887493D01*
X118418875Y-93918435D01*
X118411275Y-93948778D01*
X118400737Y-93978230D01*
X118387362Y-94006508D01*
X118371281Y-94033338D01*
X118352647Y-94058463D01*
X118331640Y-94081640D01*
X118308463Y-94102647D01*
X118283338Y-94121281D01*
X118256508Y-94137362D01*
X118228230Y-94150737D01*
X118198778Y-94161275D01*
X118168435Y-94168875D01*
X118137493Y-94173465D01*
X118106250Y-94175000D01*
X117468750Y-94175000D01*
X117437507Y-94173465D01*
X117406565Y-94168875D01*
X117376222Y-94161275D01*
X117346770Y-94150737D01*
X117318492Y-94137362D01*
X117291662Y-94121281D01*
X117266537Y-94102647D01*
X117243360Y-94081640D01*
X117222353Y-94058463D01*
X117203719Y-94033338D01*
X117187638Y-94006508D01*
X117174263Y-93978230D01*
X117163725Y-93948778D01*
X117156125Y-93918435D01*
X117151535Y-93887493D01*
X117150000Y-93856250D01*
X117150000Y-93143750D01*
X117151535Y-93112507D01*
X117156125Y-93081565D01*
X117163725Y-93051222D01*
X117174263Y-93021770D01*
X117187638Y-92993492D01*
X117203719Y-92966662D01*
X117222353Y-92941537D01*
X117243360Y-92918360D01*
X117266537Y-92897353D01*
X117291662Y-92878719D01*
X117318492Y-92862638D01*
X117346770Y-92849263D01*
X117376222Y-92838725D01*
X117406565Y-92831125D01*
X117437507Y-92826535D01*
X117468750Y-92825000D01*
X118106250Y-92825000D01*
X118137493Y-92826535D01*
X118137493Y-92826535D01*
G37*
D13*
X117787500Y-93500000D03*
D10*
G36*
X116562493Y-95326535D02*
X116593435Y-95331125D01*
X116623778Y-95338725D01*
X116653230Y-95349263D01*
X116681508Y-95362638D01*
X116708338Y-95378719D01*
X116733463Y-95397353D01*
X116756640Y-95418360D01*
X116777647Y-95441537D01*
X116796281Y-95466662D01*
X116812362Y-95493492D01*
X116825737Y-95521770D01*
X116836275Y-95551222D01*
X116843875Y-95581565D01*
X116848465Y-95612507D01*
X116850000Y-95643750D01*
X116850000Y-96356250D01*
X116848465Y-96387493D01*
X116843875Y-96418435D01*
X116836275Y-96448778D01*
X116825737Y-96478230D01*
X116812362Y-96506508D01*
X116796281Y-96533338D01*
X116777647Y-96558463D01*
X116756640Y-96581640D01*
X116733463Y-96602647D01*
X116708338Y-96621281D01*
X116681508Y-96637362D01*
X116653230Y-96650737D01*
X116623778Y-96661275D01*
X116593435Y-96668875D01*
X116562493Y-96673465D01*
X116531250Y-96675000D01*
X115893750Y-96675000D01*
X115862507Y-96673465D01*
X115831565Y-96668875D01*
X115801222Y-96661275D01*
X115771770Y-96650737D01*
X115743492Y-96637362D01*
X115716662Y-96621281D01*
X115691537Y-96602647D01*
X115668360Y-96581640D01*
X115647353Y-96558463D01*
X115628719Y-96533338D01*
X115612638Y-96506508D01*
X115599263Y-96478230D01*
X115588725Y-96448778D01*
X115581125Y-96418435D01*
X115576535Y-96387493D01*
X115575000Y-96356250D01*
X115575000Y-95643750D01*
X115576535Y-95612507D01*
X115581125Y-95581565D01*
X115588725Y-95551222D01*
X115599263Y-95521770D01*
X115612638Y-95493492D01*
X115628719Y-95466662D01*
X115647353Y-95441537D01*
X115668360Y-95418360D01*
X115691537Y-95397353D01*
X115716662Y-95378719D01*
X115743492Y-95362638D01*
X115771770Y-95349263D01*
X115801222Y-95338725D01*
X115831565Y-95331125D01*
X115862507Y-95326535D01*
X115893750Y-95325000D01*
X116531250Y-95325000D01*
X116562493Y-95326535D01*
X116562493Y-95326535D01*
G37*
D13*
X116212500Y-96000000D03*
D10*
G36*
X118137493Y-95326535D02*
X118168435Y-95331125D01*
X118198778Y-95338725D01*
X118228230Y-95349263D01*
X118256508Y-95362638D01*
X118283338Y-95378719D01*
X118308463Y-95397353D01*
X118331640Y-95418360D01*
X118352647Y-95441537D01*
X118371281Y-95466662D01*
X118387362Y-95493492D01*
X118400737Y-95521770D01*
X118411275Y-95551222D01*
X118418875Y-95581565D01*
X118423465Y-95612507D01*
X118425000Y-95643750D01*
X118425000Y-96356250D01*
X118423465Y-96387493D01*
X118418875Y-96418435D01*
X118411275Y-96448778D01*
X118400737Y-96478230D01*
X118387362Y-96506508D01*
X118371281Y-96533338D01*
X118352647Y-96558463D01*
X118331640Y-96581640D01*
X118308463Y-96602647D01*
X118283338Y-96621281D01*
X118256508Y-96637362D01*
X118228230Y-96650737D01*
X118198778Y-96661275D01*
X118168435Y-96668875D01*
X118137493Y-96673465D01*
X118106250Y-96675000D01*
X117468750Y-96675000D01*
X117437507Y-96673465D01*
X117406565Y-96668875D01*
X117376222Y-96661275D01*
X117346770Y-96650737D01*
X117318492Y-96637362D01*
X117291662Y-96621281D01*
X117266537Y-96602647D01*
X117243360Y-96581640D01*
X117222353Y-96558463D01*
X117203719Y-96533338D01*
X117187638Y-96506508D01*
X117174263Y-96478230D01*
X117163725Y-96448778D01*
X117156125Y-96418435D01*
X117151535Y-96387493D01*
X117150000Y-96356250D01*
X117150000Y-95643750D01*
X117151535Y-95612507D01*
X117156125Y-95581565D01*
X117163725Y-95551222D01*
X117174263Y-95521770D01*
X117187638Y-95493492D01*
X117203719Y-95466662D01*
X117222353Y-95441537D01*
X117243360Y-95418360D01*
X117266537Y-95397353D01*
X117291662Y-95378719D01*
X117318492Y-95362638D01*
X117346770Y-95349263D01*
X117376222Y-95338725D01*
X117406565Y-95331125D01*
X117437507Y-95326535D01*
X117468750Y-95325000D01*
X118106250Y-95325000D01*
X118137493Y-95326535D01*
X118137493Y-95326535D01*
G37*
D13*
X117787500Y-96000000D03*
D10*
G36*
X113137493Y-111326535D02*
X113168435Y-111331125D01*
X113198778Y-111338725D01*
X113228230Y-111349263D01*
X113256508Y-111362638D01*
X113283338Y-111378719D01*
X113308463Y-111397353D01*
X113331640Y-111418360D01*
X113352647Y-111441537D01*
X113371281Y-111466662D01*
X113387362Y-111493492D01*
X113400737Y-111521770D01*
X113411275Y-111551222D01*
X113418875Y-111581565D01*
X113423465Y-111612507D01*
X113425000Y-111643750D01*
X113425000Y-112356250D01*
X113423465Y-112387493D01*
X113418875Y-112418435D01*
X113411275Y-112448778D01*
X113400737Y-112478230D01*
X113387362Y-112506508D01*
X113371281Y-112533338D01*
X113352647Y-112558463D01*
X113331640Y-112581640D01*
X113308463Y-112602647D01*
X113283338Y-112621281D01*
X113256508Y-112637362D01*
X113228230Y-112650737D01*
X113198778Y-112661275D01*
X113168435Y-112668875D01*
X113137493Y-112673465D01*
X113106250Y-112675000D01*
X112468750Y-112675000D01*
X112437507Y-112673465D01*
X112406565Y-112668875D01*
X112376222Y-112661275D01*
X112346770Y-112650737D01*
X112318492Y-112637362D01*
X112291662Y-112621281D01*
X112266537Y-112602647D01*
X112243360Y-112581640D01*
X112222353Y-112558463D01*
X112203719Y-112533338D01*
X112187638Y-112506508D01*
X112174263Y-112478230D01*
X112163725Y-112448778D01*
X112156125Y-112418435D01*
X112151535Y-112387493D01*
X112150000Y-112356250D01*
X112150000Y-111643750D01*
X112151535Y-111612507D01*
X112156125Y-111581565D01*
X112163725Y-111551222D01*
X112174263Y-111521770D01*
X112187638Y-111493492D01*
X112203719Y-111466662D01*
X112222353Y-111441537D01*
X112243360Y-111418360D01*
X112266537Y-111397353D01*
X112291662Y-111378719D01*
X112318492Y-111362638D01*
X112346770Y-111349263D01*
X112376222Y-111338725D01*
X112406565Y-111331125D01*
X112437507Y-111326535D01*
X112468750Y-111325000D01*
X113106250Y-111325000D01*
X113137493Y-111326535D01*
X113137493Y-111326535D01*
G37*
D13*
X112787500Y-112000000D03*
D10*
G36*
X111562493Y-111326535D02*
X111593435Y-111331125D01*
X111623778Y-111338725D01*
X111653230Y-111349263D01*
X111681508Y-111362638D01*
X111708338Y-111378719D01*
X111733463Y-111397353D01*
X111756640Y-111418360D01*
X111777647Y-111441537D01*
X111796281Y-111466662D01*
X111812362Y-111493492D01*
X111825737Y-111521770D01*
X111836275Y-111551222D01*
X111843875Y-111581565D01*
X111848465Y-111612507D01*
X111850000Y-111643750D01*
X111850000Y-112356250D01*
X111848465Y-112387493D01*
X111843875Y-112418435D01*
X111836275Y-112448778D01*
X111825737Y-112478230D01*
X111812362Y-112506508D01*
X111796281Y-112533338D01*
X111777647Y-112558463D01*
X111756640Y-112581640D01*
X111733463Y-112602647D01*
X111708338Y-112621281D01*
X111681508Y-112637362D01*
X111653230Y-112650737D01*
X111623778Y-112661275D01*
X111593435Y-112668875D01*
X111562493Y-112673465D01*
X111531250Y-112675000D01*
X110893750Y-112675000D01*
X110862507Y-112673465D01*
X110831565Y-112668875D01*
X110801222Y-112661275D01*
X110771770Y-112650737D01*
X110743492Y-112637362D01*
X110716662Y-112621281D01*
X110691537Y-112602647D01*
X110668360Y-112581640D01*
X110647353Y-112558463D01*
X110628719Y-112533338D01*
X110612638Y-112506508D01*
X110599263Y-112478230D01*
X110588725Y-112448778D01*
X110581125Y-112418435D01*
X110576535Y-112387493D01*
X110575000Y-112356250D01*
X110575000Y-111643750D01*
X110576535Y-111612507D01*
X110581125Y-111581565D01*
X110588725Y-111551222D01*
X110599263Y-111521770D01*
X110612638Y-111493492D01*
X110628719Y-111466662D01*
X110647353Y-111441537D01*
X110668360Y-111418360D01*
X110691537Y-111397353D01*
X110716662Y-111378719D01*
X110743492Y-111362638D01*
X110771770Y-111349263D01*
X110801222Y-111338725D01*
X110831565Y-111331125D01*
X110862507Y-111326535D01*
X110893750Y-111325000D01*
X111531250Y-111325000D01*
X111562493Y-111326535D01*
X111562493Y-111326535D01*
G37*
D13*
X111212500Y-112000000D03*
D10*
G36*
X117100493Y-131576535D02*
X117131435Y-131581125D01*
X117161778Y-131588725D01*
X117191230Y-131599263D01*
X117219508Y-131612638D01*
X117246338Y-131628719D01*
X117271463Y-131647353D01*
X117294640Y-131668360D01*
X117315647Y-131691537D01*
X117334281Y-131716662D01*
X117350362Y-131743492D01*
X117363737Y-131771770D01*
X117374275Y-131801222D01*
X117381875Y-131831565D01*
X117386465Y-131862507D01*
X117388000Y-131893750D01*
X117388000Y-132606250D01*
X117386465Y-132637493D01*
X117381875Y-132668435D01*
X117374275Y-132698778D01*
X117363737Y-132728230D01*
X117350362Y-132756508D01*
X117334281Y-132783338D01*
X117315647Y-132808463D01*
X117294640Y-132831640D01*
X117271463Y-132852647D01*
X117246338Y-132871281D01*
X117219508Y-132887362D01*
X117191230Y-132900737D01*
X117161778Y-132911275D01*
X117131435Y-132918875D01*
X117100493Y-132923465D01*
X117069250Y-132925000D01*
X116431750Y-132925000D01*
X116400507Y-132923465D01*
X116369565Y-132918875D01*
X116339222Y-132911275D01*
X116309770Y-132900737D01*
X116281492Y-132887362D01*
X116254662Y-132871281D01*
X116229537Y-132852647D01*
X116206360Y-132831640D01*
X116185353Y-132808463D01*
X116166719Y-132783338D01*
X116150638Y-132756508D01*
X116137263Y-132728230D01*
X116126725Y-132698778D01*
X116119125Y-132668435D01*
X116114535Y-132637493D01*
X116113000Y-132606250D01*
X116113000Y-131893750D01*
X116114535Y-131862507D01*
X116119125Y-131831565D01*
X116126725Y-131801222D01*
X116137263Y-131771770D01*
X116150638Y-131743492D01*
X116166719Y-131716662D01*
X116185353Y-131691537D01*
X116206360Y-131668360D01*
X116229537Y-131647353D01*
X116254662Y-131628719D01*
X116281492Y-131612638D01*
X116309770Y-131599263D01*
X116339222Y-131588725D01*
X116369565Y-131581125D01*
X116400507Y-131576535D01*
X116431750Y-131575000D01*
X117069250Y-131575000D01*
X117100493Y-131576535D01*
X117100493Y-131576535D01*
G37*
D13*
X116750500Y-132250000D03*
D10*
G36*
X118675493Y-131576535D02*
X118706435Y-131581125D01*
X118736778Y-131588725D01*
X118766230Y-131599263D01*
X118794508Y-131612638D01*
X118821338Y-131628719D01*
X118846463Y-131647353D01*
X118869640Y-131668360D01*
X118890647Y-131691537D01*
X118909281Y-131716662D01*
X118925362Y-131743492D01*
X118938737Y-131771770D01*
X118949275Y-131801222D01*
X118956875Y-131831565D01*
X118961465Y-131862507D01*
X118963000Y-131893750D01*
X118963000Y-132606250D01*
X118961465Y-132637493D01*
X118956875Y-132668435D01*
X118949275Y-132698778D01*
X118938737Y-132728230D01*
X118925362Y-132756508D01*
X118909281Y-132783338D01*
X118890647Y-132808463D01*
X118869640Y-132831640D01*
X118846463Y-132852647D01*
X118821338Y-132871281D01*
X118794508Y-132887362D01*
X118766230Y-132900737D01*
X118736778Y-132911275D01*
X118706435Y-132918875D01*
X118675493Y-132923465D01*
X118644250Y-132925000D01*
X118006750Y-132925000D01*
X117975507Y-132923465D01*
X117944565Y-132918875D01*
X117914222Y-132911275D01*
X117884770Y-132900737D01*
X117856492Y-132887362D01*
X117829662Y-132871281D01*
X117804537Y-132852647D01*
X117781360Y-132831640D01*
X117760353Y-132808463D01*
X117741719Y-132783338D01*
X117725638Y-132756508D01*
X117712263Y-132728230D01*
X117701725Y-132698778D01*
X117694125Y-132668435D01*
X117689535Y-132637493D01*
X117688000Y-132606250D01*
X117688000Y-131893750D01*
X117689535Y-131862507D01*
X117694125Y-131831565D01*
X117701725Y-131801222D01*
X117712263Y-131771770D01*
X117725638Y-131743492D01*
X117741719Y-131716662D01*
X117760353Y-131691537D01*
X117781360Y-131668360D01*
X117804537Y-131647353D01*
X117829662Y-131628719D01*
X117856492Y-131612638D01*
X117884770Y-131599263D01*
X117914222Y-131588725D01*
X117944565Y-131581125D01*
X117975507Y-131576535D01*
X118006750Y-131575000D01*
X118644250Y-131575000D01*
X118675493Y-131576535D01*
X118675493Y-131576535D01*
G37*
D13*
X118325500Y-132250000D03*
D24*
X113000000Y-108000000D03*
X106000000Y-108000000D03*
X109500000Y-108000000D03*
D25*
X93300000Y-135230000D03*
X95840000Y-135230000D03*
X98380000Y-135230000D03*
X100920000Y-135230000D03*
X103460000Y-135230000D03*
X106000000Y-135230000D03*
X108540000Y-135230000D03*
X111080000Y-135230000D03*
X113620000Y-135230000D03*
X116160000Y-135230000D03*
X118700000Y-135230000D03*
X121240000Y-135230000D03*
X123780000Y-135230000D03*
X126320000Y-135230000D03*
X128860000Y-135230000D03*
X131400000Y-135230000D03*
X131400000Y-114910000D03*
X128860000Y-114910000D03*
X126320000Y-114910000D03*
X123780000Y-114910000D03*
X121240000Y-114910000D03*
X118700000Y-114910000D03*
X116160000Y-114910000D03*
X113620000Y-114910000D03*
X111080000Y-114910000D03*
X108540000Y-114910000D03*
X106000000Y-114910000D03*
X103460000Y-114910000D03*
D26*
X89490000Y-116180000D03*
X89490000Y-133960000D03*
D27*
X135210000Y-116180000D03*
X135210000Y-133960000D03*
M02*
